<?xml version="1.0" encoding="UTF-8"?>
<svg width="16px" height="16px" viewBox="0 0 16 16" version="1.1" xmlns="http://www.w3.org/2000/svg" xmlns:xlink="http://www.w3.org/1999/xlink">
    <title>apple</title>
    <g id="页面-1" stroke="none" stroke-width="1" fill="none" fill-rule="evenodd">
        <g id="Home_x" transform="translate(-100.000000, -623.000000)" fill="#000000" fill-rule="nonzero">
            <g id="编组-3备份" transform="translate(61.500000, 607.000000)">
                <g id="apple" transform="translate(38.500000, 16.000000)">
                    <rect id="矩形" opacity="0" x="0" y="0" width="16" height="16"></rect>
                    <path d="M11.9738281,8.41765625 C11.9738281,6.5063125 13.582875,5.70792187 13.582875,5.70792187 C13.582875,5.70792187 12.5467188,4.2768125 11.0108281,4.2768125 C9.71629688,4.2768125 9.23907813,4.88626562 8.2389375,4.88626562 C7.24609375,4.88626562 6.69573438,4.2768125 5.48896875,4.2768125 C3.95309375,4.2768125 1.99789063,5.76575 1.99789063,8.40853125 C1.99789063,11.9580625 4.48457813,14.9914219 5.86196875,14.9914219 C6.49334375,14.9914219 7.23842188,14.3991406 8.28767188,14.3990469 C9.31170313,14.3988906 9.9454375,14.991 10.6378281,14.991 C11.2668125,14.991 11.8445781,14.6687344 12.7588125,13.4692656 C13.6730156,12.2698281 14.002125,11.2376719 14.002125,11.2376719 C13.7875781,11.1596094 11.9738281,10.3289531 11.9738281,8.41765625 Z M10.73175,1.29676562 C10.73175,1.19957812 10.7266719,1.10357812 10.7179844,1.0085625 C9.089375,1.11125 7.80009375,2.46382813 7.80009375,4.11839062 C7.80009375,4.21557813 7.8051875,4.311625 7.813875,4.40653125 C9.44248437,4.30392188 10.73175,2.95128125 10.73175,1.29676562 Z" id="形状"></path>
                </g>
            </g>
        </g>
    </g>
</svg>