<svg xmlns="http://www.w3.org/2000/svg" xmlns:xlink="http://www.w3.org/1999/xlink" fill="none" version="1.1" width="375" height="294" viewBox="0 0 375 294"><defs><mask id="master_svg0_16_5647" style="mask-type:alpha" maskUnits="userSpaceOnUse"><g><rect x="0" y="0" width="375" height="294" rx="0" fill="#FFFFFF" fill-opacity="1"/></g></mask><mask id="master_svg1_0_2528" style="mask-type:alpha" maskUnits="userSpaceOnUse"><g><path d="M306.9549653479004,41.98398837890625C307.1225053479004,41.52628837890625,307.2657053479004,41.06488837890625,307.4603853479004,40.60628837890625C312.0793453479004,29.72573837890625,322.55457534790037,23.16465241790625,333.4959753479004,23.16558837890625C337.0713753479004,23.16652433990625,340.69817534790036,23.86755837890625,344.1837753479004,25.34730837890625C358.3401753479004,31.35617837890625,364.8459753479004,47.928288378906245,358.7191753479004,62.36358837890625C358.5254753479004,62.82228837890625,358.29237534790036,63.24618837890625,358.0799753479004,63.68518837890625C358.0069753479004,63.91548837890625,357.9619753479004,64.14848837890625,357.8655753479004,64.37588837890624C351.0368753479004,80.46318837890625,322.2560753479004,87.97058837890626,319.6437753479004,88.64348837890626C317.0324753479004,89.31458837890625,315.7005753479004,86.96998837890625,315.7005753479004,86.96998837890625C315.7005753479004,86.96998837890625,299.7780153479004,58.70498837890625,306.60678534790037,42.61768837890625C306.7031953479004,42.390188378906245,306.8407753479004,42.19648837890625,306.9549653479004,41.98398837890625ZM323.2329753479004,47.30018837890625C320.8743753479004,52.85518837890625,323.3761753479004,59.22898837890625,328.8215753479004,61.53988837890625C330.1609753479004,62.10808837890625,331.55367534790037,62.37858837890625,332.9267753479004,62.37858837890625L332.9332753479004,62.37858837890625C337.1413753479004,62.37858837890625,341.1706753479004,59.85518837890625,342.9470753479004,55.66958837890625C345.3038753479004,50.118388378906246,342.8010753479004,43.74358837890625,337.35667534790036,41.43358837890625C331.9111753479004,39.12178837890625,325.58877534790037,41.74998837890625,323.2329753479004,47.30018837890625Z" fill-rule="evenodd" fill="#FFFFFF" fill-opacity="1"/></g></mask><mask id="master_svg2_0_2604" style="mask-type:alpha" maskUnits="userSpaceOnUse"><g><path d="M190.55960068359374,145.093165859375C189.04900068359376,143.073355859375,187.11620068359375,141.843505859375,184.65650068359375,141.843505859375L184.65650068359375,141.843505859375C180.21256068359375,141.843505859375,176.59320068359375,145.761435859375,176.59320068359375,150.591925859375L176.59320068359375,150.591925859375C176.59320068359375,153.473705859375,177.89325068359375,155.493505859375,178.92936068359376,157.109005859375L178.92936068359376,157.109005859375C181.93379068359374,161.835605859375,189.18940068359376,166.913205859375,189.50570068359374,167.158405859375L189.50570068359374,167.158405859375C189.82210068359376,167.404605859375,190.17310068359376,167.510305859375,190.54180068359375,167.510305859375L190.54180068359375,167.510305859375C190.91060068359374,167.510305859375,191.26250068359374,167.387705859375,191.57890068359376,167.158405859375L191.57890068359376,167.158405859375C191.89520068359374,166.913205859375,199.15080068359376,161.817805859375,202.17300068359376,157.109005859375L202.17300068359376,157.109005859375C203.20910068359376,155.493505859375,204.50820068359374,153.473705859375,204.50820068359374,150.591925859375L204.50820068359374,150.591925859375C204.50820068359374,145.778285859375,200.88980068359376,141.843505859375,196.46270068359374,141.843505859375L196.46270068359374,141.843505859375C194.00300068359374,141.843505859375,192.05340068359374,143.073355859375,190.55960068359374,145.093165859375L190.55960068359374,145.093165859375Z" fill-rule="evenodd" fill="#FFFFFF" fill-opacity="1"/></g></mask><mask id="master_svg3_0_2607" style="mask-type:alpha" maskUnits="userSpaceOnUse"><g><path d="M190.554718203125,83.98247638671874C190.004378203125,83.24587138671875,189.298658203125,82.79754638671875,188.402948203125,82.79754638671875L188.402948203125,82.79754638671875C186.781858203125,82.79754638671875,185.462158203125,84.22675638671875,185.462158203125,85.98823638671875L185.462158203125,85.98823638671875C185.462158203125,87.03931638671875,185.934818203125,87.77498638671875,186.313882203125,88.36463638671876L186.313882203125,88.36463638671876C187.408958203125,90.08867638671875,190.054918203125,91.93907638671875,190.170038203125,92.02892638671875L190.170038203125,92.02892638671875C190.285158203125,92.11971638671875,190.414328203125,92.15715638671875,190.549108203125,92.15715638671875L190.549108203125,92.15715638671875C190.682948203125,92.15715638671875,190.811168203125,92.11222638671875,190.926298203125,92.02892638671875L190.926298203125,92.02892638671875C191.042358203125,91.93907638671875,193.687378203125,90.08212638671876,194.789008203125,88.36463638671876L194.789008203125,88.36463638671876C195.167138203125,87.77498638671875,195.641658203125,87.03931638671875,195.641658203125,85.98823638671875L195.641658203125,85.98823638671875C195.641658203125,84.23330638671875,194.321958203125,82.79754638671875,192.707428203125,82.79754638671875L192.707428203125,82.79754638671875C191.810778203125,82.79754638671875,191.099448203125,83.24587138671875,190.554718203125,83.98247638671874L190.554718203125,83.98247638671874Z" fill-rule="evenodd" fill="#FFFFFF" fill-opacity="1"/></g></mask><mask id="master_svg4_0_2610" style="mask-type:alpha" maskUnits="userSpaceOnUse"><g><path d="M172.55609737304687,113.0908675453125C171.68191737304687,113.2911634453125,171.09038737304687,113.8873704453125,170.72442737304686,114.7278664453125L170.72442737304686,114.7278664453125C170.02245737304688,114.1325964453125,169.23530737304688,113.8536754453125,168.36112737304688,114.0549064453125L168.36112737304688,114.0549064453125C166.7812223730469,114.4171264453125,165.81531137304688,116.1055964453125,166.20935087304687,117.8221464453125L166.20935087304687,117.8221464453125C166.44427737304687,118.8470264453125,167.07230637304687,119.4582064453125,167.57210737304686,119.9486464453125L167.57210737304686,119.9486464453125C169.02565737304687,121.3825464453125,172.01885737304687,122.59460644531251,172.15176737304688,122.65544644531249L172.15176737304688,122.65544644531249C172.2846673730469,122.7162864453125,172.41757737304687,122.7256464453125,172.54860737304688,122.6956964453125L172.54860737304688,122.6956964453125C172.68058737304688,122.66480644531251,172.79476737304688,122.5927364453125,172.88836737304686,122.4860364453125L172.88836737304686,122.4860364453125C172.98102737304689,122.3727864453125,175.14402737304687,119.9692464453125,175.83289737304688,118.0495864453125L175.83289737304688,118.0495864453125C176.06969737304686,117.3906664453125,176.36550737304688,116.5660864453125,176.13050737304687,115.5421464453125L176.13050737304687,115.5421464453125C175.78796737304688,114.0520964453125,174.52255737304688,113.0216064453125,173.16166737304687,113.0216064453125L173.16166737304687,113.0216064453125C172.96136737304687,113.0216064453125,172.75826737304686,113.0450054453125,172.55609737304687,113.0908675453125L172.55609737304687,113.0908675453125Z" fill-rule="evenodd" fill="#FFFFFF" fill-opacity="1"/></g></mask><mask id="master_svg5_0_2613" style="mask-type:alpha" maskUnits="userSpaceOnUse"><g><path d="M188.45114803222657,184.360459453125C187.06779803222656,185.404049453125,186.56705803222656,186.760259453125,186.16552803222658,187.844099453125L186.16552803222658,187.844099453125C184.98247403222655,190.998289453125,185.16966633222657,196.323889453125,185.16685850222657,196.565389453125L185.16685850222657,196.565389453125C185.16217869222658,196.805889453125,185.23986343222657,197.012789453125,185.37277003222655,197.189689453125L185.37277003222655,197.189689453125C185.50567603222657,197.367489453125,185.69286803222656,197.491989453125,185.91749903222657,197.560289453125L185.91749903222657,197.560289453125C186.14961703222656,197.623989453125,191.22532803222657,199.265589453125,194.58168803222657,199.012889453125L194.58168803222657,199.012889453125C195.73380803222656,198.924989453125,197.17520803222655,198.818289453125,198.55950803222657,197.775589453125L198.55950803222657,197.775589453125C200.87320803222656,196.032789453125,201.45350803222655,192.868339453125,199.85020803222656,190.740899453125L199.85020803222656,190.740899453125C198.96010803222657,189.558779453125,197.66290803222657,189.067399453125,196.15130803222655,189.081439453125L196.15130803222655,189.081439453125C196.57530803222656,187.623219453125,196.46580803222656,186.250159453125,195.57570803222657,185.068039453125L195.57570803222657,185.068039453125C194.66498803222657,183.859719453125,193.24700803222657,183.231689453125,191.76724803222658,183.231689453125L191.76724803222658,183.231689453125C190.63192803222657,183.231689453125,189.45917803222656,183.601393453125,188.45114803222657,184.360459453125L188.45114803222657,184.360459453125Z" fill-rule="evenodd" fill="#FFFFFF" fill-opacity="1"/></g></mask></defs><g mask="url(#master_svg0_16_5647)"><g><g mask="url(#master_svg1_0_2528)"><g><path d="M306.9549653479004,41.98398837890625C307.1225053479004,41.52628837890625,307.2657053479004,41.06488837890625,307.4603853479004,40.60628837890625C312.0793453479004,29.72573837890625,322.55457534790037,23.16465241790625,333.4959753479004,23.16558837890625C337.0713753479004,23.16652433990625,340.69817534790036,23.86755837890625,344.1837753479004,25.34730837890625C358.3401753479004,31.35617837890625,364.8459753479004,47.928288378906245,358.7191753479004,62.36358837890625C358.5254753479004,62.82228837890625,358.29237534790036,63.24618837890625,358.0799753479004,63.68518837890625C358.0069753479004,63.91548837890625,357.9619753479004,64.14848837890625,357.8655753479004,64.37588837890624C351.0368753479004,80.46318837890625,322.2560753479004,87.97058837890626,319.6437753479004,88.64348837890626C317.0324753479004,89.31458837890625,315.7005753479004,86.96998837890625,315.7005753479004,86.96998837890625C315.7005753479004,86.96998837890625,299.7780153479004,58.70498837890625,306.60678534790037,42.61768837890625C306.7031953479004,42.390188378906245,306.8407753479004,42.19648837890625,306.9549653479004,41.98398837890625ZM323.2329753479004,47.30018837890625C320.8743753479004,52.85518837890625,323.3761753479004,59.22898837890625,328.8215753479004,61.53988837890625C330.1609753479004,62.10808837890625,331.55367534790037,62.37858837890625,332.9267753479004,62.37858837890625L332.9332753479004,62.37858837890625C337.1413753479004,62.37858837890625,341.1706753479004,59.85518837890625,342.9470753479004,55.66958837890625C345.3038753479004,50.118388378906246,342.8010753479004,43.74358837890625,337.35667534790036,41.43358837890625C331.9111753479004,39.12178837890625,325.58877534790037,41.74998837890625,323.2329753479004,47.30018837890625Z" fill-rule="evenodd" fill="#D8D8D8" fill-opacity="0.009999999776482582"/></g><g><path d="M316.0763817565918,8.33220386505127L375.9506817565918,33.747303865051265L345.4973817565918,105.49240386505127L285.6220817565918,80.07730386505126L316.0763817565918,8.33220386505127Z" fill-rule="evenodd" fill="#000000" fill-opacity="1"/></g></g><g><path d="M230.12432861328125,131.35546875C230.12432861328125,131.35546875,232.65141861328124,134.91211875,237.79920861328125,131.35546875L230.12432861328125,131.35546875Z" fill-rule="evenodd" fill="#000000" fill-opacity="1"/></g><g mask="url(#master_svg2_0_2604)"><g><path d="M190.55960068359374,145.093165859375C189.04900068359376,143.073355859375,187.11620068359375,141.843505859375,184.65650068359375,141.843505859375L184.65650068359375,141.843505859375C180.21256068359375,141.843505859375,176.59320068359375,145.761435859375,176.59320068359375,150.591925859375L176.59320068359375,150.591925859375C176.59320068359375,153.473705859375,177.89325068359375,155.493505859375,178.92936068359376,157.109005859375L178.92936068359376,157.109005859375C181.93379068359374,161.835605859375,189.18940068359376,166.913205859375,189.50570068359374,167.158405859375L189.50570068359374,167.158405859375C189.82210068359376,167.404605859375,190.17310068359376,167.510305859375,190.54180068359375,167.510305859375L190.54180068359375,167.510305859375C190.91060068359374,167.510305859375,191.26250068359374,167.387705859375,191.57890068359376,167.158405859375L191.57890068359376,167.158405859375C191.89520068359374,166.913205859375,199.15080068359376,161.817805859375,202.17300068359376,157.109005859375L202.17300068359376,157.109005859375C203.20910068359376,155.493505859375,204.50820068359374,153.473705859375,204.50820068359374,150.591925859375L204.50820068359374,150.591925859375C204.50820068359374,145.778285859375,200.88980068359376,141.843505859375,196.46270068359374,141.843505859375L196.46270068359374,141.843505859375C194.00300068359374,141.843505859375,192.05340068359374,143.073355859375,190.55960068359374,145.093165859375L190.55960068359374,145.093165859375Z" fill-rule="evenodd" fill="#D8D8D8" fill-opacity="0.009999999776482582"/></g><g><path d="M171.1318702697754,172.97167592239379L209.96957026977537,172.97167592239379L209.96957026977537,136.3821759223938L171.1318702697754,136.3821759223938L171.1318702697754,172.97167592239379Z" fill-rule="evenodd" fill="#000000" fill-opacity="1"/></g></g><g mask="url(#master_svg3_0_2607)"><g><path d="M190.554718203125,83.98247638671874C190.004378203125,83.24587138671875,189.298658203125,82.79754638671875,188.402948203125,82.79754638671875L188.402948203125,82.79754638671875C186.781858203125,82.79754638671875,185.462158203125,84.22675638671875,185.462158203125,85.98823638671875L185.462158203125,85.98823638671875C185.462158203125,87.03931638671875,185.934818203125,87.77498638671875,186.313882203125,88.36463638671876L186.313882203125,88.36463638671876C187.408958203125,90.08867638671875,190.054918203125,91.93907638671875,190.170038203125,92.02892638671875L190.170038203125,92.02892638671875C190.285158203125,92.11971638671875,190.414328203125,92.15715638671875,190.549108203125,92.15715638671875L190.549108203125,92.15715638671875C190.682948203125,92.15715638671875,190.811168203125,92.11222638671875,190.926298203125,92.02892638671875L190.926298203125,92.02892638671875C191.042358203125,91.93907638671875,193.687378203125,90.08212638671876,194.789008203125,88.36463638671876L194.789008203125,88.36463638671876C195.167138203125,87.77498638671875,195.641658203125,87.03931638671875,195.641658203125,85.98823638671875L195.641658203125,85.98823638671875C195.641658203125,84.23330638671875,194.321958203125,82.79754638671875,192.707428203125,82.79754638671875L192.707428203125,82.79754638671875C191.810778203125,82.79754638671875,191.099448203125,83.24587138671875,190.554718203125,83.98247638671874L190.554718203125,83.98247638671874Z" fill-rule="evenodd" fill="#D8D8D8" fill-opacity="0.009999999776482582"/></g><g><path d="M180.78235530853271,96.83694349212647L200.3214553085327,96.83694349212647L200.3214553085327,78.11774349212646L180.78235530853271,78.11774349212646L180.78235530853271,96.83694349212647Z" fill-rule="evenodd" fill="#000000" fill-opacity="1"/></g></g><g mask="url(#master_svg4_0_2610)"><g><path d="M172.55609737304687,113.0908675453125C171.68191737304687,113.2911634453125,171.09038737304687,113.8873704453125,170.72442737304686,114.7278664453125L170.72442737304686,114.7278664453125C170.02245737304688,114.1325964453125,169.23530737304688,113.8536754453125,168.36112737304688,114.0549064453125L168.36112737304688,114.0549064453125C166.7812223730469,114.4171264453125,165.81531137304688,116.1055964453125,166.20935087304687,117.8221464453125L166.20935087304687,117.8221464453125C166.44427737304687,118.8470264453125,167.07230637304687,119.4582064453125,167.57210737304686,119.9486464453125L167.57210737304686,119.9486464453125C169.02565737304687,121.3825464453125,172.01885737304687,122.59460644531251,172.15176737304688,122.65544644531249L172.15176737304688,122.65544644531249C172.2846673730469,122.7162864453125,172.41757737304687,122.7256464453125,172.54860737304688,122.6956964453125L172.54860737304688,122.6956964453125C172.68058737304688,122.66480644531251,172.79476737304688,122.5927364453125,172.88836737304686,122.4860364453125L172.88836737304686,122.4860364453125C172.98102737304689,122.3727864453125,175.14402737304687,119.9692464453125,175.83289737304688,118.0495864453125L175.83289737304688,118.0495864453125C176.06969737304686,117.3906664453125,176.36550737304688,116.5660864453125,176.13050737304687,115.5421464453125L176.13050737304687,115.5421464453125C175.78796737304688,114.0520964453125,174.52255737304688,113.0216064453125,173.16166737304687,113.0216064453125L173.16166737304687,113.0216064453125C172.96136737304687,113.0216064453125,172.75826737304686,113.0450054453125,172.55609737304687,113.0908675453125L172.55609737304687,113.0908675453125Z" fill-rule="evenodd" fill="#D8D8D8" fill-opacity="0.009999999776482582"/></g><g><path d="M159.88572025299072,111.200693409729L178.92882025299073,106.824143409729L183.12192025299072,125.066943409729L164.0788202529907,129.444443409729L159.88572025299072,111.200693409729Z" fill-rule="evenodd" fill="#000000" fill-opacity="1"/></g></g><g mask="url(#master_svg5_0_2613)"><g><path d="M188.45114803222657,184.360459453125C187.06779803222656,185.404049453125,186.56705803222656,186.760259453125,186.16552803222658,187.844099453125L186.16552803222658,187.844099453125C184.98247403222655,190.998289453125,185.16966633222657,196.323889453125,185.16685850222657,196.565389453125L185.16685850222657,196.565389453125C185.16217869222658,196.805889453125,185.23986343222657,197.012789453125,185.37277003222655,197.189689453125L185.37277003222655,197.189689453125C185.50567603222657,197.367489453125,185.69286803222656,197.491989453125,185.91749903222657,197.560289453125L185.91749903222657,197.560289453125C186.14961703222656,197.623989453125,191.22532803222657,199.265589453125,194.58168803222657,199.012889453125L194.58168803222657,199.012889453125C195.73380803222656,198.924989453125,197.17520803222655,198.818289453125,198.55950803222657,197.775589453125L198.55950803222657,197.775589453125C200.87320803222656,196.032789453125,201.45350803222655,192.868339453125,199.85020803222656,190.740899453125L199.85020803222656,190.740899453125C198.96010803222657,189.558779453125,197.66290803222657,189.067399453125,196.15130803222655,189.081439453125L196.15130803222655,189.081439453125C196.57530803222656,187.623219453125,196.46580803222656,186.250159453125,195.57570803222657,185.068039453125L195.57570803222657,185.068039453125C194.66498803222657,183.859719453125,193.24700803222657,183.231689453125,191.76724803222658,183.231689453125L191.76724803222658,183.231689453125C190.63192803222657,183.231689453125,189.45917803222656,183.601393453125,188.45114803222657,184.360459453125L188.45114803222657,184.360459453125Z" fill-rule="evenodd" fill="#D8D8D8" fill-opacity="0.009999999776482582"/></g><g><path d="M193.5772432434082,174.63938426971436L209.3172432434082,195.52818426971436L189.5095432434082,210.45488426971434L173.7685432434082,189.56608426971437L193.5772432434082,174.63938426971436Z" fill-rule="evenodd" fill="#000000" fill-opacity="1"/></g></g><g><g><path d="M233.96211650390626,114.20279693603516C235.04689650390625,114.20279693603516,235.92763650390626,115.08259993603515,235.92763650390626,116.16831693603515C235.92763650390626,117.25402693603516,235.04689650390625,118.13382693603515,233.96211650390626,118.13382693603515C232.87640550390626,118.13382693603515,231.99566650390625,117.25402693603516,231.99566650390625,116.16831693603515C231.99566650390625,115.08259993603515,232.87640550390626,114.20279693603516,233.96211650390626,114.20279693603516L233.96211650390626,114.20279693603516Z" fill-rule="evenodd" fill="#000000" fill-opacity="1"/></g><g><path d="M120.49702177001953,98.59995651245117C121.58273177001954,98.59995651245117,122.46253177001952,99.47975951245117,122.46253177001952,100.56547651245117C122.46253177001952,101.65118651245118,121.58273177001954,102.53098651245116,120.49702177001953,102.53098651245116C119.41130477001953,102.53098651245116,118.53150177001953,101.65118651245118,118.53150177001953,100.56547651245117C118.53150177001953,99.47975951245117,119.41130477001953,98.59995651245117,120.49702177001953,98.59995651245117L120.49702177001953,98.59995651245117Z" fill-rule="evenodd" fill="#000000" fill-opacity="1"/></g><g><path d="M232.16882451171875,99.82250950195312C231.06251451171875,101.72812950195312,230.28379451171875,103.83215950195313,229.83453451171874,105.98112950195312C229.62113451171874,107.05841950195313,229.49103451171874,108.15068950195312,229.47418451171876,109.24481950195313C229.46389451171876,110.35108950195313,229.60615451171876,111.39098950195313,229.74655451171876,112.53468950195312C229.97024451171876,114.77638950195312,229.67635451171876,117.15838950195312,228.57660451171876,119.20998950195312C228.04216451171874,120.23388950195313,227.32428451171876,121.18768950195312,226.41172451171875,121.93928950195313C225.50665451171875,122.69928950195313,225.25259451171874,122.93898950195313,224.12101451171876,123.25348950195313L224.12893451171874,123.27108950195313C224.71578451171874,123.75318950195313,224.64463451171875,123.62868950195312,225.21276451171875,124.12848950195313L226.05793451171874,124.89038950195312C226.35837451171875,125.17108950195313,226.63635451171876,125.49118950195313,226.86941451171876,125.83748950195313C227.33739451171874,126.53108950195312,227.64064451171876,127.33978950195312,227.74172451171876,128.17558950195314C227.82689451171876,128.92058950195312,227.92985451171876,129.6412895019531,228.05246451171874,130.37228950195313C228.55413451171876,133.27468950195313,229.32537451171876,136.14528950195313,230.55803451171874,138.77908950195314C231.77477451171876,141.40348950195312,233.53252451171875,143.80328950195312,235.89302451171875,145.27178950195312C237.07322451171876,145.98878950195314,238.37892451171876,146.47548950195312,239.74352451171876,146.67668950195312L240.82082451171874,146.80488950195314C241.23832451171876,146.85448950195314,241.65482451171874,146.92938950195312,242.05912451171875,147.04268950195313C242.87342451171875,147.26168950195313,243.65212451171874,147.60418950195313,244.36722451171875,148.04878950195314C245.08692451171873,148.49058950195314,245.72062451171874,149.05968950195313,246.27182451171876,149.6951895019531C246.88772451171874,150.42058950195312,247.23032451171875,151.23948950195313,247.47362451171875,152.03128950195313C247.93792451171876,153.62998950195313,248.03612451171875,155.21728950195313,247.97532451171875,156.77288950195313C247.85172451171874,159.88498950195313,247.19002451171875,162.88938950195313,246.30272451171874,165.79738950195312C244.46172451171876,171.59948950195314,241.56962451171876,176.99428950195312,237.97082451171875,181.7995895019531L237.81452451171876,181.69568950195313C240.86012451171877,176.54698950195314,243.34512451171875,171.0846895019531,244.86232451171875,165.3808895019531C245.61852451171876,162.5393895019531,246.14182451171874,159.61918950195312,246.14832451171876,156.73728950195311C246.13802451171875,155.30808950195313,246.05002451171876,153.8638895019531,245.65042451171874,152.58918950195311C245.45192451171874,151.95738950195312,245.17962451171874,151.37518950195312,244.81642451171876,150.9596895019531C244.38402451171874,150.46548950195313,243.87392451171874,150.0479895019531,243.32832451171876,149.68678950195311C242.77882451171874,149.33108950195313,242.17802451171875,149.05398950195314,241.54812451171875,148.8724895019531C241.23542451171875,148.77698950195312,240.91352451171875,148.71428950195312,240.58872451171874,148.66838950195313L239.43932451171875,148.51028950195314C237.84542451171876,148.23408950195312,236.31042451171874,147.60238950195313,234.96082451171876,146.7225895019531C232.25582451171874,144.91798950195312,230.45601451171876,142.18598950195312,229.22990451171876,139.38088950195313C227.99162451171875,136.55238950195312,227.27280451171876,133.56578950195313,226.82729451171875,130.56318950195313C226.71965451171874,129.81438950195312,226.63074451171875,129.05068950195312,226.56335451171876,128.3065895019531C226.50064451171875,127.65328950195313,226.27975451171875,127.01588950195313,225.92409451171875,126.45898950195313C225.74625451171875,126.18008950195312,225.53660451171876,125.92548950195312,225.29606451171875,125.68968950195313L224.49207451171876,124.92688950195313C223.94921451171874,124.42518950195313,223.39138451171874,123.92818950195313,222.83167651171874,123.44618950195313L222.06512451171875,122.78538950195312L223.02916351171876,122.55888950195313C225.07517451171876,122.07968950195313,226.81699451171875,120.68228950195312,227.84374451171874,118.81128950195313C228.91542451171875,116.95808950195313,229.27295451171875,114.75198950195312,229.12975451171874,112.58338950195312C229.03335451171876,111.51828950195312,228.91261451171874,110.34738950195313,228.96315451171876,109.23078950195313C229.01744451171874,108.10294950195312,229.18778451171875,106.98634950195313,229.44049451171875,105.89314950195312C229.97212451171876,103.71329950195313,230.82477451171874,101.62048950195313,232.01157451171875,99.72048950195312L232.16882451171875,99.82250950195312Z" fill-rule="evenodd" fill="#000000" fill-opacity="1"/></g><g><path d="M238.00487211914063,181.83193799169922C233.78657211914063,188.14030899169921,229.83771211914063,194.78842899169922,227.96298211914063,202.09172899169923C227.46505211914064,203.9037289916992,227.06820211914064,205.74292899169922,226.79584211914062,207.5989289916992C226.50101211914063,209.45212899169923,226.33628211914063,211.3222289916992,226.26795211914063,213.1922289916992C226.18091211914063,215.06232899169922,226.24923211914063,216.93602899169923,226.3802721191406,218.79862899169922C226.5103721191406,220.6649289916992,226.81081211914062,222.4900289916992,227.07569211914063,224.41162899169922C228.08465211914063,232.0022289916992,229.00845211914063,239.70702899169922,228.25406211914063,247.4774289916992C228.04347211914063,249.41292899169923,227.78421211914062,251.3541289916992,227.36958211914063,253.26542899169922C226.9568221191406,255.13352899169922,226.56840211914061,256.9952289916992,226.12569211914064,258.85402899169924C225.28051211914064,262.5754289916992,224.33707211914063,266.2790289916992,223.29721611914061,269.9685289916992L223.02017211914062,269.9189289916992C223.3103201191406,266.0974289916992,223.69780711914063,262.2918289916992,224.18170211914062,258.50302899169924C224.40352211914063,256.60672899169924,224.68431211914063,254.71522899169923,224.93047211914063,252.8283289916992C225.2000221191406,250.98632899169922,225.36101211914064,249.1340289916992,225.45460211914062,247.26872899169922C225.63056211914062,243.53702899169923,225.65958211914062,239.77722899169922,225.5491421191406,236.00532899169923C225.47145211914062,232.2325289916992,225.2206121191406,228.45212899169923,224.84529211914062,224.6793289916992C224.65810211914064,222.81582899169922,224.41194211914063,220.86332899169923,224.34736211914063,218.91842899169922C224.28278211914062,216.97442899169923,224.28465211914062,215.0276289916992,224.44564211914062,213.0921289916992C224.58790211914064,211.15562899169922,224.83032211914062,209.22752899169922,225.20470211914062,207.3256289916992C225.55662211914063,205.4209289916992,226.0349021191406,203.5406289916992,226.61613211914062,201.69672899169922C227.78234211914062,198.0081289916992,229.40716211914062,194.47952899169923,231.37362211914063,191.1765689916992C233.34847211914064,187.8960289916992,235.45067211914062,184.69878899169922,237.78117211914062,181.66252899169922L238.00487211914063,181.83193799169922Z" fill-rule="evenodd" fill="#2D2D2D" fill-opacity="1"/></g><g><path d="M273.57964355078127,161.17546844482422C273.74250055078124,162.2209384448242,273.9165895507812,163.26078844482421,274.15432355078127,164.28004844482422C274.37521455078127,165.30211844482423,274.6372745507812,166.30827844482423,274.9386545507812,167.28447844482423C275.2400345507813,168.26817844482423,275.76417455078126,169.1451684448242,276.0356045507813,170.0689684448242C276.33604455078125,171.00398844482422,276.6018645507813,171.88476844482423,277.06141455078125,172.93486844482422L276.94535455078125,173.0818684448242C275.75575455078126,172.78886844482423,274.90309455078125,171.81176844482422,274.33122455078126,170.8420684448242C273.72471755078124,169.84713844482422,273.63767355078124,168.69122844482422,273.4794955507812,167.61861844482422C273.31383085078124,166.5385184448242,273.23053031078126,165.45935844482423,273.22491455078125,164.38393844482422C273.23427416078124,163.3075884448242,273.25580125078125,162.23965844482422,273.39245155078123,161.17546844482422L273.57964355078127,161.17546844482422Z" fill-rule="evenodd" fill="#000000" fill-opacity="1"/></g><g><path d="M300.1895772949219,269.93746923828127C300.5770772949219,257.05166923828125,300.7099772949219,244.15316923828124,300.1970772949219,231.27526923828125C299.9424772949219,224.83776923828125,299.5296772949219,218.40576923828127,298.81647729492187,212.00856923828124C298.09487729492184,205.62056923828123,297.1420772949219,199.22796923828125,295.37217729492187,193.06746923828126C294.92947729492187,191.52966923828126,294.5262772949219,190.27146923828124,293.9141772949219,188.80576923828124C293.30017729492187,187.34756923828124,291.23157729492186,184.25576923828126,290.9132772949219,184.05446923828126Q285.2534772949219,179.52786923828126,283.9758772949219,178.56566923828126C281.4291772949219,176.63388923828126,278.8047772949219,174.79566923828125,276.0249772949219,173.30935923828125C273.26197729492185,171.81930923828125,270.2996772949219,170.65684923828124,267.3242772949219,170.45748923828125C265.8388772949219,170.35733923828124,264.3768772949219,170.56605923828124,262.98137729492186,171.00502923828125C261.5820772949219,171.44211923828124,260.2586772949219,172.16093923828126,258.97077729492185,172.98176923828126C257.67357729492187,173.80167923828125,256.42407729492186,174.76103923828126,255.13707729492188,175.71477923828124C253.84077729492188,176.65635923828125,252.50707729492188,177.61196923828126,251.16867729492188,178.53296923828125C248.45057729492189,180.32346923828126,245.68387729492187,182.03066923828126,242.81611729492187,183.55716923828126C241.3831572949219,184.31996923828126,239.94271729492186,185.06786923828125,238.48916729492188,185.78756923828126C237.01035729492187,186.46236923828124,235.55118729492187,187.16716923828125,234.02838329492187,187.75126923828125L233.89547729492188,187.50416923828124L241.78187729492188,181.89956923828126C244.3838772949219,180.01266923828126,246.99797729492187,178.16226923828125,249.55127729492187,176.24078923828125C250.84667729492188,175.30201923828125,252.11487729492188,174.35295923828124,253.40367729492186,173.37019923828126C254.71027729492187,172.40989923828124,256.0711772949219,171.47112923828126,257.5237772949219,170.60536923828124C258.99607729492186,169.77329923828125,260.57687729492187,169.02078823828126,262.28687729492185,168.58556623828125C263.99037729492187,168.14753683828124,265.7883772949219,168.00246323828125,267.5151772949219,168.21492593828125C270.9875772949219,168.60990123828125,274.10337729492187,170.04098923828124,276.9253772949219,171.71635923828126C279.76507729492187,173.39827923828125,282.3548772949219,175.39186923828126,284.85477729492186,177.46502923828126Q286.0967772949219,178.51236923828125,291.44217729492186,183.30106923828126C291.79777729492184,183.54816923828125,294.08917729492185,186.96376923828126,294.7171772949219,188.47166923828127C295.3358772949219,189.98416923828125,295.7353772949219,191.27326923828124,296.17337729492186,192.83626923828126C297.92267729492187,199.09226923828126,298.8295772949219,205.51576923828125,299.5081772949219,211.93456923828126C300.1773772949219,218.35896923828125,300.5461772949219,224.80686923828125,300.75487729492187,231.25556923828125C301.17517729492187,244.15506923828127,300.9495772949219,257.06006923828124,300.4703772949219,269.94846923828123L300.1895772949219,269.93746923828127Z" fill-rule="evenodd" fill="#000000" fill-opacity="1"/></g><g><path d="M253.9509583984375,193.23342766210936C253.6093383984375,193.7444616621094,253.4099783984375,194.48480366210939,253.1975183984375,195.13623366210936C252.9934783984375,195.80919366210938,252.8072183984375,196.49057366210937,252.6312583984375,197.17382366210938C252.2793383984375,198.5403236621094,251.9620483984375,199.91712366210936,251.6625383984375,201.2976636621094C251.0653983984375,204.05970366210937,250.5393883984375,206.8376036621094,250.0685983984375,209.62300366210937C249.1232783984375,215.19390366210936,248.4016483984375,220.80120366210937,247.92805839843749,226.41700366210938C247.4694383984375,232.02620366210937,247.2429283984375,237.67940366210937,247.7745583984375,243.22030366210936C248.0609583984375,245.9720036621094,248.5298783984375,248.7340036621094,249.5510083984375,251.17870366210937C249.7672683984375,251.69090366210938,250.2899183984375,252.65850366210938,250.2898783984375,252.64740366210938C250.2898383984375,252.6364036621094,250.2836983984375,252.70130366210938,250.2887083984375,252.61200366210937C250.3114483984375,252.20690366210937,250.4220583984375,251.79020366210938,250.6030283984375,251.43520366210936C250.8201783984375,251.00000366210938,251.1168783984375,250.6518036621094,251.4154483984375,250.38040366210936C252.6415583984375,249.34240366210938,253.8657883984375,249.00540366210936,255.0479083984375,248.66760366210937C256.2375083984375,248.36340366210936,257.4093083984375,248.18460366210937,258.5765083984375,248.04420366210937C263.2357083984375,247.49760366210938,267.82100839843747,247.67260366210937,272.3781083984375,247.96650366210937C276.8567083984375,248.27070366210938,281.4813083984375,248.54210366210938,285.9879083984375,249.27780366210936C288.2502083984375,249.62970366210936,290.5105083984375,250.07150366210936,292.7297083984375,250.75480366210937C293.8313083984375,251.11980366210938,294.9395083984375,251.50910366210937,295.9587083984375,252.18490366210938C296.4389083984375,252.52650366210938,297.0023083984375,252.97390366210936,297.11560839843753,253.70860366210937C297.1886083984375,254.46210366210937,296.6897083984375,254.97590366210937,296.2676083984375,255.34470366210937L296.0720083984375,255.14350366210937C296.4267083984375,254.73630366210938,296.7084083984375,254.21970366210937,296.5727083984375,253.80790366210937C296.4529083984375,253.40160366210938,296.0196083984375,253.0834036621094,295.5581083984375,252.84940366210938C294.6128083984375,252.3805036621094,293.5149083984375,252.13340366210937,292.4330083984375,251.92560366210938C290.2503083984375,251.5157036621094,288.0115083984375,251.31910366210937,285.7746083984375,251.14600366210936C283.5329083984375,250.99250366210939,281.2857083984375,250.89140366210938,279.0366083984375,250.82400366210936L275.66430839843747,250.75760366210937C274.5674083984375,250.76130366210938,273.34500839843747,250.69020366210938,272.2518083984375,250.6715036621094C267.7592083984375,250.56660366210937,263.2516083984375,250.51980366210938,258.8844083984375,250.88200366210938C257.7978083984375,250.98870366210937,256.7214083984375,251.13290366210938,255.7096083984375,251.36870366210937C254.7128383984375,251.58310366210938,253.6963783984375,251.93030366210937,253.1713083984375,252.36180366210937C252.9176583984375,252.58920366210938,252.8811583984375,252.68000366210939,252.8652483984375,252.8223036621094C252.8446583984375,252.97860366210938,252.96539839843751,253.33240366210939,253.2078083984375,253.68520366210936C253.6907683984375,254.39470366210938,254.5312583984375,255.13410366210937,255.3193383984375,255.67880366210937L258.6448083984375,257.97570366210937L254.6491883984375,257.89240366210936C252.9775683984375,257.85680366210937,251.2404183984375,257.1258036621094,250.0648583984375,255.95400366210936C248.8686983984375,254.79720366210938,248.1115083984375,253.39230366210938,247.5583483984375,251.99020366210937C246.4735733984375,249.16170366210937,246.0851493984375,246.25750366210937,245.8586473984375,243.38590366210937C245.4627363984375,237.63160366210937,245.8530313984375,231.92700366210937,246.4651493984375,226.27380366210937C247.1015983984375,220.61960366210937,248.0590883984375,215.01790366210938,249.1962783984375,209.45920366210936C249.7700283984375,206.68130366210937,250.3961883984375,203.91370366210938,251.0934783984375,201.16475366210938C251.4435283984375,199.78983366210937,251.8122883984375,198.41958366210937,252.2147583984375,197.05776366210938C252.4169283984375,196.37732366210938,252.6275183984375,195.69874366210937,252.8586983984375,195.02579366210938C253.1160883984375,194.35190366210938,253.2789383984375,193.6854966621094,253.7515983984375,193.03500366210938L253.9509583984375,193.23342766210936Z" fill-rule="evenodd" fill="#000000" fill-opacity="1"/></g><g><path d="M278.5802001953125,183.47080584726564C280.1142401953125,183.33415544726563,281.6529601953125,183.62430344726562,283.0840401953125,184.20459944726562C283.4546801953125,184.32440144726561,283.7972401953125,184.49848844726563,284.1379301953125,184.68193844726562C284.4767501953125,184.86819844726563,284.8399001953125,185.02262844726562,285.1609401953125,185.23883844726564L286.1184301953125,185.90523844726562C286.2766001953125,186.01942844726562,286.4413301953125,186.12612844726561,286.5948301953125,186.2459284472656L287.0253701953125,186.63809844726563C289.3316001953125,188.73370844726563,291.0603001953125,191.41523844726564,292.2714001953125,194.24740844726563C292.6421001953125,194.93730844726562,292.8311001953125,195.67950844726562,293.1194001953125,196.39730844726563C293.3712001953125,197.12180844726564,293.7053001953125,197.8369084472656,293.8953001953125,198.57720844726563C294.0919001953125,199.31750844726562,294.2772001953125,200.06350844726563,294.4363001953125,200.81410844726562L294.6581001953125,201.94290844726564C294.7255001953125,202.32100844726563,294.7339001953125,202.70290844726563,294.7742001953125,203.08200844726562C294.8425001953125,204.60760844726562,294.9969001953125,206.12760844726563,294.8678001953125,207.6476084472656C294.7527001953125,209.16670844726562,294.5833001953125,210.68100844726564,294.2594001953125,212.17760844726564L293.9786001953125,212.18420844726563C293.4975001953125,210.7101084472656,293.1709001953125,209.25280844726564,292.8995001953125,207.80110844726562C292.7712001953125,207.07290844726563,292.6000001953125,206.35780844726563,292.4315001953125,205.64370844726562L291.9972001953125,203.49940844726564C291.8980001953125,202.7769084472656,291.7164001953125,202.07860844726562,291.5676001953125,201.37390844726562C291.4235001953125,200.66910844726561,291.3046001953125,199.95770844726562,291.1960001953125,199.24170844726564C291.1099001953125,198.5201084472656,290.8918001953125,197.84150844726562,290.7421001953125,197.13580844726562C290.5474001953125,196.44790844726563,290.4482001953125,195.71410844726563,290.1758001953125,195.05610844726561C289.3026001953125,192.32498844726564,287.9585301953125,189.75016844726562,286.0482301953125,187.64612844726562L285.7000501953125,187.2380484472656C285.5746301953125,187.11356844726564,285.4379801953125,187.00124844726562,285.3069501953125,186.88144844726563L284.5104501953125,186.16824844726563C284.2399501953125,185.93331844726563,283.9292101953125,185.75922844726563,283.6390701953125,185.54863844726563C283.3470501953125,185.34085844726562,283.0484801953125,185.13868844726562,282.7218301953125,184.99173844726562C281.4695101953125,184.30287444726562,280.0468501953125,183.83583044726564,278.6026632953125,183.75065844726564L278.5802001953125,183.47080584726564Z" fill-rule="evenodd" fill="#000000" fill-opacity="1"/></g><g><path d="M223.15842368652343,274.53724670410156C223.15842368652343,274.53724670410156,276.2301536865234,281.4090667041016,300.7532536865234,274.53724670410156C300.7532536865234,274.53724670410156,311.6132536865234,302.44664670410157,309.95665368652345,319.01034670410155C309.95665368652345,319.01034670410155,226.88729368652344,355.61294670410155,217.62315368652344,340.70684670410157L223.15842368652343,274.53724670410156Z" fill-rule="evenodd" fill="#000000" fill-opacity="1"/></g><g><path d="M259.6645334365234,277.45116611816405C259.6645334365234,277.45116611816405,258.72202143652345,308.29574611816406,259.1843864365234,308.45114611816405C259.64768643652343,308.60644611816406,282.00774743652346,311.55664611816405,281.85244743652345,310.77974611816404C281.69704743652346,310.00384611816406,289.6236474365234,275.84973611816406,289.6236474365234,275.84973611816406L267.35812743652343,273.35914611816406L259.6645334365234,277.45116611816405Z" fill-rule="evenodd" fill="#FFFFFF" fill-opacity="1"/></g><g><path d="M123.34151840820313,80.6215591430664C125.33041840820313,83.1542691430664,126.77181840820313,86.0847591430664,127.69091840820312,89.1734291430664C128.14301840820312,90.7215591430664,128.44711840820312,92.31165914306641,128.6137184082031,93.9206591430664C128.74201840820314,95.5491591430664,128.75511840820312,97.11315914306641,128.99191840820313,98.6818591430664C129.21091840820313,100.2439591430664,129.55531840820314,101.78645914306641,130.04861840820314,103.2764591430664C130.53901840820313,104.76465914306641,131.20731840820312,106.1882591430664,131.96451840820313,107.56695914306641C133.48641840820312,110.29245914306641,135.50621840820313,112.81015914306641,138.1633184082031,114.3311591430664L138.92341840820313,114.76635914306641L138.23451840820312,115.30355914306641C137.65891840820314,115.75285914306642,137.09541840820313,116.1169591430664,136.4955184082031,116.4688591430664C135.90021840820313,116.8179591430664,135.28431840820312,117.1324591430664,134.65161840820312,117.4113591430664C133.6291184082031,117.8721591430664,132.55301840820312,118.22455914306641,131.44531840820312,118.4656591430664Q131.43851840820312,118.46705914306641,131.42501840820313,118.47005914306641Q131.42971840820312,118.4604591430664,131.42481840820312,118.44715914306641C131.42001840820313,118.4339591430664,132.56371840820313,123.3174591430664,132.75631840820313,125.8284591430664C132.9407184082031,128.5717591430664,132.8293184082031,131.40205914306642,131.97481840820313,134.1238591430664C131.14551840820312,136.8222591430664,129.48331840820313,139.4345591430664,127.04041840820312,141.0546591430664C125.84991840820312,141.8820591430664,124.53301840820313,142.5306591430664,123.16271840820312,142.91905914306642C121.80281840820312,143.3646591430664,120.40351840820313,143.5658591430664,119.01271840820313,143.7296591430664L119.10721840820312,143.7165591430664C117.73691840820312,143.92145914306641,116.55011840820313,143.8176591430664,115.31191840820313,143.6238591430664L114.40121840820312,143.4553591430664L113.51201840820312,143.2111591430664C112.91111840820312,143.0707591430664,112.35051840820313,142.81985914306642,111.77681840820313,142.6092591430664C109.51271840820313,141.68175914306642,107.47977840820312,140.28815914306642,105.75385840820313,138.6267591430664C103.98208840820313,136.99535914306642,102.62868840820312,135.0158591430664,101.33986840820313,133.04475914306641C100.76706840820313,132.01325914306642,100.22607840820312,130.9659591430664,99.69164840820312,129.92235914306642C99.22834540820313,128.8431591430664,98.77814840820312,127.76125914306641,98.34011840820312,126.6792591430664L98.51233540820313,126.6052591430664C99.08139940820313,127.6236591430664,99.63922840820312,128.6428591430664,100.18395840820313,129.6621591430664C100.80543840820313,130.6402591430664,101.43533840820312,131.60985914306642,102.07646840820313,132.5626591430664C103.45981840820312,134.3943591430664,104.88622840820312,136.2063591430664,106.65799840820313,137.62625914306642C108.38481840820313,139.0750591430664,110.28301840820312,140.3199591430664,112.37301840820312,141.0686591430664C112.89991840820312,141.2362591430664,113.41371840820312,141.4477591430664,113.95661840820313,141.5497591430664L114.75871840820312,141.7388591430664L115.57211840820312,141.8558591430664C116.63441840820312,141.9924591430664,117.80061840820312,142.00555914306642,118.73661840820313,141.8661591430664L118.83111840820312,141.8520591430664C121.39091840820312,141.5741591430664,123.89931840820313,140.8618591430664,125.95371840820313,139.4775591430664C128.04371840820312,138.1279591430664,129.49071840820312,135.9751591430664,130.31721840820313,133.5847591430664C131.14931840820313,131.17835914306642,131.33931840820313,128.5315591430664,131.23161840820313,125.9192591430664C131.10341840820314,123.3079591430664,130.65321840820312,120.6535591430664,129.92601840820313,118.1591591430664L129.70231840820313,117.3916591430664L130.46881840820313,117.27935914306642C131.72211840820313,117.0940591430664,132.96601840820313,116.7524591430664,134.15001840820312,116.2479591430664C134.74431840820313,116.0008591430664,135.32551840820312,115.72005914306641,135.88801840820312,115.4055591430664C136.4459184082031,115.0957591430664,136.32831840820313,115.1913591430664,136.81311840820314,114.8291591430664Q139.7018184082031,116.5632591430664,136.81151840820314,114.8205591430664C133.92131840820312,113.0777591430664,132.62151840820312,110.8867591430664,131.10251840820314,108.0348591430664C129.55061840820312,105.1792591430664,128.61001840820313,101.98205914306641,128.2721184082031,98.7716591430664C128.07561840820313,97.16835914306641,128.10461840820312,95.5276591430664,128.02411840820312,93.96835914306641C127.90621840820313,92.3949591430664,127.65161840820312,90.8291591430664,127.25191840820312,89.29697914306641C126.43671840820312,86.24012914306641,125.08701840820312,83.2918591430664,123.19831840820312,80.74136214306641L123.34151840820313,80.6215591430664Z" fill-rule="evenodd" fill="#000000" fill-opacity="1"/></g><g><path d="M79.17222959899902,60.495695546875C79.17222959899902,60.495695546875,119.23322959899903,42.794785546875,128.54882959899902,74.470485546875L152.46162959899902,60.184955546875C152.46162959899902,60.184955546875,154.94572959899904,60.146575546875,152.46162959899902,62.397565546875C151.13732959899903,63.597465546875,126.43352959899903,78.152585546875,103.64942959899902,91.485385546875C83.68632959899902,103.167085546875,65.19643959899902,113.90998554687499,65.19643959899902,113.90998554687499C65.19643959899902,113.90998554687499,37.55842959899903,86.581885546875,74.82372959899902,61.737715546875L79.17222959899902,60.495695546875Z" fill-rule="evenodd" fill="#000000" fill-opacity="1"/></g><g><path d="M73.58199393798829,127.78156712646484C73.58199393798829,127.78156712646484,87.76362393798829,122.70956712646483,90.35162393798828,113.18526712646485C90.35162393798828,113.18526712646485,84.65812393798828,96.51950712646484,98.42612393798828,102.83446712646484L104.94792393798828,88.96255712646484C104.94792393798828,88.96255712646484,100.59942393798829,86.27167712646484,96.97632393798828,88.13517212646484C93.35322393798828,89.99773712646484,76.99732393798828,93.82768712646484,76.06602393798828,94.55305712646485C75.13475393798828,95.27748712646485,65.19672393798828,113.91056712646484,65.19672393798828,113.91056712646484C65.19672393798828,113.91056712646484,70.06184393798829,127.26396712646485,73.58199393798829,127.78156712646484L73.58199393798829,127.78156712646484Z" fill-rule="evenodd" fill="#000000" fill-opacity="1"/></g><g><path d="M110.64481985107422,141.0380955517578C110.11131985107421,142.4420405517578,109.62274985107422,143.9105605517578,109.17442985107422,145.37066055175782C108.72797985107422,146.83637055175782,108.31708985107421,148.3151905517578,107.96516985107422,149.80898055175783C107.27161985107422,152.7956405517578,106.74841785107422,155.8431405517578,106.81019185107422,158.93924055175782C106.43580685107422,155.8627405517578,106.64920635107421,152.7254405517578,107.04418185107421,149.6405105517578C107.24634885107422,148.0961705517578,107.51122585107422,146.55933055175782,107.81260985107421,145.0290305517578C108.11959985107421,143.4949905517578,108.45560985107421,141.9843505517578,108.86930985107422,140.4484405517578L110.64481985107422,141.0380955517578Z" fill-rule="evenodd" fill="#000000" fill-opacity="1"/></g><g><path d="M72.27773666381836,142.83151190185546C72.92448566381836,141.78691190185546,73.11354966381836,140.48131190185546,73.23148066381836,139.24581190185546C73.35689666381836,137.99541190185548,73.34473666381835,136.72902190185548,73.29325666381835,135.46922190185546C73.22680066381837,134.20287190185547,72.95630766381836,132.95523190185546,73.00778566381835,131.68607190185546C73.02088966381837,131.05055190185547,73.06581566381836,130.41129190185546,73.13320466381836,129.76454190185547C73.19404166381835,129.11779190185547,73.29138666381836,128.46449490185546,73.48886666381836,127.79341090185547L73.67418666381836,127.77001190185547C74.32936666381836,128.98863190185546,74.67098666381835,130.26902190185547,74.87596666381836,131.56627190185546C75.10152666381836,132.86725190185547,74.88719666381836,134.19444190185547,74.79078666381835,135.50292190185547C74.65226666381835,136.81513190185547,74.47443666381835,138.12451190185547,74.15152666381836,139.41151190185548C73.96901666381837,140.05071190185546,73.77340666381836,140.68531190185547,73.49729666381836,141.29281190185546C73.22212066381836,141.89931190185547,72.92074166381836,142.49921190185546,72.40221966381836,142.97091190185546L72.27773666381836,142.83151190185546Z" fill-rule="evenodd" fill="#000000" fill-opacity="1"/></g><g><path d="M35.38404025,352.72183660888675C35.38404025,352.72183660888675,34.14202025,230.9722366088867,35.38404025,209.2410366088867C35.38404025,209.2410366088867,53.18883125,137.4220066088867,72.33953125,142.9011216088867L105.87873125,160.49253660888672C105.87873125,160.49253660888672,139.08703125,283.4968366088867,140.95003125,287.8438366088867C140.95003125,287.8438366088867,153.37203125000002,345.0608366088867,150.05903125,359.5548366088867C150.05903125,359.5548366088867,133.72443125,385.22683660888674,35.38404025,352.72183660888675L35.38404025,352.72183660888675Z" fill-rule="evenodd" fill="#000000" fill-opacity="1"/></g><g><path d="M67.03579330444336,175.34095376220702C70.77027330444336,173.71425376220702,74.84825330444336,172.81385976220704,78.97769330444336,172.94302266220703C81.03779330444335,173.02445126220704,83.10809330444336,173.39789976220703,85.06609330444336,174.13637376220703C87.02319330444337,174.87016376220703,88.85209330444336,175.97740376220702,90.43009330444336,177.36824376220704C90.80639330444336,177.73420376220704,91.22009330444337,178.06834376220704,91.56639330444335,178.46331376220704L92.61189330444336,179.64450376220702C93.23149330444336,180.48873376220703,93.88099330444336,181.31987376220704,94.38829330444335,182.23430376220702C94.96209330444336,183.11499376220704,95.37859330444336,184.07069376220704,95.84929330444336,185.00379376220704C96.24809330444336,185.96129376220702,96.66079330444336,186.92249376220704,96.98929330444335,187.90529376220704C98.32679330444336,191.83729376220703,99.01009330444336,195.93859376220703,99.41999330444335,200.02039376220702C100.15199330444335,208.08739376220703,101.09449330444336,216.14139376220703,101.41639330444336,224.24119376220705C101.58299330444336,228.29009376220702,101.72249330444336,232.34189376220704,101.72999330444335,236.40209376220702C101.73749330444336,240.45949376220705,101.72529330444337,244.52999376220703,101.23669330444335,248.59949376220703L100.95589330444335,248.57989376220704C100.83149330444336,246.56849376220703,100.61899330444336,244.55429376220704,100.38779330444336,242.54389376220703L99.75889330444336,236.50689376220703C99.34139330444336,232.48229376220704,98.97449330444336,228.45299376220703,98.61509330444336,224.42369376220702C97.88229330444335,216.36599376220704,97.66889330444336,208.26899376220703,97.17929330444336,200.19069376220702C96.92009330444336,196.21289376220705,96.39499330444336,192.25559376220704,95.25309330444335,188.47059376220705C94.97519330444337,187.52439376220704,94.61579330444336,186.60809376220703,94.27129330444336,185.68709376220704C93.85759330444336,184.79879376220703,93.49819330444336,183.87879376220704,92.98999330444336,183.04299376220703C92.54629330444337,182.16691376220703,91.96979330444336,181.38164376220703,91.42229330444336,180.57297376220703L90.49279330444335,179.44795376220702C90.18489330444336,179.06888376220704,89.81519330444335,178.75346376220702,89.47919330444336,178.40154376220704C86.70129330444337,175.66760376220702,82.88539330444335,174.09238376220702,78.92719330444336,173.78445076220703C74.96899330444336,173.47184076220702,70.89569330444336,174.16538376220703,67.15278830444336,175.59647376220704L67.03579330444336,175.34095376220702Z" fill-rule="evenodd" fill="#FFFFFF" fill-opacity="1"/></g><g><path d="M50.69298399291992,255.00463874511718C49.560473992919924,252.6019387451172,48.66008399291992,250.0842387451172,47.96653399291992,247.5066387451172C47.28234399291992,244.92523874511718,46.83027599291992,242.2867387451172,46.50175399291992,239.63233874511718C45.93081799291992,234.3133387451172,45.989783992919925,228.93803874511718,46.45963599291992,223.61343874511718C46.945399992919924,218.2934387451172,47.60993399291992,212.94903874511718,49.11027399291992,207.8125387451172C49.85904399291992,205.24613874511718,50.69298399291992,202.7077887451172,51.68884399291992,200.22842874511718C52.679093992919924,197.7490687451172,53.77136399291992,195.3071487451172,55.12569399291992,192.9878387451172L55.38589399291992,193.09453874511718C54.18692399291992,198.2816287451172,52.942103992919925,203.37883874511718,51.832053992919924,208.49853874511717L50.134213992919925,216.1575387451172C49.55392399291992,218.7080387451172,49.05411399291992,221.2791387451172,48.69096399291992,223.8689387451172C47.95530399291992,229.04663874511718,47.620223992919925,234.28993874511718,47.90195399291992,239.5163387451172C48.04609399291992,242.1267387451172,48.31190399291992,244.7380387451172,48.80983399291992,247.31383874511718C49.32835399291992,249.88303874511718,50.026583992919925,252.4204387451172,50.95037399291992,254.89323874511717L50.69298399291992,255.00463874511718Z" fill-rule="evenodd" fill="#FFFFFF" fill-opacity="1"/></g><g><path d="M73.43299425561523,150.53800201416016C75.42190825561524,152.94716201416014,77.91904825561524,154.87711201416016,80.42087825561524,156.74061201416015C82.95732825561524,158.57135201416017,85.53306825561523,160.34687201416017,88.16216825561523,162.04560201416015C90.79596825561524,163.73790201416017,93.45696825561524,165.38890201416015,96.15626825561523,166.97630201416015C98.86866825561523,168.54030201416015,100.48036825561523,169.42130201416015,103.11316825561524,171.09860201416015L103.11256825561523,171.06510201416015Q103.47546825561523,168.70500201416016,103.84516825561523,166.83210201416017C104.02206825561524,165.89520201416016,104.22146825561524,164.96020201416016,104.42456825561524,164.02710201416016C104.64726825561523,163.09480201416017,104.84106825561523,162.15980201416016,105.09186825561524,161.23230201416015L105.27716825561524,161.25570201416016C105.29026825561523,162.21690201416015,105.24626825561523,163.17070201416016,105.23036825561523,164.12810201416016C105.19666825561524,165.08380201416014,105.15736825561524,166.03840201416017,105.09556825561523,166.99030201416016C104.98986825561524,168.89590201416016,104.83256825561523,170.79500201416016,104.65566825561524,172.69130201416016L104.53216825561523,174.02030201416017L103.30226825561523,173.36330201416015C100.51496825561523,171.87320201416014,97.86066825561524,170.18570201416014,95.25306825561523,168.41480201416016C92.63796825561523,166.66270201416015,90.03506825561523,164.89000201416016,87.46776825561524,163.06860201416015C84.90976825561523,161.23320201416016,82.37609825561523,159.35569201416016,79.95102825561523,157.34056201416016C77.54840825561523,155.31046201416015,75.14673825561523,153.21204201416015,73.28136825561523,150.64750901416016L73.43299425561523,150.53800201416016Z" fill-rule="evenodd" fill="#FFFFFF" fill-opacity="1"/></g><g><path d="M91.69241297912598,254.9488067626953C91.69241297912598,254.9488067626953,88.22851297912598,259.6173767626953,91.69241297912598,267.8988067626953C91.69241297912598,267.8988067626953,119.38001297912598,336.7199067626953,118.13801297912597,359.5548067626953L118.17921297912598,371.2078067626953L91.69241297912598,371.2078067626953L95.77791297912597,356.9228067626953C95.77791297912597,356.9228067626953,54.00975297912598,304.4789067626953,55.36782747912598,262.36067676269533L91.69241297912598,254.9488067626953Z" fill-rule="evenodd" fill="#FFFFFF" fill-opacity="1"/></g><g><path d="M51.219463735107425,261.3405698730469C51.53207473510742,261.55302987304685,52.055274735107425,261.6541098730469,52.50453473510742,261.71681987304686C52.97532473510742,261.7767198730469,53.448924735107425,261.8085498730469,53.930004735107424,261.80011987304687C54.40547473510742,261.82445987304686,54.887494735107424,261.78888987304686,55.36670473510742,261.7664298730469C55.844044735107424,261.7533298730469,56.32325473510742,261.71213987304685,56.80340473510742,261.6550498730469C57.76089473510742,261.57080987304687,58.715574735107424,261.4322898730469,59.66838473510742,261.27785987304685C60.62212473510742,261.1496298730469,61.57028473510742,260.94184987304686,62.51838473510742,260.7649498730469C66.31178473510742,260.03489987304687,70.07528473510742,259.1335698730469,73.80888473510743,258.09652987304685L76.60458473510742,257.3131298730469L79.38158473510742,256.4482998730469C81.23568473510743,255.89139987304688,83.10298473510741,255.38691987304688,84.98988473510742,254.9348498730469C88.78138473510742,254.10745987304688,92.57578473510742,253.26416287304687,96.52928473510742,252.91036987304688L96.61168473510742,253.17899087304687C93.10278473510742,255.01627987304687,89.45628473510743,256.4436198730469,85.73578473510742,257.6416498730469C84.80458473510743,257.9346098730469,83.87138473510743,258.22287987304685,82.92978473510742,258.47933987304685C81.98258473510742,258.71987987304686,81.02978473510743,258.9370198730469,80.07328473510742,259.1401198730469C78.15918473510743,259.5379098730469,76.24238473510742,259.9263298730469,74.31808473510742,260.28386987304685C70.48618473510743,261.05509987304686,66.61788473510742,261.6934198730469,62.72518473510742,262.1529798730469C61.748084735107426,262.2447098730469,60.777494735107425,262.36450987304687,59.79192473510742,262.40568987304687C58.81291473510742,262.4721398730469,57.832024735107424,262.52361987304687,56.84645473510742,262.51893987304686C56.35507473510742,262.53203987304687,55.86370473510742,262.5292398730469,55.36951473510742,262.4974098730469C54.87532473510742,262.47494987304685,54.38488473510742,262.4655898730469,53.890694735107424,262.3935198730469C53.39838473510742,262.34859987304685,52.907934735107425,262.2615498730469,52.42030473510742,262.1464298730469C51.93360173510742,262.0050998730469,51.456261735107425,261.91804987304687,51.00138473510742,261.51745987304685L51.219463735107425,261.3405698730469Z" fill-rule="evenodd" fill="#FFFFFF" fill-opacity="1"/></g><g><path d="M113.7378876459961,126.25207128955078C113.6442920459961,126.28014928955078,113.5703511459961,126.40369628955078,113.60591761599609,126.51039628955078C114.02616364599609,127.80482928955078,114.4632576459961,129.11329928955078,115.1998546459961,130.31226928955078C115.57049464599609,130.90659928955077,116.01882464599609,131.47285928955077,116.5794646459961,131.94457928955077C117.14104464599609,132.41255928955079,117.8289746459961,132.76354928955078,118.56744464599609,132.92172928955077C120.0687246459961,133.23526928955079,121.5784346459961,132.77945928955077,122.79985464599609,132.0634492895508C124.03252464599609,131.3362092895508,125.08732464599609,130.38058928955078,125.97092464599609,129.28645928955078C126.4080246459961,128.73236928955077,126.8179246459961,128.15768928955077,127.0921246459961,127.45571928955079C127.1586246459961,127.27694928955079,127.21572464599609,127.08601128955078,127.22692464599609,126.85295728955079C127.2344246459961,126.73970628955078,127.2176246459961,126.59650428955078,127.1539246459961,126.44955828955078C127.0772246459961,126.29418928955079,126.9181246459961,126.16315458955079,126.7674246459961,126.12384418955078C126.4979246459961,126.05164058955079,126.31202464599609,126.10294848955078,126.13872464599609,126.15076178955078C126.1188246459961,126.15625078955078,126.0991246459961,126.16169368955079,126.0794246459961,126.16689838955078L125.6012246459961,126.32226828955078C124.34232464599609,126.66857328955078,122.9767546459961,126.70601128955079,121.63271464599609,126.67793328955078C120.28212464599609,126.65640628955079,118.92685464599609,126.54877028955079,117.5706446459961,126.44113528955079L115.5368046459961,126.25113528955077C115.19705464599609,126.21650428955078,114.85729464599609,126.18561758955079,114.5156716459961,126.17345008955078L114.51487364599609,126.17343278955079C114.3429286459961,126.16969478955077,114.17283964599609,126.16599708955079,113.99808464599609,126.18842528955078C113.91197664599609,126.19591328955079,113.82399664599609,126.21463228955078,113.7378876459961,126.25207128955078ZM115.60741464599609,130.02013928955077C114.7584946459961,128.99713928955077,114.1379566459961,127.76166928955078,113.69524694599609,126.48127328955078C113.6531287459961,126.34743128955078,113.85529664599609,126.29688928955078,114.0106656459961,126.28097728955078C114.1683696459961,126.26115228955078,114.33127964599609,126.26388528955079,114.4943826459961,126.26662228955078C114.5006806459961,126.26672828955078,114.5069786459961,126.26683428955079,114.5132766459961,126.26693828955078C114.8502246459961,126.27910628955078,115.18904464599609,126.30999228955078,115.52692464599609,126.34462328955078C116.20174464599609,126.42605128955078,116.87376464599609,126.53743128955078,117.5467246459961,126.63570628955078C118.8917046459961,126.85565728955078,120.2441646459961,127.04940128955079,121.61347464599609,127.14486928955078C122.9809146459961,127.21880928955078,124.3717246459961,127.23752928955078,125.75982464599609,126.90994328955078C125.83352464599609,126.88958828955079,125.9085246459961,126.86754128955079,125.9818246459961,126.84599828955078C126.2415246459961,126.76968328955078,126.4797246459961,126.69968528955079,126.5643246459961,126.73360228955079C126.5644246459961,126.73705428955078,126.5652246459961,126.74145728955078,126.5661246459961,126.74694828955079C126.56882464599609,126.76277428955078,126.57312464599609,126.78763228955079,126.56752464599609,126.82477128955078C126.55812464599609,126.93053428955078,126.51882464599609,127.07280028955078,126.4608246459961,127.20944928955078C126.2202246459961,127.77008928955078,125.8187246459961,128.3120092895508,125.3957246459961,128.80713928955078C124.5280246459961,129.79269928955077,123.49101464599609,130.64722928955078,122.34913464599609,131.25279928955078C121.2156946459961,131.85555928955077,119.94746464599609,132.22151928955077,118.7456946459961,132.00250928955077C117.5457846459961,131.80688928955078,116.4516546459961,131.0403392895508,115.60741464599609,130.02013928955077ZM126.5643246459961,126.73255228955078L126.5643246459961,126.73360228955079L126.56552464599609,126.73409028955078C126.57022464599609,126.73869128955079,126.5832246459961,126.74172828955078,126.5712246459961,126.73679028955078C126.5694246459961,126.73582928955078,126.56752464599609,126.73492928955078,126.56552464599609,126.73409028955078L126.5643246459961,126.73255328955078L126.5643246459961,126.73255228955078ZM126.5643246459961,126.73255228955078L126.5647246459961,126.72930328955078C126.56382464599609,126.73038328955079,126.56372464599609,126.73148928955078,126.5643246459961,126.73255228955078Z" fill-rule="evenodd" fill="#000000" fill-opacity="1"/></g><g><path d="M77.00227955200195,61.334782097320556C77.00227955200195,62.62172209732056,75.95867955200195,63.665322097320555,74.67079955200195,63.665322097320555C73.38385955200195,63.665322097320555,72.34025955200195,62.62172209732056,72.34025955200195,61.334782097320556C72.34025955200195,60.046902097320555,73.38385955200195,59.00330209732056,74.67079955200195,59.00330209732056C75.95867955200195,59.00330209732056,77.00227955200195,60.046902097320555,77.00227955200195,61.334782097320556L77.00227955200195,61.334782097320556Z" fill-rule="evenodd" fill="#2D2D2D" fill-opacity="1"/></g><g><path d="M65.1748218536377,113.86871494140625C71.6694518536377,110.27371494140625,78.1304218536377,106.61691494140625,84.5380218536377,102.87781494140626L94.0876218536377,97.17402494140624C97.29792185363769,95.31988494140624,100.4736218536377,93.42081494140625,103.6213218536377,91.44781494140625L103.6774218536377,91.52269174140625C100.8340218536377,93.93747494140625,97.7022218536377,95.96944494140625,94.5733218536377,97.97333494140625C91.4248218536377,99.95288494140625,88.1639218536377,101.74061494140625,84.9086218536377,103.52821494140625C78.4102218536377,107.12791494140625,71.84260185363769,110.59471494140625,65.2188119536377,113.95111494140625L65.1748218536377,113.86871494140625Z" fill-rule="evenodd" fill="#FFFFFF" fill-opacity="1"/></g><g><path d="M258.84462934277343,249.45921325683594C259.2789113427734,254.15118325683594,259.60369134277346,258.8468932568359,259.94064134277346,263.54631325683596C260.2251713427734,268.24671325683596,260.4937913427734,272.94991325683594,260.70532134277346,277.6588132568359C260.89251134277345,282.36661325683593,261.31369134277344,287.0820132568359,261.0310313427734,291.80861325683594C260.89064134277345,294.1710132568359,260.74182134277345,296.5324132568359,260.39832134277344,298.8920132568359C260.31502134277343,299.48161325683594,260.24576134277345,300.07131325683594,260.15123134277343,300.6581132568359L259.80680134277344,302.42151325683596C259.59246134277345,303.5886132568359,259.2265013427734,304.7632132568359,258.8418223427734,305.8855132568359L258.56758534277344,305.82651325683594C258.57694534277346,301.1121132568359,258.30083634277344,296.45851325683594,258.22408784277343,291.7684132568359C258.09305334277343,287.08761325683594,258.40192034277345,282.3938132568359,258.4599503427734,277.6943132568359C258.52827534277344,272.99581325683596,258.5404423427734,268.2935132568359,258.53669834277343,263.5913132568359L258.56384134277346,249.47325265683594L258.84462934277343,249.45921325683594Z" fill-rule="evenodd" fill="#000000" fill-opacity="1"/></g><g><path d="M292.05383447265626,251.21141094765625C291.55028447265624,255.75175134765624,291.21521447265627,260.33983134765623,290.87358447265626,264.9091813476563C290.50949447265623,269.47948134765625,290.17816447265625,274.0506813476562,289.89831447265624,278.62478134765627C289.77570447265623,280.91788134765625,289.5417144726562,283.30458134765627,289.17388447265625,285.59768134765625C288.80136447265625,287.9057813476563,288.24821447265623,290.16418134765627,287.58742447265627,292.3758813476562C286.2527444726563,296.8067813476562,284.65880447265624,301.06258134765625,283.0564424726563,305.4025813476562L282.78033447265625,305.3520813476563C282.81496497265624,303.01678134765626,283.13599947265624,300.70498134765626,283.52816747265626,298.42878134765624C283.91378447265623,296.14968134765627,284.41077447265627,293.90708134765623,284.88905447265626,291.67668134765626C285.8250144726563,287.2037813476563,287.14752447265624,282.92078134765626,287.63235447265623,278.41228134765623C288.2060944726563,273.85228134765623,288.81447447265623,269.2988813476562,289.4649644726563,264.7519813476562L290.5375744726563,257.94284134765627C290.9138344726563,255.67501134765624,291.27324447265624,253.41372134765626,291.77959447265624,251.15338134765625L292.05383447265626,251.21141094765625Z" fill-rule="evenodd" fill="#000000" fill-opacity="1"/></g><g><path d="M95.82940933959961,117.32646891357422C94.20831933959961,116.78173891357422,92.6770893395996,115.92626891357422,91.37422933959961,114.73666891357422C90.74058933959961,114.13296891357422,90.10039233959961,113.46562891357422,89.75034233959961,112.62045891357423C89.4040372395996,111.77996891357422,89.29920963959961,110.83745591357422,89.48827363959961,109.97262871357422L89.58093333959961,109.96794891357422C89.9113283395996,110.79159391357422,90.1865003395996,111.52351891357422,90.59176933959961,112.21050891357422C91.00826933959961,112.87784891357421,91.37516933959961,113.59198891357421,91.91147933959961,114.21533891357421C92.45245933959961,114.82932891357422,93.07019933959961,115.38622891357421,93.7394093395996,115.88508891357422C94.40019933959961,116.39425891357422,95.10871933959962,116.86035891357422,95.86309933959961,117.23942891357422L95.82940933959961,117.32646891357422Z" fill-rule="evenodd" fill="#2D2D2D" fill-opacity="1"/></g><g><path d="M123.36984803466797,95.17602699462891C122.49192803466796,94.8840069946289,121.68418803466797,94.51242699462891,120.81561803466796,94.3177469946289C119.96108803466797,94.0903119946289,119.08783803466797,93.9742519946289,118.22581803466797,93.99484399462891C117.35630803466796,93.9967149946289,116.53453803466797,94.2578469946289,115.70714803466797,94.43380699462891C114.86290803466797,94.5985369946289,114.06734403466797,94.92893699462891,113.15852583466797,95.16947699462891L113.10704803466797,95.0917869946289C113.74350103466797,94.41227699462891,114.53532803466797,93.8497699946289,115.43477803466797,93.5380949946289C116.32955803466797,93.1983410746289,117.31231803466797,93.1627745946289,118.24640803466797,93.2460750946289C119.18610803466797,93.32188799462891,120.09960803466797,93.5446469946289,120.95975803466797,93.8722329946289C121.82177803466797,94.19701099462891,122.60610803466797,94.6949469946289,123.39234803466798,95.0852369946289L123.36984803466797,95.17602699462891Z" fill-rule="evenodd" fill="#000000" fill-opacity="1"/></g><g><path d="M262.5192250488281,84.02592900695801C265.87822504882814,83.760740006958,269.4043250488281,83.99646320695801,272.78112504882813,84.969644006958L273.3754250488281,85.149084006958C276.9320250488281,86.178634006958,280.20792504882814,87.956964006958,283.11032504882814,90.296864006958C284.51432504882814,91.42001400695801,285.8237250488281,92.73036400695801,287.13502504882814,94.134254006958C288.35082504882814,95.53825400695801,289.47492504882814,97.035754006958,290.5035250488281,98.533354006958C292.5626250488281,101.621954006958,294.15472504882814,104.804254006958,295.4641250488281,108.26735400695802C296.1192250488281,109.95205400695801,296.6818250488281,111.636754006958,297.2424250488281,113.415054006958L297.6670250488281,114.87115400695801C297.7341250488281,115.094954006958,297.80232504882815,115.31215400695801,297.8760250488281,115.527154006958L297.99122504882814,115.84855400695801L298.4591250488281,117.06535400695802L298.92712504882815,118.18845400695801C301.54782504882814,124.27225400695801,306.3221250488281,129.420054006958,312.1251250488281,132.508654006958C317.9281250488281,135.690954006958,324.76062504882816,136.907654006958,331.31232504882814,135.78455400695802C331.62432504882815,135.72215400695802,331.9363250488281,135.680554006958,332.24482504882815,135.64585400695802L333.1559250488281,135.548854006958C333.4539250488281,135.514154006958,333.7449250488281,135.472554006958,334.0259250488281,135.410154006958L335.1159250488281,135.303854006958C335.6509250488281,135.256654006958,336.1789250488281,135.222954006958,336.7409250488281,135.222954006958C338.5189250488281,135.129354006958,340.39092504882814,135.129354006958,342.26292504882815,135.316554006958C345.91192504882815,135.597354006958,349.6559250488281,136.34615400695802,353.1199250488281,137.843654006958C353.96292504882814,138.218054006958,354.8039250488281,138.68605400695802,355.6469250488281,139.154054006958C356.48892504882815,139.621954006958,357.3319250488281,140.277154006958,358.07992504882816,140.932354006958C359.5779250488281,142.336254006958,360.70092504882814,143.92745400695802,361.44992504882816,145.799354006958C362.19892504882813,147.671254006958,362.5729250488281,149.63675400695803,362.47992504882814,151.602254006958C362.3859250488281,153.474254006958,362.19892504882813,155.346154006958,361.7309250488281,157.124454006958C361.26292504882815,158.99635400695803,360.5139250488281,160.774654006958,359.29692504882814,162.45945400695803C358.71792504882814,163.215654006958,358.03492504882814,163.908354006958,357.2749250488281,164.507554006958L357.4829250488281,164.278354006958C350.9859250488281,171.474954006958,343.5489250488281,171.528954006958,335.1709250488281,164.440254006958L334.8609250488281,164.174454006958C327.47582504882814,157.787954006958,320.2361250488281,155.199854006958,313.14152504882816,156.41035400695802C311.8356250488281,156.76765400695803,310.3885250488281,157.212554006958,308.7791250488281,157.752454006958L308.1679250488281,157.959354006958L300.93482504882815,161.40555400695803C299.53922504882814,162.070054006958,298.11282504882814,162.667254006958,296.65182504882813,163.172654006958C294.98672504882813,163.748254006958,293.2814250488281,164.268654006958,291.53402504882814,164.705754006958C288.91332504882814,165.360854006958,286.29172504882814,165.735254006958,283.5783250488281,165.735254006958C282.3559250488281,165.735254006958,281.1345250488281,165.673554006958,279.92242504882813,165.525654006958C272.23532504882814,166.068354006958,267.92782504882814,163.928754006958,263.0948250488281,159.717754006958L262.47472504882813,159.16895400695802L262.47472504882813,159.16895400695802L261.84702504882813,158.597954006958C261.74172504882813,158.500954006958,261.6360250488281,158.403054006958,261.5298250488281,158.30415400695802L260.88752504882814,157.700354006958L260.88752504882814,157.700354006958L260.2332250488281,157.075054006958L260.2332250488281,157.075054006958L258.8812250488281,155.760954006958L258.8812250488281,155.760954006958L256.71792504882814,153.635554006958L256.71792504882814,153.635554006958L255.5622250488281,152.50545400695802L255.5622250488281,152.50545400695802L254.76012504882812,151.727654006958L254.76012504882812,151.727654006958C250.29152504882813,147.41395400695802,250.5656250488281,142.896454006958,252.14832504882813,139.289054006958L252.34042504882814,138.868854006958C252.37332504882812,138.799554006958,252.40672504882812,138.730654006958,252.44052504882814,138.66205400695802L252.64832504882813,138.25535400695802C252.6838250488281,138.188254006958,252.71962504882814,138.121654006958,252.75572504882814,138.055454006958L252.97652504882814,137.66295400695802C253.01392504882813,137.598354006958,253.05162504882813,137.534154006958,253.0896250488281,137.47035400695802L253.32062504882813,137.093054006958L253.32062504882813,137.093054006958L253.55692504882813,136.72625400695802C253.59662504882812,136.666054006958,253.63652504882813,136.606254006958,253.67662504882813,136.547054006958L253.91832504882814,136.196954006958L253.91832504882814,136.196954006958L254.16222504882813,135.858454006958L254.16222504882813,135.858454006958L254.28462504882813,135.69375400695802C257.0479250488281,132.007554006958,257.32522504882814,126.93765400695801,254.86942504882813,123.06535400695802L254.65242504882812,122.735354006958L254.65242504882812,122.735354006958C253.63692504882812,121.258454006958,252.07482504882813,120.243854006958,250.33022504882814,119.83015400695801C249.61322504882813,119.659854006958,248.89072504882813,119.48385400695801,248.19902504882813,119.218054006958C247.21622504882814,118.937254006958,246.33822504882812,118.551154006958,245.44782504882812,118.13875400695801L244.54872504882812,117.72055400695801L244.54872504882812,117.72055400695801C242.3551150488281,116.57985400695802,240.40742504882812,114.945554006958,238.8614750488281,113.04905400695802L238.55768504882812,112.66635400695802C236.87295504882812,110.60725400695802,235.6571450488281,108.26735400695802,234.72118504882812,105.833854006958C234.25320504882814,104.617054006958,233.87788604882812,103.30675400695802,233.59709704882812,102.08995400695801C233.22364904882812,100.77965400695801,232.94192504882812,99.46925400695801,232.94192504882812,98.065354006958C233.0364570488281,97.035754006958,233.3172450488281,96.006254006958,233.69162904882813,95.07025400695801C234.15960504882813,94.134254006958,234.72118504882812,93.291934006958,235.37635504882812,92.449574006958C236.68576504882813,90.85844400695801,238.46502504882812,89.73528400695801,240.3369450488281,88.89292400695801C242.20887504882813,88.05056400695801,244.17342504882814,87.39538400695801,246.13992504882813,87.02100400695801C247.88622504882812,86.605024006958,249.70792504882812,86.336944006958,251.53742504882814,86.216774006958L252.22362504882813,86.178634006958L252.03642504882814,86.178634006958C255.40502504882812,85.05548400695801,258.9625250488281,84.213121006958,262.5192250488281,84.02592900695801Z" fill-rule="evenodd" fill="#000000" fill-opacity="1"/></g><g><path d="M230.66249084472656,111.72764754956054C231.71451084472656,111.16887854956055,232.90505084472656,110.83567689956055,234.15550084472656,110.84410054756054C234.77510084472655,110.84878034956054,235.44525084472656,110.89932224956054,236.01431084472657,111.22503654956054C236.58618084472656,111.53296754956055,237.03825084472658,112.04587454956055,237.27599084472655,112.63365454956055L237.20860084472656,112.69823454956055C236.60397084472658,112.47735454956054,236.14160084472655,112.22557454956055,235.62589084472657,112.07582454956055C235.12328084472657,111.93168454956054,234.64594084472657,111.67336154956055,234.09279084472655,111.59006154956055C233.54899084472657,111.50114454956055,232.98086084472655,111.48523354956055,232.41086084472656,111.53203154956054C231.84086084472656,111.56666254956055,231.25963384472655,111.65277054956054,230.69992924472658,111.81281954956054L230.66249084472656,111.72764754956054Z" fill-rule="evenodd" fill="#000000" fill-opacity="1"/></g><g><path d="M223.17854064746095,278.1458435058594C229.17991614746094,279.6808235058594,235.24117614746095,280.97899350585936,241.33337614746094,282.03476350585936C247.41707614746093,283.1335735058594,253.54207614746093,283.9750035058594,259.6791761474609,284.4935235058594C265.82277614746096,285.0073735058594,271.96547614746095,284.94840350585935,278.0529761474609,284.8173735058594C284.1460761474609,284.6180135058594,290.20547614746096,284.00308350585937,296.1338761474609,282.1274235058594L296.25277614746096,282.3810635058594C293.59837614746095,284.07328350585937,290.60047614746094,285.21609350585936,287.54927614746094,286.03505350585937C284.49327614746096,286.8577635058594,281.35407614746094,287.3528835058594,278.21297614746095,287.6205735058594C275.0681761474609,287.8845135058594,271.91587614746095,287.8470735058594,268.7850761474609,287.6767335058594C265.65527614746094,287.44367350585935,262.54227614746094,287.1235735058594,259.44417614746095,286.72766350585937C253.25097614746093,285.92086350585936,247.11947614746094,284.7930335058594,241.05447614746095,283.41062350585935C235.00067614746095,281.97766350585937,228.98991614746095,280.38466350585935,223.09617614746094,278.41446450585937L223.17854064746095,278.1458435058594Z" fill-rule="evenodd" fill="#FFFFFF" fill-opacity="1"/></g></g></g></g></svg>