<svg xmlns="http://www.w3.org/2000/svg" xmlns:xlink="http://www.w3.org/1999/xlink" fill="none" version="1.1" width="375" height="294" viewBox="0 0 375 294"><defs><mask id="master_svg0_16_5980" style="mask-type:alpha" maskUnits="userSpaceOnUse"><g><rect x="0" y="0" width="375" height="294" rx="0" fill="#FFFFFF" fill-opacity="1"/></g></mask><mask id="master_svg1_0_1702" style="mask-type:alpha" maskUnits="userSpaceOnUse"><g><path d="M148.86902618408203,154.21437072753906L330.17102618408205,154.21437072753906L330.17102618408205,327.1503707275391L148.86902618408203,327.1503707275391L148.86902618408203,154.21437072753906Z" fill-rule="evenodd" fill="#FFFFFF" fill-opacity="1"/></g></mask></defs><g mask="url(#master_svg0_16_5980)"><g><g><g><g><path d="M361.0377015380859,142.49906914062495C360.31970153808595,140.49906914062495,359.24270153808595,138.79906914062497,357.80770153808595,137.29906914062497C357.08970153808593,136.59906914062495,356.28170153808594,135.89906914062496,355.4747015380859,135.39906914062496C354.66670153808593,134.89906914062496,353.85870153808594,134.39906914062496,353.0517015380859,133.99906914062495C349.73070153808595,132.39906914062496,346.14170153808595,131.59906914062495,342.64170153808595,131.29906914062497C340.84870153808595,131.09906914062495,339.05370153808593,131.09906914062495,337.34870153808595,131.19906914062494C336.4507015380859,131.19906914062494,335.64270153808593,131.29906914062497,334.74570153808594,131.39906914062496C333.93770153808595,131.59906914062495,333.04070153808595,131.59906914062495,332.14270153808593,131.79906914062497C325.8617015380859,132.99906914062495,319.3117015380859,131.69906914062494,313.7487015380859,128.29906914062497C308.18470153808596,124.99906914062495,303.60870153808594,119.49906914062495,301.09670153808594,112.99906914062495L300.64670153808595,111.79906914062497L300.1987015380859,110.49906914062495C299.92970153808596,109.69906914062496,299.74970153808596,108.89906914062496,299.48070153808595,107.89906914062496C298.94270153808594,105.99906914062495,298.40370153808595,104.19906914062496,297.77570153808597,102.39906914062496C296.51970153808594,98.69906914062496,294.9947015380859,95.29906914062497,293.01970153808594,91.99906914062495C292.0327015380859,90.39906914062496,290.95670153808595,88.79906914062497,289.7897015380859,87.29906914062497C288.53370153808595,85.79906914062497,287.27670153808594,84.39906914062496,285.9317015380859,83.19906914062496C283.14870153808596,80.69906914062496,280.0087015380859,78.79906914062495,276.5997015380859,77.69906914062496C273.1887015380859,76.49907314062496,269.5997015380859,76.19907314062496,266.18970153808596,76.49907314062496C262.78070153808596,76.69907314062496,259.37070153808594,77.59906914062496,256.1407015380859,78.79906914062495L256.31970153808595,78.79906914062495C254.34570153808593,78.89906914062496,252.37170153808594,79.19906914062496,250.48670153808592,79.69906914062496C248.60170153808593,80.09906914062496,246.71870153808595,80.79906914062495,244.92370153808594,81.69906914062496C243.12870153808595,82.59906914062496,241.42470153808594,83.79906914062495,240.16770153808594,85.49906914062495C239.53970153808595,86.39906914062496,239.00170153808594,87.29906914062497,238.55270153808593,88.29906914062497C238.19370153808595,89.29906914062497,237.92470153808594,90.39906914062496,237.83470153808594,91.49906914062495C237.83470153808594,92.99906914062495,238.10370153808594,94.39906914062496,238.46270153808592,95.79906914062497C238.73170153808593,97.09906914062496,239.09070153808594,98.49906914062495,239.53970153808595,99.79906914062497C240.43670153808594,102.39906914062496,241.60270153808594,104.89906914062496,243.21870153808595,107.09906914062496C244.74370153808593,109.29906914062497,246.71870153808595,111.19906914062496,248.96170153808595,112.49906914062495C250.12870153808595,113.09906914062495,251.20470153808594,113.69906914062496,252.46170153808595,114.09906914062495C253.12470153808593,114.38306914062495,253.81670153808594,114.57006914062495,254.50570153808593,114.75306914062496C256.17770153808596,115.19506914062495,257.67570153808595,116.27906914062496,258.6477015380859,117.85706914062496C258.66170153808594,117.87906914062495,258.67570153808595,117.90106914062495,258.68770153808595,117.92306914062496C261.2227015380859,122.09406914062495,261.00770153808594,127.67106914062495,258.29570153808595,131.70106914062495C255.55770153808595,135.77006914062497,252.87170153808594,142.50606914062496,258.75170153808597,148.83306914062496C268.0037015380859,158.78706914062496,271.74270153808595,164.45106914062495,282.87470153808596,163.57506914062498C284.0377015380859,163.73206914062496,285.20870153808596,163.79906914062497,286.37970153808595,163.79906914062497C288.98170153808593,163.79906914062497,291.4947015380859,163.39906914062496,294.00770153808594,162.69906914062494C295.6837015380859,162.23206914062496,297.3187015380859,161.67606914062497,298.9147015380859,161.06106914062497C300.31470153808596,160.52106914062495,301.68270153808595,159.88306914062497,303.01970153808594,159.17206914062496L309.9557015380859,155.49106914062497C315.9467015380859,153.20906914062496,319.67070153808595,152.39906914062496,322.2727015380859,152.59906914062498C324.87570153808593,152.89906914062496,327.47670153808593,153.39906914062496,329.9897015380859,154.29906914062497C332.50270153808594,155.19906914062494,334.92570153808595,156.29906914062497,337.07870153808597,157.89906914062496C339.23170153808593,159.39906914062496,342.13670153808596,163.00906914062494,342.85370153808594,163.50606914062496C342.9747015380859,163.59006914062496,343.10170153808593,163.69506914062495,343.44970153808595,163.89906914062496C346.32270153808594,165.58206914062495,346.94970153808595,164.99906914062495,348.83370153808596,165.09906914062498C350.71870153808595,165.19906914062494,352.60170153808593,164.99906914062495,354.39670153808595,164.19906914062494C356.1917015380859,163.39906914062496,357.80770153808595,161.99906914062495,358.97370153808595,160.29906914062497C360.1407015380859,158.49906914062495,360.85770153808596,156.59906914062498,361.3067015380859,154.59906914062498C361.75570153808593,152.69906914062494,361.93470153808596,150.69906914062494,362.0237015380859,148.69906914062494C362.11370153808593,146.59906914062498,361.75570153808593,144.49906914062495,361.0377015380859,142.49906914062495L361.0377015380859,142.49906914062495Z" fill-rule="evenodd" fill="#000000" fill-opacity="1"/></g><g><path d="M238.63339392089844,95.81257395935059C238.39739392089842,98.20057395935059,238.31339392089845,100.60657395935058,238.36339392089843,102.99957395935058C238.43939392089842,105.38557395935058,238.62639392089844,107.78757395935058,239.22739392089844,110.05757395935059C239.35639392089843,110.63557395935058,239.57039392089843,111.16057395935059,239.75139392089844,111.72857395935058C239.97639392089843,112.32357395935058,240.13939392089844,112.94257395935058,240.23739392089843,113.57457395935059C240.43539392089843,114.83757395935058,240.37539392089843,116.15357395935058,240.01739392089843,117.40557395935059C239.67839392089843,118.66257395935058,238.96139392089844,119.82157395935059,238.15739392089844,120.77857395935058C237.34839392089845,121.75657395935059,237.05731392089845,122.0897739593506,236.05731392089845,122.84377395935059Q235.05731392089845,123.59777395935059,236.07964392089843,122.83837395935059C236.60564392089844,123.32737395935058,236.62639392089844,123.17257395935059,237.22539392089843,123.58757395935058C237.82739392089843,124.00257395935058,238.46239392089845,124.36857395935058,239.07239392089843,124.57857395935059L239.39639392089845,124.68957395935058L239.57039392089843,125.04357395935058C240.53339392089845,126.99757395935059,241.73039392089845,128.9105739593506,242.99939392089843,130.6935739593506C244.28239392089844,132.4715739593506,245.67939392089843,134.1685739593506,247.31739392089844,135.51657395935058C248.13439392089845,136.18957395935058,249.02039392089844,136.7535739593506,249.96339392089843,137.1445739593506C250.51539392089845,137.3635739593506,250.93439392089843,137.5565739593506,251.35339392089844,137.57957395935057C251.78739392089844,137.6255739593506,252.28139392089844,137.55057395935057,252.78139392089844,137.4195739593506C254.80739392089845,136.8165739593506,256.80039392089844,135.62957395935058,258.75939392089845,134.5065739593506L258.87939392089845,134.6665739593506C257.1813939208984,136.19257395935057,255.44539392089843,137.6935739593506,253.20539392089844,138.6685739593506C252.63139392089843,138.89057395935058,252.00639392089843,139.0775739593506,251.30439392089843,139.09157395935057C250.95739392089843,139.10057395935058,250.59339392089845,139.0475739593506,250.27339392089843,138.9645739593506C250.10739392089843,138.92557395935057,249.96439392089843,138.87957395935058,249.82439392089844,138.8405739593506L249.41039392089843,138.7145739593506C248.21439392089843,138.3515739593506,247.12739392089844,137.74357395935058,246.15439392089843,137.0305739593506C245.16939392089844,136.3285739593506,244.29639392089842,135.50557395935058,243.50439392089845,134.6285739593506C242.70939392089844,133.75557395935058,241.96639392089844,132.8425739593506,241.32139392089843,131.86857395935058C239.99739392089845,129.9355739593506,239.11203392089843,128.2575739593506,238.16603392089843,126.10157395935059Q238.76333392089845,126.34537395935058,238.36561392089843,126.18567395935058C238.31829392089844,126.16667395935059,238.23562392089843,126.12747395935058,238.17523392089845,126.10327395935059C237.32323392089845,125.76227395935058,236.92539392089844,125.40557395935059,236.26539392089845,124.90957395935058C235.60839392089844,124.40257395935059,235.00939392089845,123.88157395935059,234.41639392089843,123.28457395935058L233.76939392089844,122.6325739593506L234.51039392089845,122.11857395935058C235.45639392089845,121.46057395935058,236.34039392089844,120.71657395935058,237.10039392089843,119.86857395935058C237.87039392089844,119.0135739593506,238.48339392089844,118.10157395935059,238.82039392089843,117.03757395935058C239.16639392089843,115.98657395935058,239.26839392089843,114.84757395935058,239.13739392089843,113.7275739593506C239.07239392089843,113.16757395935059,238.95039392089845,112.61157395935058,238.77139392089845,112.07257395935059C238.60839392089844,111.4895739593506,238.39439392089844,110.88357395935058,238.29439392089844,110.27857395935058C237.79039392089842,107.85657395935058,237.73639392089845,105.41657395935059,237.78539392089843,102.99857395935058C237.86139392089845,100.57857395935059,238.07139392089843,98.17257395935059,238.43539392089843,95.78557395935059L238.63339392089844,95.81257395935059Z" fill-rule="evenodd" fill="#000000" fill-opacity="1"/></g><g><path d="M243.48500341796876,128.99617166137696C244.26200341796874,128.94917166137697,244.94600341796874,128.56317166137694,245.40300341796876,128.06317166137694C245.63500341796876,127.79717166137695,245.74000341796875,127.46117166137695,245.97900341796876,127.20617166137696C246.10000341796874,127.07717166137695,246.20600341796876,126.92917166137696,246.35800341796875,126.79917166137696C246.48400341796875,126.65417166137695,246.64300341796874,126.51517166137695,246.84200341796875,126.37517166137695L246.93700341796875,126.40617166137696C247.06800341796875,126.86617166137695,247.00600341796874,127.31117166137696,246.83800341796876,127.72017166137695C246.67200341796874,128.13817166137696,246.27900341796874,128.41817166137696,245.92200341796874,128.67217166137695C245.18100341796875,129.18017166137696,244.25500341796874,129.34517166137695,243.46600341796875,129.09417166137695L243.48500341796876,128.99617166137696Z" fill-rule="evenodd" fill="#000000" fill-opacity="1"/></g><g><path d="M244.25060400390626,114.83357302856446C244.25060400390626,115.53557302856446,243.68060400390624,116.10457302856446,242.97860400390624,116.10457302856446C242.27560400390624,116.10457302856446,241.70660400390625,115.53557302856446,241.70660400390625,114.83357302856446C241.70660400390625,114.13057302856446,242.27560400390624,113.56157302856445,242.97860400390624,113.56157302856445C243.68060400390624,113.56157302856445,244.25060400390626,114.13057302856446,244.25060400390626,114.83357302856446L244.25060400390626,114.83357302856446Z" fill-rule="evenodd" fill="#000000" fill-opacity="1"/></g><g><path d="M240.97520446777344,111.00346882446289C241.30920446777344,110.42146882446289,241.81920446777343,109.91647282446289,242.49920446777344,109.6204728244629C242.82920446777345,109.47247272446289,243.22020446777344,109.30247272446289,243.60420446777343,109.40947272446289C243.98220446777344,109.4954728244629,244.32220446777345,109.73247282446289,244.51020446777343,110.1054728244629L244.46920446777344,110.19647282446289C244.06420446777344,110.3324728244629,243.78820446777343,110.35047282446288,243.52220446777343,110.40646882446289C243.26720446777344,110.4574688244629,243.00720446777345,110.3474728244629,242.72320446777343,110.3894688244629C242.17020446777343,110.45646882446289,241.57820446777345,110.70146882446289,241.05220446777344,111.06746882446289L240.97520446777344,111.00346882446289Z" fill-rule="evenodd" fill="#000000" fill-opacity="1"/></g><g><path d="M258.76619812011717,148.93167309570313C254.8361981201172,149.67267309570312,251.01819812011718,151.00267309570313,247.4211981201172,152.72867309570313C243.8491981201172,154.49567309570313,240.4271981201172,156.65467309570312,237.66719812011718,159.50067309570312C234.90519812011718,162.33867309570311,232.7611981201172,165.76267309570312,231.43019812011718,169.47167309570312C231.25019812011718,169.93067309570313,231.1161981201172,170.40467309570312,230.9621981201172,170.87167309570313C230.80419812011718,171.37267309570314,230.58919812011717,171.90867309570314,230.30519812011718,172.36567309570313C229.74519812011718,173.30067309570313,229.00019812011718,174.08467309570312,228.18519812011718,174.75167309570313C226.5351981201172,176.06767309570313,225.2984281201172,176.76627309570313,223.23642812011718,177.24827309570313L223.24207812011718,177.25307309570312C224.5720781201172,180.23907309570313,225.89419812011718,182.53567309570312,227.57219812011718,185.36567309570313C229.2651981201172,188.19167309570312,231.08919812011717,190.94167309570312,233.1181981201172,193.5226730957031C235.13819812011718,196.10667309570312,237.3561981201172,198.5346730957031,239.8131981201172,200.6596730957031C242.26319812011718,202.78867309570313,244.43189812011718,204.3573730957031,247.3808981201172,205.54137309570314L247.37519812011718,205.53667309570312C248.8781981201172,204.1766730957031,249.9011981201172,203.13767309570312,251.3511981201172,201.6886730957031C252.81019812011718,200.24267309570314,254.25819812011719,198.7846730957031,255.66719812011718,197.2896730957031C258.4741981201172,194.29067309570314,261.2391981201172,191.2486730957031,263.7931981201172,188.03567309570312C266.3291981201172,184.8136730957031,268.7381981201172,181.48467309570313,270.7911981201172,177.94067309570312C272.7861981201172,174.38167309570312,274.5391981201172,170.61567309570313,275.1731981201172,166.52867309570314L275.3721981201172,166.54767309570312C275.2791981201172,168.63167309570312,274.81219812011716,170.6896730957031,274.1851981201172,172.68167309570313C273.5601981201172,174.67967309570312,272.7361981201172,176.6116730957031,271.7981981201172,178.47967309570313C270.8561981201172,180.34567309570312,269.8181981201172,182.16067309570312,268.7151981201172,183.93567309570312C267.59119812011716,185.69667309570312,266.3861981201172,187.40067309570313,265.1481981201172,189.07867309570312C262.6421981201172,192.41067309570312,260.0021981201172,195.64367309570312,257.1511981201172,198.67867309570312C254.32319812011718,201.74267309570314,251.37119812011719,204.65667309570313,248.2261981201172,207.4336730957031L247.7591981201172,207.84667309570312L247.19719812011718,207.60967309570313C243.9921981201172,206.26367309570313,241.14419812011718,204.27567309570313,238.6291981201172,202.00267309570313C236.1061981201172,199.72667309570312,233.88219812011718,197.1716730957031,231.8621981201172,194.48767309570312C229.82919812011718,191.8086730957031,228.0211981201172,188.97967309570313,226.3491981201172,186.07967309570313C224.6891981201172,183.16767309570312,223.1711981201172,180.2006730957031,221.8501981201172,177.09567309570312L221.5561981201172,176.40367309570314L222.2971981201172,176.24367309570312C224.1511981201172,175.84767309570313,225.9621981201172,175.01967309570313,227.4691981201172,173.85567309570314C228.21519812011718,173.26667309570314,228.88119812011718,172.57967309570313,229.3681981201172,171.79967309570313C229.62019812011718,171.40567309570312,229.78719812011718,171.00667309570312,229.94119812011718,170.55367309570312C230.10919812011718,170.0706730957031,230.25819812011719,169.58067309570313,230.45319812011718,169.10767309570312C231.89919812011718,165.27967309570312,234.2191981201172,161.80667309570313,237.12119812011719,158.95567309570313C238.5691981201172,157.52767309570314,240.18619812011718,156.26767309570312,241.8971981201172,155.18867309570314C243.6001981201172,154.09767309570313,245.37519812011718,153.12067309570313,247.2141981201172,152.28867309570313C250.89419812011718,150.63167309570312,254.75619812011718,149.38667309570312,258.7381981201172,148.73367309570312L258.76619812011717,148.93167309570313Z" fill-rule="evenodd" fill="#000000" fill-opacity="1"/></g><g><path d="M207.5991973876953,198.80717565917968C209.6381973876953,195.3401756591797,212.0851973876953,192.1211756591797,214.7581973876953,189.10617565917968C216.0861973876953,187.5911756591797,217.4381973876953,186.0801756591797,218.9741973876953,184.76717565917968C220.49519738769533,183.43917565917968,222.13119738769532,182.24117565917967,223.87019738769533,181.2081756591797L223.9301973876953,181.2871756591797C222.5311973876953,182.74917565917968,221.05919738769532,184.0911756591797,219.6511973876953,185.50417565917968C218.22519738769532,186.8931756591797,216.7401973876953,188.2221756591797,215.34519738769532,189.6501756591797C213.9501973876953,191.07617565917968,212.60819738769533,192.55717565917968,211.33219738769532,194.0961756591797C210.0441973876953,195.62417565917968,208.80419738769533,197.20117565917968,207.68519738769533,198.8591756591797L207.5991973876953,198.80717565917968Z" fill-rule="evenodd" fill="#000000" fill-opacity="1"/></g><g><path d="M282.9683905029297,163.61037530517578L275.8533905029297,183.37237530517578L272.2493905029297,193.23337530517577L270.4473905029297,198.16337530517578L269.5473905029297,200.62837530517578L268.7173905029297,203.11737530517578L267.0793905029297,208.10437530517578L266.26139050292966,210.5963753051758C265.9663905029297,211.43237530517578,265.7783905029297,212.2253753051758,265.3383905029297,213.18137530517578C264.4623905029297,214.97837530517577,262.9493905029297,216.38937530517578,261.2773905029297,217.28337530517578C259.5953905029297,218.19937530517578,257.7813905029297,218.68237530517578,255.9843905029297,218.9873753051758C254.1633905029297,219.2623753051758,252.3923905029297,219.3203753051758,250.6263905029297,219.36137530517578C248.85539050292968,219.39437530517577,247.08039050292967,219.35237530517577,245.3153905029297,219.21537530517577C241.79039050292968,218.93237530517578,238.25339050292968,218.42637530517578,234.9283905029297,217.18737530517578L234.9903905029297,216.99737530517578C236.6963905029297,217.34337530517578,238.4303905029297,217.55137530517578,240.1633905029297,217.65637530517577C241.8943905029297,217.78837530517578,243.62839050292968,217.8503753051758,245.36139050292968,217.82137530517576C247.09339050292968,217.77537530517577,248.8223905029297,217.75137530517577,250.5483905029297,217.59937530517578C252.2763905029297,217.46837530517578,254.01039050292968,217.34237530517578,255.64039050292968,217.01837530517577C257.2813905029297,216.71537530517577,258.8913905029297,216.2493753051758,260.2783905029297,215.46137530517578C261.68439050292966,214.7193753051758,262.8743905029297,213.64737530517579,263.56639050292966,212.2983753051758C263.8913905029297,211.6783753051758,264.1713905029297,210.7743753051758,264.4833905029297,209.97037530517576L265.39339050292966,207.50437530517578L267.2123905029297,202.57337530517577L268.11439050292967,200.1063753051758L269.0863905029297,197.6653753051758L271.03039050292966,192.7843753051758L274.9163905029297,183.02237530517579L282.7813905029297,163.53937530517578L282.9683905029297,163.61037530517578Z" fill-rule="evenodd" fill="#000000" fill-opacity="1"/></g><g><path d="M165.17149353027344,217.424366609375L173.57749353027344,217.024366609375L181.98349353027345,216.724366609375C184.78449353027344,216.637366609375,187.58649353027343,216.377366609375,190.38849353027342,216.524367009375C193.19049353027344,216.658366609375,195.99149353027343,216.872366609375,198.79349353027345,217.424366609375L198.79349353027345,217.624364609375C195.99149353027343,218.176364609375,193.19049353027344,218.390364609375,190.38849353027342,218.524364609375C187.58649353027343,218.671364609375,184.78449353027344,218.410364609375,181.98349353027345,218.324364609375L173.57749353027344,218.024364609375L165.17149353027344,217.624364609375L165.17149353027344,217.424366609375Z" fill-rule="evenodd" fill="#000000" fill-opacity="1"/></g><g><path d="M245.12358305664063,151.5220629638672C242.09958305664063,149.4310629638672,238.90358305664063,147.58306296386718,235.64158305664063,145.8940729638672C232.37158305664062,144.21307296386718,229.00558305664063,142.7300729638672,225.56558305664063,141.4600729638672C222.11858305664063,140.20807296386718,218.57758305664063,139.2520729638672,214.99858305664063,138.54807296386718C211.40458305664063,137.89807296386718,207.75959305664063,137.67307296386718,204.14159305664063,137.8370729638672L204.21159305664062,137.8290729638672C203.7155930566406,137.92907296386718,203.16559305664063,138.08907296386718,202.73759305664063,138.3060729638672C202.53159305664062,138.4120729638672,202.3165930566406,138.54107296386718,202.23859305664064,138.6520729638672C202.12159305664062,138.7770729638672,202.16659305664064,138.77307296386718,202.16559305664063,138.8350729638672C202.17859305664064,138.90307296386717,202.30359305664064,139.07207296386719,202.43759305664062,139.22507296386718C202.63259305664062,139.3760729638672,202.77559305664062,139.54807296386718,203.0185930566406,139.68507296386719C203.43959305664063,139.9890729638672,203.94659305664064,140.2350729638672,204.43259305664063,140.4970729638672L204.29459305664062,140.4440729638672L219.77258305664063,144.4020729638672L226.61558305664062,146.1520729638672L219.53058305664064,146.23607296386717L213.58658305664062,146.3060729638672C211.60458305664062,146.31607296386719,209.62359305664063,146.35007296386718,207.64259305664064,146.3400729638672L208.37959305664063,146.0310729638672C208.39859305664064,146.0070729638672,208.32559305664063,146.1150729638672,208.31559305664064,146.1440729638672C208.30659305664062,146.1860729638672,208.2985930566406,146.20107296386718,208.3045930566406,146.2060729638672C208.30059305664062,146.20107296386718,208.30359305664064,146.2870729638672,208.48759305664063,146.4300729638672C208.82159305664064,146.70206296386718,209.4175930566406,146.98206296386718,210.0545930566406,147.1510629638672C210.6855930566406,147.3370629638672,211.36158305664063,147.4790629638672,212.05058305664062,147.58306296386718C212.72858305664062,147.7160629638672,213.44158305664064,147.7770629638672,214.13958305664062,147.87506296386718L214.63558305664063,147.9440629638672L214.87858305664062,148.33406296386718C215.53858305664062,149.3910629638672,216.46558305664064,150.4600629638672,217.44958305664062,151.3410629638672C218.44858305664062,152.23206296386718,219.57458305664062,152.9730629638672,220.78958305664062,153.50106296386718C221.38958305664062,153.7940629638672,222.03358305664062,153.9430629638672,222.66758305664064,154.14406296386719C223.31958305664062,154.24406296386718,223.97058305664063,154.4180629638672,224.64158305664063,154.40506296386718C225.98058305664063,154.51706296386718,227.32458305664062,154.23906296386718,228.6505830566406,153.91606296386718L228.95358305664064,153.8420629638672L229.14658305664062,153.9980629638672C230.39258305664063,154.9980629638672,231.62258305664062,156.01706296386718,232.8465830566406,157.0450629638672C234.0725830566406,158.0680629638672,235.30258305664063,159.08806296386717,236.51358305664064,160.1330629638672L236.39258305664063,160.2930629638672C235.05958305664063,159.4090629638672,233.74458305664064,158.50106296386718,232.42858305664063,157.59606296386718C231.10758305664064,156.69606296386718,229.79458305664062,155.78606296386718,228.4955830566406,154.85806296386718L228.99158305664062,154.93906296386717C227.59358305664063,155.38606296386718,226.13658305664063,155.78706296386719,224.62158305664062,155.76806296386718C223.86658305664062,155.82806296386718,223.11758305664063,155.69106296386718,222.36158305664063,155.6180629638672C221.62558305664064,155.4420629638672,220.88058305664063,155.2770629638672,220.18358305664063,154.97706296386718C218.77058305664062,154.42706296386717,217.46358305664063,153.6340629638672,216.30458305664064,152.67806296386718C215.14258305664063,151.70206296386718,214.1325830566406,150.6520629638672,213.2335830566406,149.3320629638672L213.97458305664063,149.79206296386718C213.23058305664063,149.71506296386718,212.49158305664062,149.6880629638672,211.74158305664062,149.5610629638672C210.9955830566406,149.4560629638672,210.2445930566406,149.31006296386718,209.4825930566406,149.0940629638672C208.72759305664061,148.88106296386718,207.94059305664064,148.6090629638672,207.1435930566406,147.97706296386718C206.76159305664063,147.67906296386718,206.31359305664063,147.1160629638672,206.25059305664064,146.3830729638672C206.21159305664062,146.02807296386717,206.28359305664063,145.67907296386718,206.39459305664062,145.38107296386718C206.52859305664063,145.07807296386719,206.63659305664063,144.8660729638672,206.90359305664063,144.5750729638672L207.1855930566406,144.2690729638672L207.64259305664064,144.26707296386718C209.62359305664063,144.2570729638672,211.60458305664062,144.29107296386718,213.58658305664062,144.3000729638672L219.53058305664064,144.3710729638672L219.28858305664062,146.2040729638672L203.9115930566406,141.86807296386718L203.82059305664063,141.8420729638672L203.77259305664063,141.81507296386718C203.23759305664063,141.5140729638672,202.69959305664062,141.2400729638672,202.18059305664062,140.8540729638672C201.68559705664063,140.4590729638672,201.08259705664062,140.0990729638672,200.79459725664063,139.1220729638672C200.73059725664064,138.89907296386718,200.76759722664062,138.57007296386718,200.83359725664062,138.33307296386718C200.93559705664063,138.0990729638672,201.06159705664064,137.8520729638672,201.21659705664064,137.7210729638672C201.51959705664063,137.38707296386718,201.83559305664062,137.2360729638672,202.14259305664064,137.07807296386719C202.76459305664062,136.79007296386717,203.34759305664062,136.6380729638672,203.99359305664063,136.52007266386718L204.03259305664062,136.5120726638672L204.06459305664063,136.5110726638672C207.81559305664064,136.41807266386718,211.55458305664064,136.73207296386718,215.20658305664062,137.4720729638672C218.84558305664063,138.25607296386718,222.40958305664063,139.3300729638672,225.85558305664063,140.6940729638672C229.29558305664062,142.0740729638672,232.64258305664063,143.6640729638672,235.88158305664064,145.4440729638672C239.11358305664064,147.2350629638672,242.26158305664063,149.1750629638672,245.24158305664062,151.3610629638672L245.12358305664063,151.5220629638672Z" fill-rule="evenodd" fill="#000000" fill-opacity="1"/></g><g><path d="M264.20760021972654,209.378468359375C262.54160021972655,209.548468359375,260.8746002197266,209.663468359375,259.2086002197266,209.809468359375L254.20860021972658,210.140468359375C252.54260021972655,210.236468359375,250.87660021972655,210.507468359375,249.20860021972658,210.370468359375C247.54060021972657,210.246468359375,245.87160021972656,210.043468359375,244.20060021972657,209.501468359375L244.19960021972656,209.302467359375C245.86360021972655,208.739467359375,247.52960021972658,208.516467359375,249.19560021972657,208.370467559375C250.86160021972657,208.214467359375,252.53060021972655,208.463467359375,254.19860021972656,208.539467359375L259.20260021972655,208.809467359375C260.87060021972655,208.933467359375,262.53860021972656,209.028467359375,264.20660021972657,209.178467359375L264.20760021972654,209.378468359375Z" fill-rule="evenodd" fill="#000000" fill-opacity="1"/></g><g><path d="M184.71539306640625,115.99377462768555L188.06639306640625,151.35877462768553L199.89739306640624,149.08177462768555L198.73839306640625,144.55677462768554L201.75239306640626,146.29877462768553L203.30039306640626,148.42777462768555L208.80639306640626,147.14577462768554L206.23439306640626,114.69477462768555L184.71539306640625,115.99377462768555Z" fill-rule="evenodd" fill="#000000" fill-opacity="1"/></g><g><path d="M187.20079040527344,119.52497341918945L189.66879040527343,148.66297341918946L198.51679040527344,146.90697341918946L198.87379040527344,146.30897341918944L198.73879040527345,144.55697341918946L201.75279040527343,146.29897341918945L206.49179040527343,145.41597341918944L205.01479040527343,117.84697341918945L187.20079040527344,119.52497341918945Z" fill-rule="evenodd" fill="#FFFFFF" fill-opacity="1"/></g><g><path d="M200.60699304199218,144.47367370605468C200.60699304199218,145.5126737060547,199.7649930419922,146.35367370605468,198.72599304199218,146.35367370605468C197.6879930419922,146.35367370605468,196.8459930419922,145.5126737060547,196.8459930419922,144.47367370605468C196.8459930419922,143.4356737060547,197.6879930419922,142.5936737060547,198.72599304199218,142.5936737060547C199.7649930419922,142.5936737060547,200.60699304199218,143.4356737060547,200.60699304199218,144.47367370605468L200.60699304199218,144.47367370605468Z" fill-rule="evenodd" fill="#000000" fill-opacity="1"/></g><g><path d="M244.57294106445312,206.7407810546875C242.1599410644531,210.2487810546875,239.31994106445313,213.4497810546875,236.16494106445313,216.3097810546875C232.99494106445312,219.1417810546875,229.45894106445314,221.64478105468748,225.4819410644531,223.2727810546875C221.5299410644531,224.8817810546875,217.09094106445312,225.6027810546875,212.8329410644531,224.75078105468748C211.75994106445313,224.5997810546875,210.73494106445312,224.2437810546875,209.69794106445312,223.9447810546875C208.6969410644531,223.54378105468749,207.67094106445313,223.1927810546875,206.72694106445311,222.6677810546875C204.77394106445314,221.7367810546875,203.02394106445314,220.4617810546875,201.31694106445312,219.15778105468752L201.50794106445312,219.2527810546875C200.47194106445312,218.8787810546875,199.88494106445313,218.2537810546875,199.24794106445313,217.6057810546875C198.95894106445311,217.26978105468748,198.69794106445312,216.9157810546875,198.4229410644531,216.56878105468752L197.72394106445313,215.4617810546875C196.86594106445312,213.94878105468752,196.19194106445312,212.35478105468752,195.6549410644531,210.7257810546875C195.41094106445314,209.90678105468749,195.10394106445312,209.0987810546875,194.91294106445312,208.2667810546875L194.29894106445312,205.7787810546875L193.82294106445312,203.2657810546875C193.65094106445312,202.4297810546875,193.51894106445312,201.5897810546875,193.4169410644531,200.7447810546875C192.45394106445312,194.0067810546875,192.22194106445312,187.18678105468751,192.1669410644531,180.4307810546875C192.10894106445312,177.1237810546875,191.51394106445312,173.8307810546875,190.43694106445312,170.7067810546875C189.90794106445313,169.1537810546875,189.2029410644531,167.6337810546875,188.53790106445314,166.0647810546875L186.54390106445314,161.3967810546875C185.21790106445312,158.2827810546875,183.90490106445313,155.1627810546875,182.62590106445313,152.0247810546875C181.98390106445314,150.4567810546875,181.35590106445312,148.8807810546875,180.74490106445313,147.2937710546875C180.43890106445312,146.5007710546875,180.14190106445312,145.6997710546875,179.85389606445312,144.8917710546875L179.4408970644531,143.6547710546875L179.25389606445313,143.0017710546875C179.18989706445313,142.7847710546875,179.14589706445312,142.4697710546875,179.1018965644531,142.2067710546875L179.1138965644531,142.3137710546875C179.01789656245313,141.6317710546875,178.96189656445313,141.0467710546875,179.10589656445313,140.2757710546875C179.17689606445313,139.9177710546875,179.32289706445312,139.4277740546875,179.79489606445313,139.0057740546875C180.0329010644531,138.7817740546875,180.33890106445313,138.6757741546875,180.6519010644531,138.6077741546875C180.91290106445314,138.5857741346875,181.21590106445313,138.5907741346875,181.41890106445314,138.6457741546875C182.29090106445312,138.8647740546875,182.74190106445312,139.2587740546875,183.28490106445312,139.6317710546875C183.82190106445313,140.0507710546875,184.27490106445313,140.5637710546875,184.62990106445312,141.1277710546875C184.80490106445313,141.4017710546875,184.96890106445312,141.7237710546875,185.08690106445312,141.9887710546875L185.43690106445314,142.7377710546875C185.67490106445314,143.2357710546875,185.92190106445312,143.7297710546875,186.17190106445312,144.2207710546875C186.68090106445314,145.1997710546875,187.20390106445313,146.1727710546875,187.77190106445312,147.1117710546875C188.8959010644531,148.9967810546875,190.14394106445312,150.8137810546875,191.59394106445313,152.3697810546875C192.30294106445314,153.1737810546875,193.10794106445312,153.8317810546875,193.93194106445313,154.4137810546875C194.7799410644531,154.9307810546875,195.67094106445313,155.2857810546875,196.55194106445313,155.3437810546875L196.33794106445313,155.3617810546875C196.89594106445313,155.2287810546875,197.61494106445312,154.90678105468749,198.07994106445312,154.4897810546875C198.57294106445312,154.0697810546875,198.91094106445314,153.5407810546875,199.08594106445312,152.9277810546875C199.26594106445313,152.3127810546875,199.21194106445313,151.6047810546875,199.12594106445312,150.8947810546875C199.04294106445312,150.5367810546875,198.9579410644531,150.17478105468751,198.85794106445312,149.8147810546875L198.45994106445312,148.7357810546875L198.41994106445313,148.6277810546875C198.17594106445313,147.7527710546875,197.97094106445311,146.9247710546875,197.85994106445312,145.9747710546875C197.8329410644531,145.7397710546875,197.81894106445313,145.4857710546875,197.82394106445312,145.2077710546875C197.83194106445313,145.0587710546875,197.83894106445314,144.9127710546875,197.8809410644531,144.7217710546875C197.92694106445313,144.5417710546875,197.97394106445313,144.2997710546875,198.23694106445313,143.9957710546875C198.34994106445313,143.8617710546875,198.60894106445312,143.6977710546875,198.80494106445312,143.6497710546875C198.99294106445313,143.6037710546875,199.26894106445312,143.5957710546875,199.3689410644531,143.6327710546875C199.67994106445312,143.6947710546875,199.81994106445313,143.7917710546875,199.98494106445312,143.8817710546875C200.25694106445312,144.0587710546875,200.44794106445312,144.2337710546875,200.62994106445313,144.4067710546875C201.30894106445314,145.0947710546875,201.81894106445313,145.7907710546875,202.3329410644531,146.4987710546875C202.84094106445312,147.2047710546875,203.30794106445313,147.9237710546875,203.77794106445313,148.6417810546875L203.57394106445312,148.4247710546875C203.80794106445313,148.6237810546875,203.85194106445311,148.7037810546875,203.95994106445312,148.8337810546875C204.04394106445312,148.9497810546875,204.12694106445312,149.0677810546875,204.18994106445314,149.1807810546875C204.33394106445311,149.4117810546875,204.43794106445313,149.6377810546875,204.5419410644531,149.8667810546875C204.73694106445313,150.3227810546875,204.88894106445312,150.7787810546875,205.00494106445313,151.2337810546875C205.23794106445314,152.1427810546875,205.39394106445312,153.0507810546875,205.47394106445313,153.9537810546875C205.65594106445312,155.7617810546875,205.64594106445313,157.5487810546875,205.55894106445314,159.3327810546875C205.31494106445314,162.8287810546875,205.14794106445314,166.3107810546875,205.52694106445313,169.7307810546875C205.6189410644531,170.5817810546875,205.78394106445313,171.4167810546875,206.01894106445312,172.19878105468752L206.22394106445313,172.7517810546875L206.52394106445314,173.3337810546875L207.1309410644531,174.4997810546875L209.53594106445314,179.1757810546875L214.30994106445314,188.5547810546875L214.13494106445313,188.6507810546875L208.8689410644531,179.5247810546875L206.25494106445313,174.94878105468752L205.60594106445313,173.8017810546875L205.28394106445313,173.2247810546875L205.00494106445313,172.5547810546875C204.70194106445314,171.6677810546875,204.50094106445312,170.7797810546875,204.37194106445313,169.8897810546875C203.85394106445312,166.3417810546875,203.90894106445313,162.76978105468748,204.03194106445312,159.2677810546875C204.0829410644531,157.5477810546875,204.05494106445312,155.8147810546875,203.85094106445314,154.1347810546875C203.75994106445313,153.2917810546875,203.59694106445312,152.4677810546875,203.3809410644531,151.6827810546875C203.27394106445314,151.2897810546875,203.13594106445314,150.9137810546875,202.97994106445313,150.5667810546875C202.89994106445312,150.3977810546875,202.8159410644531,150.2257810546875,202.72294106445312,150.0867810546875C202.6789410644531,150.0097810546875,202.63294106445312,149.9507810546875,202.58794106445313,149.8887810546875C202.5599410644531,149.8467810546875,202.46194106445313,149.7577810546875,202.53094106445312,149.8137810546875L202.32594106445313,149.5957810546875C201.85494106445313,148.9057810546875,201.38394106445313,148.2127710546875,200.88794106445312,147.5537710546875C200.39694106445313,146.8987710546875,199.87994106445313,146.2387710546875,199.35594106445313,145.7327710546875C199.22794106445312,145.6157710546875,199.09994106445313,145.5107710546875,199.01494106445313,145.4587710546875C198.99294106445313,145.4487710546875,198.94994106445313,145.4337710546875,199.04994106445312,145.4617710546875C199.10994106445312,145.4947710546875,199.47494106445313,145.4407710546875,199.60394106445312,145.2627710546875C199.79994106445312,144.9857710546875,199.67094106445313,145.1327710546875,199.69894106445312,145.2567710546875C199.70194106445314,145.4027710546875,199.70994106445312,145.5727710546875,199.73594106445313,145.7567710546875C199.83494106445312,146.4897710546875,200.04694106445314,147.3107710546875,200.27394106445314,148.0617710546875L200.23494106445312,147.9537710546875L200.72494106445313,149.2047810546875C200.85794106445312,149.6407810546875,200.97394106445313,150.0887810546875,201.0829410644531,150.5377810546875C201.22594106445314,151.4667810546875,201.29994106445312,152.4507810546875,201.02594106445312,153.4527810546875C200.76194106445314,154.4457810546875,200.16894106445312,155.3737810546875,199.39394106445312,156.0307810546875C198.59894106445313,156.6997810546875,197.7679410644531,157.1097810546875,196.71594106445312,157.3647810546875L196.62094106445312,157.3877810546875L196.50194106445312,157.38278105468748C195.1189410644531,157.3147810546875,193.88794106445312,156.79378105468749,192.82094106445314,156.1457810546875C191.80194106445313,155.4467810546875,190.86494106445312,154.6657810546875,190.0779410644531,153.7887810546875C188.45290106445313,152.0627810546875,187.18290106445312,150.1227810546875,186.01690106445312,148.1487710546875C185.42990106445313,147.1617710546875,184.89790106445312,146.1497710546875,184.37890106445312,145.1317710546875C184.12290106445312,144.6207710546875,183.8719010644531,144.1077710546875,183.63090106445313,143.5897710546875L183.27290106445312,142.8097710546875C183.16290106445314,142.5617710546875,183.07190106445313,142.3827710546875,182.94790106445313,142.1807710546875C182.70690106445312,141.7937710546875,182.41090106445313,141.4477710546875,182.06490106445312,141.1707710546875C181.70190106445312,140.8967710546875,181.23790106445313,140.5807710546875,181.0029010644531,140.5417710546875C180.93690106445314,140.5187710546875,180.94890106445314,140.5457710546875,180.93390106445312,140.5217710546875C180.97790106445314,140.5337710546875,181.00590106445313,140.4897710546875,181.04290106445313,140.4767710546875C181.09290106445312,140.4227710546875,181.00990106445312,140.4857710546875,180.98190106445313,140.6757710546875C180.89990106445313,141.0067710546875,180.92090106445312,141.5637710546875,180.97990106445312,141.9887710546875L180.99290106445312,142.0957710546875C181.03190106445314,142.2467710546875,181.03190106445314,142.3547710546875,181.08390106445313,142.5447710546875L181.23890106445313,143.1127710546875L181.61290106445313,144.2867710546875C181.88190106445313,145.0747710546875,182.16190106445313,145.8637710546875,182.45290106445313,146.6527710546875C183.03590106445313,148.2287710546875,183.63790106445313,149.8037810546875,184.25590106445313,151.3737810546875C185.48590106445312,154.5157810546875,186.75390106445312,157.6477810546875,188.03490106445312,160.7737810546875L189.97194106445312,165.4577810546875C190.60894106445312,167.0087810546875,191.31394106445313,168.5687810546875,191.85994106445312,170.2247810546875C192.95194106445314,173.5057810546875,193.5359410644531,176.9567810546875,193.55894106445314,180.4137810546875C193.5419410644531,187.1777810546875,193.69894106445312,193.9107810546875,194.5779410644531,200.5817810546875C194.66994106445313,201.4177810546875,194.79094106445314,202.2477810546875,194.95094106445313,203.0697810546875L195.39094106445313,205.5467810546875L195.96694106445312,207.98878105468748C196.14394106445312,208.8077810546875,196.4349410644531,209.5897810546875,196.66394106445313,210.3917810546875C197.1669410644531,211.9787810546875,197.80194106445313,213.51978105468748,198.59594106445311,214.9567810546875L199.23594106445313,216.0027810546875C199.48394106445312,216.3197810546875,199.71894106445313,216.6517810546875,199.97494106445313,216.96078105468752C200.25694106445312,217.2377810546875,200.51094106445314,217.55678105468752,200.82394106445312,217.78178105468749C201.10094106445314,218.03678105468748,201.48394106445312,218.2437810546875,201.7199410644531,218.3407810546875L201.8689410644531,218.4007810546875L201.91194106445312,218.4347810546875C203.5539410644531,219.7247810546875,205.23594106445313,220.9907810546875,207.10994106445312,221.9147810546875C208.01694106445314,222.4387810546875,209.00194106445312,222.7877810546875,209.96294106445313,223.1917810546875C210.9579410644531,223.4917810546875,211.94194106445312,223.8527810546875,212.97394106445313,224.0117810546875C217.06494106445314,224.8937810546875,221.37294106445313,224.2647810546875,225.27094106445313,222.74578105468748C229.18894106445313,221.2087810546875,232.72394106445313,218.7877810546875,235.9099410644531,216.0227810546875C239.08094106445313,213.2317810546875,241.95894106445314,210.0797810546875,244.40594106445315,206.6307810546875L244.57294106445312,206.7407810546875Z" fill-rule="evenodd" fill="#000000" fill-opacity="1"/></g><g><path d="M188.84039306640625,120.75637350463867L203.66039306640624,119.20237350463867L205.09839306640626,139.55237350463867L190.61039306640626,141.65337350463867L188.84039306640625,120.75637350463867Z" fill-rule="evenodd" fill="#000000" fill-opacity="1"/></g><g><path d="M193.1675971069336,192.35697517089844C193.1675971069336,192.35697517089844,167.46459710693358,176.10997517089845,154.6215971069336,168.58597517089845C147.5035971069336,164.41497317089843,138.77959710693358,163.72397517089843,131.2305971069336,167.05197517089843C119.3065971069336,172.31097517089844,102.6675971069336,187.13297517089845,86.31459710693359,226.59297517089843C86.31459710693359,226.59297517089843,76.69259710693359,244.17797517089843,74.0385971069336,246.16897517089842C74.0385971069336,246.16897517089842,92.28759710693359,275.03617517089845,108.5455971069336,275.36817517089844C108.5455971069336,275.36817517089844,109.2085971069336,283.3311751708984,106.2235971069336,294.94417517089846C106.2235971069336,294.94417517089846,125.4675971069336,307.5521751708984,152.01059710693357,296.93417517089847C152.01059710693357,296.93417517089847,154.6645971069336,245.50497517089843,153.3375971069336,223.27597517089845C153.3375971069336,223.27597517089845,155.32859710693361,211.99497517089844,171.2545971069336,210.99897517089843L195.74359710693358,209.27797517089843L193.7395971069336,198.83397517089844L193.1675971069336,192.35697517089844Z" fill-rule="evenodd" fill="#000000" fill-opacity="1"/></g><g mask="url(#master_svg1_0_1702)"><g><path d="M148.86902618408203,154.21437072753906L330.17102618408205,154.21437072753906L330.17102618408205,327.1503707275391L148.86902618408203,327.1503707275391L148.86902618408203,154.21437072753906Z" fill-rule="evenodd" fill="#D8D8D8" fill-opacity="0.009999999776482582"/></g><g><path d="M330.17102618408205,154.38337072753907C326.47802618408207,162.69337072753905,323.159026184082,171.17437072753907,320.063026184082,179.72437072753905C316.97902618408204,188.28137072753907,314.173026184082,196.93537072753907,311.635026184082,205.66337072753907C309.05502618408207,214.38037072753906,306.938026184082,223.22437072753905,305.062026184082,232.10537072753908C303.19502618408205,240.99337072753906,301.910026184082,249.98237072753906,300.94502618408205,258.98937072753904L300.942026184082,259.0213707275391L300.93602618408204,259.0623707275391C300.36802618408205,262.62537072753906,299.94002618408206,266.2523707275391,299.59202618408204,269.8623707275391C299.245026184082,273.47937072753905,299.00302618408205,277.10437072753905,298.91602618408206,280.72537072753903C298.82302618408204,284.34437072753906,298.84402618408205,287.96937072753906,299.164026184082,291.54737072753903C299.48302618408206,295.11437072753904,299.99102618408205,298.68837072753905,301.12802618408205,301.980370727539L301.15602618408207,302.0623707275391L301.165026184082,302.11137072753905C301.52502618408204,303.9783707275391,301.56102618408204,305.6933707275391,301.33402618408206,307.4873707275391C301.086026184082,309.25537072753906,300.596026184082,311.01937072753907,299.735026184082,312.63337072753905C298.038026184082,315.90437072753906,294.914026184082,318.21937072753906,291.660026184082,319.48937072753904C290.03002618408203,320.2113707275391,288.32002618408205,320.5203707275391,286.63102618408203,320.91637072753906C284.92902618408203,321.1173707275391,283.24602618408204,321.34237072753905,281.61802618408205,321.49937072753903L271.75802618408204,322.46737072753905C258.60802618408206,323.69237072753907,245.44252618408203,324.7613707275391,232.25652618408202,325.61837072753906C219.06752618408203,326.4493707275391,205.85852618408202,327.1123707275391,192.59852618408203,327.1503707275391C185.96752618408203,327.14837072753903,179.32552618408204,327.02937072753906,172.65052618408203,326.46037072753904C169.31252618408203,326.13537072753905,165.97252618408203,325.7513707275391,162.60052618408204,324.9873707275391C160.91252618408203,324.5973707275391,159.22152618408202,324.1503707275391,157.49649618408202,323.38037072753906C156.63349618408202,322.95937072753907,155.76149618408203,322.54737072753903,154.89449618408204,321.77937072753906L154.57349618408202,321.50737072753907L154.26249618408204,321.1553707275391C154.06349618408203,320.9003707275391,153.84549618408204,320.71737072753905,153.68249618408203,320.3863707275391C153.51649618408203,320.07637072753903,153.33849618408203,319.77937072753906,153.22249618408202,319.4393707275391C153.12249618408202,319.08237072753906,153.04149618408204,318.7163707275391,152.98149618408203,318.3533707275391L155.79549618408203,320.02937072753906C155.48349618408204,320.15437072753906,155.33849618408203,320.17337072753907,155.16249618408204,320.21237072753905C154.98149618408203,320.254370727539,154.82249618408204,320.26037072753905,154.65649618408204,320.26937072753907C154.32249618408204,320.29637072753906,154.00749618408204,320.254370727539,153.69349618408202,320.19037072753906C153.36749618408203,320.14237072753906,153.10249618408204,320.01837072753904,152.82349618408202,319.89437072753907L152.41849618408204,319.69537072753906L152.09749618408202,319.45537072753905C151.88949618408202,319.29137072753906,151.66749618408204,319.11837072753906,151.49049618408202,318.94137072753904L151.05749618408203,318.403370727539C150.74149618408202,318.02937072753906,150.58049618408202,317.67837072753906,150.39849618408203,317.32037072753906L150.13049618408203,316.78137072753907C150.05349618408204,316.605370727539,150.00849618408202,316.4373707275391,149.94649618408204,316.2643707275391L149.60949318408203,315.23137072753906C149.45449318408203,314.5623707275391,149.32749318408204,313.9003707275391,149.19449318408203,313.23437072753904C149.03649318408202,311.93837072753905,148.90549278408204,310.63837072753904,148.89949278408204,309.37837072753905C148.82849278408204,308.10137072753906,148.90049278408202,306.860370727539,148.92549278408202,305.60837072753907C149.03349318408203,303.1173707275391,149.23249318408205,300.65237072753905,149.52849318408204,298.2113707275391C149.76649318408204,295.7563707275391,150.19149618408204,293.3483707275391,150.52149618408203,290.91737072753904L150.50249618408202,291.153370727539L150.94049618408204,274.1793707275391C151.07049618408203,268.5213707275391,151.24649618408202,262.86337072753906,151.44549618408203,257.2063707275391L152.01349618408204,240.23537072753908C152.18649618408205,234.57737072753906,152.41249618408204,228.92137072753906,152.64949618408204,223.26537072753905L152.65549618408204,223.09637072753907L152.71349618408203,222.98337072753907C153.41149618408204,221.62637072753907,154.16749618408204,220.35137072753906,154.98449618408202,219.09037072753907C155.80649618408202,217.83837072753906,156.68149618408202,216.61837072753906,157.65249618408203,215.47237072753907C158.62049618408204,214.32437072753908,159.68852618408204,213.24137072753905,160.92552618408203,212.35437072753905C162.14852618408204,211.48437072753907,163.60452618408203,210.75737072753907,165.17152618408204,210.79937072753907L165.17152618408204,211.19837072753907C163.74252618408204,211.25037072753906,162.44252618408203,211.99837072753905,161.33652618408203,212.89437072753907C160.22552618408204,213.80637072753905,159.26452618408203,214.90537072753907,158.38049618408203,216.05637072753905C157.49649618408202,217.21037072753907,156.70549618408202,218.43937072753906,155.96849618408203,219.69737072753907C155.23849618408204,220.95537072753905,154.55149618408203,222.26337072753907,153.96149618408202,223.56837072753905L154.02649618408202,223.28637072753907C154.08849618408203,228.94637072753906,154.13849618408204,234.60837072753907,154.13749618408204,240.26837072753906L154.17849618408204,257.24937072753903C154.20249618408204,262.90937072753906,154.20249618408204,268.57037072753906,154.15849618408203,274.22937072753905L154.07049618408203,291.2083707275391L154.06949618408203,291.27937072753906L154.05149618408203,291.4443707275391C153.77749618408203,293.82737072753906,153.40749618408202,296.2113707275391,153.22849618408202,298.5933707275391C152.98749618408203,300.97637072753906,152.84849618408202,303.355370727539,152.79349618408204,305.71437072753906C152.74949618408203,308.0693707275391,152.83249618408203,310.41437072753905,153.15149618408202,312.61337072753906L153.48449618408202,314.1793707275391C153.65949618408203,314.6123707275391,153.76649618408203,315.17237072753903,153.98249618408204,315.485370727539C154.07349618408202,315.66837072753907,154.16149618408204,315.87437072753903,154.26049618408203,315.9533707275391C154.30649618408202,316.01037072753905,154.34849618408202,316.0693707275391,154.38749618408204,316.13237072753907C154.42649618408203,316.16437072753905,154.45549618408202,316.16637072753906,154.48049618408203,316.19637072753903C154.49249618408203,316.20937072753907,154.50349618408202,316.22537072753903,154.51349618408204,316.24137072753905L154.52349618408203,316.22937072753905C154.52349618408203,316.22937072753905,154.52549618408204,316.2563707275391,154.50749618408204,316.230370727539C154.49149618408202,316.22637072753906,154.47549618408203,316.23837072753906,154.44449618408203,316.22937072753905C154.43149618408202,316.230370727539,154.42549618408202,316.2403707275391,154.39149618408203,316.23937072753904C154.36249618408203,316.2473707275391,154.36849618408203,316.2403707275391,154.19749618408204,316.31037072753907L157.01249618408204,317.98637072753905C157.02549618408204,318.11137072753905,157.15549618408204,318.36337072753906,157.55449618408204,318.7083707275391C157.91649618408204,319.05137072753905,158.55049618408202,319.36837072753906,159.16552618408204,319.6603707275391C160.45852618408202,320.23437072753904,161.97252618408203,320.64237072753906,163.49752618408203,320.980370727539C166.56552618408205,321.6603707275391,169.79652618408204,322.0203707275391,173.02152618408203,322.31337072753905C179.49052618408203,322.903370727539,186.05252618408204,323.0913707275391,192.61052618408203,323.14437072753907C205.73852618408205,323.230370727539,218.90452618408204,322.80637072753905,232.05852618408204,322.1513707275391C245.213526184082,321.4973707275391,258.36302618408206,320.59437072753906,271.49602618408204,319.50837072753905L281.341026184082,318.65437072753906C282.99802618408205,318.51337072753904,284.587026184082,318.3143707275391,286.163026184082,318.153370727539C287.682026184082,317.80637072753905,289.24302618408205,317.5503707275391,290.648026184082,316.93637072753904C293.49602618408204,315.84937072753905,296.01202618408206,314.00037072753906,297.413026184082,311.38737072753906C298.12302618408205,310.0913707275391,298.54702618408203,308.64037072753905,298.77602618408207,307.1513707275391C298.997026184082,305.68037072753907,298.952026184082,304.052370727539,298.706026184082,302.68037072753907L298.74402618408203,302.81037072753907C297.534026184082,299.16137072753907,297.063026184082,295.43537072753907,296.771026184082,291.73637072753905C296.48302618408206,288.02937072753906,296.504026184082,284.3333707275391,296.640026184082,280.65237072753905C296.77002618408204,276.96937072753906,297.057026184082,273.30137072753905,297.44802618408204,269.64837072753903C297.843026184082,265.98937072753904,298.313026184082,262.3623707275391,298.93602618408204,258.71537072753904L298.92602618408205,258.78637072753907L299.80902618408203,251.98537072753908C299.96702618408204,250.85337072753907,300.08302618408203,249.71537072753907,300.27502618408204,248.58937072753906L300.85802618408206,245.21237072753905C301.26302618408204,242.96437072753906,301.5980261840821,240.70337072753907,302.06102618408204,238.46837072753908L303.46702618408204,231.76637072753908C305.486026184082,222.86537072753907,307.74602618408204,214.02037072753905,310.466026184082,205.31537072753906C313.14202618408206,196.59937072753905,316.08402618408206,187.96837072753905,319.303026184082,179.44337072753905C322.534026184082,170.92337072753907,325.98202618408203,162.48737072753906,329.80902618408203,154.21437072753906L330.17102618408205,154.38337072753907Z" fill-rule="evenodd" fill="#000000" fill-opacity="1"/></g></g><g><path d="M322.45353729248046,152.68517596435547C318.4935372924805,161.30317596435546,314.7915372924805,170.04417596435547,311.2555372924805,178.84417596435546C307.7335372924805,187.65117596435547,304.38453729248045,196.52717596435548,301.3135372924805,205.49517596435547C298.23953729248046,214.45917596435547,295.4115372924805,223.51117596435546,293.0465372924805,232.67417596435547C290.6615372924805,241.82717596435546,288.7625372924805,251.1181759643555,287.8085372924805,260.47617596435543L287.80653729248047,260.50417596435545L287.79953729248047,260.5501759643555C287.3395372924805,263.47117596435544,286.98553729248044,266.45317596435547,286.70653729248045,269.4161759643555C286.4285372924805,272.3851759643555,286.23753729248045,275.3611759643555,286.16053729248046,278.33117596435545C286.08853729248045,281.30217596435546,286.12653729248046,284.2711759643555,286.3725372924805,287.2041759643555C286.6275372924805,290.12517596435544,287.07153729248046,293.04317596435544,287.99953729248045,295.70817596435546L288.0275372924805,295.7891759643555L288.03853729248044,295.8431759643555C288.3535372924805,297.4311759643555,288.36953729248046,298.8471759643555,288.19253729248044,300.3581759643555C288.0105372924805,301.8421759643555,287.57653729248045,303.3251759643555,286.8565372924805,304.6831759643554C285.43253729248045,307.4381759643555,282.82153729248046,309.4331759643554,280.08853729248045,310.48517596435545C278.71653729248044,311.02917596435543,277.3055372924805,311.38917596435545,275.89153729248045,311.6511759643555C274.46153729248044,311.9021759643555,273.08153729248045,311.98217596435546,271.7525372924805,312.1371759643555L263.64353729248046,312.9451759643555C252.83173729248045,313.9641759643555,242.00873729248048,314.89117596435545,231.16273729248047,315.60717596435546C220.31673729248047,316.32117596435546,209.45073729248048,316.8711759643555,198.53573729248046,316.8921759643555C193.07673729248046,316.91817596435544,187.60773729248046,316.75117596435547,182.10773729248046,316.25117596435547C179.35573729248046,315.99017596435544,176.59873729248048,315.65417596435543,173.80473729248047,315.0321759643555C172.40473729248046,314.7051759643555,170.99869729248047,314.33117596435545,169.54869729248048,313.6831759643554C168.82569729248047,313.34117596435544,168.08669729248047,312.95317596435547,167.34469729248048,312.3101759643555C166.62769729248046,311.7041759643555,165.80569729248046,310.64417596435544,165.69069729248048,309.27917596435543L168.39569729248046,310.8901759643555C168.06869729248046,311.01817596435546,167.98769729248048,311.02317596435546,167.81169729248046,311.06117596435547C167.65669729248046,311.09017596435547,167.51069729248047,311.1031759643555,167.36169729248047,311.1131759643555C167.06869729248046,311.1221759643555,166.77669729248046,311.10017596435546,166.50069729248048,311.0391759643555C165.94769729248046,310.9201759643555,165.44269729248046,310.6701759643555,165.07069729248047,310.3781759643555C164.29769729248048,309.78517596435546,163.91469729248047,309.1211759643555,163.60369729248046,308.51617596435545C163.03369429248048,307.29817596435544,162.80669429248047,306.1761759643555,162.64169429248048,305.0841759643555C162.34469429248045,302.9091759643554,162.34969429248048,300.83117596435545,162.43169429248047,298.77317596435546C162.61269429248046,294.6641759643555,163.15369429248048,290.65817596435545,163.78669729248048,286.67717596435546L163.76869729248048,286.8921759643555C163.89569729248046,282.2421759643555,164.02969729248048,277.59017596435547,164.22469729248047,272.94117596435547L164.75869729248046,258.9911759643555C164.92069729248047,254.34017596435547,165.13069729248048,249.69117596435547,165.35969729248046,245.0411759643555C165.57869729248046,240.3921759643555,165.79169729248048,235.7431759643555,166.06469729248047,231.0941759643555L166.46469729248048,231.10117596435546C166.59369729248047,235.7551759643555,166.66269729248046,240.41017596435546,166.73669729248047,245.06317596435548C166.82269729248046,249.71717596435548,166.88969729248046,254.37217596435545,166.90769729248046,259.02417596435544L167.00869729248046,272.9841759643555C167.05869729248047,277.6371759643555,167.04969729248046,282.29017596435546,167.03169729248046,286.9431759643555L167.03169729248046,287.0271759643555L167.01469729248046,287.15817596435545C166.49669729248046,291.07217596435544,166.07469729248047,295.0031759643555,166.00769729248046,298.87417596435546C165.97769729248046,300.80217596435546,166.03769729248046,302.73217596435546,166.33069729248047,304.50617596435546C166.47669729248048,305.38117596435546,166.71269729248047,306.2231759643555,167.01269729248048,306.80717596435545C167.15569729248048,307.08317596435546,167.33069729248047,307.28317596435545,167.36569729248046,307.28517596435546C167.38469729248047,307.30317596435543,167.34969729248047,307.2601759643555,167.28169729248046,307.2481759643555C167.24869729248047,307.2421759643555,167.20769729248047,307.2331759643555,167.16369729248046,307.23717596435546C167.13969729248046,307.23517596435545,167.11769729248047,307.24017596435544,167.08469729248046,307.24417596435546C167.03069729248048,307.2601759643555,167.07069729248047,307.23217596435546,166.86069729248047,307.31617596435547L166.55769729248047,307.43617596435547L169.56569729248048,308.92717596435546C169.57769729248048,308.9331759643554,169.60169729248048,309.0601759643555,169.91269729248046,309.3181759643555C170.20269729248048,309.55917596435546,170.67369729248048,309.81617596435547,171.18269729248047,310.03517596435546C172.21369729248048,310.48717596435546,173.43973729248046,310.82317596435547,174.68073729248047,311.0981759643555C177.18573729248047,311.63917596435545,179.82573729248048,311.94817596435547,182.47273729248047,312.17817596435543C187.77773729248048,312.62617596435547,193.16373729248048,312.7141759643555,198.54873729248047,312.78717596435547C209.32773729248046,312.85017596435546,220.14573729248048,312.5021759643555,230.95673729248045,311.9961759643555C241.76673729248046,311.4691759643555,252.57973729248047,310.77517596435547,263.37453729248045,309.89317596435546L271.46653729248044,309.20317596435547C272.83353729248046,309.0651759643555,274.1645372924805,309.0031759643555,275.41053729248046,308.8011759643555C276.6665372924805,308.58617596435545,277.8965372924805,308.2891759643555,279.0535372924805,307.8491759643555C281.3685372924805,306.98517596435545,283.3425372924805,305.47717596435547,284.4645372924805,303.4011759643555C285.0295372924805,302.37017596435544,285.39153729248045,301.21317596435546,285.55753729248045,300.01117596435546C285.7295372924805,298.83517596435547,285.7045372924805,297.5031759643555,285.50653729248046,296.42917596435547L285.5455372924805,296.56417596435546C284.54053729248045,293.53017596435546,284.13653729248045,290.4491759643555,283.9095372924805,287.39417596435544C283.69753729248043,284.33517596435547,283.70353729248046,281.2891759643555,283.8195372924805,278.2551759643555C283.94253729248044,275.2221759643555,284.1805372924805,272.20317596435547,284.5055372924805,269.1951759643555C284.8325372924805,266.1831759643555,285.2285372924805,263.20117596435546,285.74553729248044,260.1951759643555L285.73553729248044,260.26817596435546C286.2505372924805,255.5051759643555,287.05953729248046,250.79217596435547,288.03353729248045,246.12417596435546C288.9975372924805,241.45317596435547,290.15353729248045,236.82917596435547,291.41953729248047,232.24117596435548C293.93653729248047,223.05917596435546,296.91253729248047,214.02017596435547,300.12953729248045,205.07917596435547C303.3425372924805,196.13317596435547,306.83053729248047,187.29417596435547,310.4885372924805,178.53017596435546C314.16253729248047,169.77117596435548,317.9975372924805,161.08317596435546,322.0925372924805,152.51317596435547L322.45353729248046,152.68517596435547Z" fill-rule="evenodd" fill="#000000" fill-opacity="1"/></g><g><path d="M82.13049999999988,257.10796998183594C80.69449999999989,262.60396638183596,75.61449999999988,266.86396638183595,69.95449999999988,267.66496638183594C67.14949999999989,268.03496638183594,64.35149999999989,268.2279663818359,61.53049999999989,268.31896638183593C58.71349999999988,268.40296638183594,55.880499999999884,268.31896638183593,53.062499999999886,267.9419663818359C51.65349999999989,267.7479663818359,50.248499999999886,267.47396638183596,48.874499999999884,267.0409663818359C47.496499999999884,266.63396638183593,46.14349999999989,266.05196638183594,44.92149999999989,265.21096638183593C44.26549999999989,264.77296638183594,43.83949999999989,264.40696638183596,43.23149999999988,264.13496638183597C42.65349999999989,263.86196638183594,42.03349999999989,263.68196638183593,41.40649999999989,263.61396638183595C40.151499999999885,263.46796638183594,38.86949999999989,263.78496638183594,37.88249999999989,264.52796638183594C36.871499999999884,265.27696638183596,36.218499999999885,266.3439663818359,36.395499999999885,267.5119663818359C36.52549999999989,268.6829663818359,37.249499999999884,269.8409663818359,38.07049999999989,270.87096638183596C38.90349999999989,271.9109663818359,39.895499999999885,272.85696638183595,40.941499999999884,273.74196638183594C41.459499999999885,274.19096638183595,41.992499999999886,274.6229663818359,42.544499999999886,275.03396638183597C43.084499999999885,275.46296638183594,43.633499999999884,275.85196638183595,44.21449999999989,276.24696638183593C48.828499999999885,279.3649663818359,53.605499999999886,282.2809663818359,58.56349999999989,284.77796638183594C61.02449999999989,286.06296638183596,63.562499999999886,287.17596638183596,66.12549999999989,288.16496638183594C68.68049999999988,289.17496638183593,71.33349999999989,289.9229663818359,73.96649999999988,290.1969663818359C74.63449999999989,290.2569663818359,75.23449999999988,290.32396638183593,76.0644999999999,290.37796638183596C76.91949999999989,290.4229663818359,77.40849999999989,290.56196638183593,78.04449999999989,290.53996638183594C79.26349999999988,290.52696638183596,80.43249999999989,290.11896638183595,81.32749999999989,289.31796638183596C82.2664999999999,288.5289663818359,82.83049999999989,287.41696638183595,83.33149999999989,286.1249663818359C83.85649999999988,284.8029663818359,84.4514999999999,283.4979663818359,85.15749999999989,282.24196638183594C88.0524999999999,277.3819663818359,90.97049999999989,272.6299663818359,93.98949999999988,267.88396638183593L94.16349999999989,267.9829663818359C92.91149999999988,270.49696638183593,91.59749999999988,272.97396638183596,90.31649999999988,275.4709663818359L86.39349999999989,282.88796638183595C85.79749999999989,284.1179663818359,85.29349999999988,285.39596638183593,84.81549999999989,286.69296638183596C84.35449999999989,288.0119663818359,83.68549999999988,289.52796638183594,82.48449999999988,290.5989663818359C81.31949999999989,291.7159663818359,79.69249999999988,292.33996638183595,78.10949999999988,292.40096638183593C77.3384999999999,292.46296638183594,76.4454999999999,292.28696638183595,75.89849999999988,292.3009663818359L73.80049999999989,292.1899663818359C67.90149999999988,291.59296638183594,62.65849999999989,289.13296638183596,57.651499999999885,286.5359663818359C52.64949999999989,283.87196638183593,47.89949999999989,280.82096638183594,43.29549999999989,277.55696638183593C42.72349999999989,277.15296638183594,42.136499999999884,276.7209663818359,41.58649999999989,276.26796638183595C41.02149999999989,275.83096638183594,40.47349999999989,275.37096638183596,39.940499999999886,274.8919663818359C38.86349999999989,273.94796638183595,37.83249999999989,272.93196638183593,36.931499999999886,271.7669663818359C36.05549999999989,270.60696638183595,35.19649699999989,269.28996638183594,35.02649679999988,267.64496638183596C34.92749689999989,266.83496638183595,35.109496999999884,265.95296638183595,35.51249699999989,265.23196638183595C35.91449699999988,264.5019663818359,36.489499999999886,263.93396638183594,37.11649999999989,263.47696638183595C38.39349999999989,262.54896638183595,40.032499999999885,262.1899663818359,41.556499999999886,262.39796638183594C42.32049999999989,262.49696638183593,43.062499999999886,262.72696638183595,43.746499999999884,263.06596638183595C44.425499999999886,263.37296638183597,45.075499999999884,263.92696638183594,45.58249999999988,264.2689663818359C46.654499999999885,265.03896638183596,47.89949999999989,265.60896638183596,49.200499999999884,266.01596638183594C50.493499999999884,266.45096638183594,51.84549999999989,266.7399663818359,53.209499999999885,266.9539663818359C55.94149999999989,267.38396638183593,58.730499999999886,267.5359663818359,61.51849999999989,267.5189663818359C64.30249999999988,267.49696638183593,67.1114999999999,267.3679663818359,69.87249999999989,267.07096638183594C72.60049999999988,266.73496638183593,75.23149999999988,265.6029663818359,77.36649999999989,263.84296638183594C78.43649999999988,262.9659663818359,79.38349999999988,261.93696638183593,80.1714999999999,260.79496638183593C80.5644999999999,260.2209663818359,80.91349999999989,259.62096638183596,81.23149999999988,259.00296638183596L81.66649999999989,258.05397038183594L81.85049999999988,257.56597038183594L81.94349999999989,257.3219703818359L81.98849999999989,257.19997038183595L82.01149999999988,257.13796998183597L82.02349999999988,257.10796998183594C82.06949999999989,257.11196998183595,81.93649999999988,257.05696998183595,82.13049999999988,257.10796998183594L82.13049999999988,257.10796998183594Z" fill-rule="evenodd" fill="#000000" fill-opacity="1"/></g></g><g><path d="M135.09730017089845,201.8237762451172L142.45130017089843,209.2417762451172C143.68830017089843,210.4667762451172,144.97730017089845,211.6357762451172,146.15730017089845,212.9067762451172C147.35730017089844,214.1517762451172,148.45030017089843,215.5287762451172,149.73530017089843,216.6517762451172L149.70030017089843,216.74577624511718C148.82630017089843,216.44077624511718,148.15430017089844,215.85277624511718,147.44130017089844,215.33477624511718C146.75030017089844,214.7907762451172,146.09230017089843,214.20877624511718,145.45130017089843,213.6157762451172C144.16730017089844,212.4257762451172,143.03230017089845,211.0947762451172,141.87230017089843,209.79277624511718C139.53430017089843,207.2047762451172,137.25730017089845,204.56577624511718,135.02330017089844,201.8907762451172L135.09730017089845,201.8237762451172Z" fill-rule="evenodd" fill="#FFFFFF" fill-opacity="1"/></g><g><path d="M118.87949865722656,224.78277380371094C116.96549865722656,233.17877380371092,115.13149865722656,241.59277380371094,113.39449865722656,250.02177380371094L110.92349865722656,262.68677380371093C110.05549865722656,266.89977380371096,109.23649865722656,271.1127738037109,108.59549865722656,275.37077380371096L108.49549865722656,275.36377380371096C108.56749865722657,271.03777380371093,109.25049865722656,266.7567738037109,109.94049865722656,262.50377380371094C110.67549865722657,258.25377380371094,111.65049865722656,254.05277380371095,112.61149865722656,249.85277380371093C114.52549865722656,241.45177380371095,116.58749865722656,233.08777380371095,118.78249865722657,224.75877380371094L118.87949865722656,224.78277380371094Z" fill-rule="evenodd" fill="#FFFFFF" fill-opacity="1"/></g></g><g><g><path d="M131.9938203124998,119.8814272460939L75.2608203124998,119.8814272460939C72.8198203124998,119.8814272460939,70.8408203124998,117.90242724609391,70.8408203124998,115.4614272460939L70.8408203124998,20.420427246093908C70.8408203124998,17.979427246093906,72.8198203124998,16.000427246093906,75.2608203124998,16.000427246093906L131.9938203124998,16.000427246093906C134.4348203124998,16.000427246093906,136.41482031249978,17.979427246093906,136.41482031249978,20.420427246093908L136.41482031249978,115.4614272460939C136.41482031249978,117.90242724609391,134.4348203124998,119.8814272460939,131.9938203124998,119.8814272460939L131.9938203124998,119.8814272460939Z" fill-rule="evenodd" fill="#000000" fill-opacity="1"/></g><g><path d="M129.00952034950257,116.28572720527649L78.24452034950257,116.28572720527649C75.80452034950257,116.28572720527649,73.82452034950256,114.30672720527649,73.82452034950256,111.86572720527649L73.82452034950256,24.01572720527649C73.82452034950256,21.57472720527649,75.80452034950257,19.59572720527649,78.24452034950257,19.59572720527649L129.00952034950257,19.59572720527649C131.45052034950257,19.59572720527649,133.43052034950256,21.57472720527649,133.43052034950256,24.01572720527649L133.43052034950256,111.86572720527649C133.43052034950256,114.30672720527649,131.45052034950257,116.28572720527649,129.00952034950257,116.28572720527649L129.00952034950257,116.28572720527649Z" fill-rule="evenodd" fill="#FFFFFF" fill-opacity="1"/></g><g><path d="M109.13151989746093,102.93562536621094C109.13151989746093,105.97562536621093,106.66751989746093,108.43962536621093,103.62751989746094,108.43962536621093C100.58751989746094,108.43962536621093,98.12351989746094,105.97562536621093,98.12351989746094,102.93562536621094C98.12351989746094,99.89562536621094,100.58751989746094,97.43162536621094,103.62751989746094,97.43162536621094C106.66751989746093,97.43162536621094,109.13151989746093,99.89562536621094,109.13151989746093,102.93562536621094L109.13151989746093,102.93562536621094Z" fill-rule="evenodd" fill="#000000" fill-opacity="1"/></g><g><path d="M83.35032065582276,43.37232695770264C83.35032065582276,43.90632695770264,82.91732065582275,44.338326957702634,82.38432065582275,44.338326957702634C81.85132065582276,44.338326957702634,81.41832065582275,43.90632695770264,81.41832065582275,43.37232695770264L81.41832065582275,35.648326957702636C81.41832065582275,33.514326957702636,83.14832065582276,31.785326957702637,85.28132065582275,31.785326957702637L92.04032065582275,31.785326957702637C92.57432065582276,31.785326957702637,93.00532065582276,32.21832695770264,93.00532065582276,32.75132695770264C93.00532065582276,33.28432695770264,92.57432065582276,33.716326957702634,92.04032065582275,33.716326957702634L86.24632065582276,33.716326957702634C84.64732065582275,33.716326957702634,83.35032065582276,35.01332695770264,83.35032065582276,36.61332695770264L83.35032065582276,43.37232695770264ZM115.21442065582275,31.785326957702637L121.97342065582276,31.785326957702637C124.10742065582275,31.785326957702637,125.83542065582276,33.514326957702636,125.83542065582276,35.648326957702636L125.83542065582276,43.37232695770264C125.83542065582276,43.90632695770264,125.40442065582275,44.338326957702634,124.87042065582276,44.338326957702634C124.33742065582275,44.338326957702634,123.90542065582275,43.90632695770264,123.90542065582275,43.37232695770264L123.90542065582275,36.61332695770264C123.90542065582275,35.01332695770264,122.60842065582275,33.716326957702634,121.00842065582276,33.716326957702634L115.21442065582275,33.716326957702634C114.68142065582276,33.716326957702634,114.24842065582276,33.28432695770264,114.24842065582276,32.75132695770264C114.24842065582276,32.21832695770264,114.68142065582276,31.785326957702637,115.21442065582275,31.785326957702637ZM93.12592065582275,49.16632695770264C93.86492065582276,42.61732695770264,98.27792065582275,37.57936695770264,103.62692065582276,37.57936695770264C108.97692065582275,37.57936695770264,113.38992065582275,42.61732695770264,114.12792065582275,49.16632695770264L116.07192065582275,49.16632695770264C115.29692065582276,41.547366957702636,110.02792065582275,35.648366957702635,103.62692065582276,35.648366957702635C97.22692065582275,35.648366957702635,91.95592065582275,41.547366957702636,91.18297065582276,49.16632695770264L93.12592065582275,49.16632695770264ZM124.87032065582275,51.097326957702634L82.38432065582275,51.097326957702634C81.85132065582276,51.097326957702634,81.41832065582275,51.52932695770264,81.41832065582275,52.06232695770264C81.41832065582275,52.59632695770264,81.85132065582276,53.02832695770263,82.38432065582275,53.02832695770263L124.87032065582275,53.02832695770263C125.40432065582274,53.02832695770263,125.83532065582276,52.59632695770264,125.83532065582276,52.06232695770264C125.83532065582276,51.52932695770264,125.40432065582274,51.097326957702634,124.87032065582275,51.097326957702634ZM123.90532065582275,66.54642695770264C123.90532065582275,66.01342695770263,124.33732065582275,65.58142695770263,124.87032065582275,65.58142695770263C125.40432065582274,65.58142695770263,125.83532065582276,66.01342695770263,125.83532065582276,66.54642695770264L125.83532065582276,74.27142695770263C125.83532065582276,76.40442695770264,124.10732065582275,78.13442695770263,121.97332065582276,78.13442695770263L115.21432065582275,78.13442695770263C114.68132065582276,78.13442695770263,114.24832065582275,77.70142695770264,114.24832065582275,77.16842695770264C114.24832065582275,76.63542695770263,114.68132065582276,76.20242695770264,115.21432065582275,76.20242695770264L120.04232065582275,76.20242695770264C120.57632065582276,76.20242695770264,121.00832065582276,75.77042695770264,121.00832065582276,75.23742695770264C121.00832065582276,74.70342695770265,120.57632065582276,74.19942695770263,120.04232065582275,74.19942695770263C112.70732065582276,73.69242695770264,107.64532065582276,70.34342695770263,106.69832065582276,66.07542695770263C105.71532065582275,66.38042695770264,104.68832065582275,66.54642695770264,103.62732065582276,66.54642695770264C102.56732065582275,66.54642695770264,101.53932065582275,66.38042695770264,100.55632065582276,66.07542695770263C99.61032065582276,70.34342695770263,94.54632065582275,73.69242695770264,87.21232065582275,74.19942695770263C86.67932065582275,74.19942695770263,86.24632065582276,74.70342695770265,86.24632065582276,75.23742695770264C86.24632065582276,75.77042695770264,86.67932065582275,76.20242695770264,87.21232065582275,76.20242695770264L103.62732065582276,76.20242695770264C104.16132065582275,76.20242695770264,104.59332065582275,76.63542695770263,104.59332065582275,77.16842695770264C104.59332065582275,77.70142695770264,104.16132065582275,78.13442695770263,103.62732065582276,78.13442695770263L85.28132065582275,78.13442695770263C83.14832065582276,78.13442695770263,81.41832065582275,76.40442695770264,81.41832065582275,74.27142695770263L81.41832065582275,66.54642695770264C81.41832065582275,66.01342695770263,81.85132065582276,65.58142695770263,82.38432065582275,65.58142695770263C82.91732065582275,65.58142695770263,83.35032065582276,66.01342695770263,83.35032065582276,66.54642695770264L83.35032065582276,73.30642695770263C83.35032065582276,74.17142695770264,83.73732065582276,74.93942695770264,84.33932065582276,75.47042695770264C84.33232065582276,75.39242695770264,84.31632065582275,75.31742695770264,84.31632065582275,75.23742695770264C84.31632065582275,73.63742695770264,85.61332065582275,72.26442695770264,87.21232065582275,72.26442695770264C93.86532065582276,71.78942695770263,98.24132065582276,68.91442695770263,98.74832065582275,65.32242695770265C95.18832065582275,63.464426957702635,92.46832065582275,59.64542695770264,91.48632065582275,54.95942695770263L93.45232065582276,54.95942695770263C94.75832065582276,60.54242695770264,98.81732065582275,64.61542695770264,103.62732065582276,64.61542695770264C108.43832065582275,64.61542695770264,112.49632065582276,60.54242695770264,113.80332065582274,54.95942695770263L115.76832065582275,54.95942695770263C114.78632065582275,59.64542695770264,112.06732065582275,63.464426957702635,108.50632065582275,65.32242695770265C109.01432065582276,68.91442695770263,113.39032065582276,71.78942695770263,120.04232065582275,72.26442695770264C121.64232065582274,72.26442695770264,122.93932065582275,73.63742695770264,122.93932065582275,75.23742695770264C122.93932065582275,75.31742695770264,122.92232065582274,75.39142695770263,122.91532065582275,75.47042695770264C123.51732065582274,74.93942695770264,123.90532065582275,74.17142695770264,123.90532065582275,73.30642695770263L123.90532065582275,66.54642695770264ZM109.42042065582275,76.20232695770264L111.35242065582275,76.20232695770264C111.88542065582276,76.20232695770264,112.31842065582275,76.63532695770263,112.31842065582275,77.16832695770265C112.31842065582275,77.70132695770263,111.88542065582276,78.13432695770263,111.35242065582275,78.13432695770263L109.42042065582275,78.13432695770263C108.88742065582275,78.13432695770263,108.45542065582275,77.70132695770263,108.45542065582275,77.16832695770265C108.45542065582275,76.63532695770263,108.88742065582275,76.20232695770264,109.42042065582275,76.20232695770264Z" fill-rule="evenodd" fill="#000000" fill-opacity="1"/></g></g><g><path d="M128.77759963378907,88.5121078125Q129.72299963378907,87.56650781249999,129.72299963378907,86.2290078125L129.72299963378907,28.9380078125Q129.72299963378907,27.6004878125,128.77769963378907,26.6544638125Q127.83189963378906,25.7080078125,126.49399963378906,25.7080078125L81.18799963378906,25.7080078125Q79.85065963378906,25.7080078125,78.90473163378907,26.6544188125Q77.95899963378906,27.6006278125,77.95899963378906,28.9380078125L77.95899963378906,86.2290078125Q77.95899963378906,87.5664078125,78.90482163378907,88.51220781250001Q79.85063963378906,89.4580078125,81.18799963378906,89.4580078125L126.49399963378906,89.4580078125Q127.83199963378905,89.4580078125,128.77759963378907,88.5121078125ZM128.72299963378907,28.9380078125L128.72299963378907,86.2290078125Q128.72299963378907,87.1524078125,128.07039963378907,87.8051078125Q127.41769963378906,88.4580078125,126.49399963378906,88.4580078125L81.18799963378906,88.4580078125Q80.26485963378906,88.4580078125,79.61192963378906,87.8051078125Q78.95899963378906,87.15210781249999,78.95899963378906,86.2290078125L78.95899963378906,28.9380078125Q78.95899963378906,28.0146978125,79.61201963378906,27.3613478125Q80.26502963378907,26.7080078125,81.18799963378906,26.7080078125L126.49399963378906,26.7080078125Q127.41749963378906,26.7080078125,128.07029963378906,27.3612978125Q128.72299963378907,28.0144778125,128.72299963378907,28.9380078125Z" fill-rule="evenodd" fill="#000000" fill-opacity="1"/></g><g><path d="M224.1875859375,102.07254576171874Q222.1288859375,99.92840576171875,219.8230859375,99.92840576171875Q217.5172559375,99.92840576171875,215.4587059375,102.07256576171875Q213.5464859375,104.06429576171875,212.0869459375,107.65879576171875Q210.6431959375,111.21440576171875,209.8534409375,115.81310576171875Q209.0380859375,120.56080576171875,209.0380859375,125.75640576171875Q209.0380859375,130.95200576171874,209.8534399375,135.69970576171875Q210.6431959375,140.29840576171875,212.0869459375,143.85400576171875Q213.5464959375,147.44850576171876,215.4587059375,149.44020576171874Q217.5172559375,151.58440576171876,219.8230859375,151.58440576171876Q222.1288859375,151.58440576171876,224.1875859375,149.44030576171875Q226.0999859375,147.44850576171876,227.5596859375,143.85400576171875Q229.0036859375,140.29840576171875,229.7935859375,135.69970576171875Q230.6090859375,130.95200576171874,230.6090859375,125.75640576171875Q230.6090859375,120.56080576171875,229.7935859375,115.81310576171875Q229.0036859375,111.21440576171875,227.5596859375,107.65877576171874Q226.0999859375,104.06431576171875,224.1875859375,102.07254576171874ZM216.1800659375,102.76512576171875Q217.9434459375,100.92840576171875,219.8230859375,100.92840576171875Q221.7027859375,100.92840576171875,223.4662859375,102.76513576171875Q225.2456859375,104.61843576171876,226.6331859375,108.03503576171875Q228.0363859375,111.49040576171875,228.8079859375,115.98240576171875Q229.6090859375,120.64610576171876,229.6090859375,125.75640576171875Q229.6090859375,130.86670576171875,228.8079859375,135.53040576171875Q228.0364859375,140.02240576171874,226.6331859375,143.47780576171874Q225.2456859375,146.89440576171876,223.4662859375,148.74770576171875Q221.7027859375,150.58440576171876,219.8230859375,150.58440576171876Q217.9434459375,150.58440576171876,216.1800659375,148.74770576171875Q214.4008059375,146.89440576171876,213.0134759375,143.47780576171874Q211.6104459375,140.02250576171875,210.8390159375,135.53050576171876Q210.0380859375,130.86680576171875,210.0380859375,125.75640576171875Q210.0380859375,120.64610576171876,210.8390159375,115.98230576171875Q211.6104459375,111.49030576171874,213.0134759375,108.03501576171875Q214.4007959375,104.61838576171876,216.1800659375,102.76512576171875Z" fill-rule="evenodd" fill="#000000" fill-opacity="1"/></g><g><path d="M226.07562343749998,91.0662384375Q223.1156234375,87.9833984375,219.8225234375,87.9833984375Q216.5301234375,87.9833984375,213.5703934375,91.0662584375Q210.7876734375,93.9647184375,208.6566434375,99.2123984375Q206.5413434375,104.4212984375,205.3832554375,111.1635984375Q204.1865234375,118.1306984375,204.1865244375,125.7563984375Q204.1865244375,133.3820984375,205.3832574375,140.3491984375Q206.5413434375,147.0913984375,208.6566434375,152.3003984375Q210.7876634375,157.54809843750002,213.5703934375,160.4464984375Q216.5301234375,163.5293984375,219.8225234375,163.5293984375Q223.1156234375,163.5293984375,226.07562343749998,160.4465984375Q228.8586234375,157.5481984375,230.9896234375,152.3003984375Q233.1049234375,147.09169843749999,234.2629234375,140.3491984375Q235.4595234375,133.3820984375,235.4595234375,125.7563984375Q235.4595234375,118.1305984375,234.2629234375,111.1635984375Q233.1049234375,104.4211984375,230.9896234375,99.2123984375Q228.8585234375,93.9646084375,226.07562343749998,91.0662384375ZM214.2917534375,91.7588184375Q216.9563234375,88.9833984375,219.8225234375,88.9833984375Q222.6894234375,88.9833984375,225.3543234375,91.7588384375Q228.0043234375,94.5187284375,230.0631234375,99.5885984375Q232.1376234375,104.6970984375,233.2773234375,111.3327984375Q234.4595234375,118.2158984375,234.4595234375,125.7563984375Q234.4595234375,133.2968984375,233.2773234375,140.1799984375Q232.1377234375,146.8155984375,230.0631234375,151.9241984375Q228.0043234375,156.9939984375,225.3543234375,159.7539984375Q222.6894234375,162.5293984375,219.8225234375,162.5293984375Q216.9563234375,162.5293984375,214.2917534375,159.7539984375Q211.6419634375,156.9939984375,209.5831534375,151.9241984375Q207.5085834375,146.8154984375,206.3688234375,140.1799984375Q205.1865234375,133.2967984375,205.1865244375,125.7563984375Q205.1865234375,118.2159984375,206.3688234375,111.3327984375Q207.5085934375,104.6972984375,209.5831534375,99.5886984375Q211.6419634375,94.5188084375,214.2917534375,91.7588184375Z" fill-rule="evenodd" fill="#000000" fill-opacity="1"/></g><g><path d="M222.74210625,110.50441473828126Q221.37381625,109.07940673828125,219.82390625,109.07940673828125Q218.27434625,109.07940673828125,216.90611625,110.50442573828126Q215.66062625,111.80160673828125,214.71515625,114.12950673828125Q212.75390625,118.95840673828125,212.75390625,125.75640673828124Q212.75390625,132.55500673828124,214.71515625,137.38370673828126Q215.66061625,139.71140673828126,216.90612625,141.00850673828126Q218.27433625,142.43340673828123,219.82390625,142.43340673828123Q221.37381625,142.43340673828123,222.74209625,141.00850673828126Q223.98760625,139.71150673828126,224.93300625,137.38370673828126Q226.89390625,132.55540673828125,226.89390625,125.75640673828124Q226.89390625,118.95798673828125,224.93300625,114.12952673828124Q223.98760625,111.80156673828125,222.74210625,110.50441473828126ZM217.62744625,111.19701673828125Q218.70051625,110.07940673828125,219.82390625,110.07940673828125Q220.94765625,110.07940673828125,222.02079625,111.19702673828125Q223.13336625,112.35569673828125,224.00650625,114.50578673828124Q225.89390625,119.15329673828126,225.89390625,125.75640673828124Q225.89390625,132.36010673828125,224.00650625,137.00740673828125Q223.13337625,139.15730673828125,222.02080625,140.31590673828126Q220.94768625,141.43340673828123,219.82390625,141.43340673828123Q218.70047625,141.43340673828123,217.62743625,140.31590673828126Q216.51487625,139.15730673828125,215.64165625,137.00740673828125Q213.75390625,132.35970673828126,213.75390625,125.75640673828124Q213.75390625,119.15373673828125,215.64165625,114.50580673828125Q216.51490625,112.35573673828125,217.62744625,111.19701673828125Z" fill-rule="evenodd" fill="#000000" fill-opacity="1"/></g><g><path d="M223.1693303125,118.46966515625Q221.8486003125,115.21728515625,219.8230703125,115.21728515625Q217.7981903125,115.21728515625,216.4776743125,118.46968515625Q215.2470703125,121.50062515625,215.2470703125,125.75628515625Q215.2470703125,130.01188515625,216.4776743125,133.04288515625Q217.7981903125,136.29528515625,219.8230703125,136.29528515625Q221.8486003125,136.29528515625,223.1693303125,133.04288515625Q224.4000703125,130.01218515625,224.4000703125,125.75628515625Q224.4000703125,121.50042515625,223.1693303125,118.46966515625ZM218.5972703125,116.85249515625Q219.2069903125,116.21728415625,219.8230703125,116.21728415625Q220.4395603125,116.21728515625,221.0495003125,116.85254515625Q221.7146703125,117.54533515625,222.2428103125,118.84590515625Q223.4000703125,121.69572515625,223.4000703125,125.75628515625Q223.4000703125,129.81688515625,222.2428103125,132.66668515625Q221.7146703125,133.96718515625,221.0495003125,134.65998515625Q220.4395603125,135.29528515625,219.8230703125,135.29528515625Q219.2069903125,135.29528515625,218.5972703125,134.66008515625Q217.9322703125,133.96728515625,217.4042203125,132.66668515625Q216.2470703125,129.81668515625,216.2470703125,125.75628515625Q216.2470703125,121.69589515625,217.4042203125,118.84587515625Q217.9322703125,117.54530515625,218.5972703125,116.85249515625Z" fill-rule="evenodd" fill="#000000" fill-opacity="1"/></g></g></g></svg>