<svg xmlns="http://www.w3.org/2000/svg" xmlns:xlink="http://www.w3.org/1999/xlink" fill="none" version="1.1" width="375" height="350" viewBox="0 0 375 350"><defs><mask id="master_svg0_0_1451" style="mask-type:alpha" maskUnits="userSpaceOnUse"><g><path d="M286.70245361328125,10L366.70245361328125,10L366.70245361328125,59.7786L286.70245361328125,59.7786L286.70245361328125,10Z" fill-rule="evenodd" fill="#FFFFFF" fill-opacity="1"/></g></mask><mask id="master_svg1_0_1507" style="mask-type:alpha" maskUnits="userSpaceOnUse"><g><path d="M173,123.0780480504036L178.364,123.0780480504036L178.364,124.5000180504036L173,124.5000180504036L173,123.0780480504036Z" fill-rule="evenodd" fill="#FFFFFF" fill-opacity="1"/></g></mask></defs><g><g><g><g><path d="M295.4138536453247,51.245100021362305L295.4138536453247,22.801100021362306C295.4138536453247,22.801100021362306,295.9468536453247,19.245100021362305,298.9688536453247,19.245100021362305L329.1918536453247,19.245100021362305L329.1918536453247,51.245100021362305L295.4138536453247,51.245100021362305ZM341.6355536453247,28.134100021362304C341.6355536453247,23.156100021362306,345.5465536453247,19.245100021362305,350.5245536453247,19.245100021362305C355.5025536453247,19.245100021362305,359.4135536453247,23.334100021362303,359.4135536453247,28.134100021362304L359.4135536453247,47.68910002136231C359.4135536453247,49.644100021362306,357.8135536453247,51.245100021362305,355.8575536453247,51.245100021362305L345.1915536453247,51.245100021362305C343.2355536453247,51.245100021362305,341.6355536453247,49.644100021362306,341.6355536453247,47.68910002136231L341.6355536453247,28.134100021362304Z" fill-rule="evenodd" fill="#000000" fill-opacity="1"/></g><g mask="url(#master_svg0_0_1451)"><g><path d="M286.70245361328125,10L366.70245361328125,10L366.70245361328125,59.7786L286.70245361328125,59.7786L286.70245361328125,10Z" fill-rule="evenodd" fill="#D8D8D8" fill-opacity="0.009999999776482582"/></g><g><path d="M363.14745361328124,59.778599993228916L290.25845361328123,59.778599993228916C288.3024536132813,59.778599993228916,286.70245361328125,58.178599993228914,286.70245361328125,56.22259999322891L286.70245361328125,18.889599993228913C286.70245361328125,13.910599993228912,290.61345361328125,9.999599993228912,295.59145361328126,9.999599993228912L348.92445361328123,9.999599993228912C358.70245361328125,9.999599993228912,366.70245361328125,17.999599993228912,366.70245361328125,27.778599993228912L366.70245361328125,56.22259999322891C366.70245361328125,58.178599993228914,365.10345361328126,59.778599993228916,363.14745361328124,59.778599993228916ZM332.92445361328123,24.22259999322891L332.92445361328123,54.44559999322891L292.03643361328125,54.44559999322891L292.03643361328125,20.666599993228914C292.03643361328125,20.666599993228914,293.10343361328125,15.333579993228913,297.3694536132812,15.333579993228913L338.25845361328123,15.333579993228913C338.25845361328123,15.333579993228913,332.92445361328123,18.53457999322891,332.92445361328123,24.22259999322891ZM363.14715361328126,50.88959999322891C363.14715361328126,52.84459999322891,361.54715361328124,54.44559999322891,359.5911536132812,54.44559999322891L341.81415361328123,54.44559999322891C339.8581536132813,54.44559999322891,338.25815361328125,52.84459999322891,338.25815361328125,50.88959999322891L338.25815361328125,27.778599993228912C338.25815361328125,20.84459999322891,343.7691536132812,15.333579993228913,350.70215361328127,15.333579993228913C357.63615361328124,15.333579993228913,363.14715361328126,20.84459999322891,363.14715361328126,27.778599993228912L363.14715361328126,50.88959999322891Z" fill-rule="evenodd" fill="#000000" fill-opacity="1"/></g></g></g><g><path d="M302.9365596875,22.424887805859374C298.8475596875,23.313888005859376,301.5145576875,26.690886005859376,303.1145596875,27.935886005859373C306.3145596875,30.246886005859373,307.0255596875,31.135886005859376,304.3585596875,29.535886005859375C304.3585596875,29.535886005859375,299.5585596875,28.647886005859377,300.8025576875,31.313886005859374C302.0475596875,33.98085600585937,307.9145596875,36.647856005859374,307.9145596875,36.647856005859374C307.9145596875,36.647856005859374,300.2695576875,34.513856005859374,300.8025576875,36.647856005859374C301.3365576875,38.77985600585937,307.9145596875,41.98085600585938,307.9145596875,41.98085600585938C307.9145596875,41.98085600585938,304.1805596875,41.98085600585938,304.3585596875,43.757856005859374C304.5365596875,45.00285600585937,308.9815596875,46.24685600585937,311.4695796875,47.31385600585938C315.0255796875,48.91385600585937,316.7905796875,48.16255600585937,320.0035796875,46.24685600585937C320.0035796875,46.24685600585937,322.1365796875,45.71385600585937,322.1365796875,40.558856005859376C321.9585796875,37.00285600585937,319.4695796875,32.91385600585937,318.0475796875,31.668886005859378C314.1365796875,27.935886005859373,307.0255596875,21.535888005859373,302.9365596875,22.424887805859374Z" fill-rule="evenodd" fill="#FFFFFF" fill-opacity="1"/></g><g><rect x="320" y="58" width="3" height="34" rx="0" fill="#040404" fill-opacity="1"/></g><g><ellipse cx="321.55326318740845" cy="95.55326318740845" rx="7.553263187408447" ry="7.553263187408447" fill="#000000" fill-opacity="1"/></g><g><g><g><path d="M93.39892026367187,320.8821000012207C90.47162026367188,320.7062900012207,85.79505026367187,319.8388000012207,82.35903026367187,318.8981400012207C82.18679026367188,319.5121600012207,81.91637026367188,319.8896700012207,81.53082026367187,320.1324300012207C81.24076026367187,320.2966400012207,81.03193026367188,320.0949400012207,80.92661026367188,319.7620500012207C80.54464026367188,318.5438300012207,80.04217026367188,317.4112800012207,79.53078626367187,316.4036800012207C79.18361426367187,315.6861300012207,78.87838826367188,315.0997700012207,78.69721626367188,314.5241300012207C78.35539926367187,313.5120600012207,78.58030206367188,312.8328900012207,79.26482926367187,312.3018684012207C79.47991526367187,312.1367609012207,79.72891026367188,312.2295780712207,79.86100026367187,312.6490400012207C80.20907026367188,313.75749000122073,80.80613026367188,314.8837900012207,81.33269026367188,315.8628400012207C81.50315026367187,316.1743100012207,81.61739026367188,316.3813600012207,81.76554026367188,316.6990800012207C83.10246026367187,317.0828500012207,85.26225026367187,317.5237300012207,87.47112026367188,317.9735400012207C87.25960026367187,317.5290800012207,87.11859026367188,317.1596000012207,86.99900026367187,316.8561600012207C86.57240026367188,315.6522100012207,86.78927026367188,314.9507300012207,87.42203026367187,314.4848600012207C87.67550026367188,314.2831600012207,87.91022026367187,314.2581700012207,88.07086026367188,314.7677700012207C88.41179026367188,315.8530200012207,89.16412026367188,317.3202400012207,89.85042026367188,318.4188800012207C91.21952026367188,318.6696600012207,92.27352026367187,318.8499400012207,93.40962026367188,318.9802400012207C92.88042026367188,318.1484600012207,92.19852026367188,316.8293800012207,91.93172026367188,316.1341500012207C91.51132026367188,314.9516200012207,91.67112026367188,314.2197900012207,92.31902026367187,313.7244700012207C92.59392026367188,313.5165200012207,92.79202026367187,313.5272300012207,92.93842026367187,313.9922100012207C93.28472026367187,315.1738500012207,94.60552026367188,317.3630800012207,95.32132026367188,318.4768900012207C95.64262026367187,318.9606100012207,95.75412026367188,319.3140300012207,95.42392026367187,319.7343800012207C95.25082026367187,319.9592900012207,94.94472026367188,320.2261400012207,94.62342026367187,320.5947300012207C94.39042026367187,320.8624700012207,94.08882026367188,320.9079900012207,93.39892026367187,320.8821000012207L93.39892026367187,320.8821000012207Z" fill-rule="evenodd" fill="#020202" fill-opacity="1"/></g><g><path d="M84.14514141601562,309.94231172485354C84.31649141601562,309.8879117248535,84.51641141601563,309.8495117248535,84.74488141601563,309.8263117248535C83.54629141601562,309.15701172485353,82.34145141601563,308.1725817248535,82.11833141601562,307.46395172485353C81.89610141601563,306.7544417248535,82.52084141601563,306.0476017248535,83.42045141601562,305.7637917248535C82.25131141601562,305.03732172485354,81.15357141601562,304.0913017248535,80.95276141601562,303.3764317248535C80.77159141601562,302.72671172485354,81.23924141601563,302.19033172485354,81.94698141601563,301.9681017248535C82.67434141601562,301.7405217248535,83.80689141601563,301.89492172485353,85.44190141601563,302.37864172485354C86.55838141601562,302.7097517248535,87.68201141601563,302.9899917248535,88.43169141601562,302.7543717248535C88.92433141601562,302.59908172485353,89.19743141601563,302.26976172485354,89.08587141601562,301.91545172485354C88.86989141601562,301.2291417248535,87.02961141601563,300.61511172485353,85.46511141601563,300.20636172485354C85.08134141601562,300.10729872485354,84.99031141601563,299.8922127248535,85.12061141601562,299.6325037248535C85.27947141601562,299.3147827248535,86.08627141601562,299.0372237248535,86.66280141601563,299.14789042485353C88.10058141601563,299.3772557248535,89.66598141601563,300.6142217248535,90.09705141601563,301.9877417248535C90.57095141601562,303.4933417248535,90.03635141601562,304.5625217248535,88.87881141601562,304.9257617248535C88.49237141601563,305.04714172485353,87.99348141601563,305.1060417248535,87.38124141601563,305.0310717248535C86.54232141601562,304.90523172485354,85.15452141601563,304.5375317248535,84.22367141601562,304.2715817248535C83.36333141601563,304.0065117248535,82.55386141601562,303.6763017248535,82.60919141601562,303.8530117248535C82.66542141601562,304.03061172485354,83.02508141601562,304.4277617248535,84.70026141601562,305.3380817248535C86.91448141601562,306.5402417248535,89.28400141601563,306.96417172485354,91.56875141601563,307.26850172485354C92.04535141601562,307.3622117248535,92.20685141601562,307.65316172485353,91.97565141601562,308.11457172485353C91.75885141601563,308.54831172485353,91.50715141601563,308.7973117248535,90.95025141601562,308.9722317248535C90.58615141601562,309.08647172485354,89.84445141601563,309.12481172485354,89.23937141601563,309.0713017248535C88.37011141601562,309.0034717248535,86.98409141601563,308.6357717248535,85.89617141601562,308.3216217248535C84.74399141601563,308.0262117248535,83.73549141601562,307.6611917248535,83.79797141601563,307.86110172485354C83.85330141601563,308.0378117248535,84.59584141601563,308.7535817248535,86.42808141601563,309.6380117248535C88.10326141601563,310.4760117248535,90.37375141601562,310.88211172485353,92.61645141601562,311.1258117248535C93.00735141601562,311.1731117248535,93.21265141601563,311.3765117248535,93.00915141601563,311.85401172485354C92.84945141601563,312.2449117248535,92.53345141601562,312.5876117248535,92.04085141601563,312.7429117248535C91.74095141601562,312.8366117248535,91.35545141601563,312.88481172485353,90.80745141601562,312.8616117248535C89.37503141601563,312.8009117248535,82.63775141601562,310.3591117248535,80.22093441601562,309.6335117248535C79.72204181601562,309.47471172485353,79.63993441601562,309.13551172485353,79.95586941601563,308.7919517248535C80.21468741601562,308.4920817248535,83.80243141601562,310.04941172485354,84.14514141601562,309.94231172485354L84.14514141601562,309.94231172485354Z" fill-rule="evenodd" fill="#020202" fill-opacity="1"/></g><g><path d="M78.67285304077149,294.383334263916C78.15967704077148,294.763524263916,77.91335504077148,295.37576426391604,78.16414004077149,296.17363426391603C78.51845304077149,297.303504263916,80.13115304077148,298.79304426391604,83.23517304077149,299.764054263916C84.59351304077148,300.213814263916,85.95900304077148,300.222814263916,86.91216304077149,299.923804263916C88.21787304077148,299.513264263916,88.94787304077148,298.50477426391603,88.53827304077149,297.19819426391604C88.25977304077148,296.311964263916,87.25933304077148,295.531054263916,86.43736304077149,295.08303426391603C87.20132304077148,294.64839426391603,87.57527304077149,293.824644263916,87.22809304077148,292.717974263916C86.80328304077149,291.36588426391603,85.18344304077148,290.31722626391604,83.78404304077148,290.12534406391603C83.04418304077149,290.016462363916,82.48728304077149,290.33686026391604,82.31681304077148,290.488580263916C81.92056304077148,290.856279263916,82.00623304077149,291.049054263916,82.52565304077149,291.152584263916C84.19458304077149,291.431034263916,86.04914304077148,292.06558426391604,86.29992304077149,292.863454263916C86.36953304077149,293.084784263916,86.19729304077148,293.23561426391603,85.86529304077149,293.34003426391604C85.20155304077149,293.548774263916,84.23493304077148,293.443724263916,83.24390304077149,293.246484263916L82.74764304077148,293.141204263916L82.17385304077149,293.007174263916L81.09040304077149,292.740584263916L80.60531304077148,292.627584263916L80.27634304077148,292.559724263916C80.17233304077149,292.54005426391603,80.07426304077148,292.523554263916,79.98300304077148,292.510924263916L79.77599304077148,292.483124263916C78.55526304077148,292.350914263916,77.72043904077148,292.830754263916,77.41267704077148,293.318614263916C77.18688104077148,293.681854263916,77.32699974077148,294.052224263916,77.85355904077149,294.178954263916L78.67285304077149,294.383334263916ZM79.80539304077149,295.122314263916C80.38103304077148,294.942034263916,81.59212304077148,295.00004426391604,83.36993304077149,295.390054263916C83.53302304077148,295.427214263916,83.69320304077148,295.464874263916,83.85010304077149,295.50306426391603L84.31060304077148,295.619224263916L84.74920304077149,295.73865426391603L84.95959304077148,295.799634263916L85.36117304077149,295.924154263916C86.52581304077148,296.30295426391604,87.31967304077148,296.729364263916,87.47267304077148,297.216054263916C87.54227304077148,297.438284263916,87.30395304077149,297.609634263916,86.90591304077148,297.735474263916C86.19639304077148,297.957704263916,84.90409304077149,297.949674263916,83.65463304077149,297.612314263916C82.87881304077149,297.412784263916,82.14091304077148,297.145524263916,81.50644304077149,296.864154263916L81.13870304077149,296.694064263916C80.19396304077148,296.238274263916,79.54759304077149,295.773824263916,79.46803304077149,295.52035426391603C79.39842304077149,295.299024263916,79.53943304077148,295.206204263916,79.80539304077149,295.122314263916Z" fill-rule="evenodd" fill="#020202" fill-opacity="1"/></g><g><path d="M84.58274276123046,291.0183537609863C85.69114276123047,290.6702837609863,86.27844276123047,289.82868376098634,85.85444276123047,288.47748376098633C85.44304276123047,287.17000376098633,84.03294276123047,285.9348257609863,82.42738276123046,285.70902966098635C81.76160276123046,285.60193296098635,81.20112276123047,285.7527608609863,80.88697276123047,286.0713737609863C80.55051276123046,286.39534176098635,80.59692276123047,286.69699376098635,81.05208276123047,286.74965376098635C82.77366276123047,286.96295376098635,84.61934276123047,287.6483737609863,84.89774276123046,288.53460376098633C84.97454276123047,288.77824376098636,84.80314276123048,288.92907376098634,84.44884276123047,289.04063376098634C84.09454276123047,289.15219376098634,83.59474276123046,289.18789376098636,83.02266276123046,289.1477237609863C82.81652276123047,289.1275937609863,82.56930276123047,289.09066376098633,82.29716276123047,289.04364376098636L81.87227276123048,288.9663637609863L80.15292276123047,288.62726376098635L79.63210276123047,288.5318437609863C79.38245276123047,288.48869376098634,79.15155276123046,288.45348376098633,78.95120276123046,288.43107376098635C77.66336276123047,288.20438376098633,76.76642276123047,288.6800737609863,76.45495276123047,289.2396537609863C76.21309276123047,289.6323437609863,76.34161276123046,289.88402376098634,76.88869276123047,290.0776837609863C78.29791276123046,290.5346337609863,81.31268276123046,291.1450837609863,83.03783276123048,291.2120237609863C83.66974276123047,291.20845376098634,84.16234276123046,291.15043376098635,84.58274276123046,291.0183537609863ZM74.72357276123047,287.52079376098635C74.08009476123047,287.7224937609863,73.47142776123047,288.5721237609863,73.66598726123047,289.19150376098634C73.82573976123047,289.7011037609863,74.54864276123047,289.9858037609863,75.16802276123047,289.7903537609863C75.85433276123047,289.57526376098633,76.33180276123046,288.7675837609863,76.10868276123047,288.05806376098633C75.93465276123047,287.5047337609863,75.32063276123047,287.3333737609863,74.72357276123047,287.52079376098635Z" fill-rule="evenodd" fill="#020202" fill-opacity="1"/></g><g><path d="M79.44362442626954,284.67625115356446C77.52388442626953,283.13674115356446,74.15211442626953,281.54367115356445,71.30066442626953,281.68468115356444C70.88834442626953,281.69271115356446,70.63845442626953,281.74626115356443,70.32876442626953,281.84444115356445C69.75222442626954,282.02561115356445,69.20870842626952,282.46381115356445,68.94007342626954,283.08408115356445C68.67411642626953,283.6302711535645,68.93204152626953,283.98637115356445,69.48537442626953,284.27464115356446C72.44927442626953,285.72937115356444,77.33378442626953,286.94495115356443,81.28122442626953,286.65397115356444C81.75952442626954,286.62452115356444,82.21652442626953,286.52992115356443,82.59312442626953,286.41122115356444C84.12192442626953,285.93107115356446,84.63242442626954,284.84671115356446,84.20762442626953,283.4946211535645C84.02862442626953,282.92498115356443,83.26662442626953,282.09416115356447,82.27312442626953,281.21190115356444L81.86432442626953,280.85676115356443L81.65212442626952,280.67806115356444L81.21562442626953,280.3202711535645L80.76692442626953,279.96446115356446L80.31102442626953,279.6136111535645L79.85292442626954,279.2706911535644L79.39772442626953,278.93870115356447L78.73111442626953,278.46771115356444L78.30483442626954,278.17607115356446L77.89889442626954,277.9058011535644L77.51828442626953,277.65987115356444L77.16802442626953,277.44127415356445L76.85309442626954,277.25299015356444L76.57851442626954,277.09800215356444C76.50629442626953,277.05876115356443,76.43963442626954,277.02396215356447,76.37905442626953,276.99391815356444L76.21606442626953,276.91836785356446C76.14420442626952,276.88803895356443,76.08720442626954,276.86911445356446,76.04683442626953,276.86265115356446C75.35784442626954,276.76269425356446,74.84199442626954,276.90013505356444,74.53766442626953,277.09380215356447C74.01021442626953,277.42937215356443,74.16282442626954,277.91577115356444,74.80719442626953,278.03000115356446L74.92660442626953,278.05589115356446C75.42603442626952,278.17918115356446,76.18264442626953,278.53676115356444,77.04153442626954,279.01937115356446L77.47879442626953,279.27059115356445L77.92879442626953,279.53961115356446L78.50265442626953,279.8963011535645L79.08132442626953,280.2701511535644L79.54202442626953,280.57759115356447L79.99612442626953,280.88918115356444L80.43932442626954,281.20188115356444L81.07412442626953,281.66639115356446L81.47122442626953,281.96860115356446L81.84232442626953,282.26130115356443L82.18302442626953,282.54147115356443L82.48922442626953,282.80605115356445C82.96842442626954,283.23237115356443,83.28542442626953,283.58113115356446,83.35082442626953,283.7891311535644C83.44102442626954,284.07740115356444,83.10632442626954,284.32819115356443,82.57532442626953,284.49508115356446C81.79972442626953,284.73783115356446,80.71272442626953,284.76371115356443,79.44362442626954,284.67625115356446ZM72.43755442626953,283.32377115356445L72.03273442626953,283.21306115356447L71.70633442626954,283.11425115356445L71.53599442626953,283.05605115356445L71.46583442626954,283.02950115356447L71.35691442626953,282.98189115356445C71.29862442626953,282.9527011535645,71.26947442626953,282.92875115356446,71.27242442626954,282.91090115356445C71.28628442626953,282.8617411535645,71.39462442626953,282.82596115356444,71.58092442626953,282.81000115356443L71.75931442626953,282.80132115356446L71.97358442626953,282.80324115356444L72.22140442626953,282.81665115356446L72.50046442626953,282.84246115356444L72.65099442626953,282.86029115356445L73.05705442626953,282.92015115356446L73.50200442626954,283.00324115356443C73.62543442626954,283.02865115356445,73.75253442626953,283.05672115356447,73.88291442626954,283.08761115356447C74.90657442626953,283.32679115356444,76.16228442626954,283.75875115356445,77.39211442626953,284.42007115356444L77.32106442626953,284.41207115356445L77.12211442626953,284.38062115356445L76.85755442626953,284.33116115356444L76.36437442626953,284.23000115356444L75.38725442626954,284.01544115356444L72.91332442626953,283.4441911535645L72.43755442626953,283.32377115356445Z" fill-rule="evenodd" fill="#020202" fill-opacity="1"/></g><g><path d="M127.38037109375,252.47368032104492L143.37037109375,252.1988303210449Q145.40647109374999,251.40598032104492,148.13937109375001,251.35901032104493Q150.87227109375,251.31203032104492,153.57617109375,252.02340032104493L184.38977109375,251.49375032104493L241.39937109375,250.7378243210449L269.90337109375,250.27016832104493L284.15637109375,250.1354049210449C288.90737109375,250.12201782104492,293.65837109375,250.1586092210449,298.40937109375,250.20501782104492L312.66237109375004,250.44598532104493C317.41337109375,250.57003932104493,322.16437109375,250.65214732104494,326.91637109375,250.82260932104492C336.41837109375,251.10016832104492,345.92137109375,251.5348003210449,355.42337109375,252.12562032104492L355.42437109375,252.5718603210449C345.92337109375,253.1930203210449,336.42237109375003,253.6562103210449,326.92037109374996,253.96233032104493C322.16937109375,254.14796032104493,317.42037109374996,254.24346032104492,312.66837109375,254.38358032104492L298.41637109375,254.66738032104493C293.66537109374997,254.72718032104493,288.91437109375,254.77805032104493,284.16337109375,254.78073032104493L269.91137109375,254.6879103210449L241.40537109375,254.3077203210449L184.39337109375,253.72493032104492L155.11697109375,253.3115603210449Q151.52187109375,252.18526032104492,148.34627109375,252.14042032104493Q145.17057109375,252.09558032104493,141.85097109375,253.1242403210449L127.38126356675,252.9199203210449L127.38037109375,252.47368032104492Z" fill-rule="evenodd" fill="#000000" fill-opacity="1"/></g><g><path d="M30.12695312499993,252.62191967163085C35.34346312499993,252.25778967163086,40.55995312499993,252.01325967163086,45.77735312499993,251.70534967163087L53.60255312499993,251.32515867163085L61.427753124999924,251.01190067163085C64.03645312499992,250.91283567163086,66.64515312499992,250.73166367163086,69.25295312499992,250.57637367163085C71.86165312499992,250.43000777163087,74.47035312499993,250.41662067163085,77.07905312499993,250.54245937163086C79.68775312499993,250.66472867163085,82.29735312499993,250.88695367163086,84.90605312499993,251.19128767163085C87.51565312499993,251.49829967163086,90.12435312499993,251.89098967163085,92.73395312499993,252.52642967163086L92.73485312499993,252.97265967163085C90.12705312499993,253.61523967163086,87.51925312499992,254.01596967163087,84.91145312499992,254.33100967163085C82.30275312499992,254.64426967163087,79.69495312499993,254.87362967163085,77.08625312499993,255.00482967163086C74.47755312499993,255.13690967163086,71.86885312499993,255.13244967163087,69.26015312499993,254.99411967163087C66.65145312499993,254.84685967163085,64.04185312499993,254.67371967163086,61.43315312499993,254.58178967163087L53.60705312499993,254.29262967163086L45.780953124999925,253.93652967163086C40.562653124999926,253.64469967163086,35.345243124999925,253.41621967163087,30.12695312499993,253.06815967163087L30.12695312499993,252.62191967163085Z" fill-rule="evenodd" fill="#000000" fill-opacity="1"/></g><g><path d="M129.04811628417968,246.91332029418945C127.67871628417969,244.52272029418947,126.30551628417969,242.15112029418947,124.91961628417968,239.81792029418946C124.57231628417969,239.23602029418944,124.22671628417969,238.65402029418945,123.8823162841797,238.07292029418946L121.82531628417968,234.60182029418945C121.16721628417969,233.49622029418944,120.5091162841797,232.39952029418944,119.84651628417969,231.31752029418945L120.0279162841797,230.69312029418944L120.05831628417968,230.55312029418945L120.17161628417969,229.98932029418944L120.21091628417969,229.70522029418944C120.29041628417968,229.13582029418944,120.32611628417969,228.56202029418947,120.31801628417969,227.98992029418946C120.31181628417968,226.84492029418945,120.1735162841797,225.70612029418945,119.95751628417969,224.58782029418944C119.73881628417968,223.46952029418946,119.44161628417969,222.36825029418947,119.09271628417969,221.28568029418946C118.91781628417968,220.74127029418946,118.73481628417969,220.21292029418944,118.52331628417969,219.67030029418945C118.2975162841797,219.10715029418947,117.9637162841797,218.58505029418944,117.54691628417969,218.13971029418946C116.71511628417969,217.24724029418945,115.53971628417969,216.66713029418946,114.30461628417969,216.58145029418947C113.6888162841797,216.52701029418947,113.0578162841797,216.62161029418945,112.4893162841797,216.77066029418944C111.90651628417969,216.90988029418946,111.34151628417969,217.13835029418945,110.80521628417969,217.42484029418947C109.74131628417969,218.02190029418946,108.8515162841797,218.93222029418945,108.2616162841797,219.98802029418945L108.1965162841797,220.10013029418946C107.77591628417969,220.80710029418947,107.53941628417968,220.86337029418945,107.21561628417969,220.36645029418946L107.1041162841797,220.18045029418946L106.99521628417969,219.97648029418946L106.49851628417969,218.98837029418945C106.05321628417968,218.11448029418946,105.58191628417968,217.25150029418944,104.93361628417969,216.40742029418945C103.27451628417968,214.31725029418945,100.71041628417969,212.91606429418945,97.97771628417969,212.78844039418945C96.61131628417968,212.74560169418945,95.26011628417969,212.92855829418946,93.94101628417968,213.55685929418945C93.28771628417968,213.88172029418945,92.65051628417969,214.38240029418947,92.20691628417968,215.05711029418944C92.13951628417969,215.15764029418946,92.08251628417969,215.25635029418945,92.03221628417968,215.35001029418945L91.89781628417968,215.61262029418944L91.81951628417968,215.76130029418945C91.66641628417969,216.03279029418945,91.52081628417969,216.13753029418945,91.14221628417968,215.86926029418944L90.99441628417969,215.76852029418944C90.38691628417969,215.37585029418946,89.58661628417968,215.11210029418945,88.7727162841797,215.18295029418945C88.33631628417969,215.21150029418945,87.91591628417969,215.33377029418946,87.54021628417969,215.51227029418945C87.19281628417968,215.68000029418945,86.9191162841797,215.84283029418944,86.60161628417968,216.12574029418946C86.09811628417968,216.43927029418944,85.59781628417969,216.76749029418946,85.12511628417968,217.18209029418946C84.99841628417968,217.28740029418947,84.87791628417969,217.40855029418947,84.75931628417969,217.53383029418944L84.40491628417969,217.91034029418944C84.20056628417969,218.21111029418944,83.96316628417969,218.47706029418944,83.81144628417968,218.83316029418944C83.44374628417968,219.49359029418946,83.3223662841797,220.35304029418944,83.42946628417968,221.11611029418944C83.53299628417969,221.89167029418945,83.84446628417969,222.57887029418944,84.22021628417968,223.14202029418945C84.59501628417969,223.71502029418946,85.02341628417969,224.21832029418945,85.48391628417968,224.65562029418945C85.7106162841797,224.88142029418947,85.94801628417969,225.08582029418946,86.18721628417968,225.28842029418945L86.84941628417968,225.82922029418944C87.6366162841797,226.50042029418944,88.31401628417969,227.29022029418945,88.83341628417969,228.16222029418947C89.35731628417969,229.04122029418946,89.70621628417969,229.97572029418944,89.89181628417968,230.98772029418944L89.9525162841797,231.34292029418947L89.95341628417968,231.35432029418945L89.88411628417968,231.31822029418944C89.71651628417969,231.22472029418947,89.54261628417969,231.11012029418944,89.35621628417968,230.98152029418947L88.7539162841797,230.56022029418946C88.2684162841797,230.22472029418947,87.77491628417968,229.89622029418945,87.27241628417968,229.57762029418944C86.27021628417968,228.94402029418944,85.20811628417968,228.33892029418945,84.13094628417969,227.83022029418944C83.07247628417969,227.31342029418946,81.98901628417968,226.82522029418945,80.85289628417969,226.39332029418946C80.27457628417969,226.18712029418944,79.6962462841797,225.98192029418945,79.06527628417969,225.82572029418947C78.43786628417969,225.66772029418945,77.77564628417969,225.53202029418946,76.95010628417968,225.55972029418945C76.54224628417968,225.58022029418944,76.04692628417969,225.64902029418946,75.51144628417968,225.94082029418945C74.96078828417969,226.21662029418945,74.47796028417969,226.85652029418947,74.3307022841797,227.42322029418946L74.29229368417968,227.55242029418946C74.2599818841797,227.67742029418946,74.24453178417969,227.79122029418946,74.23309388417968,227.90422029418946L74.20307823717968,228.21122029418945C74.1990343441797,228.38922029418944,74.21178679417969,228.54782029418945,74.22480748417969,228.70972029418945C74.22902858417969,228.76222029418946,74.23327788417969,228.81502029418945,74.23699218417968,228.86902029418945C74.2967878841797,229.26082029418944,74.37889528417969,229.63302029418946,74.48688428417968,229.95512029418944C74.90545428417968,231.27962029418944,75.50608628417969,232.32292029418946,76.1120762841797,233.37602029418946C77.3472562841797,235.44652029418944,78.72880628417968,237.34122029418944,80.15230628417969,239.19942029418945L82.30048628417968,241.91962029418946C82.97162628417969,242.78092029418946,83.59635628417969,243.68142029418945,84.18003628417969,244.61132029418945C84.7637162841797,245.54042029418946,85.30451628417968,246.50072029418945,85.80791628417968,247.48422029418947C86.33801628417969,248.54452029418945,86.96901628417969,249.62172029418946,87.63921628417968,250.62302029418944C88.98241628417969,252.64632029418945,90.52551628417969,254.50622029418946,92.18641628417969,256.23312029418946L92.47861628417968,256.54072029418944C95.82891628417968,259.9946202941895,100.48041628417968,262.34602029418943,105.3138162841797,262.90352029418943C107.80381628417969,263.21142029418945,110.3473162841797,263.0668202941895,112.77661628417968,262.46792029418947C115.23181628417969,261.8646202941894,117.44611628417968,260.88112029418943,119.55681628417969,259.68252029418943C123.76571628417969,257.2380202941895,127.3489162841797,253.98942029418944,130.0281162841797,249.85822029418944L130.4012162841797,249.28252029418945L129.04811628417968,246.91332029418945ZM89.95341628417968,231.35432029418945L89.97751628417969,231.65622029418944L89.96681628417969,231.88022029418946C89.9649162841797,231.88292029418946,89.96301628417969,231.88672029418944,89.96141628417969,231.89092029418944L89.95671628417969,231.91312029418947L89.97751628417969,231.86062029418946C89.98181628417969,231.85812029418946,89.98661628417969,231.85242029418944,89.99241628417968,231.84442029418946L90.04131628417969,231.77412029418946L90.07931628417968,231.73032029418945L90.19731628417969,231.64452029418945L90.26221628417969,231.60802029418946C90.27711628417968,231.60202029418946,90.29111628417968,231.59682029418946,90.30431628417969,231.59232029418945L90.37301628417968,231.57352029418945L90.44561628417969,231.56302029418944L90.44251628417969,231.55982029418945L90.33651628417968,231.52922029418946L90.20531628417969,231.48032029418945C90.1563162841797,231.45972029418945,90.10341628417969,231.43462029418944,90.04981628417968,231.40452029418947L89.95341628417968,231.35432029418945ZM86.60161628417968,216.12574029418946C86.56091628417968,216.16195029418947,86.51961628417969,216.20012029418945,86.47721628417969,216.24053029418945L86.69411628417969,216.06828029418946C86.66331628417969,216.08739029418945,86.63241628417968,216.10654029418944,86.60161628417968,216.12574029418946ZM119.84651628417969,231.31752029418945C119.82011628417969,231.27452029418944,119.79371628417968,231.23152029418947,119.76741628417969,231.18852029418946L119.8327162841797,231.39822029418946L119.82901628417969,231.37772029418946L119.84651628417969,231.31752029418945ZM119.48911628417969,231.26802029418945L119.54711628417968,231.46882029418944C120.11121628417969,232.73402029418946,120.68011628417969,233.98292029418946,121.24901628417969,235.22212029418944L122.95131628417968,238.91752029418944L123.79351628417969,240.75592029418945C125.09011628417969,243.58182029418944,126.40261628417969,246.35732029418946,127.71921628417968,249.11142029418946C126.53581628417969,250.62802029418947,125.0604162841797,252.07582029418944,123.54991628417969,253.34242029418945C121.85691628417969,254.74902029418945,120.0219162841797,255.97432029418945,118.07811628417969,256.96322029418945C116.13701628417968,257.9271202941894,114.07811628417969,258.77052029418945,112.04151628417969,259.18372029418947C109.9834162841797,259.62372029418947,107.8558162841797,259.64782029418944,105.78611628417968,259.34612029418946C103.70841628417969,259.0677202941895,101.70131628417968,258.37962029418946,99.84581628417969,257.4219202941895C98.91051628417969,256.95252029418947,98.03591628417969,256.37422029418946,97.19431628417969,255.75572029418944C96.36071628417969,255.09792029418946,95.60571628417969,254.45452029418945,94.81671628417969,253.65662029418945C93.26021628417969,252.09392029418945,91.82521628417969,250.41962029418946,90.59181628417969,248.62662029418945C89.97241628417969,247.72252029418945,89.41461628417969,246.82562029418946,88.87821628417969,245.84662029418945L88.52541628417968,245.22092029418945C88.04781628417969,244.38992029418944,87.54161628417968,243.57252029418945,87.00401628417968,242.77292029418945C86.33111628417969,241.77512029418946,85.61181628417968,240.80412029418946,84.83711628417969,239.87412029418945L83.49192628417968,238.28932029418945C83.20194628417968,237.94432029418945,82.91542628417969,237.59872029418946,82.62733628417969,237.24132029418945C81.20473628417969,235.48412029418944,79.82497628417968,233.68572029418945,78.65226628417969,231.83122029418945C78.08375628417969,230.91282029418946,77.52328628417969,229.94452029418946,77.23144628417968,229.07522029418945L77.1936062841797,228.97222029418944C77.1700562841797,228.90312029418945,77.14980628417969,228.83352029418944,77.13256628417969,228.76602029418945L77.0895562841797,228.57262029418945L77.06281628417969,228.40782029418946L77.05792628417969,228.35962029418945C77.0780962841797,228.35752029418944,77.09998628417969,228.35592029418945,77.12345628417968,228.35502029418944C77.44653628417969,228.33272029418944,77.93203628417969,228.39072029418946,78.41932628417969,228.50942029418945C78.90929628417969,228.61742029418946,79.42068628417968,228.78522029418946,79.92939628417969,228.95292029418945C80.9530562841797,229.31622029418946,81.98118628417969,229.74902029418945,83.00128628417968,230.21942029418946C84.01691628417969,230.67012029418945,84.96921628417968,231.18592029418946,85.92591628417969,231.75892029418947C86.40161628417968,232.04542029418946,86.8737162841797,232.34342029418946,87.34231628417969,232.65222029418945L87.53861628417968,232.78122029418944L87.96171628417969,233.06422029418945C88.2590162841797,233.25982029418947,88.58921628417968,233.46322029418945,88.9666162841797,233.64022029418945C89.29141628417969,233.79462029418946,89.66091628417969,233.95172029418944,90.20621628417969,234.01332029418944C90.46681628417969,234.03832029418945,90.83721628417969,234.03832029418945,91.22901628417969,233.86422029418947C91.43251628417968,233.77592029418946,91.61631628417969,233.66702029418946,91.76621628417969,233.50722029418944C91.93221628417969,233.35102029418945,92.05631628417969,233.18332029418946,92.12151628417969,233.03512029418945L92.1922162841797,232.89452029418945C92.27451628417968,232.71502029418946,92.31161628417969,232.56462029418947,92.34021628417969,232.41702029418946L92.38121628417969,232.19442029418946C92.40171628417968,231.96952029418946,92.40441628417969,231.76162029418944,92.40081628417968,231.55722029418945L92.3455162841797,231.01192029418945L92.25181628417968,230.51832029418946C91.99651628417969,229.27242029418946,91.50211628417969,228.02662029418946,90.81751628417969,226.94582029418945C90.13301628417969,225.85612029418945,89.26641628417968,224.89842029418946,88.2847162841797,224.09972029418947L87.59751628417969,223.56422029418945C87.39491628417969,223.39822029418946,87.1914162841797,223.23222029418946,87.00671628417969,223.05642029418945C86.6229162841797,222.71100029418946,86.29811628417968,222.33349029418946,86.0330162841797,221.95151029418946C85.49391628417969,221.16256029418946,85.35471628417969,220.43877029418945,85.69121628417969,219.74621029418944C86.00271628417968,219.01884029418946,86.84511628417968,218.34949029418945,87.71981628417969,217.79794029418946L87.8429162841797,217.72029029418945L87.93661628417969,217.62569029418944C88.00891628417969,217.55161029418946,88.23121628417968,217.38115029418947,88.39891628417969,217.30708029418946C88.5792162841797,217.21515029418944,88.76311628417969,217.15714029418945,88.94421628417969,217.14465029418946C89.30211628417969,217.10627029418944,89.68051628417969,217.20712029418945,90.06881628417969,217.46772029418946C90.44981628417969,217.72832029418944,90.8309162841797,218.09156029418946,91.15491628417969,218.54047029418945L91.4953162841797,218.99108029418946C91.76741628417969,219.30650029418945,92.31961628417969,219.46556029418946,92.71671628417968,219.28926029418946C92.93901628417969,219.20626029418946,93.1469162841797,219.04561029418946,93.28081628417968,218.81803029418944C93.41731628417969,218.59313029418945,93.45481628417969,218.31646029418945,93.42451628417969,218.11476029418947C93.38431628417969,217.81489029418947,93.35841628417968,217.58821029418945,93.36561628417968,217.33474029418946C93.3763162841797,216.34142029418945,93.84301628417968,215.59442029418946,94.7462162841797,215.10713029418946C95.65211628417968,214.63323029418945,96.82211628417969,214.41100029418945,97.92071628417969,214.42051029418946C100.16081628417969,214.45295029418946,102.37061628417969,215.55337029418945,103.84321628417969,217.29726029418944C104.37531628417969,217.93984029418945,104.84471628417968,218.72198029418945,105.28711628417969,219.52132029418945L105.72181628417968,220.32185029418946C106.28501628417969,221.39550029418945,106.7821162841797,222.50216029418945,107.17391628417968,223.63652029418944L108.05481628417968,226.18982029418945L108.3216162841797,223.52492029418946C108.5305162841797,221.42673029418944,109.48451628417969,219.32942029418945,111.29091628417969,218.26916029418945C111.74071628417968,218.01302029418946,112.21911628417969,217.79972029418946,112.72871628417968,217.66228029418946C113.2445162841797,217.51235029418945,113.73891628417968,217.42399029418945,114.25031628417969,217.45077029418945C115.26861628417969,217.48825029418944,116.26821628417969,217.94073029418945,116.99381628417969,218.67345029418945C117.35791628417968,219.03847029418947,117.65331628417968,219.47132029418944,117.86131628417968,219.94701029418945C118.07461628417968,220.44680029418944,118.27721628417969,220.97871029418945,118.4628162841797,221.50081029418945C118.83581628417969,222.55036029418946,119.16071628417968,223.61862029418944,119.40701628417969,224.70302029418946C119.65071628417968,225.78822029418944,119.81941628417968,226.89222029418946,119.85861628417969,227.99892029418945C119.88271628417968,228.55222029418945,119.86491628417969,229.10642029418946,119.80511628417969,229.65442029418946C119.7890162841797,229.93202029418944,119.7256162841797,230.20062029418946,119.6837162841797,230.47282029418946L119.6588162841797,230.60832029418947L119.48911628417969,231.26802029418945ZM77.05083628417968,228.23922029418947L77.04939628417969,228.25702029418946C77.04950628417969,228.26562029418946,77.04989628417968,228.27582029418946,77.05059628417969,228.28742029418945L77.05792628417969,228.35962029418945C77.03777628417969,228.36172029418947,77.01934628417969,228.36422029418947,77.00275628417968,228.36702029418944L76.92633628417968,228.38382029418946L76.90836628417969,228.39072029418946L76.92829628417968,228.37942029418946L76.96949628417968,228.33882029418945C76.97854628417969,228.33072029418946,76.98936628417968,228.32202029418946,77.00297628417968,228.31302029418944L77.02161628417969,228.27602029418946L77.05053628417969,228.24012029418947L77.05083628417968,228.23922029418947ZM77.05083628417968,228.23922029418947L77.05200628417968,228.22482029418944L77.05562628417968,228.22472029418947L77.05083628417968,228.23922029418947ZM127.71921628417968,249.11142029418946C127.82551628417968,249.33372029418945,127.93181628417969,249.55592029418946,128.0381162841797,249.77792029418944L128.08371628417967,248.62932029418945C127.96561628417969,248.79072029418944,127.84411628417969,248.95142029418946,127.71921628417968,249.11142029418946Z" fill-rule="evenodd" fill="#000000" fill-opacity="1"/></g><g><path d="M188.31451085205077,253.2099956359862L238.7073108520508,252.52699563598617L255.15431085205077,252.01699563598618C254.35031085205077,252.1919956359862,253.56231085205079,252.35799563598619,252.77031085205078,252.52699563598617L295.5533108520508,252.52699563598617C295.7513108520508,250.30799563598617,295.9903108520508,248.0929956359862,296.30531085205075,245.88789563598618C313.18431085205077,128.0403956359862,248.39231085205077,146.12096563598618,233.1543108520508,151.8916956359862C231.45931085205078,152.53427563598618,229.72531085205077,153.0635156359862,228.01631085205076,153.67128563598618C216.35481085205078,157.8265956359862,206.41621085205077,184.6793956359862,206.41621085205077,184.6793956359862L201.20061085205077,155.6936356359862C196.74621085205078,154.13537563598618,175.61961085205078,154.91807563598618,175.61961085205078,154.91807563598618C156.08601085205078,155.9470956359862,139.65201085205078,186.2938956359862,134.0607108520508,197.9129956359862C132.3605108520508,201.4444956359862,129.65991085205079,204.39049563598618,126.29084085205078,206.3923956359862C121.98912085205077,208.95109563598618,117.38395785205078,211.7462956359862,116.99930205205078,217.12079563598618C116.03543085205078,230.6033956359862,129.0557108520508,249.24399563598618,129.0557108520508,249.24399563598618C164.6806108520508,246.0243956359862,176.98241085205078,212.65839563598618,176.98241085205078,212.65839563598618C177.91061085205078,237.1656956359862,188.31451085205077,253.2099956359862,188.31451085205077,253.2099956359862Z" fill-rule="evenodd" fill="#020202" fill-opacity="1"/></g><g><path d="M148.04072684326172,250.81002307012696C150.5661268432617,250.90083263012696,153.02642684326173,251.34035663012696,155.45092684326173,251.87424463012695L156.24872684326172,252.05234463012695L156.41922684326173,252.16212463012695C157.74092684326172,253.00347463012696,159.36792684326173,253.72977463012694,160.97712684326171,254.33162463012695L161.4590268432617,254.50843463012694C163.23412684326172,255.18314463012695,165.08422684326172,255.68917463012696,166.9290268432617,256.186284630127L168.52892684326173,256.55890463012696C169.86282684326173,256.86845463012696,171.2005268432617,257.16506463012695,172.55962684326173,257.36970463012693L175.40032684326172,257.86056463012693L178.26602684326173,258.20951463012693L181.1345268432617,258.551334630127L186.9025268432617,258.983294630127C187.8646268432617,259.06361463012695,188.83112684326173,259.05201463012696,189.79502684326172,259.09038463012695L190.95282684326173,259.12041463012696L193.26912684326172,259.19050463012695C194.04142684326172,259.21112463012696,194.81372684326172,259.225684630127,195.5863268432617,259.22425463012695L201.3829268432617,259.13055463012694C202.3503268432617,259.13010463012694,203.31622684326172,259.08927463012697,204.2815268432617,259.03472463012696L207.17682684326172,258.85656463012697L212.9681268432617,258.49332463012695L221.63132684326172,257.62048463012695C222.59612684326171,257.53391463012696,223.5573268432617,257.42235463012696,224.51312684326172,257.2670646301269L226.81032684326172,256.92530463012696L231.40702684326172,256.25622463012695C232.93882684326172,256.029064630127,234.46982684326173,255.79287463012696,235.99782684326172,255.53299463012695L247.43782684326172,253.44549463012694L259.4368268432617,253.34464463012696L271.4358268432617,253.16704463012695L296.50582684326173,252.60567463012694L296.2608268432617,257.53391463012696C296.20682684326175,258.873514630127,296.0208268432617,260.235434630127,295.71182684326175,261.555364630127C295.0978268432617,264.20606463012695,293.9598268432617,266.73616463012695,292.41382684326175,268.97546463012696C289.3298268432617,273.50116463012694,284.7868268432617,276.771164630127,280.0158268432617,279.07106463012695C275.2008268432617,281.35846463012695,270.09682684326174,282.84806463012694,264.95182684326176,283.83156463012693C259.7958268432617,284.796264630127,254.59482684326173,285.29156463012697,249.4008268432617,285.553964630127C239.00282684326172,286.05916463012693,228.63722684326171,285.38176463012695,218.37202684326172,284.25546463012694C208.78862684326174,283.17096463012695,199.27762684326171,281.64326463012696,189.82642684326171,279.85166463012695L188.2310268432617,279.54526463012695L187.66292684326172,279.767764630127C184.60842684326173,280.9382646301269,181.55332684326171,281.9074646301269,178.4151268432617,282.74356463012697C174.93892684326173,283.66196463012693,171.3913268432617,284.38396463012697,167.76252684326172,284.73206463012696C164.14442684326173,285.03366463012696,160.3809268432617,285.06136463012695,156.70572684326171,283.85566463012697C154.8877268432617,283.25316463012695,153.1001268432617,282.28756463012695,151.67842684326172,280.86406463012696C150.78312684326173,279.98046463012696,150.06632684326172,278.935564630127,149.52462684326173,277.81896463012697L149.42632684326173,277.6103646301269L149.32402684326172,277.70236463012697C147.77692684326172,279.06636463012694,146.15552684326173,280.308064630127,144.36102684326173,281.41116463012696C143.16512684326173,282.13496463012694,141.8888268432617,282.789964630127,140.42877684326172,283.19516463012695C139.7040868432617,283.400464630127,138.89907684326172,283.5111646301269,138.05212684326173,283.44956463012693C137.2078468432617,283.39066463012693,136.29751684326172,283.0854646301269,135.57997684326173,282.522264630127C134.4989668432617,281.66146463012694,133.98021684326173,280.47536463012693,133.65285684326173,279.421064630127L133.53124684326173,279.00746463012695L133.3755668432617,278.42756463012694C133.0221468432617,277.107664630127,132.7329838432617,275.77696463012694,132.4938008432617,274.436464630127C132.0252528432617,271.75366463012693,131.76643564326173,269.01916463012697,131.86282274326172,266.25786463012696C131.93779044326172,264.879864630127,132.0475648432617,263.49206463012695,132.3599298432617,262.121264630127C132.4741668432617,261.43136463012695,132.7106718432617,260.75663463012694,132.89541684326173,260.07924463012694L133.0230468432617,259.746714630127L133.2730368432617,259.08090463012695C133.40166684326172,258.74946463012697,133.5411168432617,258.42192463012697,133.71559684326172,258.10599463012693C134.9213268432617,255.49729463012696,137.18106684326173,253.34732463012696,139.80493684326171,252.17729463012697C142.44572684326172,251.00993663012696,145.30082684326172,250.74308763012695,148.04072684326172,250.81002307012696ZM135.57288684326173,259.00831463012696C136.58941684326172,256.75928463012696,138.40202684326172,255.01360463012696,140.6180468432617,253.97566463012694C142.8528268432617,252.95020463012696,145.43202684326172,252.65480463012696,147.9889268432617,252.69049463012695C150.34842684326173,252.74776463012697,152.71002684326172,253.13949463012696,155.0540268432617,253.62647463012695L155.57912684326172,253.73673463012696L155.84282684326172,253.89438463012695C157.5190268432617,254.86344463012696,159.1678268432617,255.48929463012695,160.89322684326171,256.088144630127C162.75222684326172,256.75392463012696,164.6568268432617,257.23407463012694,166.55772684326172,257.70709463012696L168.19842684326173,258.0561046301269C169.56562684326173,258.34544463012696,170.9342268432617,258.620474630127,172.3169268432617,258.80215463012695L175.21032684326173,259.24392463012697L180.05622684326173,259.73749463012695L181.0256268432617,259.82314463012693L186.8544268432617,260.109624630127C187.4812268432617,260.14534463012694,188.1088268432617,260.14313463012695,188.7362268432617,260.14091463012693C189.08072684326171,260.13969463012694,189.42502684326172,260.138484630127,189.76922684326172,260.14354463012694C190.15792684326172,260.14175463012697,190.54662684326172,260.142224630127,190.93532684326172,260.14367463012695L193.2663268432617,260.15407463012696C194.04312684326172,260.15475463012694,194.81972684326172,260.14925463012696,195.59612684326171,260.1274746301269L201.4133268432617,259.8847246301269C202.70682684326172,259.8579546301269,203.9967268432617,259.76176463012695,205.2860268432617,259.65750463012694L213.0172268432617,259.03241463012694C213.7869268432617,258.937634630127,214.55682684326172,258.84535463012696,215.32692684326173,258.754164630127L219.94672684326173,258.20907463012696C221.4860268432617,258.024314630127,223.02422684326172,257.83275463012694,224.55962684326173,257.62319463012693C225.32572684326172,257.50646463012697,226.0924268432617,257.39293463012694,226.8594268432617,257.28081463012694L231.46182684326172,256.610364630127C232.9948268432617,256.38280463012694,234.52682684326172,256.14633463012694,236.0528268432617,255.88644463012696L247.4728268432617,253.80073463012695L259.4778268432617,253.90158463012696L271.48082684326175,254.07829463012695L294.3668268432617,254.59171463012694L294.4698268432617,253.54192463012694L295.4608268432617,254.61735463012695L294.3678268432617,254.59173463012695L294.0978268432617,257.39651463012694C293.9898268432617,258.62009463012697,293.76782684326173,259.8035146301269,293.4388268432617,260.9708646301269C292.7828268432617,263.30026463012695,291.6748268432617,265.48406463012697,290.2098268432617,267.40466463012694C287.2778268432617,271.25306463012697,283.1478268432617,274.123264630127,278.6268268432617,276.10096463012695C274.11082684326175,278.12596463012693,269.24582684326174,279.43166463012693,264.29882684326174,280.31256463012693C259.3478268432617,281.20766463012694,254.29882684326174,281.6592646301269,249.2378268432617,281.885064630127L245.4348268432617,282.007364630127L241.62382684326172,282.00466463012697L239.71882684326172,282.01356463012695L233.9948268432617,281.86546463012695L230.1791268432617,281.66556463012694C228.90702684326172,281.5967646301269,227.6350268432617,281.52186463012697,226.36422684326172,281.42816463012696C223.82242684326172,281.20146463012696,221.27712684326173,281.05066463012696,218.7389268432617,280.76236463012697C208.5754268432617,279.762764630127,198.44762684326173,278.25446463012696,188.3680268432617,276.456164630127L187.9128268432617,276.37406463012695L187.4889268432617,276.55076463012693C184.32962684326174,277.86176463012697,180.9873268432617,279.002364630127,177.65302684326173,279.94036463012696C174.30712684326173,280.88286463012696,170.90322684326173,281.60486463012694,167.49222684326173,281.97256463012695C164.10082684326173,282.30456463012695,160.62102684326172,282.325964630127,157.53132684326172,281.337964630127C155.99712684326173,280.84896463012694,154.59062684326173,280.09116463012697,153.49642684326173,279.022064630127C152.39602684326172,277.95906463012693,151.6302268432617,276.58556463012695,151.17062684326172,275.06476463012694L150.5584268432617,273.044264630127L149.05812684326173,274.516864630127C147.2500268432617,276.2910646301269,145.21872684326172,278.00016463012696,143.0875268432617,279.336164630127C142.02192684326172,280.00376463012697,140.90095684326172,280.57316463012694,139.7987468432617,280.89086463012694C138.6858368432617,281.21396463012695,137.66841684326172,281.1746646301269,137.01334684326173,280.67046463012696C136.67063684326172,280.42236463012694,136.39753684326172,279.99926463012696,136.1619268432617,279.53166463012695C136.0076568432617,279.20906463012693,135.87204684326173,278.79636463012696,135.74308684326172,278.35756463012694L135.5907368432617,277.822564630127C135.2417868432617,276.57666463012697,134.94994684326173,275.30666463012693,134.70719684326173,274.031364630127C134.2306068432617,271.47976463012697,133.9601968432617,268.89066463012693,134.0199868432617,266.32926463012694C134.07531684326173,265.0539646301269,134.16010684326173,263.77506463012696,134.4278468432617,262.546064630127C134.52155684326172,261.91866463012695,134.72860684326173,261.33146463012696,134.8821168432617,260.72454463012696C135.10701684326173,260.14978463012693,135.27837684326173,259.54558463012694,135.57288684326173,259.00831463012696Z" fill-rule="evenodd" fill="#000000" fill-opacity="1"/></g><g><path d="M212.38756408691407,228.7812869519043L214.04756408691406,226.6866569519043L215.44296408691406,229.4732269519043L215.44296408691406,229.4732269519043L215.57376408691405,229.7425569519043C215.62606408691406,229.8458669519043,215.68476408691407,229.95514695190428,215.74326408691405,230.0477069519043C215.86466408691405,230.2886769519043,216.04306408691406,230.5153669519043,216.19666408691407,230.74830695190428C216.53306408691407,231.1989969519043,216.89186408691407,231.64345695190428,217.32466408691405,232.0147169519043C217.51926408691406,232.2213269519043,217.74016408691406,232.4007169519043,217.96836408691405,232.5709569519043L218.42906408691405,232.9045869519043C218.50566408691407,232.9599469519043,218.58156408691406,233.0156269519043,218.65626408691406,233.0723069519043C219.14626408691407,233.3632469519043,219.64336408691406,233.6416969519043,220.15656408691405,233.8844569519043C222.25736408691407,234.7840669519043,224.57786408691408,235.2784969519043,227.05886408691407,235.4079069519043C227.66756408691407,235.4935769519043,228.29856408691407,235.4855469519043,228.93046408691407,235.4730569519043C229.56316408691407,235.4685969519043,230.19776408691405,235.49714695190428,230.83766408691406,235.4801969519043L231.61086408691406,235.4218869519043L231.61086408691406,235.4218869519043L233.16736408691406,235.3169169519043C233.68846408691405,235.2791769519043,234.21186408691406,235.2351169519043,234.73776408691407,235.17407695190428L236.71546408691407,234.9179369519043C237.37946408691406,234.8376169519043,238.06046408691407,234.8054869519043,238.71726408691407,234.6591169519043L240.32946408691407,234.4056669519043C241.14066408691406,234.2829569519043,241.96196408691407,234.1720069519043,242.80476408691408,234.0986469519043L242.96636408691407,234.5145369519043C241.79986408691406,235.2838469519043,240.57276408691405,235.9496369519043,239.33846408691406,236.6296969519043C238.44786408691405,237.08865695190428,237.51676408691407,237.4643569519043,236.57676408691407,237.8311569519043L235.44636408691406,238.27185695190428L235.44636408691406,238.27185695190428C235.01266408691407,238.4646569519043,234.55666408691405,238.5943569519043,234.09646408691407,238.7141569519043L231.31866408691405,239.4329569519043C230.96306408691407,239.4972569519043,230.60316408691406,239.5487569519043,230.24166408691406,239.59635695190428L229.15536408691406,239.7363569519043L228.42826408691406,239.8236569519043C227.94206408691406,239.87805695190428,227.45156408691406,239.9169569519043,226.95006408691407,239.8907569519043C223.99596408691406,240.0291569519043,220.83746408691405,239.3338569519043,218.10296408691406,237.7327569519043C217.43086408691406,237.3168569519043,216.78206408691406,236.8456569519043,216.16356408691405,236.3566069519043L215.57646408691406,235.8177769519043C215.18726408691407,235.4584769519043,214.80886408691407,235.0913769519043,214.48036408691405,234.6707169519043C214.03716408691406,234.1791169519043,213.65766408691405,233.6329769519043,213.30076408691406,233.0736069519043L213.19256408691405,232.9018369519043L212.93016408691406,233.1322869519043C211.54456408691405,234.3216369519043,210.01546408691405,235.3579769519043,208.34996408691407,236.1450869519043C205.76806408691405,237.3392569519043,202.91836408691407,237.9139569519043,200.14546408691407,237.8050569519043C197.36726408691408,237.7122569519043,194.69337408691405,237.0152569519043,192.21675408691405,235.9889069519043C189.73568408691406,234.9589869519043,187.42685408691406,233.6113569519043,185.36256408691406,231.9290469519043L185.63298308691407,231.5738369519043C187.82668408691407,232.9330769519043,190.23100408691406,233.9745969519043,192.67102408691406,234.70998695190428C195.11729408691406,235.4293269519043,197.65546408691407,235.7934569519043,200.11516408691406,235.6087069519043C202.57746408691406,235.4668069519043,204.93806408691407,234.7465869519043,207.00946408691405,233.5470969519043C209.08356408691407,232.34671695190428,210.87656408691407,230.6876169519043,212.38756408691407,228.7812869519043Z" fill-rule="evenodd" fill="#FFFFFF" fill-opacity="1"/></g><g><path d="M251.4516283017578,202.00629358384765C251.3918323017578,205.48426369384765,251.44002630175783,208.96490369384765,251.5622953017578,212.43932369384765C251.67563930175783,215.91372369384766,251.87019830175782,219.38542369384766,252.19416930175782,222.84192369384766C252.52705930175782,226.29762369384764,253.0232693017578,229.73012369384764,253.63372930175782,233.12952369384766C253.9210993017578,234.83322369384766,254.3003993017578,236.51912369384766,254.77965930175782,238.17372369384765C255.26248930175782,239.82662369384767,255.8524093017578,241.45452369384765,256.7341793017578,242.95292369384765L256.6609893017578,243.00472369384767C255.5570093017578,241.63482369384766,254.80464930175782,240.01052369384766,254.1888393017578,238.36832369384766C253.5730393017578,236.71992369384765,253.14196930175783,235.01262369384767,252.7590993017578,233.30262369384766C252.02281130175783,229.87202369384767,251.7202623017578,226.37882369384766,251.4828653017578,222.89912369384766C251.0161013017578,215.93512369384766,251.01699390175781,208.95776369384765,251.3623813017578,202.00272369384766L251.4516283017578,202.00629358384765Z" fill-rule="evenodd" fill="#FFFFFF" fill-opacity="1"/></g><g><path d="M107.34984207763671,265.9198614637012L98.87324207763672,265.9129447937012C96.04774207763671,265.9145066237012,93.22244207763671,265.92343139370115,90.39724207763672,265.9502055937012L73.44384207763672,266.0697967937012C72.31384207763672,266.09068079370115,71.18374207763672,266.10920879370116,70.05364207763672,266.12678679370117L63.272632077636715,266.23211279370116C61.01223207763672,266.27092479370117,58.75178207763672,266.3171907937012,56.49132207763672,266.3821627937012L54.47344207763672,266.44017279370115L78.90664207763672,333.5202447937012L148.34024207763673,326.7677447937012L136.69054207763674,295.09434479370117C135.85564207763673,292.83894479370116,135.0049420776367,290.57694479370116,134.1487420776367,288.31114479370115L131.85974207763672,282.26194479370116L128.93514207763673,274.6943247937012C127.95704207763671,272.1711847937012,126.97264207763672,269.6490647937012,125.97304207763672,267.13273479370116L125.52854207763671,266.01357079370115L107.34984207763671,265.9198614637012ZM58.521292077636716,269.30690479370116C58.53716207763672,269.3000047937012,58.54534207763672,269.2943347937012,58.54582207763672,269.2898947937012L59.88237207763672,269.32293479370117C64.40325207763672,269.42089479370117,68.92404207763671,269.46630479370117,73.44424207763672,269.55055479370117L94.63544207763672,269.6978547937012C98.04064207763672,269.71207479370116,101.44614207763672,269.70773479370115,104.85164207763671,269.70340479370117C105.68444207763672,269.7023347937012,106.51734207763673,269.70127479370115,107.35014207763672,269.7004947937012L123.10504207763672,269.6192347937012L124.12824207763671,272.06784479370117C124.63004207763672,273.25992479370115,125.13454207763672,274.45117479370117,125.64074207763672,275.6422447937012L128.68834207763672,282.7912447937012L132.1136420776367,290.6646447937012C133.0536420776367,292.8166447937012,134.00254207763672,294.9735447937012,134.97044207763673,297.1377447937012L148.0362420776367,326.5813447937012L80.08694207763672,331.6853447937012L58.521292077636716,269.30690479370116Z" fill-rule="evenodd" fill="#000000" fill-opacity="1"/></g><g><path d="M97.71876277392577,281.7083320617676C99.03516077392578,284.8819620617676,100.25963077392578,288.08505206176756,101.53230077392578,291.2720720617676C102.77551077392579,294.4689320617676,103.99017077392578,297.67463206176757,105.17627077392578,300.88933206176756C106.36861077392578,304.10313206176755,107.85453077392577,307.2223320617676,108.65063077392578,310.5620320617676C109.07633077392578,312.2228320617676,109.42623077392578,313.9087320617676,109.71273077392578,315.61423206176755C109.99923077392577,317.31983206176756,110.21963077392579,319.04763206176756,110.25443077392578,320.83433206176755L109.91443077392579,320.94323206176756C108.90503077392579,319.46883206176756,108.08033077392578,317.9356320617676,107.32177077392578,316.38093206176757C106.56406077392577,314.8253320617676,105.86972077392578,313.2510320617676,105.25034077392579,311.6517320617676C103.95715077392578,308.4709320617676,103.35384077392578,305.0688320617676,102.45690077392578,301.7613320617676C101.55372077392578,298.4556320617676,100.67910077392578,295.14093206176756,99.83303077392578,291.8165320617676C99.01731077392579,288.4830920617676,98.15161277392578,285.16488206176757,97.37873077392578,281.8172140617676L97.71876277392577,281.7083320617676Z" fill-rule="evenodd" fill="#000000" fill-opacity="1"/></g><g><path d="M110.25434627001952,288.38876724243164C111.39135427001953,291.00549724243166,112.43733427001953,293.6516772424316,113.53240427001953,296.2826872424316C114.59622427001953,298.92266724243166,115.63149427001953,301.57146724243165,116.63909427001953,304.23016724243166C117.14513427001953,305.55816724243164,117.71274427001953,306.86746724243164,118.26161427001954,308.18296724243163C118.80245427001952,309.4993672424316,119.24244427001953,310.8496672424316,119.57622427001954,312.23296724243164C119.90733427001953,313.61716724243166,120.18581427001953,315.0183672424316,120.37141427001953,316.44896724243165C120.56781427001953,317.87696724243165,120.69811427001953,319.3254672424316,120.64451427001953,320.83376724243163L120.30451427001952,320.94346724243167C119.38345427001953,319.7466672424316,118.64894427001953,318.4909672424316,117.97959427001953,317.21566724243166C117.29953427001954,315.9429672424316,116.71139427001953,314.6408672424316,116.17679427001953,313.32176724243163C115.64577427001953,312.00096724243167,115.21917427001954,310.64616724243166,114.89520427001953,309.26016724243163C114.57748427001953,307.87146724243166,114.28029427001954,306.47656724243166,113.91884427001953,305.1012672424316C113.19504427001954,302.3523672424316,112.49980427001952,299.5937672424316,111.83223427001953,296.8262072424316C111.19501427001953,294.04972724243163,110.50870127001953,291.28841724243165,109.91431427001953,288.49764924243163L110.25434627001952,288.38876724243164Z" fill-rule="evenodd" fill="#000000" fill-opacity="1"/></g><g><path d="M139.40698877929688,260.53735304018556C139.0749887792969,261.79306494018556,138.69746877929688,263.03092494018557,138.34404877929688,264.2786049401856L137.19722877929686,267.9877149401855C136.80364877929688,269.2202249401856,136.55464877929688,270.50719494018557,135.96739877929687,271.66469494018554C135.38996877929688,272.8248949401856,134.74559877929687,273.96019494018554,133.82099877929687,274.98649494018554L133.65499877929688,274.92219494018553C133.66124608929687,273.5406949401856,133.94862277929687,272.26799494018553,134.30204177929687,271.0202949401855C134.64564377929688,269.76909494018554,135.32748877929689,268.64904494018555,135.86475877929686,267.4727649401855L137.51137877929688,263.95641494018554C138.08880877929687,262.79531494018556,138.64302877929688,261.62617494018554,139.2400987792969,260.47309494018555L139.40698877929688,260.53735304018556Z" fill-rule="evenodd" fill="#000000" fill-opacity="1"/></g><g><path d="M137.03640017333984,259.2030235116699C136.86683017333985,259.91343221166994,136.65353017333985,260.60241821166994,136.46432017333984,261.3039082116699C136.25995017333983,261.99824821166993,136.04218017333983,262.6854582116699,135.81103017333984,263.36729821166995C135.58078017333983,264.05004821166995,135.49510017333984,264.79793821166993,135.07653017333985,265.3941082116699C134.66867017333985,265.99295821166993,134.19655017333983,266.5650382116699,133.44955017333984,267.0094882116699L133.28801227333983,266.93540821166994C133.13986167333985,266.0786382116699,133.26480797333986,265.34948821166995,133.45401217333983,264.6488982116699C133.63339917333985,263.94294821166994,134.14567917333986,263.3896182116699,134.51338017333984,262.7711282116699C134.87929017333985,262.1517582116699,135.25949017333986,261.5377282116699,135.65307017333984,260.9317482116699C136.06093017333984,260.3311082116699,136.44558017333983,259.71976521166994,136.87397017333984,259.1289482116699L137.03640017333984,259.2030235116699Z" fill-rule="evenodd" fill="#000000" fill-opacity="1"/></g><g><path d="M142.34107802246095,263.47011546450193C141.96713802246094,264.86237236450194,141.54677802246093,266.23678236450195,141.15141802246094,267.62011236450195L139.87785802246094,271.73888236450193C139.44143802246094,273.107042364502,139.15048802246093,274.53054236450197,138.52040802246094,275.8255423645019C137.90013802246094,277.124042364502,137.21382802246094,278.39764236450196,136.24549002246093,279.564042364502L136.07859802246094,279.50074236450195C136.12589912246094,277.98534236450195,136.45611402246095,276.576942364502,136.85148002246095,275.19274236450195C137.23702802246095,273.8049423645019,137.96171802246093,272.54656236450194,138.54271802246095,271.23284236450195L140.31605802246094,267.30418236450197C140.93632802246094,266.00563236450193,141.53249802246094,264.69816236450197,142.17418802246092,263.40764236450195L142.34107802246095,263.47011546450193Z" fill-rule="evenodd" fill="#000000" fill-opacity="1"/></g></g><g><path d="M179.77801338769532,96.365973828125C179.3915733876953,97.269173828125,179.15149738769531,98.223173828125,179.0228458176953,99.190573828125C179.0099644876953,100.212373828125,179.1548303876953,101.168873828125,179.3429313876953,102.122973828125L179.5120563876953,102.941673828125C179.7860463876953,104.163473828125,180.1448223876953,105.365673828125,180.5839123876953,106.537473828125C181.4621123876953,108.880173828125,182.66248238769532,111.114973828125,184.23234238769533,113.07657382812499C185.81024238769533,115.023073828125,187.74780238769532,116.702773828125,189.9753723876953,117.87277382812499C191.08207238769532,118.46177382812499,192.23697238769532,118.97857382812501,193.44447238769533,119.331073828125C193.84667238769532,119.460173828125,194.2520723876953,119.567373828125,194.65657238769532,119.66727382812499L195.86377238769532,119.959873828125C196.26267238769532,120.059873828125,196.6567723876953,120.16727382812499,197.04197238769532,120.296673828125C201.72747238769531,121.789873828125,205.7400723876953,125.173173828125,208.0176723876953,129.48647382812499C210.3291723876953,133.789173828125,210.92797238769532,138.913673828125,209.68297238769532,143.60717382812498C208.29427238769532,148.547073828125,209.4661723876953,154.287473828125,212.98787238769532,158.21437382812502C214.72007238769532,160.179573828125,217.01107238769532,161.697673828125,219.51007238769532,162.48567382812502C221.97597238769532,163.316573828125,224.58107238769531,163.66017382812498,227.1486723876953,163.620973828125C229.72167238769532,163.597773828125,232.26257238769531,163.214873828125,234.7355723876953,162.633873828125C237.21047238769532,162.051073828125,239.6361723876953,161.290673828125,241.9815723876953,160.35447382812498C246.61617238769531,158.55087382812502,251.0295723876953,156.268673828125,255.26947238769532,153.737273828125C257.7411723876953,153.44967382812501,260.37697238769533,153.457873828125,262.91547238769533,153.674373828125C265.5375723876953,153.908173828125,268.1390723876953,154.371373828125,270.6344723876953,155.147773828125C273.1315723876953,155.911773828125,275.5305723876953,156.971073828125,277.7144723876953,158.35627382812498C279.9160723876953,159.716373828125,281.86107238769534,161.446873828125,283.5480723876953,163.38707382812498L283.7780723876953,163.650373828125L284.0690723876953,163.753873828125C285.86407238769533,164.394673828125,287.5720723876953,164.730273828125,289.4160723876953,164.832873828125C291.2340723876953,164.911473828125,293.1370723876953,164.732073828125,294.9320723876953,164.01367382812498C296.7230723876953,163.32547382812498,298.3600723876953,162.078773828125,299.4840723876953,160.52937382812502C300.6320723876953,158.98807382812498,301.3580723876953,157.235273828125,301.8150723876953,155.483373828125C302.2720723876953,153.718073828125,302.4760723876953,151.969673828125,302.56807238769534,150.179373828125C302.6290723876953,148.292673828125,302.3020723876953,146.381073828125,301.56307238769534,144.629973828125C300.8440723876953,142.870073828125,299.71707238769534,141.276973828125,298.31107238769533,139.981073828125C297.6060723876953,139.339373828125,296.80807238769535,138.775373828125,295.9980723876953,138.304173828125C295.21707238769534,137.855273828125,294.41207238769533,137.450973828125,293.59007238769533,137.093073828125C290.3000723876953,135.651673828125,286.7760723876953,134.927073828125,283.2800723876953,134.679773828125C281.5290723876953,134.559373828125,279.7770723876953,134.527173828125,278.0383723876953,134.62267382812502L277.3856723876953,134.651573828125C276.7344723876953,134.691573828125,276.0872723876953,134.75877382812502,275.4359723876953,134.802973828125C275.2604723876953,134.825073828125,275.0877723876953,134.84527382812502,274.9162723876953,134.864573828125L273.88897238769533,134.979273828125C273.5430723876953,135.020173828125,273.18947238769533,135.06697382812501,272.8156723876953,135.128773828125L272.3348723876953,135.205573828125C266.2376723876953,136.124273828125,259.86697238769534,134.972573828125,254.4824723876953,131.990773828125L254.0763723876953,131.769673828125C248.6877723876953,128.776073828125,244.3403723876953,123.96357382812499,241.8735723876953,118.309173828125L241.41937238769532,117.213273828125L241.0159723876953,116.096773828125C240.86387238769532,115.646973828125,240.7210723876953,115.202573828125,240.5758723876953,114.73457382812501L240.2787723876953,113.758473828125C239.7718723876953,112.110073828125,239.2033723876953,110.47857382812501,238.5678723876953,108.872173828125C237.3121723876953,105.652173828125,235.73607238769532,102.539173828125,233.8118723876953,99.630573828125C232.8390723876953,98.182973828125,231.80297238769532,96.772873828125,230.6400723876953,95.458303828125C229.46737238769532,94.155293828125,228.2151723876953,92.917433828125,226.8452723876953,91.809873828125C224.1115723876953,89.596533828125,220.9575723876953,87.869603828125,217.5894723876953,86.880743828125C214.23107238769532,85.851719528125,210.70037238769532,85.605396828125,207.2697723876953,85.829407728125C203.8489723876953,86.061838828125,200.51277238769532,86.835723828125,197.3042723876953,87.889833828125C195.36467238769532,87.999133828125,193.4950723876953,88.289343828125,191.6255723876953,88.68532382812501C189.7290723876953,89.098533828125,187.8620323876953,89.684003828125,186.0976123876953,90.509533828125C184.35194238769532,91.353813828125,182.6562423876953,92.410503828125,181.3675123876953,93.902723828125C180.7249323876953,94.641683828125,180.1796223876953,95.469903828125,179.77801338769532,96.365973828125ZM197.3042723876953,87.889833828125C197.28497238769532,87.896163828125,197.2656723876953,87.902513828125,197.24637238769532,87.908873828125L197.41327238769532,87.883883828125C197.3768723876953,87.885803828125,197.34057238769532,87.887783828125,197.3042723876953,87.889833828125ZM255.26947238769532,153.737273828125C255.33887238769532,153.695873828125,255.40827238769532,153.65437382812502,255.47757238769532,153.612773828125L255.0723723876953,153.760873828125C255.1379723876953,153.752773828125,255.2036723876953,153.744973828125,255.26947238769532,153.737273828125ZM179.8611523876953,102.863073828125C179.60144338769533,101.668973828125,179.3649373876953,100.40877382812499,179.37803738769531,99.234273828125C179.52201238769533,98.302573828125,179.7727973876953,97.392173828125,180.1601323876953,96.538073828125C180.56263238769532,95.692063828125,181.0981223876953,94.915603828125,181.72642238769532,94.223943828125C182.9892723876953,92.836143828125,184.6269623876953,91.821403828125,186.3556823876953,91.083323828125C188.0951123876953,90.352393828125,189.9309723876953,89.854393828125,191.79267238769532,89.525073828125C193.64807238769532,89.191283828125,195.56337238769532,89.025283828125,197.4178723876953,89.035993828125L197.4910723876953,89.035993828125L198.2253723876953,88.838093828125C201.2237723876953,88.050043828125,204.2872723876953,87.530983828125,207.34847238769532,87.476843828125C210.6193723876953,87.423293828125,213.89647238769533,87.824903828125,216.9246723876953,88.927113828125C219.9653723876953,89.990943828125,222.7346723876953,91.699133828125,225.1193723876953,93.83660382812499C227.4942723876953,95.991973828125,229.50857238769532,98.539073828125,231.1997723876953,101.295873828125C232.8784723876953,104.063473828125,234.2564723876953,107.02737382812501,235.3917723876953,110.089473828125C235.9575723876953,111.620873828125,236.4626723876953,113.177373828125,236.9080723876953,114.75257382812501L237.17787238769532,115.711773828125C237.3205723876953,116.210073828125,237.47407238769532,116.729473828125,237.63357238769532,117.238173828125L238.0789723876953,118.495673828125L238.5813723876953,119.732573828125C241.3864723876953,126.280673828125,246.4307723876953,131.855073828125,252.7065723876953,135.25627382812502C258.97977238769533,138.66197382812499,266.4051723876953,139.86497382812502,273.42267238769534,138.606673828125C279.7400723876953,137.61067382812502,286.5080723876953,137.615073828125,292.3260723876953,140.042573828125C293.0500723876953,140.34427382812498,293.7550723876953,140.68517382812502,294.43607238769533,141.061773828125C295.0840723876953,141.427773828125,295.6700723876953,141.827573828125,296.2190723876953,142.308573828125C297.2970723876953,143.274273828125,298.1810723876953,144.471073828125,298.7550723876953,145.81687382812498C299.34707238769533,147.153873828125,299.6230723876953,148.629973828125,299.6010723876953,150.098973828125C299.54407238769534,151.664373828125,299.3800723876953,153.273573828125,299.0160723876953,154.768473828125C298.6540723876953,156.270473828125,298.0690723876953,157.680573828125,297.2210723876953,158.850573828125L297.0650723876953,159.071573828125C296.8980723876953,159.282873828125,296.7080723876953,159.470673828125,296.5410723876953,159.68147382812498C296.2760723876953,159.916173828125,296.0410723876953,160.188373828125,295.7490723876953,160.388373828125L295.51007238769535,160.574473828125C295.0220723876953,160.934673828125,294.4800723876953,161.222273828125,293.9100723876953,161.45487382812502C291.3380723876953,162.509473828125,288.0670723876953,162.271273828125,285.28707238769533,161.39077382812502C283.4580723876953,159.384373828125,281.3670723876953,157.604673828125,279.0470723876953,156.21067382812498C276.63737238769534,154.725573828125,274.0197723876953,153.612673828125,271.3315723876953,152.82637382812499C268.6425723876953,152.027673828125,265.8741723876953,151.571573828125,263.10207238769533,151.359173828125C260.3122723876953,151.16457382812501,257.5741723876953,151.181573828125,254.7289723876953,151.567973828125L254.51737238769533,151.596573828125L253.4830723876953,152.230273828125C249.54947238769532,154.612373828125,245.4737723876953,156.753273828125,241.23477238769533,158.465073828125C238.97147238769531,159.401273828125,236.6456723876953,160.160773828125,234.28597238769532,160.747973828125C231.9289723876953,161.334373828125,229.5227723876953,161.724373828125,227.1175723876953,161.776073828125C222.3598723876953,161.87077382812498,217.3342723876953,160.731073828125,214.1544723876953,157.16297382812502C212.5559723876953,155.437773828125,211.4225723876953,153.277973828125,210.86657238769533,150.972773828125C210.3016723876953,148.65677382812498,210.3265723876953,146.247973828125,210.8924723876953,143.877573828125L210.9856723876953,143.462173828125C212.01987238769533,138.604573828125,211.20307238769533,133.366073828125,208.73707238769532,129.089273828125C206.2399723876953,124.667973828125,202.0390723876953,121.246273828125,197.1929723876953,119.813773828125C196.7889723876953,119.687973828125,196.3814723876953,119.58567382812501,195.97427238769532,119.492073828125L194.7578723876953,119.222873828125C194.3554723876953,119.132073828125,193.9574723876953,119.035273828125,193.5677723876953,118.91777382812501L193.1244723876953,118.789973828125C192.0954723876953,118.47517382812501,191.10247238769531,118.046173828125,190.1450723876953,117.554973828125C187.9621323876953,116.409073828125,186.0629523876953,114.764173828125,184.5118323876953,112.852573828125C182.9696323876953,110.924773828125,181.78621238769531,108.723973828125,180.9196223876953,106.412473828125C180.4858823876953,105.255773828125,180.13068238769532,104.068773828125,179.8611523876953,102.863073828125ZM285.28707238769533,161.39077382812502C285.1970723876953,161.36217382812498,285.1080723876953,161.332973828125,285.0190723876953,161.30307382812498L285.53907238769534,161.669873828125C285.4560723876953,161.57637382812499,285.3720723876953,161.483373828125,285.28707238769533,161.39077382812502Z" fill-rule="evenodd" fill="#000000" fill-opacity="1"/></g><g><g><path d="M174.9943459611511,102.37086200714111C173.9876359611511,107.90062200714111,173.26294596115113,113.46876200714111,172.80421596115113,119.04316200714112C172.58288596115113,121.82946200714112,172.42223596115113,124.61936200714112,172.4124159611511,127.40476200714112C172.37850596115112,130.1892620071411,172.47578596115113,132.97106200714111,172.7703059611511,135.7207620071411C173.07284596115113,138.46426200714112,173.54407596115112,141.1925620071411,174.41423596115112,143.76826200714112C175.2942159611511,146.3233620071411,176.54635596115114,148.7714620071411,178.45267596115113,150.56886200714112C180.3438259611511,152.37796200714112,182.88558596115112,153.34536200714112,185.53798596115112,153.52116200714113C188.20558596115112,153.67826200714111,190.92408596115112,153.1489620071411,193.55778596115113,152.3707620071411L193.59438596115112,152.3600620071411L193.6095859611511,152.35646200714112C195.27758596115112,151.9298620071411,196.98128596115112,151.2105620071411,198.58508596115112,150.4135620071411C200.1950859611511,149.60056200714112,201.75778596115111,148.67146200714112,203.21698596115112,147.5924620071411C204.67978596115114,146.5214620071411,206.10238596115113,145.37106200714112,207.37598596115112,144.06186200714112C208.68248596115112,142.78206200714112,209.84718596115113,141.3656620071411,210.98508596115113,139.91806200714112C210.47368596115112,140.6802620071411,210.00068596115113,141.47546200714112,209.45268596115113,142.21886200714113C208.8886859611511,142.94806200714112,208.34608596115112,143.7012620071411,207.71778596115112,144.38046200714112C206.52358596115113,145.79856200714113,205.16438596115114,147.07216200714112,203.74448596115113,148.27696200714112C202.31558596115113,149.47296200714112,200.75108596115112,150.50466200714112,199.12858596115112,151.4363620071411C197.48908596115112,152.3618620071411,195.80948596115113,153.13566200714112,193.93438596115112,153.6987620071411L193.98618596115114,153.68356200714112C191.28198596115112,154.60906200714112,188.4126859611511,155.24806200714113,185.44968596115112,155.1392620071411C183.9743859611511,155.06786200714112,182.48218596115112,154.79736200714112,181.07478596115112,154.24676200714111C179.67090596115113,153.6943620071411,178.3625359611511,152.8723620071411,177.26390596115112,151.8433620071411C175.0496759611511,149.77546200714113,173.64492596115113,147.07216200714112,172.7408459611511,144.3286620071411C171.83856096115113,141.56736200714113,171.35483996115113,138.7239620071411,171.08977596115113,135.8858620071411C170.60337796115112,130.19726200714112,170.94073246115113,124.51846200714111,171.64221596115112,118.92176200714111C172.0090259611511,116.12296200714111,172.45436596115113,113.33756200714112,173.02733596115112,110.57894200714111C173.59583596115112,107.82030200714111,174.2053959611511,105.07148200714111,174.9943459611511,102.37086200714111L174.9943459611511,102.37086200714111Z" fill-rule="evenodd" fill="#000000" fill-opacity="1"/></g><g><path d="M199.37697787658692,150.65419101715088C199.90621437658692,151.59485801715087,200.3917203765869,152.55516101715088,200.8281403765869,153.54223101715087C201.0450103765869,154.0357710171509,201.32882037658692,154.51235101715088,201.4243103765869,155.05408101715088C201.5233803765869,155.5886710171509,201.5840603765869,156.15272101715087,201.43234037658692,156.7301510171509L201.3439903765869,156.74443101715087C201.0137703765869,156.2669510171509,200.77905037658692,155.8010810171509,200.57111037658692,155.3137910171509C200.3560203765869,154.83186101715089,200.29712037658692,154.29548101715088,200.1552143765869,153.78231101715087L199.2948703765869,150.68899751715088L199.37697787658692,150.65419101715088Z" fill-rule="evenodd" fill="#000000" fill-opacity="1"/></g><g><path d="M176.4991450605774,127.46211714459228C177.44516506057738,127.84945014459228,177.8994350605774,128.92934414459228,177.5129950605774,129.87536414459228C177.1274450605774,130.82227414459228,176.0466650605774,131.2756541445923,175.1006350605774,130.89010414459227C174.1546180605774,130.50277414459228,173.7003490605774,129.42288414459227,174.0858970605774,128.4768541445923C174.47233806057739,127.52994514459229,175.5522350605774,127.07567614459228,176.4991450605774,127.46211714459228L176.4991450605774,127.46211714459228Z" fill-rule="evenodd" fill="#2D2D2D" fill-opacity="1"/></g><g><path d="M193.76546576599122,127.46211714459228C194.7123757659912,127.84945014459228,195.1657557659912,128.92934414459228,194.7793157659912,129.87536414459228C194.39376576599122,130.82227414459228,193.31298576599121,131.2756541445923,192.3669557659912,130.89010414459227C191.42093876599122,130.50277414459228,190.9666697659912,129.42288414459227,191.3522177659912,128.4768541445923C191.7386587659912,127.52994514459229,192.81855576599122,127.07567614459228,193.76546576599122,127.46211714459228L193.76546576599122,127.46211714459228Z" fill-rule="evenodd" fill="#2D2D2D" fill-opacity="1"/></g><g><path d="M182.79652698669435,128.37895446051024C182.27888698669435,129.89169296051026,181.78088698669433,131.41247296051026,181.23826698669433,132.91628296051024L180.44307698669434,135.17870296051026C180.18068698669433,135.93463296051024,179.94328698669435,136.69948296051027,179.62556698669434,137.43309296051027L179.37745898669434,136.84138296051026C179.96827698669435,137.09127296051025,180.53945698669435,137.39025296051025,181.10974698669435,137.68834296051025C181.67200698669433,138.00695296051026,182.23604698669433,138.32199296051024,182.77242698669434,138.70223296051026L182.73761698669435,138.78523296051026C182.08968698669435,138.67273296051025,181.46941698669434,138.49333296051026,180.84646698669434,138.31932296051025C180.23333698669433,138.12387296051025,179.61842698669435,137.92931296051026,179.02582498669435,137.68477296051026L178.62242698669434,137.51788296051026L178.77771698669434,137.09395296051025C179.05259898669433,136.34338296051024,179.40601798669434,135.62494296051025,179.73623698669434,134.89668296051025L180.71795698669433,132.70923296051026C181.36053698669434,131.24558296051026,182.04595698669434,129.79977296051027,182.71352698669435,128.34593296051025L182.79652698669435,128.37895446051024Z" fill-rule="evenodd" fill="#2D2D2D" fill-opacity="1"/></g><g><path d="M180.7806053161621,144.06872272491455C180.7806053161621,144.06872272491455,183.1501253161621,147.42531272491456,188.0854953161621,144.06872272491455L180.7806053161621,144.06872272491455Z" fill-rule="evenodd" fill="#020202" fill-opacity="1"/></g><g><path d="M188.09117653808596,88.59598514820554C184.36867653808596,89.31174834820554,180.75507653808597,90.65314034820554,177.52077653808595,92.59159034820554C174.29357653808597,94.51397034820553,171.45818653808595,97.20121034820554,169.84191653808597,100.56853034820554C169.02798653808597,102.24013034820554,168.52552653808596,104.05543034820553,168.35595653808596,105.90463034820553C168.18013453808598,107.74573034820554,168.18905953808596,109.62083034820554,168.48625653808597,111.46653034820554C168.94855653808597,115.18543034820554,170.22925653808596,118.77763034820553,171.67773653808598,122.28953034820555L171.59830653808598,122.32973034820554C169.68662653808596,119.03293034820554,168.24528553808597,115.41743034820554,167.60359753808598,111.59683034820554C167.26088743808597,109.69403034820553,167.23857563808596,107.72613034820554,167.47865053808596,105.79663034820554C167.71515653808598,103.86533034820553,168.29972653808596,101.97063034820553,169.20201653808596,100.25083034820554C170.97803653808597,96.76836034820553,173.97228653808597,94.08202034820553,177.29585653808596,92.20515034820554C180.64527653808597,90.33988034820554,184.31697653808595,89.11004934820554,188.07867653808597,88.50763034820554L188.09117653808596,88.59598514820554Z" fill-rule="evenodd" fill="#000000" fill-opacity="1"/></g></g><g><path d="M107.67187196044921,224.39041068359376L77.24837196044922,218.06723868359376L66.49407196044922,217.90570068359375L76.40052196044923,222.09229068359375L108.35727196044922,228.64300068359375L107.67187196044921,224.39041068359376Z" fill-rule="evenodd" fill="#000000" fill-opacity="1"/></g><g><path d="M96.15952136035156,227.07398986816406C96.70660736035157,227.71032286816407,97.23762436035156,228.33772986816408,97.78917436035157,228.92586986816406C98.05335436035156,229.22573986816406,98.32912436035156,229.51489986816406,98.60757436035156,229.79245986816406C98.86907436035156,230.08161986816407,99.14216436035156,230.35382986816407,99.41437436035156,230.61978986816405C99.69193436035157,230.87770986816406,100.01322436035156,231.10350986816405,100.33540436035156,231.29716986816408C100.64152436035157,231.51225986816405,100.87802436035156,231.74786986816406,101.03153436035156,232.07897986816405C101.19753436035157,232.38419986816407,101.31801436035157,232.75546986816406,101.42689436035157,233.16065986816406C101.53310436035156,233.58725986816407,101.63930436035156,234.01921986816407,101.70802436035156,234.68053986816406L101.52864436035156,234.98843986816405C100.92532436035157,235.20262986816405,100.33897436035156,235.21512986816407,99.83829436035157,235.10535986816407C99.30192436035156,235.02235986816407,98.86728436035156,234.80190986816407,98.45228436035157,234.54755986816406C97.60711436035156,234.04509986816407,97.41523436035156,233.01517986816407,97.05110436035156,232.22355986816407C96.68518836035156,231.41765986816407,96.41119936035156,230.58943986816405,96.20682236035157,229.75051986816408C96.01494136035156,228.90623986816405,95.85786586035157,228.06820486816406,95.82484436035156,227.19804386816406L96.15952136035156,227.07398986816406Z" fill-rule="evenodd" fill="#000000" fill-opacity="1"/></g></g><g><g mask="url(#master_svg1_0_1507)"><g><path d="M173,123.0780480504036L178.364,123.0780480504036L178.364,124.5000180504036L173,124.5000180504036L173,123.0780480504036Z" fill-rule="evenodd" fill="#D8D8D8" fill-opacity="0.009999999776482582"/></g><g><path d="M178.291,124.49211805040359C177.52,123.9331220504036,176.563,123.76212205040359,175.72,123.8821220504036C175.284,123.9541220504036,174.907,124.17411805040359,174.48,124.2581180504036C174.264,124.29911805040359,174.051,124.3721180504036,173.811,124.3991180504036C173.583,124.45611805040359,173.335,124.4911180504036,173.056,124.5001180504036L173,124.4171180504036C173.256,123.9281220504036,173.656,123.5731220504036,174.122,123.32512205040359C174.593,123.0661224504036,175.159,123.0691224304036,175.685,123.08312243040359C176.753,123.13012245040359,177.767,123.62212205040359,178.364,124.4251180504036L178.291,124.49211805040359Z" fill-rule="evenodd" fill="#000000" fill-opacity="1"/></g></g><g><path d="M189.44529914855957,124.42082611328125C190.74629914855956,123.21082611328124,192.42429914855958,122.31282211328126,194.30429914855958,122.14982251328125C194.77229914855957,122.08882251328124,195.24429914855958,122.12682251328125,195.72429914855957,122.14482251328126C196.18829914855957,122.24382211328125,196.67329914855958,122.31682211328125,197.08929914855958,122.56082211328125C197.95729914855957,122.96282211328125,198.64929914855958,123.64782611328125,199.13629914855957,124.42182611328126L199.06829914855956,124.49482611328125C198.21529914855958,124.13382611328124,197.49829914855957,123.71082611328124,196.70629914855957,123.48382611328125C195.94229914855958,123.22782611328125,195.16929914855956,122.95282211328124,194.33229914855957,122.94982211328124C193.50429914855957,122.92782211328125,192.65729914855956,123.07382211328125,191.84529914855958,123.35282611328125C191.03029914855958,123.61982611328125,190.22929914855956,123.99782611328125,189.51029914855957,124.49582611328125L189.44529914855957,124.42082611328125Z" fill-rule="evenodd" fill="#000000" fill-opacity="1"/></g></g></g><g></g></g></svg>