<svg xmlns="http://www.w3.org/2000/svg" xmlns:xlink="http://www.w3.org/1999/xlink" fill="none" version="1.1" width="26" height="26" viewBox="0 0 26 26"><defs><mask id="master_svg0_0_6163/0_10004" style="mask-type:alpha" maskUnits="userSpaceOnUse"><g><path d="M6.356640133743286,13.000003586120606Q6.356640133743286,13.106733586120605,6.346180133743286,13.212943586120605Q6.335720133743286,13.319163586120606,6.314900133743286,13.423843586120606Q6.294070133743286,13.528523586120606,6.263090133743286,13.630663586120605Q6.232110133743286,13.732793586120605,6.191270133743286,13.831403586120604Q6.150420133743286,13.930013586120605,6.100110133743286,14.024143586120605Q6.049800133743286,14.118273586120605,5.990500133743286,14.207013586120606Q5.931200133743286,14.295753586120606,5.863490133743286,14.378263586120605Q5.7957801337432855,14.460763586120606,5.720310133743286,14.536233586120606Q5.644840133743286,14.611703586120605,5.562340133743286,14.679413586120607Q5.479830133743286,14.747123586120605,5.391090133743286,14.806423586120605Q5.302350133743286,14.865723586120605,5.208220133743286,14.916033586120605Q5.114090133743286,14.966343586120605,5.015480133743286,15.007183586120606Q4.916870133743286,15.048033586120606,4.814740133743286,15.079013586120606Q4.712600133743287,15.109993586120606,4.607920133743287,15.130823586120606Q4.503240133743287,15.151643586120606,4.397020133743286,15.162103586120605Q4.290810133743286,15.172563586120607,4.1840801337432865,15.172563586120607Q4.077340133743286,15.172563586120607,3.9711301337432863,15.162103586120605Q3.864910133743286,15.151643586120606,3.760230133743286,15.130823586120606Q3.655550133743286,15.109993586120606,3.553410133743286,15.079013586120606Q3.4512801337432863,15.048033586120606,3.352670133743286,15.007193586120605Q3.254060133743286,14.966343586120605,3.1599401337432864,14.916033586120605Q3.065810133743286,14.865723586120605,2.977063133743286,14.806423586120605Q2.888319133743286,14.747123586120605,2.805815133743286,14.679413586120607Q2.7233101337432863,14.611703586120605,2.647840133743286,14.536233586120606Q2.572370133743286,14.460763586120606,2.504660133743286,14.378263586120605Q2.436950133743286,14.295753586120606,2.3776531337432862,14.207013586120606Q2.318357133743286,14.118273586120605,2.268044133743286,14.024143586120605Q2.2177311337432863,13.930013586120605,2.176887133743286,13.831403586120604Q2.136042133743286,13.732793586120605,2.105060133743286,13.630663586120605Q2.0740776337432862,13.528523586120606,2.053255333743286,13.423843586120606Q2.032433133743286,13.319163586120606,2.021971633743286,13.212943586120605Q2.011510133743286,13.106733586120605,2.011510133743286,13.000003586120606Q2.011510133743286,12.893263586120606,2.021971633743286,12.787053586120605Q2.032433133743286,12.680833586120606,2.053255333743286,12.576153586120606Q2.0740776337432862,12.471473586120606,2.105060133743286,12.369333586120606Q2.136042133743286,12.267203586120605,2.176887133743286,12.168593586120606Q2.2177311337432863,12.069983586120605,2.268044133743286,11.975863586120605Q2.318357133743286,11.881733586120605,2.3776531337432862,11.792986586120605Q2.436950133743286,11.704242586120605,2.504660133743286,11.621738586120605Q2.572370133743286,11.539233586120606,2.647840133743286,11.463763586120605Q2.7233101337432863,11.388293586120605,2.805815133743286,11.320583586120605Q2.888319133743286,11.252873586120606,2.977063133743286,11.193576586120605Q3.065810133743286,11.134280586120605,3.1599401337432864,11.083967586120606Q3.254060133743286,11.033654586120605,3.352670133743286,10.992810586120605Q3.4512801337432863,10.951965586120606,3.553410133743286,10.920983586120606Q3.655550133743286,10.890001086120606,3.760230133743286,10.869178786120605Q3.864910133743286,10.848356586120605,3.9711301337432863,10.837895086120605Q4.077340133743286,10.827433586120605,4.1840801337432865,10.827433586120605Q4.290810133743286,10.827433586120605,4.397020133743286,10.837895086120605Q4.503240133743287,10.848356586120605,4.607920133743287,10.869178786120605Q4.712600133743287,10.890001086120606,4.814740133743286,10.920983586120606Q4.916870133743286,10.951965586120606,5.015480133743286,10.992810586120605Q5.114090133743286,11.033654586120605,5.208220133743286,11.083967586120606Q5.302350133743286,11.134280586120605,5.391090133743286,11.193576586120605Q5.479830133743286,11.252873586120606,5.562340133743286,11.320583586120605Q5.644840133743286,11.388293586120605,5.720310133743286,11.463763586120605Q5.7957801337432855,11.539233586120606,5.863490133743286,11.621738586120605Q5.931200133743286,11.704242586120605,5.990500133743286,11.792986586120605Q6.049800133743286,11.881733586120605,6.100110133743286,11.975863586120605Q6.150420133743286,12.069983586120605,6.191260133743286,12.168593586120606Q6.232110133743286,12.267203586120605,6.263090133743286,12.369333586120606Q6.294070133743286,12.471473586120606,6.314900133743286,12.576153586120606Q6.335720133743286,12.680833586120606,6.346180133743286,12.787053586120605Q6.356640133743286,12.893263586120606,6.356640133743286,13.000003586120606ZM15.172110133743287,13.000003586120606Q15.172110133743287,13.106733586120605,15.161610133743286,13.212943586120605Q15.151110133743286,13.319163586120606,15.130310133743286,13.423843586120606Q15.109510133743287,13.528523586120606,15.078510133743286,13.630663586120605Q15.047510133743286,13.732793586120605,15.006710133743287,13.831403586120604Q14.965810133743286,13.930013586120605,14.915510133743286,14.024143586120605Q14.865210133743286,14.118273586120605,14.805910133743286,14.207013586120606Q14.746610133743285,14.295753586120606,14.678910133743287,14.378263586120605Q14.611210133743286,14.460763586120606,14.535710133743287,14.536233586120606Q14.460310133743286,14.611703586120605,14.377810133743287,14.679413586120607Q14.295310133743286,14.747123586120605,14.206510133743286,14.806423586120605Q14.117810133743285,14.865723586120605,14.023610133743286,14.916033586120605Q13.929510133743285,14.966343586120605,13.830910133743286,15.007183586120606Q13.732310133743287,15.048033586120606,13.630210133743287,15.079013586120606Q13.528010133743287,15.109993586120606,13.423310133743286,15.130823586120606Q13.318710133743286,15.151643586120606,13.212410133743287,15.162103586120605Q13.106210133743286,15.172563586120607,12.999510133743286,15.172563586120607Q12.892810133743286,15.172563586120607,12.786510133743286,15.162103586120605Q12.680310133743285,15.151643586120606,12.575610133743286,15.130823586120606Q12.471010133743286,15.109993586120606,12.368810133743287,15.079013586120606Q12.266710133743286,15.048033586120606,12.168110133743285,15.007193586120605Q12.069510133743286,14.966343586120605,11.975360133743287,14.916033586120605Q11.881240133743287,14.865723586120605,11.792490133743286,14.806423586120605Q11.703750133743286,14.747123586120605,11.621240133743287,14.679413586120607Q11.538740133743286,14.611703586120605,11.463270133743286,14.536233586120606Q11.387800133743285,14.460763586120606,11.320090133743285,14.378263586120605Q11.252380133743285,14.295753586120606,11.193080133743287,14.207013586120606Q11.133790133743286,14.118273586120605,11.083470133743287,14.024143586120605Q11.033160133743285,13.930013586120605,10.992320133743286,13.831403586120604Q10.951470133743285,13.732793586120605,10.920490133743286,13.630663586120605Q10.889510133743286,13.528523586120606,10.868680133743286,13.423843586120606Q10.847860133743286,13.319163586120606,10.837400133743285,13.212943586120605Q10.826940133743285,13.106733586120605,10.826940133743285,13.000003586120606Q10.826940133743285,12.893263586120606,10.837400133743285,12.787053586120605Q10.847860133743286,12.680833586120606,10.868680133743286,12.576153586120606Q10.889510133743286,12.471473586120606,10.920490133743286,12.369333586120606Q10.951470133743285,12.267203586120605,10.992320133743286,12.168593586120606Q11.033160133743285,12.069983586120605,11.083470133743287,11.975863586120605Q11.133790133743286,11.881733586120605,11.193080133743287,11.792986586120605Q11.252380133743285,11.704242586120605,11.320090133743285,11.621738586120605Q11.387800133743285,11.539233586120606,11.463270133743286,11.463763586120605Q11.538740133743286,11.388293586120605,11.621240133743287,11.320583586120605Q11.703750133743286,11.252873586120606,11.792490133743286,11.193576586120605Q11.881240133743287,11.134280586120605,11.975360133743287,11.083967586120606Q12.069510133743286,11.033654586120605,12.168110133743285,10.992810586120605Q12.266710133743286,10.951965586120606,12.368810133743287,10.920983586120606Q12.471010133743286,10.890001086120606,12.575610133743286,10.869178786120605Q12.680310133743285,10.848356586120605,12.786510133743286,10.837895086120605Q12.892810133743286,10.827433586120605,12.999510133743286,10.827433586120605Q13.106210133743286,10.827433586120605,13.212410133743287,10.837895086120605Q13.318710133743286,10.848356586120605,13.423310133743286,10.869178786120605Q13.528010133743287,10.890001086120606,13.630210133743287,10.920983586120606Q13.732310133743287,10.951965586120606,13.830910133743286,10.992810586120605Q13.929510133743285,11.033654586120605,14.023610133743286,11.083967586120606Q14.117810133743285,11.134280586120605,14.206510133743286,11.193576586120605Q14.295310133743286,11.252873586120606,14.377810133743287,11.320583586120605Q14.460310133743286,11.388293586120605,14.535710133743287,11.463763586120605Q14.611210133743286,11.539233586120606,14.678910133743287,11.621738586120605Q14.746610133743285,11.704242586120605,14.805910133743286,11.792986586120605Q14.865210133743286,11.881733586120605,14.915510133743286,11.975863586120605Q14.965810133743286,12.069983586120605,15.006710133743287,12.168593586120606Q15.047510133743286,12.267203586120605,15.078510133743286,12.369333586120606Q15.109510133743287,12.471473586120606,15.130310133743286,12.576153586120606Q15.151110133743286,12.680833586120606,15.161610133743286,12.787053586120605Q15.172110133743287,12.893263586120606,15.172110133743287,13.000003586120606ZM23.988510133743286,13.000003586120606Q23.988510133743286,13.106733586120605,23.978010133743286,13.212943586120605Q23.967510133743286,13.319163586120606,23.946710133743284,13.423843586120606Q23.925910133743287,13.528523586120606,23.894910133743288,13.630663586120605Q23.863910133743286,13.732793586120605,23.823110133743285,13.831403586120604Q23.782210133743288,13.930013586120605,23.731910133743288,14.024143586120605Q23.681610133743288,14.118273586120605,23.622310133743287,14.207013586120606Q23.563010133743287,14.295753586120606,23.495310133743285,14.378263586120605Q23.427610133743286,14.460763586120606,23.352110133743285,14.536233586120606Q23.276710133743286,14.611703586120605,23.194210133743287,14.679413586120607Q23.111710133743287,14.747123586120605,23.022910133743284,14.806423586120605Q22.934210133743285,14.865723586120605,22.840010133743284,14.916033586120605Q22.745910133743287,14.966343586120605,22.647310133743286,15.007183586120606Q22.548710133743285,15.048033586120606,22.446610133743285,15.079013586120606Q22.344410133743285,15.109993586120606,22.239710133743287,15.130823586120606Q22.135110133743286,15.151643586120606,22.028810133743285,15.162103586120605Q21.922610133743287,15.172563586120607,21.815910133743287,15.172563586120607Q21.709210133743287,15.172563586120607,21.603010133743286,15.162103586120605Q21.496710133743285,15.151643586120606,21.392110133743287,15.130823586120606Q21.287410133743286,15.109993586120606,21.185210133743286,15.079013586120606Q21.083110133743286,15.048033586120606,20.984510133743285,15.007193586120605Q20.885910133743288,14.966343586120605,20.791810133743287,14.916033586120605Q20.697610133743286,14.865723586120605,20.608910133743287,14.806423586120605Q20.520110133743287,14.747123586120605,20.437610133743288,14.679413586120607Q20.355110133743285,14.611703586120605,20.279710133743286,14.536233586120606Q20.204210133743285,14.460763586120606,20.136510133743286,14.378263586120605Q20.068810133743288,14.295753586120606,20.009510133743287,14.207013586120606Q19.950210133743287,14.118273586120605,19.899910133743287,14.024143586120605Q19.849610133743287,13.930013586120605,19.808710133743286,13.831403586120604Q19.767910133743285,13.732793586120605,19.736910133743287,13.630663586120605Q19.705910133743288,13.528523586120606,19.685110133743287,13.423843586120606Q19.664310133743285,13.319163586120606,19.653810133743285,13.212943586120605Q19.643310133743284,13.106733586120605,19.643310133743284,13.000003586120606Q19.643310133743284,12.893263586120606,19.653810133743285,12.787053586120605Q19.664310133743285,12.680833586120606,19.685110133743287,12.576153586120606Q19.705910133743288,12.471473586120606,19.736910133743287,12.369333586120606Q19.767910133743285,12.267203586120605,19.808710133743286,12.168593586120606Q19.849610133743287,12.069983586120605,19.899910133743287,11.975863586120605Q19.950210133743287,11.881733586120605,20.009510133743287,11.792986586120605Q20.068810133743288,11.704242586120605,20.136510133743286,11.621738586120605Q20.204210133743285,11.539233586120606,20.279710133743286,11.463763586120605Q20.355110133743285,11.388293586120605,20.437610133743288,11.320583586120605Q20.520110133743287,11.252873586120606,20.608910133743287,11.193576586120605Q20.697610133743286,11.134280586120605,20.791810133743287,11.083967586120606Q20.885910133743288,11.033654586120605,20.984510133743285,10.992810586120605Q21.083110133743286,10.951965586120606,21.185210133743286,10.920983586120606Q21.287410133743286,10.890001086120606,21.392110133743287,10.869178786120605Q21.496710133743285,10.848356586120605,21.603010133743286,10.837895086120605Q21.709210133743287,10.827433586120605,21.815910133743287,10.827433586120605Q21.922610133743287,10.827433586120605,22.028810133743285,10.837895086120605Q22.135110133743286,10.848356586120605,22.239710133743287,10.869178786120605Q22.344410133743285,10.890001086120606,22.446610133743285,10.920983586120606Q22.548710133743285,10.951965586120606,22.647310133743286,10.992810586120605Q22.745910133743287,11.033654586120605,22.840010133743284,11.083967586120606Q22.934210133743285,11.134280586120605,23.022910133743284,11.193576586120605Q23.111710133743287,11.252873586120606,23.194210133743287,11.320583586120605Q23.276710133743286,11.388293586120605,23.352110133743285,11.463763586120605Q23.427610133743286,11.539233586120606,23.495310133743285,11.621738586120605Q23.563010133743287,11.704242586120605,23.622310133743287,11.792986586120605Q23.681610133743288,11.881733586120605,23.731910133743288,11.975863586120605Q23.782210133743288,12.069983586120605,23.823110133743285,12.168593586120606Q23.863910133743286,12.267203586120605,23.894910133743288,12.369333586120606Q23.925910133743287,12.471473586120606,23.946710133743284,12.576153586120606Q23.967510133743286,12.680833586120606,23.978010133743286,12.787053586120605Q23.988510133743286,12.893263586120606,23.988510133743286,13.000003586120606Z" fill="#FFFFFF" fill-opacity="1"/></g></mask></defs><g><g mask="url(#master_svg0_0_6163/0_10004)"><g><path d="M6.356640133743286,13.000003586120606Q6.356640133743286,13.106733586120605,6.346180133743286,13.212943586120605Q6.335720133743286,13.319163586120606,6.314900133743286,13.423843586120606Q6.294070133743286,13.528523586120606,6.263090133743286,13.630663586120605Q6.232110133743286,13.732793586120605,6.191270133743286,13.831403586120604Q6.150420133743286,13.930013586120605,6.100110133743286,14.024143586120605Q6.049800133743286,14.118273586120605,5.990500133743286,14.207013586120606Q5.931200133743286,14.295753586120606,5.863490133743286,14.378263586120605Q5.7957801337432855,14.460763586120606,5.720310133743286,14.536233586120606Q5.644840133743286,14.611703586120605,5.562340133743286,14.679413586120607Q5.479830133743286,14.747123586120605,5.391090133743286,14.806423586120605Q5.302350133743286,14.865723586120605,5.208220133743286,14.916033586120605Q5.114090133743286,14.966343586120605,5.015480133743286,15.007183586120606Q4.916870133743286,15.048033586120606,4.814740133743286,15.079013586120606Q4.712600133743287,15.109993586120606,4.607920133743287,15.130823586120606Q4.503240133743287,15.151643586120606,4.397020133743286,15.162103586120605Q4.290810133743286,15.172563586120607,4.1840801337432865,15.172563586120607Q4.077340133743286,15.172563586120607,3.9711301337432863,15.162103586120605Q3.864910133743286,15.151643586120606,3.760230133743286,15.130823586120606Q3.655550133743286,15.109993586120606,3.553410133743286,15.079013586120606Q3.4512801337432863,15.048033586120606,3.352670133743286,15.007193586120605Q3.254060133743286,14.966343586120605,3.1599401337432864,14.916033586120605Q3.065810133743286,14.865723586120605,2.977063133743286,14.806423586120605Q2.888319133743286,14.747123586120605,2.805815133743286,14.679413586120607Q2.7233101337432863,14.611703586120605,2.647840133743286,14.536233586120606Q2.572370133743286,14.460763586120606,2.504660133743286,14.378263586120605Q2.436950133743286,14.295753586120606,2.3776531337432862,14.207013586120606Q2.318357133743286,14.118273586120605,2.268044133743286,14.024143586120605Q2.2177311337432863,13.930013586120605,2.176887133743286,13.831403586120604Q2.136042133743286,13.732793586120605,2.105060133743286,13.630663586120605Q2.0740776337432862,13.528523586120606,2.053255333743286,13.423843586120606Q2.032433133743286,13.319163586120606,2.021971633743286,13.212943586120605Q2.011510133743286,13.106733586120605,2.011510133743286,13.000003586120606Q2.011510133743286,12.893263586120606,2.021971633743286,12.787053586120605Q2.032433133743286,12.680833586120606,2.053255333743286,12.576153586120606Q2.0740776337432862,12.471473586120606,2.105060133743286,12.369333586120606Q2.136042133743286,12.267203586120605,2.176887133743286,12.168593586120606Q2.2177311337432863,12.069983586120605,2.268044133743286,11.975863586120605Q2.318357133743286,11.881733586120605,2.3776531337432862,11.792986586120605Q2.436950133743286,11.704242586120605,2.504660133743286,11.621738586120605Q2.572370133743286,11.539233586120606,2.647840133743286,11.463763586120605Q2.7233101337432863,11.388293586120605,2.805815133743286,11.320583586120605Q2.888319133743286,11.252873586120606,2.977063133743286,11.193576586120605Q3.065810133743286,11.134280586120605,3.1599401337432864,11.083967586120606Q3.254060133743286,11.033654586120605,3.352670133743286,10.992810586120605Q3.4512801337432863,10.951965586120606,3.553410133743286,10.920983586120606Q3.655550133743286,10.890001086120606,3.760230133743286,10.869178786120605Q3.864910133743286,10.848356586120605,3.9711301337432863,10.837895086120605Q4.077340133743286,10.827433586120605,4.1840801337432865,10.827433586120605Q4.290810133743286,10.827433586120605,4.397020133743286,10.837895086120605Q4.503240133743287,10.848356586120605,4.607920133743287,10.869178786120605Q4.712600133743287,10.890001086120606,4.814740133743286,10.920983586120606Q4.916870133743286,10.951965586120606,5.015480133743286,10.992810586120605Q5.114090133743286,11.033654586120605,5.208220133743286,11.083967586120606Q5.302350133743286,11.134280586120605,5.391090133743286,11.193576586120605Q5.479830133743286,11.252873586120606,5.562340133743286,11.320583586120605Q5.644840133743286,11.388293586120605,5.720310133743286,11.463763586120605Q5.7957801337432855,11.539233586120606,5.863490133743286,11.621738586120605Q5.931200133743286,11.704242586120605,5.990500133743286,11.792986586120605Q6.049800133743286,11.881733586120605,6.100110133743286,11.975863586120605Q6.150420133743286,12.069983586120605,6.191260133743286,12.168593586120606Q6.232110133743286,12.267203586120605,6.263090133743286,12.369333586120606Q6.294070133743286,12.471473586120606,6.314900133743286,12.576153586120606Q6.335720133743286,12.680833586120606,6.346180133743286,12.787053586120605Q6.356640133743286,12.893263586120606,6.356640133743286,13.000003586120606ZM15.172110133743287,13.000003586120606Q15.172110133743287,13.106733586120605,15.161610133743286,13.212943586120605Q15.151110133743286,13.319163586120606,15.130310133743286,13.423843586120606Q15.109510133743287,13.528523586120606,15.078510133743286,13.630663586120605Q15.047510133743286,13.732793586120605,15.006710133743287,13.831403586120604Q14.965810133743286,13.930013586120605,14.915510133743286,14.024143586120605Q14.865210133743286,14.118273586120605,14.805910133743286,14.207013586120606Q14.746610133743285,14.295753586120606,14.678910133743287,14.378263586120605Q14.611210133743286,14.460763586120606,14.535710133743287,14.536233586120606Q14.460310133743286,14.611703586120605,14.377810133743287,14.679413586120607Q14.295310133743286,14.747123586120605,14.206510133743286,14.806423586120605Q14.117810133743285,14.865723586120605,14.023610133743286,14.916033586120605Q13.929510133743285,14.966343586120605,13.830910133743286,15.007183586120606Q13.732310133743287,15.048033586120606,13.630210133743287,15.079013586120606Q13.528010133743287,15.109993586120606,13.423310133743286,15.130823586120606Q13.318710133743286,15.151643586120606,13.212410133743287,15.162103586120605Q13.106210133743286,15.172563586120607,12.999510133743286,15.172563586120607Q12.892810133743286,15.172563586120607,12.786510133743286,15.162103586120605Q12.680310133743285,15.151643586120606,12.575610133743286,15.130823586120606Q12.471010133743286,15.109993586120606,12.368810133743287,15.079013586120606Q12.266710133743286,15.048033586120606,12.168110133743285,15.007193586120605Q12.069510133743286,14.966343586120605,11.975360133743287,14.916033586120605Q11.881240133743287,14.865723586120605,11.792490133743286,14.806423586120605Q11.703750133743286,14.747123586120605,11.621240133743287,14.679413586120607Q11.538740133743286,14.611703586120605,11.463270133743286,14.536233586120606Q11.387800133743285,14.460763586120606,11.320090133743285,14.378263586120605Q11.252380133743285,14.295753586120606,11.193080133743287,14.207013586120606Q11.133790133743286,14.118273586120605,11.083470133743287,14.024143586120605Q11.033160133743285,13.930013586120605,10.992320133743286,13.831403586120604Q10.951470133743285,13.732793586120605,10.920490133743286,13.630663586120605Q10.889510133743286,13.528523586120606,10.868680133743286,13.423843586120606Q10.847860133743286,13.319163586120606,10.837400133743285,13.212943586120605Q10.826940133743285,13.106733586120605,10.826940133743285,13.000003586120606Q10.826940133743285,12.893263586120606,10.837400133743285,12.787053586120605Q10.847860133743286,12.680833586120606,10.868680133743286,12.576153586120606Q10.889510133743286,12.471473586120606,10.920490133743286,12.369333586120606Q10.951470133743285,12.267203586120605,10.992320133743286,12.168593586120606Q11.033160133743285,12.069983586120605,11.083470133743287,11.975863586120605Q11.133790133743286,11.881733586120605,11.193080133743287,11.792986586120605Q11.252380133743285,11.704242586120605,11.320090133743285,11.621738586120605Q11.387800133743285,11.539233586120606,11.463270133743286,11.463763586120605Q11.538740133743286,11.388293586120605,11.621240133743287,11.320583586120605Q11.703750133743286,11.252873586120606,11.792490133743286,11.193576586120605Q11.881240133743287,11.134280586120605,11.975360133743287,11.083967586120606Q12.069510133743286,11.033654586120605,12.168110133743285,10.992810586120605Q12.266710133743286,10.951965586120606,12.368810133743287,10.920983586120606Q12.471010133743286,10.890001086120606,12.575610133743286,10.869178786120605Q12.680310133743285,10.848356586120605,12.786510133743286,10.837895086120605Q12.892810133743286,10.827433586120605,12.999510133743286,10.827433586120605Q13.106210133743286,10.827433586120605,13.212410133743287,10.837895086120605Q13.318710133743286,10.848356586120605,13.423310133743286,10.869178786120605Q13.528010133743287,10.890001086120606,13.630210133743287,10.920983586120606Q13.732310133743287,10.951965586120606,13.830910133743286,10.992810586120605Q13.929510133743285,11.033654586120605,14.023610133743286,11.083967586120606Q14.117810133743285,11.134280586120605,14.206510133743286,11.193576586120605Q14.295310133743286,11.252873586120606,14.377810133743287,11.320583586120605Q14.460310133743286,11.388293586120605,14.535710133743287,11.463763586120605Q14.611210133743286,11.539233586120606,14.678910133743287,11.621738586120605Q14.746610133743285,11.704242586120605,14.805910133743286,11.792986586120605Q14.865210133743286,11.881733586120605,14.915510133743286,11.975863586120605Q14.965810133743286,12.069983586120605,15.006710133743287,12.168593586120606Q15.047510133743286,12.267203586120605,15.078510133743286,12.369333586120606Q15.109510133743287,12.471473586120606,15.130310133743286,12.576153586120606Q15.151110133743286,12.680833586120606,15.161610133743286,12.787053586120605Q15.172110133743287,12.893263586120606,15.172110133743287,13.000003586120606ZM23.988510133743286,13.000003586120606Q23.988510133743286,13.106733586120605,23.978010133743286,13.212943586120605Q23.967510133743286,13.319163586120606,23.946710133743284,13.423843586120606Q23.925910133743287,13.528523586120606,23.894910133743288,13.630663586120605Q23.863910133743286,13.732793586120605,23.823110133743285,13.831403586120604Q23.782210133743288,13.930013586120605,23.731910133743288,14.024143586120605Q23.681610133743288,14.118273586120605,23.622310133743287,14.207013586120606Q23.563010133743287,14.295753586120606,23.495310133743285,14.378263586120605Q23.427610133743286,14.460763586120606,23.352110133743285,14.536233586120606Q23.276710133743286,14.611703586120605,23.194210133743287,14.679413586120607Q23.111710133743287,14.747123586120605,23.022910133743284,14.806423586120605Q22.934210133743285,14.865723586120605,22.840010133743284,14.916033586120605Q22.745910133743287,14.966343586120605,22.647310133743286,15.007183586120606Q22.548710133743285,15.048033586120606,22.446610133743285,15.079013586120606Q22.344410133743285,15.109993586120606,22.239710133743287,15.130823586120606Q22.135110133743286,15.151643586120606,22.028810133743285,15.162103586120605Q21.922610133743287,15.172563586120607,21.815910133743287,15.172563586120607Q21.709210133743287,15.172563586120607,21.603010133743286,15.162103586120605Q21.496710133743285,15.151643586120606,21.392110133743287,15.130823586120606Q21.287410133743286,15.109993586120606,21.185210133743286,15.079013586120606Q21.083110133743286,15.048033586120606,20.984510133743285,15.007193586120605Q20.885910133743288,14.966343586120605,20.791810133743287,14.916033586120605Q20.697610133743286,14.865723586120605,20.608910133743287,14.806423586120605Q20.520110133743287,14.747123586120605,20.437610133743288,14.679413586120607Q20.355110133743285,14.611703586120605,20.279710133743286,14.536233586120606Q20.204210133743285,14.460763586120606,20.136510133743286,14.378263586120605Q20.068810133743288,14.295753586120606,20.009510133743287,14.207013586120606Q19.950210133743287,14.118273586120605,19.899910133743287,14.024143586120605Q19.849610133743287,13.930013586120605,19.808710133743286,13.831403586120604Q19.767910133743285,13.732793586120605,19.736910133743287,13.630663586120605Q19.705910133743288,13.528523586120606,19.685110133743287,13.423843586120606Q19.664310133743285,13.319163586120606,19.653810133743285,13.212943586120605Q19.643310133743284,13.106733586120605,19.643310133743284,13.000003586120606Q19.643310133743284,12.893263586120606,19.653810133743285,12.787053586120605Q19.664310133743285,12.680833586120606,19.685110133743287,12.576153586120606Q19.705910133743288,12.471473586120606,19.736910133743287,12.369333586120606Q19.767910133743285,12.267203586120605,19.808710133743286,12.168593586120606Q19.849610133743287,12.069983586120605,19.899910133743287,11.975863586120605Q19.950210133743287,11.881733586120605,20.009510133743287,11.792986586120605Q20.068810133743288,11.704242586120605,20.136510133743286,11.621738586120605Q20.204210133743285,11.539233586120606,20.279710133743286,11.463763586120605Q20.355110133743285,11.388293586120605,20.437610133743288,11.320583586120605Q20.520110133743287,11.252873586120606,20.608910133743287,11.193576586120605Q20.697610133743286,11.134280586120605,20.791810133743287,11.083967586120606Q20.885910133743288,11.033654586120605,20.984510133743285,10.992810586120605Q21.083110133743286,10.951965586120606,21.185210133743286,10.920983586120606Q21.287410133743286,10.890001086120606,21.392110133743287,10.869178786120605Q21.496710133743285,10.848356586120605,21.603010133743286,10.837895086120605Q21.709210133743287,10.827433586120605,21.815910133743287,10.827433586120605Q21.922610133743287,10.827433586120605,22.028810133743285,10.837895086120605Q22.135110133743286,10.848356586120605,22.239710133743287,10.869178786120605Q22.344410133743285,10.890001086120606,22.446610133743285,10.920983586120606Q22.548710133743285,10.951965586120606,22.647310133743286,10.992810586120605Q22.745910133743287,11.033654586120605,22.840010133743284,11.083967586120606Q22.934210133743285,11.134280586120605,23.022910133743284,11.193576586120605Q23.111710133743287,11.252873586120606,23.194210133743287,11.320583586120605Q23.276710133743286,11.388293586120605,23.352110133743285,11.463763586120605Q23.427610133743286,11.539233586120606,23.495310133743285,11.621738586120605Q23.563010133743287,11.704242586120605,23.622310133743287,11.792986586120605Q23.681610133743288,11.881733586120605,23.731910133743288,11.975863586120605Q23.782210133743288,12.069983586120605,23.823110133743285,12.168593586120606Q23.863910133743286,12.267203586120605,23.894910133743288,12.369333586120606Q23.925910133743287,12.471473586120606,23.946710133743284,12.576153586120606Q23.967510133743286,12.680833586120606,23.978010133743286,12.787053586120605Q23.988510133743286,12.893263586120606,23.988510133743286,13.000003586120606Z" fill="#1E1E1E" fill-opacity="1"/></g><g><g><rect x="0" y="0" width="26" height="26" rx="0" fill="#1E1E1E" fill-opacity="1"/></g></g></g></g></svg>