<?xml version="1.0" encoding="UTF-8"?>
<svg width="26px" height="26px" viewBox="0 0 26 26" version="1.1" xmlns="http://www.w3.org/2000/svg" xmlns:xlink="http://www.w3.org/1999/xlink">
    <title>icon_recommend</title>
    <g id="页面-1" stroke="none" stroke-width="1" fill="none" fill-rule="evenodd">
        <g id="voicematch" transform="translate(-16.000000, -50.000000)" fill-rule="nonzero" stroke="#FFFFFF" stroke-width="2.4">
            <g id="icon_recommend" transform="translate(16.000000, 50.000000)">
                <path d="M17.6753013,4.5 C19.1640891,4.5 20.5084097,5.07786914 21.5750859,6.10043026 C21.6382119,6.12885139 21.7931907,6.27824174 22.0400223,6.54860132 C22.4650223,7.14360132 22.8603012,7.73000001 23.0303012,8.41 C23.1879865,9.03333335 23.2446532,9.77000002 23.2003013,10.62 C22.7753013,15.635 16.6553013,21.5 13.0003013,21.5 C9.37842014,21.5 3.33600862,15.740807 2.81325108,10.6738207 C2.74088589,10.1713878 2.81325108,9.24990595 2.97030126,8.58000002 C3.22530126,7.73000001 3.56530127,7.05 4.07530127,6.45500001 L4.24530126,6.28500002 C5.26530126,5.18000001 6.71030127,4.5 8.32530126,4.5 C10.2981133,4.5 12.0236131,5.52457908 13.0006892,7.07262564 C13.9769894,5.52457908 15.7024892,4.5 17.6753013,4.5 Z" id="路径备份"></path>
            </g>
        </g>
    </g>
</svg>