<svg xmlns="http://www.w3.org/2000/svg" xmlns:xlink="http://www.w3.org/1999/xlink" fill="none" version="1.1" width="20" height="20" viewBox="0 0 22.779296875 21.98779296875"><g><g><path d="M1.5000741875,9.493894285278321L21.2791921875,9.493894285278321Q21.3528921875,9.493894285278321,21.4261921875,9.50112428527832Q21.4995921875,9.50834428527832,21.5717921875,9.52271428527832Q21.6440921875,9.53709428527832,21.7145921875,9.55848428527832Q21.7850921875,9.57987428527832,21.8531921875,9.60807728527832Q21.9212921875,9.63627728527832,21.9862921875,9.67101428527832Q22.0512921875,9.70575228527832,22.1125921875,9.74669228527832Q22.1737921875,9.78763228527832,22.2307921875,9.83438128527832Q22.2877921875,9.88112928527832,22.3398921875,9.933236285278321Q22.3919921875,9.98534328527832,22.4386921875,10.04230628527832Q22.4854921875,10.09927028527832,22.5263921875,10.16054128527832Q22.5672921875,10.22181228527832,22.6020921875,10.28680128527832Q22.6367921875,10.35179028527832,22.6649921875,10.41987128527832Q22.6931921875,10.48795228527832,22.7145921875,10.55846958527832Q22.7359921875,10.62898678527832,22.7503921875,10.70126128527832Q22.7647921875,10.77353528527832,22.7719921875,10.84687128527832Q22.7791921875,10.92020628527832,22.7791921875,10.99389628527832Q22.7791921875,11.06758728527832,22.7719921875,11.14092228527832Q22.7647921875,11.21425728527832,22.7503921875,11.28653228527832Q22.7359921875,11.35880628527832,22.7145921875,11.42932328527832Q22.6931921875,11.49984128527832,22.6649921875,11.56792128527832Q22.6367921875,11.63600428527832,22.6020921875,11.70099428527832Q22.5672921875,11.76598428527832,22.5263921875,11.82725428527832Q22.4854921875,11.88852428527832,22.4386921875,11.94548428527832Q22.3919921875,12.00245428527832,22.3398921875,12.05455428527832Q22.2877921875,12.10666428527832,22.2307921875,12.15341428527832Q22.1737921875,12.200164285278321,22.1125921875,12.24110428527832Q22.0512921875,12.282044285278321,21.9862921875,12.31677428527832Q21.9212921875,12.35151428527832,21.8531921875,12.37971428527832Q21.7850921875,12.40791428527832,21.7145921875,12.42930428527832Q21.6440921875,12.45069428527832,21.5717921875,12.46507428527832Q21.4995921875,12.47945428527832,21.4261921875,12.48667428527832Q21.3528921875,12.493894285278321,21.2791921875,12.493894285278321L1.5000741875,12.493894285278321Q1.4263841875,12.493894285278321,1.3530491875,12.48667428527832Q1.2797131875,12.47945428527832,1.2074391875,12.46507428527832Q1.1351646875,12.45069428527832,1.0646474875,12.42930428527832Q0.9941301875,12.40791428527832,0.9260491875,12.37971428527832Q0.8579681875,12.35151428527832,0.7929791875000001,12.31677428527832Q0.7279901875,12.282044285278321,0.6667191875,12.24110428527832Q0.6054481875,12.200164285278321,0.5484841875,12.15341428527832Q0.49152118749999996,12.10666428527832,0.43941418750000005,12.05455428527832Q0.38730718750000004,12.00245428527832,0.3405591875,11.94548428527832Q0.2938101875,11.88852428527832,0.2528701875,11.82725428527832Q0.21193018750000003,11.76598428527832,0.1771921875,11.70099428527832Q0.14245518749999997,11.63600428527832,0.11425518749999997,11.56792128527832Q0.08605218749999999,11.49984128527832,0.06466218749999997,11.42932328527832Q0.04327218749999995,11.35880628527832,0.02889218750000011,11.28653228527832Q0.014522187499999895,11.21425728527832,0.00730218749999989,11.14092228527832Q0.0000721875000000427,11.06758728527832,0.0000721875000000427,10.99389628527832Q0.0000721875000000427,10.92020628527832,0.00730218749999989,10.84687128527832Q0.014522187499999895,10.77353528527832,0.02889218750000011,10.70126128527832Q0.04327218749999995,10.62898678527832,0.06466218749999997,10.55846958527832Q0.08605218749999999,10.48795228527832,0.11425518749999997,10.41987128527832Q0.14245518749999997,10.35179028527832,0.1771921875,10.28680128527832Q0.21193018750000003,10.22181228527832,0.2528701875,10.16054128527832Q0.2938101875,10.09927028527832,0.3405591875,10.04230628527832Q0.38730718750000004,9.98534328527832,0.43941418750000005,9.933236285278321Q0.49152118749999996,9.88112928527832,0.5484841875,9.83438128527832Q0.6054481875,9.78763228527832,0.6667191875,9.74669228527832Q0.7279901875,9.70575228527832,0.7929791875000001,9.67101428527832Q0.8579681875,9.63627728527832,0.9260491875,9.60807728527832Q0.9941301875,9.57987428527832,1.0646474875,9.55848428527832Q1.1351646875,9.53709428527832,1.2074391875,9.52271428527832Q1.2797131875,9.50834428527832,1.3530491875,9.50112428527832Q1.4263841875,9.493894285278321,1.5000741875,9.493894285278321Z" fill-rule="evenodd" fill="#FFFFFF" fill-opacity="1"/></g><g><path d="M9.889630025939942,1.4999206066131592Q9.889630025939942,1.4262303066131592,9.896860025939942,1.3528946066131593Q9.90408002593994,1.2795596066131592,9.918450025939942,1.2072856066131592Q9.932830025939941,1.1350106066131591,9.954220025939941,1.0644936066131592Q9.975610025939941,0.9939766066131592,10.003813025939941,0.9258956066131592Q10.032013025939941,0.8578146066131592,10.06675002593994,0.7928256066131592Q10.101488025939942,0.7278366066131592,10.14242802593994,0.6665656066131592Q10.183368025939942,0.6052936066131592,10.230117025939942,0.5483306066131591Q10.27686502593994,0.4913706066131591,10.328972025939942,0.43926060661315924Q10.381079025939941,0.38715060661315914,10.438042025939941,0.3404006066131591Q10.495006025939942,0.29366060661315907,10.556277025939941,0.2527206066131591Q10.617548025939941,0.21178060661315912,10.682537025939942,0.17704060661315912Q10.74752602593994,0.14230060661315913,10.815607025939942,0.11410060661315913Q10.883688025939941,0.08590060661315913,10.954205325939942,0.0645106066131591Q11.024722525939941,0.043120606613159085,11.096997025939942,0.028740606613159247Q11.169271025939942,0.014370606613159254,11.242607025939941,0.007140606613159184Q11.315942025939941,-0.00007939338684082031,11.38963202593994,-0.00007939338684082031Q11.46332302593994,-0.00007939338684082031,11.536658025939941,0.007140606613159184Q11.609993025939941,0.014370606613159254,11.68226802593994,0.028740606613159247Q11.75454202593994,0.043120606613159085,11.825059025939941,0.0645106066131591Q11.895577025939941,0.08590060661315913,11.963657025939941,0.11410060661315913Q12.031740025939941,0.14230060661315913,12.09673002593994,0.17704060661315912Q12.16172002593994,0.21178060661315912,12.222990025939941,0.2527206066131591Q12.284260025939941,0.29366060661315907,12.341220025939942,0.3404006066131591Q12.398190025939941,0.38715060661315914,12.45029002593994,0.43926060661315924Q12.502400025939941,0.4913706066131591,12.549150025939941,0.5483306066131591Q12.595900025939942,0.6052936066131592,12.636840025939941,0.6665656066131592Q12.677780025939942,0.7278366066131592,12.712510025939942,0.7928256066131592Q12.747250025939941,0.8578146066131592,12.775450025939941,0.9258956066131592Q12.803650025939941,0.9939766066131592,12.825040025939941,1.0644936066131592Q12.846430025939942,1.1350106066131591,12.86081002593994,1.2072856066131592Q12.875190025939942,1.2795596066131592,12.882410025939942,1.3528946066131593Q12.889630025939942,1.4262303066131592,12.889630025939942,1.4999206066131592L12.889630025939942,20.48792060661316Q12.889630025939942,20.561520606613158,12.882410025939942,20.63492060661316Q12.875190025939942,20.70822060661316,12.86081002593994,20.78052060661316Q12.846430025939942,20.85282060661316,12.825040025939941,20.92332060661316Q12.803650025939941,20.99382060661316,12.775450025939941,21.06192060661316Q12.747250025939941,21.130020606613158,12.712510025939942,21.19492060661316Q12.677780025939942,21.25992060661316,12.636840025939941,21.32122060661316Q12.595900025939942,21.38252060661316,12.549150025939941,21.439420606613158Q12.502400025939941,21.49642060661316,12.45029002593994,21.54852060661316Q12.398190025939941,21.60062060661316,12.341220025939942,21.64742060661316Q12.284260025939941,21.694120606613158,12.222990025939941,21.735120606613158Q12.16172002593994,21.77602060661316,12.09673002593994,21.81072060661316Q12.031740025939941,21.84552060661316,11.963657025939941,21.87372060661316Q11.895577025939941,21.90192060661316,11.825059025939941,21.92332060661316Q11.75454202593994,21.94472060661316,11.68226802593994,21.95902060661316Q11.609993025939941,21.97342060661316,11.536658025939941,21.980620606613158Q11.46332302593994,21.98792060661316,11.38963202593994,21.98792060661316Q11.315942025939941,21.98792060661316,11.242607025939941,21.980620606613158Q11.169271025939942,21.97342060661316,11.096997025939942,21.95902060661316Q11.024722525939941,21.94472060661316,10.954205325939942,21.92332060661316Q10.883688025939941,21.90192060661316,10.815607025939942,21.87372060661316Q10.74752602593994,21.84552060661316,10.682537025939942,21.81072060661316Q10.617548025939941,21.77602060661316,10.556277025939941,21.735120606613158Q10.495006025939942,21.694120606613158,10.438042025939941,21.64742060661316Q10.381079025939941,21.60062060661316,10.328972025939942,21.54852060661316Q10.27686502593994,21.49642060661316,10.230117025939942,21.439420606613158Q10.183368025939942,21.38252060661316,10.14242802593994,21.32122060661316Q10.101488025939942,21.25992060661316,10.06675002593994,21.19492060661316Q10.032013025939941,21.130020606613158,10.003813025939941,21.06192060661316Q9.975610025939941,20.99382060661316,9.954220025939941,20.92332060661316Q9.932830025939941,20.85282060661316,9.918450025939942,20.78052060661316Q9.90408002593994,20.70822060661316,9.896860025939942,20.63492060661316Q9.889630025939942,20.561520606613158,9.889630025939942,20.48792060661316L9.889630025939942,1.4999206066131592Z" fill-rule="evenodd" fill="#FFFFFF" fill-opacity="1"/></g></g></svg>