<?xml version="1.0" encoding="UTF-8"?>
<svg width="67px" height="66px" viewBox="0 0 67 66" version="1.1" xmlns="http://www.w3.org/2000/svg" xmlns:xlink="http://www.w3.org/1999/xlink">
    <title>icon_tab_discover</title>
    <g id="页面-1" stroke="none" stroke-width="1" fill="none" fill-rule="evenodd">
        <g id="voicematch" transform="translate(-154.000000, -725.000000)">
            <g id="编组-6" transform="translate(0.000000, 725.000000)">
                <g id="icon_tab_discover" transform="translate(154.500000, 0.000000)">
                    <circle id="椭圆形" fill="#DD73EC" cx="33" cy="33" r="33"></circle>
                    <g id="发现2" transform="translate(15.000000, 15.000000)" fill-rule="nonzero">
                        <rect id="矩形" fill="#000000" opacity="0" x="0" y="0" width="36" height="36"></rect>
                        <path d="M25.5864949,8.17222551 L15.3679508,11.268754 C13.3552072,11.8106465 11.806943,13.3589108 11.1876373,15.3716543 L8.09110874,25.5901984 C7.8588691,26.2095041 8.09110874,26.9062231 8.55558801,27.3707023 C8.86524087,27.7577684 9.40713336,27.9125948 9.87161263,27.9125948 C10.0264391,27.9125948 10.2586787,27.9125948 10.4135051,27.8351816 L20.6320492,24.7386531 C22.6447928,24.1967606 24.193057,22.6484963 24.8123627,20.6357528 L27.9088913,10.4172087 C28.1411309,9.79790298 27.9088913,9.10118407 27.444412,8.63670479 C26.9025195,8.0948123 26.2058006,7.93998587 25.5864949,8.17222551 Z" id="路径" fill="#FFFFFF"></path>
                        <path d="M21.7932474,19.7842075 C21.4835946,20.7905792 20.7094625,21.5647114 19.7030907,21.8743642 L11.806943,24.1967606 L14.2067526,16.2231997 C14.5164054,15.2168279 15.2905375,14.4426958 16.2969093,14.1330429 L24.193057,11.8106465 L21.7932474,19.7842075 Z" id="路径" fill="#FFFFFF"></path>
                        <path d="M16.4517357,18.0037036 C16.4517357,18.8587863 17.1449173,19.5519678 18,19.5519678 C18.8550827,19.5519678 19.5482643,18.8587863 19.5482643,18.0037036 C19.5482643,17.1486208 18.8550827,16.4554393 18,16.4554393 C17.1449173,16.4554393 16.4517357,17.1486208 16.4517357,18.0037036 Z" id="路径" fill="#DD73EC"></path>
                    </g>
                </g>
            </g>
        </g>
    </g>
</svg>