<?xml version="1.0" encoding="UTF-8"?>
<svg width="44px" height="44px" viewBox="0 0 44 44" version="1.1" xmlns="http://www.w3.org/2000/svg" xmlns:xlink="http://www.w3.org/1999/xlink">
    <title>icon_setting</title>
    <defs>
        <path d="M12.3716667,25.87 C10.7439641,25.8867952 9.35489646,24.6968273 9.12166666,23.0858333 L8.98083334,21.8833333 C8.30962159,21.5889359 7.67066527,21.2258926 7.07416666,20.8 L5.87166666,21.2983333 C4.39757003,21.9072229 2.69946981,21.3564877 1.86333334,19.9983333 L1.25666666,19.0125 C0.354261668,17.5797658 0.703084892,15.6942349 2.05833334,14.6791667 L3.03333334,13.9425 L3.03333334,12.9133333 C3.01074181,12.5525756 3.01074181,12.1907578 3.03333334,11.83 L2.10166666,11.1366667 C0.76799954,10.1590717 0.380988138,8.33592156 1.2025,6.90083334 L1.77666666,5.90416666 C2.5768378,4.51632795 4.26896678,3.918565 5.76333334,4.49583334 L7.06333334,4.99416666 C7.65983195,4.56827411 8.29878826,4.20523076 8.97,3.91083334 L9.11083334,2.8275 C9.35017529,1.24953324 10.6998787,0.0788721258 12.2958333,0.0648074642 L13.585,0.0648074642 C15.2091398,0.0474495393 16.5968737,1.23164914 16.835,2.83833334 L17.0083333,4.05166666 C17.6832737,4.3385792 18.3230225,4.70207283 18.915,5.135 L20.1175,4.63666666 C21.5915966,4.02777712 23.2896969,4.57851233 24.1258333,5.93666666 L24.7325,6.9225 C25.634905,8.35523416 25.2860818,10.2407651 23.9308333,11.2558333 L22.9558333,11.9925 C22.9961292,12.3521553 23.014219,12.7139523 23.01,13.0758333 C23.0121761,13.4160521 22.9940886,13.7560985 22.9558333,14.0941667 L23.8766667,14.7766667 C25.2163527,15.7552382 25.6039388,17.5857651 24.7758333,19.0233333 L24.2016667,20.02 C23.4014955,21.4078387 21.7093666,22.0056017 20.215,21.4283333 L18.9041667,20.9191667 C18.3151305,21.3506663 17.679136,21.7140917 17.0083333,22.0025 L16.835,23.1833333 C16.6059398,24.7658822 15.259738,25.9466804 13.6608333,25.9675 L12.4041667,25.9675 L12.3716667,25.87 Z M7.12833334,18.6008333 C7.51917992,18.5960342 7.90044298,18.721851 8.21166666,18.9583333 C8.76279327,19.3650606 9.36345462,19.6999748 9.99916666,19.955 C10.5812668,20.1915625 10.9938147,20.7196238 11.0825,21.3416667 L11.2991667,22.7716667 C11.3752704,23.3101009 11.8387403,23.7086851 12.3825,23.7033866 L13.6391667,23.7033866 C14.1829264,23.7086851 14.6463963,23.3101009 14.7225,22.7716667 L14.9283333,21.3741667 C15.0075727,20.7431007 15.4220398,20.2042936 16.0116667,19.9658333 C16.6350619,19.7178182 17.2218285,19.3861675 17.7558333,18.98 C18.2579876,18.6080917 18.9137976,18.5144046 19.5,18.7308333 L20.9733333,19.2941667 C21.4715908,19.4892848 22.0376687,19.2913877 22.3058333,18.8283333 L22.88,17.8316667 C23.157491,17.3507734 23.0265024,16.7379341 22.5766667,16.4125 L21.4933333,15.6 C20.9732176,15.222719 20.7026581,14.590026 20.7891667,13.9533333 C20.8295613,13.6262255 20.8512632,13.2970798 20.8541667,12.9675 C20.8520216,12.6378924 20.8303168,12.3087025 20.7891667,11.9816667 C20.700918,11.3416725 20.9714239,10.7049433 21.4933333,10.3241667 L22.6308333,9.46833334 C23.0718382,9.12914601 23.18422,8.51104641 22.8908333,8.03833334 L22.295,7.0525 C22.0156755,6.59613941 21.4450144,6.4120552 20.9516667,6.61916666 L19.565,7.19333334 C18.9738636,7.43433663 18.2996726,7.34800729 17.7883333,6.96583334 C17.2441518,6.56040615 16.6508213,6.22552024 16.0225,5.96916666 C15.4431268,5.7290061 15.0320029,5.20276754 14.9391667,4.5825 L14.7225,3.14166666 C14.6414998,2.6075421 14.1793636,2.21472639 13.6391667,2.22076311 L12.3391667,2.22076311 C11.7881555,2.21685332 11.321942,2.62712119 11.2558333,3.17416666 L11.0825,4.52833334 C11.006238,5.16570545 10.5920946,5.71237483 9.99916666,5.95833334 C9.37618938,6.21422048 8.78682032,6.54528581 8.24416666,6.94416666 C7.74358966,7.31989812 7.08575873,7.41387397 6.5,7.19333334 L4.98333334,6.61916666 C4.48241519,6.42590499 3.91551243,6.62869948 3.65083334,7.09583334 L3.07666666,8.0925 C2.8057752,8.57090594 2.93618174,9.17636488 3.38,9.50083334 L4.46333334,10.335 C4.99118324,10.7110321 5.26328759,11.3515239 5.1675,11.9925 C5.12639572,12.3159117 5.10469023,12.6414941 5.1025,12.9675 C5.10293976,13.2935677 5.12465254,13.6192594 5.1675,13.9425 C5.25574868,14.5824942 4.98524282,15.2192233 4.46333334,15.6 L3.32583334,16.4558333 C2.87493374,16.7928085 2.75723514,17.418965 3.055,17.8966667 L3.66166666,18.8716667 C3.94099118,19.3280273 4.51165223,19.5121115 5.005,19.305 L6.39166666,18.7308333 C6.62660469,18.6406283 6.87671066,18.596492 7.12833334,18.6008333 Z M13,18.0375 C10.6028706,18.0333451 8.542211,16.3370983 8.07743421,13.9854543 C7.61265742,11.6338103 8.87310127,9.2811836 11.0884205,8.36542852 C13.3037398,7.44967344 15.8574565,8.2256259 17.1888161,10.2190472 C18.5201757,12.2124684 18.2586881,14.8686302 16.5641667,16.5641667 C15.6108846,17.4917507 14.3300478,18.0056427 13,17.9941667 L13,18.0375 Z M13,10.14 C11.4218897,10.1459777 10.1468611,11.4290782 10.1508331,13.0071949 C10.1548238,14.5853115 11.4363104,15.8619623 13.0144308,15.8599795 C14.5925512,15.8579922 15.870822,14.5781217 15.8708333,13 C15.879517,12.2329922 15.5808929,11.4944074 15.0415632,10.9489721 C14.5022334,10.4035367 13.7670569,10.0966667 13,10.0966667 L13,10.14 Z" id="path-1"></path>
    </defs>
    <g id="页面-1" stroke="none" stroke-width="1" fill="none" fill-rule="evenodd">
        <g id="me" transform="translate(-315.000000, -44.000000)">
            <g id="icon_setting" transform="translate(315.000000, 44.000000)">
                <circle id="椭圆形备份-2" fill="#FFFFFF" opacity="0.600000024" cx="22" cy="22" r="22"></circle>
                <g id="编组" transform="translate(9.000000, 9.000000)">
                    <mask id="mask-2" fill="white">
                        <use xlink:href="#path-1"></use>
                    </mask>
                    <use id="形状" fill="#000000" fill-rule="nonzero" xlink:href="#path-1"></use>
                    <g mask="url(#mask-2)" fill="#1E1E1E" id="color/light-mode/#1e">
                        <g>
                            <rect id="矩形" x="0" y="0" width="26" height="26"></rect>
                        </g>
                    </g>
                </g>
            </g>
        </g>
    </g>
</svg>