<svg xmlns="http://www.w3.org/2000/svg" xmlns:xlink="http://www.w3.org/1999/xlink" fill="none" version="1.1" width="13.9560546875" height="8.7001953125" viewBox="0 0 13.9560546875 8.7001953125"><g transform="matrix(0,1,-1,0,13.9560546875,-13.9560546875)"><g transform="matrix(0,1,-1,0,22.65606117248535,-22.65606117248535)"><path d="M28.71621117248535,0.401735C29.178101172485352,-0.098202,29.94626117248535,-0.131531,30.44899117248535,0.301748L30.552451172485352,0.401735L36.28066117248535,6.60174C36.74916117248535,7.1088,36.71796117248535,7.89964,36.21086117248535,8.36812C35.73756117248535,8.80537,35.01716117248535,8.80728,34.542261172485354,8.39333L34.44446117248535,8.29826L29.634331172485354,3.092L24.824191172485353,8.29826C24.38694117248535,8.77152,23.668881172485353,8.83032,23.16282017248535,8.45516L23.05780317248535,8.36812C22.584542472485353,7.93087,22.525747172485353,7.21281,22.900905172485352,6.70675L22.98794617248535,6.60174L28.71621117248535,0.401735Z" fill="#D4D6D8" fill-opacity="1"/></g></g></svg>