<svg xmlns="http://www.w3.org/2000/svg" xmlns:xlink="http://www.w3.org/1999/xlink" fill="none" version="1.1" width="22" height="22" viewBox="0 0 22 22"><defs><mask id="master_svg0_0_1407" style="mask-type:alpha" maskUnits="userSpaceOnUse"><g><path d="M4.2792361013031,2.8763788986968994C3.8869461013031006,2.5713535986968994,3.3197061013031006,2.599083198696899,2.9592261013031003,2.9595668986968993C2.5687031013031003,3.3500908986968994,2.5687031013031003,3.9832538986968995,2.9592261013031003,4.3737838986968995L4.625696101303101,6.0402538986969C2.7091931013031005,7.762873898696899,1.8333261013031006,9.9653538986969,1.8333261013031006,11.0000038986969C1.8333261013031006,12.8333738986969,4.583326101303101,18.333373898696898,10.9999961013031,18.333373898696898C12.8844261013031,18.333373898696898,14.452626101303101,17.8589738986969,15.727826101303101,17.1423738986969L17.6259261013031,19.0404738986969L17.7201261013031,19.1235738986969C18.1124261013031,19.4286738986969,18.6796261013031,19.4008738986969,19.040126101303102,19.0404738986969C19.4306261013031,18.6498738986969,19.4306261013031,18.016773898696897,19.040126101303102,17.626173898696898L4.373436101303101,2.9595668986968993L4.2792361013031,2.8763788986968994ZM14.3699261013031,15.7844738986969L12.5904261013031,14.0049738986969C12.115926101303101,14.2566738986969,11.5746561013031,14.3991738986969,11.000116101303101,14.3991738986969C9.1227861013031,14.3991738986969,7.6009061013031,12.877273898696899,7.6009061013031,10.9999638986969C7.6009061013031,10.425423898696899,7.743446101303101,9.8841738986969,7.9950961013031,9.409653898696899L5.9230961013031,7.3376538986968995C5.724926101303101,7.511783898696899,5.534876101303101,7.6969738986969,5.352986101303101,7.892673898696899C4.317156101303101,9.010073898696898,3.6663361013031004,10.417173898696898,3.6663361013031004,11.0001738986969C3.6663361013031004,11.583173898696899,4.317156101303101,12.9911738986969,5.352986101303101,14.1076738986969C6.7554861013031005,15.6146738986969,8.641106101303102,16.5001738986969,10.999656101303101,16.5001738986969C12.2585261013031,16.5001738986969,13.3824261013031,16.248373898696897,14.3699261013031,15.7844738986969ZM9.3234361013031,10.7379938986969Q9.3030561013031,10.8683238986969,9.3030561013031,11.0002338986969Q9.3030561013031,11.083593898696899,9.3112261013031,11.166553898696899Q9.3193961013031,11.249513898696899,9.335656101303101,11.3312638986969Q9.3519161013031,11.413023898696899,9.3761161013031,11.492793898696899Q9.400316101303101,11.572563898696899,9.432216101303101,11.6495838986969Q9.464116101303102,11.7265938986969,9.5034161013031,11.8001138986969Q9.5427061013031,11.8736338986969,9.589016101303102,11.9429438986969Q9.6353361013031,12.0122538986969,9.688216101303102,12.076693898696899Q9.7410961013031,12.1411338986969,9.8000461013031,12.2000738986969Q9.8589861013031,12.2590238986969,9.9234261013031,12.3119038986969Q9.987866101303101,12.3647838986969,10.057176101303101,12.411103898696899Q10.126486101303101,12.457413898696899,10.200006101303101,12.4967038986969Q10.273526101303101,12.5360038986969,10.350536101303101,12.5679038986969Q10.4275561013031,12.5998038986969,10.5073261013031,12.6240038986969Q10.5870961013031,12.648203898696899,10.668856101303101,12.6644638986969Q10.7506161013031,12.680773898696899,10.8335761013031,12.6888738986969Q10.9165361013031,12.6970738986969,10.999886101303101,12.6970738986969Q11.1318061013031,12.6970738986969,11.262126101303101,12.6766738986969L9.3234361013031,10.7379938986969ZM18.3330261013031,11.0001738986969C18.3330261013031,11.5296138986969,17.7962261013031,12.738673898696899,16.9218261013031,13.7932738986969L18.2225261013031,15.0939738986969C19.5510261013031,13.555773898696899,20.166626101303102,11.8674538986969,20.166626101303102,11.0000038986969C20.166626101303102,9.1666738986969,17.416626101303102,3.6666738986968994,10.9999961013031,3.6666738986968994C9.6537161013031,3.6666738986968994,8.4688461013031,3.9087838986968997,7.4369161013031,4.308343898696899L8.8895361013031,5.7609738986969C9.5446161013031,5.589913898696899,10.248096101303101,5.500173898696899,10.999656101303101,5.500173898696899C13.358226101303101,5.500173898696899,15.243826101303101,6.385673898696899,16.646326101303103,7.892673898696899C17.6821261013031,9.0091738986969,18.3330261013031,10.417173898696898,18.3330261013031,11.0001738986969ZM10.739186101303101,7.6106238986968995L14.389426101303101,11.2608938986969C14.3960261013031,11.1747738986969,14.399326101303101,11.087763898696899,14.399326101303101,10.9999638986969C14.399326101303101,9.1226338986969,12.8774261013031,7.600753898696899,11.000116101303101,7.600753898696899C10.912326101303101,7.600753898696899,10.8253061013031,7.604083898696899,10.739186101303101,7.6106238986968995Z" fill-rule="evenodd" fill="#FFFFFF" fill-opacity="1"/></g></mask></defs><g><g mask="url(#master_svg0_0_1407)"><g><path d="M4.2792361013031,2.8763788986968994C3.8869461013031006,2.5713535986968994,3.3197061013031006,2.599083198696899,2.9592261013031003,2.9595668986968993C2.5687031013031003,3.3500908986968994,2.5687031013031003,3.9832538986968995,2.9592261013031003,4.3737838986968995L4.625696101303101,6.0402538986969C2.7091931013031005,7.762873898696899,1.8333261013031006,9.9653538986969,1.8333261013031006,11.0000038986969C1.8333261013031006,12.8333738986969,4.583326101303101,18.333373898696898,10.9999961013031,18.333373898696898C12.8844261013031,18.333373898696898,14.452626101303101,17.8589738986969,15.727826101303101,17.1423738986969L17.6259261013031,19.0404738986969L17.7201261013031,19.1235738986969C18.1124261013031,19.4286738986969,18.6796261013031,19.4008738986969,19.040126101303102,19.0404738986969C19.4306261013031,18.6498738986969,19.4306261013031,18.016773898696897,19.040126101303102,17.626173898696898L4.373436101303101,2.9595668986968993L4.2792361013031,2.8763788986968994ZM14.3699261013031,15.7844738986969L12.5904261013031,14.0049738986969C12.115926101303101,14.2566738986969,11.5746561013031,14.3991738986969,11.000116101303101,14.3991738986969C9.1227861013031,14.3991738986969,7.6009061013031,12.877273898696899,7.6009061013031,10.9999638986969C7.6009061013031,10.425423898696899,7.743446101303101,9.8841738986969,7.9950961013031,9.409653898696899L5.9230961013031,7.3376538986968995C5.724926101303101,7.511783898696899,5.534876101303101,7.6969738986969,5.352986101303101,7.892673898696899C4.317156101303101,9.010073898696898,3.6663361013031004,10.417173898696898,3.6663361013031004,11.0001738986969C3.6663361013031004,11.583173898696899,4.317156101303101,12.9911738986969,5.352986101303101,14.1076738986969C6.7554861013031005,15.6146738986969,8.641106101303102,16.5001738986969,10.999656101303101,16.5001738986969C12.2585261013031,16.5001738986969,13.3824261013031,16.248373898696897,14.3699261013031,15.7844738986969ZM9.3234361013031,10.7379938986969Q9.3030561013031,10.8683238986969,9.3030561013031,11.0002338986969Q9.3030561013031,11.083593898696899,9.3112261013031,11.166553898696899Q9.3193961013031,11.249513898696899,9.335656101303101,11.3312638986969Q9.3519161013031,11.413023898696899,9.3761161013031,11.492793898696899Q9.400316101303101,11.572563898696899,9.432216101303101,11.6495838986969Q9.464116101303102,11.7265938986969,9.5034161013031,11.8001138986969Q9.5427061013031,11.8736338986969,9.589016101303102,11.9429438986969Q9.6353361013031,12.0122538986969,9.688216101303102,12.076693898696899Q9.7410961013031,12.1411338986969,9.8000461013031,12.2000738986969Q9.8589861013031,12.2590238986969,9.9234261013031,12.3119038986969Q9.987866101303101,12.3647838986969,10.057176101303101,12.411103898696899Q10.126486101303101,12.457413898696899,10.200006101303101,12.4967038986969Q10.273526101303101,12.5360038986969,10.350536101303101,12.5679038986969Q10.4275561013031,12.5998038986969,10.5073261013031,12.6240038986969Q10.5870961013031,12.648203898696899,10.668856101303101,12.6644638986969Q10.7506161013031,12.680773898696899,10.8335761013031,12.6888738986969Q10.9165361013031,12.6970738986969,10.999886101303101,12.6970738986969Q11.1318061013031,12.6970738986969,11.262126101303101,12.6766738986969L9.3234361013031,10.7379938986969ZM18.3330261013031,11.0001738986969C18.3330261013031,11.5296138986969,17.7962261013031,12.738673898696899,16.9218261013031,13.7932738986969L18.2225261013031,15.0939738986969C19.5510261013031,13.555773898696899,20.166626101303102,11.8674538986969,20.166626101303102,11.0000038986969C20.166626101303102,9.1666738986969,17.416626101303102,3.6666738986968994,10.9999961013031,3.6666738986968994C9.6537161013031,3.6666738986968994,8.4688461013031,3.9087838986968997,7.4369161013031,4.308343898696899L8.8895361013031,5.7609738986969C9.5446161013031,5.589913898696899,10.248096101303101,5.500173898696899,10.999656101303101,5.500173898696899C13.358226101303101,5.500173898696899,15.243826101303101,6.385673898696899,16.646326101303103,7.892673898696899C17.6821261013031,9.0091738986969,18.3330261013031,10.417173898696898,18.3330261013031,11.0001738986969ZM10.739186101303101,7.6106238986968995L14.389426101303101,11.2608938986969C14.3960261013031,11.1747738986969,14.399326101303101,11.087763898696899,14.399326101303101,10.9999638986969C14.399326101303101,9.1226338986969,12.8774261013031,7.600753898696899,11.000116101303101,7.600753898696899C10.912326101303101,7.600753898696899,10.8253061013031,7.604083898696899,10.739186101303101,7.6106238986968995Z" fill-rule="evenodd" fill="#A2A2A2" fill-opacity="1"/></g><g><g><rect x="0" y="0" width="22" height="22" rx="0" fill="#A2A2A2" fill-opacity="1"/><rect x="0" y="0" width="22" height="22" rx="0" fill-opacity="0" stroke-opacity="1" stroke="#A2A2A2" fill="none" stroke-width="0"/></g></g></g></g></svg>