<svg xmlns="http://www.w3.org/2000/svg" xmlns:xlink="http://www.w3.org/1999/xlink" fill="none" version="1.1" width="19.0908203125" height="16.439453125" viewBox="0 0 19.0908203125 16.439453125"><g><g><path d="M18.5415,1.64394C18.5994,1.73377,18.6395,1.83386,18.6598,1.93879C18.9435,2.46432,19.0909,3.07576,19.0909,3.73015L19.0909,12.8455C19.0909,14.8596,17.5445,16.4394,15.5697,16.4394L3.3897,16.4394C2.42985,16.4394,1.55909,16.0613,0.933333,15.3772C0.331439,14.7202,0,13.8192,0,12.8455L0,3.72803C0,3.29583,0.0339394,2.695,0.284242,2.11591C0.280324,1.95039,0.32694,1.7876,0.417879,1.64924C1.10197,0.616742,2.21402,0,3.3897,0L15.5697,0C16.748,0,17.8601,0.614091,18.5415,1.64394ZM15.198,1.82617C15.6177,1.82617,16.025,1.98001,16.3561,2.25434L12.86,5.83951L10.7964,7.94949C10.7071,8.03971,10.6096,8.12138,10.5051,8.19344C9.75972,8.68233,8.7721,8.57262,8.15217,7.93206L6.72029,6.46633L2.63477,2.23741C2.95377,1.97619,3.35263,1.83211,3.76493,1.82916L15.198,1.82916L15.198,1.82617ZM17.217,12.9146C17.217,14.0042,16.4118,14.8253,15.3456,14.8253L3.61782,14.8253C2.58995,14.8253,1.87305,14.04,1.87305,12.9141L1.87305,4.16314L5.5699,7.94373L7.04047,9.46435L7.04558,9.46945C7.68299,10.1279,8.56018,10.4997,9.47661,10.4999C10.1925,10.5012,10.8901,10.2733,11.467,9.84935C11.6263,9.73548,11.781,9.60425,11.9225,9.45669L14.0344,7.2927L17.217,4.03906C17.217,4.0697,17.2196,4.10391,17.2196,4.13455L17.2196,12.9141L17.217,12.9141L17.217,12.9146Z" fill-rule="evenodd" fill="#A2A2A2" fill-opacity="1"/></g></g></svg>