<?xml version="1.0" encoding="UTF-8"?>
<svg width="36px" height="37px" viewBox="0 0 36 37" version="1.1" xmlns="http://www.w3.org/2000/svg" xmlns:xlink="http://www.w3.org/1999/xlink">
    <title>ic_me</title>
    <g id="页面-1" stroke="none" stroke-width="1" fill="none" fill-rule="evenodd">
        <g id="tabbar" transform="translate(-50, -779)" fill-rule="nonzero">
            <g id="ic_me" transform="translate(50, 779.4998)">
                <rect id="矩形" fill="#000000" opacity="0" x="0" y="0" width="36" height="36"></rect>
                <path d="M21.5092016,19.9511079 L14.562332,19.9511079 C9.14604823,19.9511079 4.7390982,24.358058 4.7390982,29.7743417 C4.7390982,32.3237386 6.8146295,34.3945312 9.35928775,34.3945312 L26.7075072,34.3945312 C29.2569041,34.3945312 31.3277005,32.3189999 31.3277005,29.7743417 C31.3324354,24.358058 26.9254853,19.9511079 21.5092016,19.9511079 L21.5092016,19.9511079 Z" id="路径" fill="#D4D6D8"></path>
                <path d="M18.0357668,18.8612171 C22.8502412,18.8612171 26.7691097,14.9423486 26.7691097,10.1278742 C26.7691097,5.31339972 22.8502412,1.39453125 18.0357668,1.39453125 C13.2212923,1.39453125 9.30242387,5.31339972 9.30242387,10.1278742 C9.30242387,14.9423486 13.2212923,18.8612171 18.0357668,18.8612171 Z" id="路径" fill="#D4D6D8"></path>
                <path d="M16.1687363,11.7627105 L20.2818897,11.7627105 C20.7368007,11.7627105 21.0827226,12.1939281 20.9547788,12.6298845 C20.580425,13.8856283 19.4147157,14.8049276 18.0357668,14.8049276 C16.6568179,14.8049276 15.4911085,13.8856283 15.1167547,12.6298845 C14.988811,12.1939281 15.3347329,11.7627105 16.1687363,11.7627105 L16.1687363,11.7627105 Z" id="路径" fill="#FFFFFF"></path>
            </g>
        </g>
    </g>
</svg>