<svg xmlns="http://www.w3.org/2000/svg" xmlns:xlink="http://www.w3.org/1999/xlink" fill="none" version="1.1" width="26" height="26" viewBox="0 0.25033310055732727 26 26"><defs><mask id="master_svg0_0_6228" style="mask-type:alpha" maskUnits="userSpaceOnUse"><g><path d="M26,13Q26,13.3191,25.9843,13.6379Q25.9687,13.9566,25.9374,14.2742Q25.9061,14.5918,25.8593,14.9075Q25.8125,15.2232,25.7502,15.5362Q25.6879,15.8492,25.6104,16.1587Q25.5329,16.4683,25.4402,16.7737Q25.3476,17.0791,25.2401,17.3796Q25.1326,17.68,25.0104,17.9749Q24.8883,18.2697,24.7519,18.5582Q24.6154,18.8467,24.465,19.1282Q24.3145,19.4096,24.1505,19.6833Q23.9864,19.9571,23.8091,20.2224Q23.6318,20.4878,23.4417,20.7441Q23.2516,21.0004,23.0491,21.2471Q22.8467,21.4938,22.6324,21.7303Q22.418,21.9667,22.1924,22.1924Q21.9667,22.418,21.7303,22.6324Q21.4938,22.8467,21.2471,23.0491Q21.0004,23.2516,20.7441,23.4417Q20.4878,23.6318,20.2224,23.8091Q19.9571,23.9864,19.6833,24.1505Q19.4096,24.3145,19.1282,24.465Q18.8467,24.6154,18.5582,24.7519Q18.2697,24.8883,17.9749,25.0104Q17.68,25.1326,17.3796,25.2401Q17.0791,25.3476,16.7737,25.4402Q16.4683,25.5329,16.1587,25.6104Q15.8492,25.6879,15.5362,25.7502Q15.2232,25.8125,14.9075,25.8593Q14.5918,25.9061,14.2742,25.9374Q13.9566,25.9687,13.6379,25.9843Q13.3191,26,13,26Q12.6809,26,12.3621,25.9843Q12.0434,25.9687,11.7258,25.9374Q11.4082,25.9061,11.0925,25.8593Q10.7768,25.8125,10.4638,25.7502Q10.1508,25.6879,9.84126,25.6104Q9.53169,25.5329,9.2263,25.4402Q8.92091,25.3476,8.62043,25.2401Q8.31995,25.1326,8.02511,25.0104Q7.73027,24.8883,7.44178,24.7519Q7.15329,24.6154,6.87184,24.465Q6.59039,24.3145,6.31666,24.1505Q6.04293,23.9864,5.77759,23.8091Q5.51224,23.6318,5.25591,23.4417Q4.99958,23.2516,4.75289,23.0491Q4.50619,22.8467,4.26973,22.6324Q4.03327,22.418,3.80761,22.1924Q3.58195,21.9667,3.36764,21.7303Q3.15332,21.4938,2.95086,21.2471Q2.74841,21.0004,2.5583,20.7441Q2.3682,20.4878,2.1909,20.2224Q2.01359,19.9571,1.84953,19.6833Q1.68546,19.4096,1.53502,19.1282Q1.38459,18.8467,1.24814,18.5582Q1.11169,18.2697,0.989566,17.9749Q0.867439,17.68,0.759927,17.3796Q0.652415,17.0791,0.559776,16.7737Q0.467136,16.4683,0.389594,16.1587Q0.312051,15.8492,0.249791,15.5362Q0.187532,15.2232,0.140705,14.9075Q0.093879,14.5918,0.0625985,14.2742Q0.0313181,13.9566,0.0156591,13.6379Q0,13.3191,0,13Q0,12.6809,0.0156591,12.3621Q0.0313181,12.0434,0.0625985,11.7258Q0.093879,11.4082,0.140705,11.0925Q0.187532,10.7768,0.249791,10.4638Q0.312051,10.1508,0.389594,9.84126Q0.467136,9.53169,0.559776,9.2263Q0.652415,8.92091,0.759927,8.62043Q0.867439,8.31995,0.989566,8.02511Q1.11169,7.73027,1.24814,7.44178Q1.38459,7.15329,1.53502,6.87184Q1.68546,6.59039,1.84953,6.31666Q2.01359,6.04293,2.1909,5.77759Q2.3682,5.51224,2.5583,5.25591Q2.74841,4.99958,2.95086,4.75289Q3.15332,4.50619,3.36764,4.26973Q3.58195,4.03327,3.80761,3.80761Q4.03327,3.58195,4.26973,3.36764Q4.50619,3.15332,4.75289,2.95086Q4.99958,2.74841,5.25591,2.5583Q5.51224,2.3682,5.77759,2.1909Q6.04293,2.01359,6.31666,1.84953Q6.59039,1.68546,6.87184,1.53502Q7.15329,1.38459,7.44178,1.24814Q7.73027,1.11169,8.02511,0.989566Q8.31995,0.867439,8.62043,0.759927Q8.92091,0.652415,9.2263,0.559776Q9.53169,0.467136,9.84126,0.389594Q10.1508,0.312051,10.4638,0.249791Q10.7768,0.187532,11.0925,0.140705Q11.4082,0.093879,11.7258,0.0625985Q12.0434,0.0313181,12.3621,0.0156591Q12.6809,0,13,0Q13.3191,0,13.6379,0.0156591Q13.9566,0.0313181,14.2742,0.0625985Q14.5918,0.093879,14.9075,0.140705Q15.2232,0.187532,15.5362,0.249791Q15.8492,0.312051,16.1587,0.389594Q16.4683,0.467136,16.7737,0.559776Q17.0791,0.652415,17.3796,0.759927Q17.68,0.867439,17.9749,0.989566Q18.2697,1.11169,18.5582,1.24814Q18.8467,1.38459,19.1282,1.53502Q19.4096,1.68546,19.6833,1.84953Q19.9571,2.01359,20.2224,2.1909Q20.4878,2.3682,20.7441,2.5583Q21.0004,2.74841,21.2471,2.95086Q21.4938,3.15332,21.7303,3.36764Q21.9667,3.58195,22.1924,3.80761Q22.418,4.03327,22.6324,4.26973Q22.8467,4.50619,23.0491,4.75289Q23.2516,4.99958,23.4417,5.25591Q23.6318,5.51224,23.8091,5.77759Q23.9864,6.04293,24.1505,6.31666Q24.3145,6.59039,24.465,6.87184Q24.6154,7.15329,24.7519,7.44178Q24.8883,7.73027,25.0104,8.02511Q25.1326,8.31995,25.2401,8.62043Q25.3476,8.92091,25.4402,9.2263Q25.5329,9.53169,25.6104,9.84126Q25.6879,10.1508,25.7502,10.4638Q25.8125,10.7768,25.8593,11.0925Q25.9061,11.4082,25.9374,11.7258Q25.9687,12.0434,25.9843,12.3621Q26,12.6809,26,13ZM23.6171,13Q23.6171,13.2606,23.6043,13.5209Q23.5915,13.7812,23.566,14.0406Q23.5405,14.3,23.5022,14.5578Q23.464,14.8156,23.4131,15.0712Q23.3623,15.3268,23.299,15.5796Q23.2356,15.8324,23.16,16.0818Q23.0843,16.3312,22.9965,16.5766Q22.9087,16.822,22.809,17.0628Q22.7092,17.3036,22.5978,17.5392Q22.4864,17.7748,22.3635,18.0046Q22.2407,18.2345,22.1067,18.458Q21.9727,18.6816,21.8279,18.8983Q21.6831,19.115,21.5278,19.3243Q21.3726,19.5336,21.2073,19.7351Q21.0419,19.9366,20.8669,20.1297Q20.6919,20.3228,20.5076,20.5071Q20.3233,20.6914,20.1302,20.8664Q19.9371,21.0414,19.7356,21.2068Q19.5341,21.3721,19.3248,21.5274Q19.1155,21.6826,18.8988,21.8274Q18.6821,21.9722,18.4585,22.1062Q18.235,22.2402,18.0051,22.363Q17.7753,22.4859,17.5397,22.5973Q17.3041,22.7087,17.0633,22.8085Q16.8225,22.9082,16.5771,22.996Q16.3317,23.0838,16.0823,23.1595Q15.8329,23.2351,15.5801,23.2985Q15.3273,23.3618,15.0717,23.4126Q14.816,23.4635,14.5582,23.5017Q14.3004,23.54,14.0411,23.5655Q13.7817,23.5911,13.5214,23.6038Q13.2611,23.6166,13.0005,23.6166Q12.7398,23.6166,12.4795,23.6038Q12.2192,23.5911,11.9598,23.5655Q11.7005,23.54,11.4427,23.5017Q11.1849,23.4635,10.9292,23.4126Q10.6736,23.3618,10.4208,23.2985Q10.168,23.2351,9.9186,23.1595Q9.6692,23.0838,9.42381,22.996Q9.17842,22.9082,8.93763,22.8085Q8.69685,22.7087,8.46124,22.5973Q8.22564,22.4859,7.99579,22.363Q7.76594,22.2402,7.5424,22.1062Q7.31885,21.9722,7.10215,21.8274Q6.88545,21.6826,6.67611,21.5273Q6.46678,21.3721,6.26531,21.2068Q6.06385,21.0414,5.87074,20.8664Q5.67763,20.6914,5.49334,20.5071Q5.30905,20.3228,5.13402,20.1297Q4.959,19.9366,4.79366,19.7351Q4.62832,19.5336,4.47307,19.3243Q4.31781,19.115,4.17302,18.8983Q4.02822,18.6816,3.89424,18.458Q3.76025,18.2345,3.63739,18.0046Q3.51453,17.7748,3.4031,17.5392Q3.29167,17.3036,3.19193,17.0628Q3.0922,16.822,3.0044,16.5766Q2.91659,16.3312,2.84094,16.0818Q2.76528,15.8324,2.70196,15.5796Q2.63863,15.3268,2.58779,15.0712Q2.53694,14.8156,2.4987,14.5578Q2.46046,14.3,2.43491,14.0406Q2.40937,13.7812,2.39658,13.5209Q2.38379,13.2606,2.38379,13Q2.38379,12.7393,2.39658,12.479Q2.40937,12.2187,2.43491,11.9594Q2.46046,11.7,2.4987,11.4422Q2.53694,11.1844,2.58779,10.9288Q2.63863,10.6731,2.70196,10.4203Q2.76528,10.1675,2.84094,9.91811Q2.91659,9.66871,3.0044,9.42332Q3.0922,9.17793,3.19193,8.93714Q3.29167,8.69636,3.4031,8.46076Q3.51453,8.22515,3.63739,7.99531Q3.76025,7.76546,3.89424,7.54191Q4.02822,7.31836,4.17302,7.10166Q4.31781,6.88496,4.47307,6.67563Q4.62832,6.46629,4.79366,6.26483Q4.959,6.06336,5.13402,5.87025Q5.30905,5.67714,5.49334,5.49285Q5.67763,5.30856,5.87074,5.13354Q6.06385,4.95851,6.26531,4.79317Q6.46678,4.62783,6.67611,4.47258Q6.88545,4.31733,7.10215,4.17253Q7.31885,4.02774,7.5424,3.89375Q7.76594,3.75976,7.99579,3.6369Q8.22564,3.51405,8.46125,3.40261Q8.69685,3.29118,8.93763,3.19145Q9.17842,3.09171,9.42381,3.00391Q9.6692,2.91611,9.9186,2.84045Q10.168,2.7648,10.4208,2.70147Q10.6736,2.63814,10.9292,2.5873Q11.1849,2.53645,11.4427,2.49821Q11.7005,2.45997,11.9598,2.43442Q12.2192,2.40888,12.4795,2.39609Q12.7398,2.3833,13.0005,2.3833Q13.2611,2.3833,13.5214,2.39609Q13.7817,2.40888,14.0411,2.43442Q14.3004,2.45997,14.5582,2.49821Q14.816,2.53645,15.0717,2.5873Q15.3273,2.63814,15.5801,2.70147Q15.8329,2.7648,16.0823,2.84045Q16.3317,2.91611,16.5771,3.00391Q16.8225,3.09171,17.0633,3.19145Q17.3041,3.29118,17.5397,3.40261Q17.7753,3.51405,18.0051,3.6369Q18.235,3.75976,18.4585,3.89375Q18.6821,4.02774,18.8988,4.17253Q19.1155,4.31733,19.3248,4.47258Q19.5341,4.62783,19.7356,4.79317Q19.9371,4.95851,20.1302,5.13354Q20.3233,5.30856,20.5076,5.49285Q20.6919,5.67714,20.8669,5.87025Q21.0419,6.06336,21.2072,6.26483Q21.3726,6.46629,21.5278,6.67563Q21.6831,6.88496,21.8279,7.10166Q21.9727,7.31836,22.1067,7.54191Q22.2407,7.76545,22.3635,7.99531Q22.4864,8.22515,22.5978,8.46076Q22.7092,8.69636,22.809,8.93714Q22.9087,9.17793,22.9965,9.42332Q23.0843,9.66871,23.16,9.91811Q23.2356,10.1675,23.299,10.4203Q23.3623,10.6731,23.4131,10.9288Q23.464,11.1844,23.5022,11.4422Q23.5405,11.7,23.566,11.9594Q23.5915,12.2187,23.6043,12.479Q23.6171,12.7393,23.6171,13ZM16.6848,19.81C17.5839,19.7538,18.3706,19.4729,18.9607,18.8828C19.4103,18.4332,19.6912,17.8713,19.8036,17.1969C19.7755,16.8598,19.607,16.5788,19.2979,16.4102L16.9939,15.1739C16.5162,14.921,15.898,15.1177,15.6452,15.5954L14.8226,16.5854C13.5863,16.192,12.8475,15.5791,11.7517,14.4832C10.6559,13.3593,9.94598,12.2798,9.55261,11.0435L10.3909,10.3411C10.8685,10.0882,11.0371,9.47006,10.7843,8.99239L9.54795,6.71648L9.54795,6.68838C9.37936,6.4074,9.15458,6.23881,8.8736,6.18262C8.19926,6.29501,7.6092,6.60408,7.15964,7.05365C6.56959,7.6437,6.26051,8.43044,6.20431,9.35767C6.09192,11.4369,7.32823,14.1624,9.57605,16.4383C11.852,18.7142,14.5774,19.9224,16.6848,19.81Z" fill-rule="evenodd" fill="#FFFFFF" fill-opacity="1"/></g></mask></defs><g><g mask="url(#master_svg0_0_6228)"><g><path d="M26,13Q26,13.3191,25.9843,13.6379Q25.9687,13.9566,25.9374,14.2742Q25.9061,14.5918,25.8593,14.9075Q25.8125,15.2232,25.7502,15.5362Q25.6879,15.8492,25.6104,16.1587Q25.5329,16.4683,25.4402,16.7737Q25.3476,17.0791,25.2401,17.3796Q25.1326,17.68,25.0104,17.9749Q24.8883,18.2697,24.7519,18.5582Q24.6154,18.8467,24.465,19.1282Q24.3145,19.4096,24.1505,19.6833Q23.9864,19.9571,23.8091,20.2224Q23.6318,20.4878,23.4417,20.7441Q23.2516,21.0004,23.0491,21.2471Q22.8467,21.4938,22.6324,21.7303Q22.418,21.9667,22.1924,22.1924Q21.9667,22.418,21.7303,22.6324Q21.4938,22.8467,21.2471,23.0491Q21.0004,23.2516,20.7441,23.4417Q20.4878,23.6318,20.2224,23.8091Q19.9571,23.9864,19.6833,24.1505Q19.4096,24.3145,19.1282,24.465Q18.8467,24.6154,18.5582,24.7519Q18.2697,24.8883,17.9749,25.0104Q17.68,25.1326,17.3796,25.2401Q17.0791,25.3476,16.7737,25.4402Q16.4683,25.5329,16.1587,25.6104Q15.8492,25.6879,15.5362,25.7502Q15.2232,25.8125,14.9075,25.8593Q14.5918,25.9061,14.2742,25.9374Q13.9566,25.9687,13.6379,25.9843Q13.3191,26,13,26Q12.6809,26,12.3621,25.9843Q12.0434,25.9687,11.7258,25.9374Q11.4082,25.9061,11.0925,25.8593Q10.7768,25.8125,10.4638,25.7502Q10.1508,25.6879,9.84126,25.6104Q9.53169,25.5329,9.2263,25.4402Q8.92091,25.3476,8.62043,25.2401Q8.31995,25.1326,8.02511,25.0104Q7.73027,24.8883,7.44178,24.7519Q7.15329,24.6154,6.87184,24.465Q6.59039,24.3145,6.31666,24.1505Q6.04293,23.9864,5.77759,23.8091Q5.51224,23.6318,5.25591,23.4417Q4.99958,23.2516,4.75289,23.0491Q4.50619,22.8467,4.26973,22.6324Q4.03327,22.418,3.80761,22.1924Q3.58195,21.9667,3.36764,21.7303Q3.15332,21.4938,2.95086,21.2471Q2.74841,21.0004,2.5583,20.7441Q2.3682,20.4878,2.1909,20.2224Q2.01359,19.9571,1.84953,19.6833Q1.68546,19.4096,1.53502,19.1282Q1.38459,18.8467,1.24814,18.5582Q1.11169,18.2697,0.989566,17.9749Q0.867439,17.68,0.759927,17.3796Q0.652415,17.0791,0.559776,16.7737Q0.467136,16.4683,0.389594,16.1587Q0.312051,15.8492,0.249791,15.5362Q0.187532,15.2232,0.140705,14.9075Q0.093879,14.5918,0.0625985,14.2742Q0.0313181,13.9566,0.0156591,13.6379Q0,13.3191,0,13Q0,12.6809,0.0156591,12.3621Q0.0313181,12.0434,0.0625985,11.7258Q0.093879,11.4082,0.140705,11.0925Q0.187532,10.7768,0.249791,10.4638Q0.312051,10.1508,0.389594,9.84126Q0.467136,9.53169,0.559776,9.2263Q0.652415,8.92091,0.759927,8.62043Q0.867439,8.31995,0.989566,8.02511Q1.11169,7.73027,1.24814,7.44178Q1.38459,7.15329,1.53502,6.87184Q1.68546,6.59039,1.84953,6.31666Q2.01359,6.04293,2.1909,5.77759Q2.3682,5.51224,2.5583,5.25591Q2.74841,4.99958,2.95086,4.75289Q3.15332,4.50619,3.36764,4.26973Q3.58195,4.03327,3.80761,3.80761Q4.03327,3.58195,4.26973,3.36764Q4.50619,3.15332,4.75289,2.95086Q4.99958,2.74841,5.25591,2.5583Q5.51224,2.3682,5.77759,2.1909Q6.04293,2.01359,6.31666,1.84953Q6.59039,1.68546,6.87184,1.53502Q7.15329,1.38459,7.44178,1.24814Q7.73027,1.11169,8.02511,0.989566Q8.31995,0.867439,8.62043,0.759927Q8.92091,0.652415,9.2263,0.559776Q9.53169,0.467136,9.84126,0.389594Q10.1508,0.312051,10.4638,0.249791Q10.7768,0.187532,11.0925,0.140705Q11.4082,0.093879,11.7258,0.0625985Q12.0434,0.0313181,12.3621,0.0156591Q12.6809,0,13,0Q13.3191,0,13.6379,0.0156591Q13.9566,0.0313181,14.2742,0.0625985Q14.5918,0.093879,14.9075,0.140705Q15.2232,0.187532,15.5362,0.249791Q15.8492,0.312051,16.1587,0.389594Q16.4683,0.467136,16.7737,0.559776Q17.0791,0.652415,17.3796,0.759927Q17.68,0.867439,17.9749,0.989566Q18.2697,1.11169,18.5582,1.24814Q18.8467,1.38459,19.1282,1.53502Q19.4096,1.68546,19.6833,1.84953Q19.9571,2.01359,20.2224,2.1909Q20.4878,2.3682,20.7441,2.5583Q21.0004,2.74841,21.2471,2.95086Q21.4938,3.15332,21.7303,3.36764Q21.9667,3.58195,22.1924,3.80761Q22.418,4.03327,22.6324,4.26973Q22.8467,4.50619,23.0491,4.75289Q23.2516,4.99958,23.4417,5.25591Q23.6318,5.51224,23.8091,5.77759Q23.9864,6.04293,24.1505,6.31666Q24.3145,6.59039,24.465,6.87184Q24.6154,7.15329,24.7519,7.44178Q24.8883,7.73027,25.0104,8.02511Q25.1326,8.31995,25.2401,8.62043Q25.3476,8.92091,25.4402,9.2263Q25.5329,9.53169,25.6104,9.84126Q25.6879,10.1508,25.7502,10.4638Q25.8125,10.7768,25.8593,11.0925Q25.9061,11.4082,25.9374,11.7258Q25.9687,12.0434,25.9843,12.3621Q26,12.6809,26,13ZM23.6171,13Q23.6171,13.2606,23.6043,13.5209Q23.5915,13.7812,23.566,14.0406Q23.5405,14.3,23.5022,14.5578Q23.464,14.8156,23.4131,15.0712Q23.3623,15.3268,23.299,15.5796Q23.2356,15.8324,23.16,16.0818Q23.0843,16.3312,22.9965,16.5766Q22.9087,16.822,22.809,17.0628Q22.7092,17.3036,22.5978,17.5392Q22.4864,17.7748,22.3635,18.0046Q22.2407,18.2345,22.1067,18.458Q21.9727,18.6816,21.8279,18.8983Q21.6831,19.115,21.5278,19.3243Q21.3726,19.5336,21.2073,19.7351Q21.0419,19.9366,20.8669,20.1297Q20.6919,20.3228,20.5076,20.5071Q20.3233,20.6914,20.1302,20.8664Q19.9371,21.0414,19.7356,21.2068Q19.5341,21.3721,19.3248,21.5274Q19.1155,21.6826,18.8988,21.8274Q18.6821,21.9722,18.4585,22.1062Q18.235,22.2402,18.0051,22.363Q17.7753,22.4859,17.5397,22.5973Q17.3041,22.7087,17.0633,22.8085Q16.8225,22.9082,16.5771,22.996Q16.3317,23.0838,16.0823,23.1595Q15.8329,23.2351,15.5801,23.2985Q15.3273,23.3618,15.0717,23.4126Q14.816,23.4635,14.5582,23.5017Q14.3004,23.54,14.0411,23.5655Q13.7817,23.5911,13.5214,23.6038Q13.2611,23.6166,13.0005,23.6166Q12.7398,23.6166,12.4795,23.6038Q12.2192,23.5911,11.9598,23.5655Q11.7005,23.54,11.4427,23.5017Q11.1849,23.4635,10.9292,23.4126Q10.6736,23.3618,10.4208,23.2985Q10.168,23.2351,9.9186,23.1595Q9.6692,23.0838,9.42381,22.996Q9.17842,22.9082,8.93763,22.8085Q8.69685,22.7087,8.46124,22.5973Q8.22564,22.4859,7.99579,22.363Q7.76594,22.2402,7.5424,22.1062Q7.31885,21.9722,7.10215,21.8274Q6.88545,21.6826,6.67611,21.5273Q6.46678,21.3721,6.26531,21.2068Q6.06385,21.0414,5.87074,20.8664Q5.67763,20.6914,5.49334,20.5071Q5.30905,20.3228,5.13402,20.1297Q4.959,19.9366,4.79366,19.7351Q4.62832,19.5336,4.47307,19.3243Q4.31781,19.115,4.17302,18.8983Q4.02822,18.6816,3.89424,18.458Q3.76025,18.2345,3.63739,18.0046Q3.51453,17.7748,3.4031,17.5392Q3.29167,17.3036,3.19193,17.0628Q3.0922,16.822,3.0044,16.5766Q2.91659,16.3312,2.84094,16.0818Q2.76528,15.8324,2.70196,15.5796Q2.63863,15.3268,2.58779,15.0712Q2.53694,14.8156,2.4987,14.5578Q2.46046,14.3,2.43491,14.0406Q2.40937,13.7812,2.39658,13.5209Q2.38379,13.2606,2.38379,13Q2.38379,12.7393,2.39658,12.479Q2.40937,12.2187,2.43491,11.9594Q2.46046,11.7,2.4987,11.4422Q2.53694,11.1844,2.58779,10.9288Q2.63863,10.6731,2.70196,10.4203Q2.76528,10.1675,2.84094,9.91811Q2.91659,9.66871,3.0044,9.42332Q3.0922,9.17793,3.19193,8.93714Q3.29167,8.69636,3.4031,8.46076Q3.51453,8.22515,3.63739,7.99531Q3.76025,7.76546,3.89424,7.54191Q4.02822,7.31836,4.17302,7.10166Q4.31781,6.88496,4.47307,6.67563Q4.62832,6.46629,4.79366,6.26483Q4.959,6.06336,5.13402,5.87025Q5.30905,5.67714,5.49334,5.49285Q5.67763,5.30856,5.87074,5.13354Q6.06385,4.95851,6.26531,4.79317Q6.46678,4.62783,6.67611,4.47258Q6.88545,4.31733,7.10215,4.17253Q7.31885,4.02774,7.5424,3.89375Q7.76594,3.75976,7.99579,3.6369Q8.22564,3.51405,8.46125,3.40261Q8.69685,3.29118,8.93763,3.19145Q9.17842,3.09171,9.42381,3.00391Q9.6692,2.91611,9.9186,2.84045Q10.168,2.7648,10.4208,2.70147Q10.6736,2.63814,10.9292,2.5873Q11.1849,2.53645,11.4427,2.49821Q11.7005,2.45997,11.9598,2.43442Q12.2192,2.40888,12.4795,2.39609Q12.7398,2.3833,13.0005,2.3833Q13.2611,2.3833,13.5214,2.39609Q13.7817,2.40888,14.0411,2.43442Q14.3004,2.45997,14.5582,2.49821Q14.816,2.53645,15.0717,2.5873Q15.3273,2.63814,15.5801,2.70147Q15.8329,2.7648,16.0823,2.84045Q16.3317,2.91611,16.5771,3.00391Q16.8225,3.09171,17.0633,3.19145Q17.3041,3.29118,17.5397,3.40261Q17.7753,3.51405,18.0051,3.6369Q18.235,3.75976,18.4585,3.89375Q18.6821,4.02774,18.8988,4.17253Q19.1155,4.31733,19.3248,4.47258Q19.5341,4.62783,19.7356,4.79317Q19.9371,4.95851,20.1302,5.13354Q20.3233,5.30856,20.5076,5.49285Q20.6919,5.67714,20.8669,5.87025Q21.0419,6.06336,21.2072,6.26483Q21.3726,6.46629,21.5278,6.67563Q21.6831,6.88496,21.8279,7.10166Q21.9727,7.31836,22.1067,7.54191Q22.2407,7.76545,22.3635,7.99531Q22.4864,8.22515,22.5978,8.46076Q22.7092,8.69636,22.809,8.93714Q22.9087,9.17793,22.9965,9.42332Q23.0843,9.66871,23.16,9.91811Q23.2356,10.1675,23.299,10.4203Q23.3623,10.6731,23.4131,10.9288Q23.464,11.1844,23.5022,11.4422Q23.5405,11.7,23.566,11.9594Q23.5915,12.2187,23.6043,12.479Q23.6171,12.7393,23.6171,13ZM16.6848,19.81C17.5839,19.7538,18.3706,19.4729,18.9607,18.8828C19.4103,18.4332,19.6912,17.8713,19.8036,17.1969C19.7755,16.8598,19.607,16.5788,19.2979,16.4102L16.9939,15.1739C16.5162,14.921,15.898,15.1177,15.6452,15.5954L14.8226,16.5854C13.5863,16.192,12.8475,15.5791,11.7517,14.4832C10.6559,13.3593,9.94598,12.2798,9.55261,11.0435L10.3909,10.3411C10.8685,10.0882,11.0371,9.47006,10.7843,8.99239L9.54795,6.71648L9.54795,6.68838C9.37936,6.4074,9.15458,6.23881,8.8736,6.18262C8.19926,6.29501,7.6092,6.60408,7.15964,7.05365C6.56959,7.6437,6.26051,8.43044,6.20431,9.35767C6.09192,11.4369,7.32823,14.1624,9.57605,16.4383C11.852,18.7142,14.5774,19.9224,16.6848,19.81Z" fill-rule="evenodd" fill="#1E1E1E" fill-opacity="1"/></g><g><g><rect x="0" y="0" width="26" height="26" rx="0" fill="#1E1E1E" fill-opacity="1"/></g></g></g></g></svg>