<svg xmlns="http://www.w3.org/2000/svg" xmlns:xlink="http://www.w3.org/1999/xlink" fill="none" version="1.1" width="16.6728515625" height="18.39990234375" viewBox="0 0 16.6728515625 18.39990234375"><g><g><g><path d="M5.906453259124756,7.667747632408142Q4.899703259124756,6.660997632408142,4.899703259124756,5.237247632408142Q4.899703259124756,3.813487632408142,5.906453259124756,2.806747632408142Q6.913193259124756,1.7999976324081421,8.336953259124755,1.7999976324081421Q9.760703259124757,1.7999976324081421,10.767453259124757,2.806747632408142Q11.774193259124756,3.813487632408142,11.774193259124756,5.237247632408142Q11.774193259124756,6.660997632408142,10.767453259124757,7.667747632408142Q9.760703259124757,8.674487632408143,8.336953259124755,8.674487632408143Q6.913193259124756,8.674487632408143,5.906453259124756,7.667747632408142ZM4.633653259124756,1.533957632408142Q3.0997039081247557,3.0679076324081422,3.0997039081247557,5.237247632408142Q3.0997039081247557,7.406587632408142,4.633653259124756,8.940537632408143Q6.167613259124756,10.474497632408141,8.336953259124755,10.474497632408141Q10.506293259124757,10.474497632408141,12.040243259124756,8.940537632408143Q13.574213259124756,7.406587632408142,13.574213259124756,5.237247632408142Q13.574213259124756,3.0679076324081422,12.040243259124756,1.533957632408142Q10.506293259124757,8.142089839803177e-12,8.336953259124755,8.142089839803177e-12Q6.167613259124756,8.142089839803177e-12,4.633653259124756,1.533957632408142Z" fill-rule="evenodd" fill="#A2A2A2" fill-opacity="1"/></g><g><path d="M12.958290625,12.878328604125976Q14.872690625,14.792728604125976,14.872690625,17.500098604125977Q14.872690625,17.58873860412598,14.889990625,17.675678604125977Q14.907290625,17.762618604125976,14.941190625,17.844508604125977Q14.975190625,17.926408604125974,15.024390625,18.000108604125977Q15.073690625,18.07380860412598,15.136290625,18.136488604125976Q15.198990625,18.199168604125976,15.272690625,18.248418604125977Q15.346390625,18.297668604125974,15.428290625,18.331588604125976Q15.510190625,18.365508604125978,15.597190625,18.382808604125977Q15.684090625,18.400098604125976,15.772690625,18.400098604125976Q15.861390625,18.400098604125976,15.948290625,18.382798604125977Q16.035290625000002,18.365508604125978,16.117190625,18.331588604125976Q16.198990625,18.297668604125974,16.272690625,18.248418604125977Q16.346490625,18.199168604125976,16.409090624999997,18.136488604125976Q16.471790625,18.07380860412598,16.521090625,18.000108604125977Q16.570290625,17.926408604125974,16.604190625,17.844508604125977Q16.638090625,17.762618604125976,16.655390625000003,17.675678604125977Q16.672690625,17.58873860412598,16.672690625,17.500098604125977Q16.672690625,14.047138604125976,14.231090625,11.605538604125977Q11.789490625,9.163928604125976,8.336560625,9.163927604125977Q4.883600625,9.163928604125976,2.442000625,11.605538604125977Q0.0003906249999999778,14.047138604125976,0.00038962499999994904,17.500098604125977L1.800389625,17.500098604125977Q1.800390625,14.792728604125976,3.714790625,12.878328604125976Q5.629190625,10.963928604125977,8.336560625,10.963927604125976Q11.043890625,10.963928604125977,12.958290625,12.878328604125976Z" fill-rule="evenodd" fill="#A2A2A2" fill-opacity="1"/></g></g></g></svg>