<?xml version="1.0" encoding="UTF-8"?>
<svg width="26px" height="26px" viewBox="0 0 26 26" version="1.1" xmlns="http://www.w3.org/2000/svg" xmlns:xlink="http://www.w3.org/1999/xlink">
    <title>icon_coin_26</title>
    <defs>
        <circle id="path-1" cx="10.4646761" cy="10.3698901" r="10.2941799"></circle>
        <filter x="-30.9%" y="-30.9%" width="161.8%" height="161.8%" filterUnits="objectBoundingBox" id="filter-2">
            <feMorphology radius="0.361111111" operator="dilate" in="SourceAlpha" result="shadowSpreadOuter1"></feMorphology>
            <feOffset dx="0" dy="0" in="shadowSpreadOuter1" result="shadowOffsetOuter1"></feOffset>
            <feGaussianBlur stdDeviation="2" in="shadowOffsetOuter1" result="shadowBlurOuter1"></feGaussianBlur>
            <feComposite in="shadowBlurOuter1" in2="SourceAlpha" operator="out" result="shadowBlurOuter1"></feComposite>
            <feColorMatrix values="0 0 0 0 1   0 0 0 0 0.654901961   0 0 0 0 0.329411765  0 0 0 0.306708916 0" type="matrix" in="shadowBlurOuter1"></feColorMatrix>
        </filter>
        <path d="M5.74775526,9.97267783 L3.07097571,11.3763549 C2.74453918,11.5395732 2.35281534,11.4089986 2.18959707,11.1152057 C2.12430976,10.9846311 2.09166611,10.8540565 2.12430977,10.6908382 L2.64660822,7.72026576 C2.67925187,7.52440384 2.61396457,7.29589827 2.4507463,7.13268 L0.296265197,5.04348621 C0.0351159749,4.78233699 0.0351159749,4.39061314 0.296265197,4.12946392 C0.394196158,4.03153296 0.524770769,3.96624566 0.655345379,3.933602 L3.62591781,3.5092345 C3.85442339,3.47659085 4.01764165,3.34601624 4.11557261,3.15015432 L5.45396239,0.440731109 C5.61718065,0.114294576 6.00890449,-0.0162800346 6.33534103,0.146938237 C6.46591564,0.212225548 6.5638466,0.310156498 6.6291339,0.440731109 L7.96752368,3.15015432 C8.06545464,3.34601624 8.26131656,3.47659085 8.45717847,3.5092345 L11.4277509,3.933602 C11.7868311,3.99888931 12.0479803,4.32532583 11.982693,4.68440602 C11.9500494,4.81498064 11.8847621,4.94555525 11.7868311,5.04348621 L9.63234998,7.13268 C9.46913172,7.29589827 9.40384441,7.49176019 9.43648807,7.72026576 L9.95878652,10.6908382 C10.0240738,11.0499184 9.79556825,11.3763549 9.43648807,11.4416422 C9.30591346,11.4742859 9.14269519,11.4416422 9.01212058,11.3763549 L6.33534103,9.97267783 C6.17212277,9.84210322 5.94361719,9.84210322 5.74775526,9.97267783 Z" id="path-3"></path>
        <filter x="-50.5%" y="-52.7%" width="200.9%" height="205.5%" filterUnits="objectBoundingBox" id="filter-4">
            <feOffset dx="0" dy="0" in="SourceAlpha" result="shadowOffsetOuter1"></feOffset>
            <feGaussianBlur stdDeviation="2" in="shadowOffsetOuter1" result="shadowBlurOuter1"></feGaussianBlur>
            <feColorMatrix values="0 0 0 0 0.864781476   0 0 0 0 0.350587085   0 0 0 0 0  0 0 0 0.432337194 0" type="matrix" in="shadowBlurOuter1"></feColorMatrix>
        </filter>
        <path d="M5.81890053,8.97098301 L3.77944945,10.0404513 C3.5307359,10.164808 3.23227964,10.0653226 3.10792286,9.84148043 C3.05818015,9.74199501 3.0333088,9.64250959 3.05818016,9.51815281 L3.45612183,7.25485953 C3.48099318,7.1056314 3.43125048,6.93153191 3.30689371,6.80717514 L1.66538429,5.21540844 C1.46641346,5.01643761 1.46641346,4.71798134 1.66538429,4.51901051 C1.73999836,4.44439644 1.83948378,4.39465374 1.93896919,4.36978238 L4.20226248,4.04645476 C4.37636196,4.02158341 4.50071873,3.92209799 4.5753328,3.77286986 L5.59505834,1.70854741 C5.71941511,1.45983387 6.01787138,1.36034845 6.26658493,1.48470523 C6.36607034,1.53444794 6.44068441,1.609062 6.49042711,1.70854741 L7.51015266,3.77286986 C7.58476673,3.92209799 7.73399486,4.02158341 7.88322298,4.04645476 L10.1465163,4.36978238 C10.4201012,4.41952509 10.619072,4.66823863 10.5693293,4.94182354 C10.5444579,5.04130896 10.4947152,5.14079438 10.4201012,5.21540844 L8.77859175,6.80717514 C8.65423498,6.93153191 8.60449227,7.08076005 8.62936363,7.25485953 L9.0273053,9.51815281 C9.07704801,9.79173771 8.90294853,10.0404513 8.62936363,10.090194 C8.52987821,10.1150653 8.40552143,10.090194 8.30603601,10.0404513 L6.26658493,8.97098301 C6.14222816,8.87149759 5.96812867,8.87149759 5.81890053,8.97098301 Z" id="path-5"></path>
        <filter x="-66.2%" y="-69.2%" width="232.4%" height="238.4%" filterUnits="objectBoundingBox" id="filter-6">
            <feOffset dx="0" dy="0" in="SourceAlpha" result="shadowOffsetOuter1"></feOffset>
            <feGaussianBlur stdDeviation="2" in="shadowOffsetOuter1" result="shadowBlurOuter1"></feGaussianBlur>
            <feColorMatrix values="0 0 0 0 0.997254303   0 0 0 0 0.58438416   0 0 0 0 0.30288179  0 0 0 0.432337194 0" type="matrix" in="shadowBlurOuter1"></feColorMatrix>
        </filter>
    </defs>
    <g id="页面-1" stroke="none" stroke-width="1" fill="none" fill-rule="evenodd">
        <g id="voicematch" transform="translate(-20.000000, -649.000000)">
            <g id="icon_coin_64备份-5" transform="translate(20.000000, 649.000000)">
                <g id="编组-2" transform="translate(2.600000, 2.600000)">
                    <g id="椭圆形备份-11">
                        <use fill="black" fill-opacity="1" filter="url(#filter-2)" xlink:href="#path-1"></use>
                        <use stroke="#FFFFFF" stroke-width="0.722222222" fill="#FFA754" fill-rule="evenodd" xlink:href="#path-1"></use>
                    </g>
                    <g id="编组备份-13" transform="translate(4.497513, 3.484389)" fill-rule="nonzero">
                        <g id="路径">
                            <use fill="black" fill-opacity="1" filter="url(#filter-4)" xlink:href="#path-3"></use>
                            <use fill="#FFFFFF" xlink:href="#path-3"></use>
                        </g>
                        <g id="路径">
                            <use fill="black" fill-opacity="1" filter="url(#filter-6)" xlink:href="#path-5"></use>
                            <use fill="#FFFFFF" xlink:href="#path-5"></use>
                        </g>
                    </g>
                </g>
            </g>
        </g>
    </g>
</svg>