<?xml version="1.0" encoding="UTF-8"?>
<svg width="21px" height="20px" viewBox="0 0 21 20" version="1.1" xmlns="http://www.w3.org/2000/svg" xmlns:xlink="http://www.w3.org/1999/xlink">
    <title>形状结合</title>
    <g id="页面-1" stroke="none" stroke-width="1" fill="none" fill-rule="evenodd">
        <g id="tabbar" transform="translate(-191, -778)" fill="#FFFFFF" fill-rule="nonzero">
            <path d="M209.086495,778.172226 C209.705801,777.939986 210.402519,778.094812 210.944412,778.636705 C211.408891,779.101184 211.641131,779.797903 211.408891,780.417209 L208.312363,790.635753 C207.693057,792.648496 206.144793,794.196761 204.132049,794.738653 L193.913505,797.835182 C193.758679,797.912595 193.526439,797.912595 193.371613,797.912595 C192.907133,797.912595 192.365241,797.757768 192.055588,797.370702 C191.591109,796.906223 191.358869,796.209504 191.591109,795.590198 L194.687637,785.371654 C195.306943,783.358911 196.855207,781.810647 198.867951,781.268754 Z M201.5,786.455439 C200.644917,786.455439 199.951736,787.148621 199.951736,788.003704 C199.951736,788.858786 200.644917,789.551968 201.5,789.551968 C202.355083,789.551968 203.048264,788.858786 203.048264,788.003704 C203.048264,787.148621 202.355083,786.455439 201.5,786.455439 Z" id="形状结合"></path>
        </g>
    </g>
</svg>