<svg xmlns="http://www.w3.org/2000/svg" xmlns:xlink="http://www.w3.org/1999/xlink" fill="none" version="1.1" width="15.0732421875" height="18.51904296875" viewBox="0 0 15.0732421875 18.51904296875"><g><g><g><path d="M2.464869761581421,1.95343C3.892649761581421,0.651107,5.714569761581421,0,7.536479761581421,0C9.35838976158142,0,11.180299761581422,0.651107,12.607999761581421,1.95343C15.806299761581421,4.87046,15.892199761581422,9.83093,12.865499761581422,12.8575C11.88069976158142,13.8423,9.81831976158142,16.4451,8.58563976158142,18.0279C8.33098976158142,18.355,7.956079761581421,18.5189,7.581059761581421,18.5189C7.1939397615814205,18.5199,6.827629761581421,18.3438,6.586669761581421,18.0408C5.326699761581421,16.4652,3.213629761581421,13.8638,2.207349761581421,12.8575C-0.8192212384185791,9.83083,-0.7334542384185792,4.87035,2.464869761581421,1.95343ZM11.299399761581421,3.51502C10.27619976158142,2.58182,8.93980976158142,2.06787,7.536329761581421,2.06787C6.132859761581421,2.06787,4.7965097615814205,2.58182,3.7732197615814207,3.51502C2.629019761581421,4.55862,1.9793497615814208,5.98261,1.943919761581421,7.52466C1.908389761581421,9.06788,2.489769761581421,10.5186,3.580869761581421,11.6097C4.483449761581421,12.5122,6.219609761581421,14.6291,7.575589761581421,16.3208C8.90231976158142,14.6214,10.60219976158142,12.4993,11.49179976158142,11.6097C12.582899761581421,10.5187,13.164299761581422,9.06788,13.128699761581421,7.52466C13.09329976158142,5.98251,12.443599761581421,4.55852,11.299399761581421,3.51502Z" fill-rule="evenodd" fill="#A2A2A2" fill-opacity="1"/></g><g><path d="M7.536470434570313,10.675388603744507Q7.705590434570313,10.675388603744507,7.8738904345703125,10.658808603744507Q8.042190434570312,10.642238603744506,8.208050434570312,10.609238603744508Q8.373920434570312,10.576248603744506,8.535750434570312,10.527158603744507Q8.697580434570312,10.478068603744507,8.853820434570313,10.413348603744506Q9.010070434570313,10.348628603744507,9.159210434570312,10.268908603744507Q9.308360434570313,10.189188603744507,9.448970434570313,10.095238603744507Q9.589580434570312,10.001278603744506,9.720310434570312,9.893998603744507Q9.851040434570312,9.786708603744508,9.970620434570312,9.667128603744507Q10.090200434570313,9.547548603744506,10.197490434570312,9.416818603744506Q10.304770434570312,9.286088603744506,10.398730434570313,9.145478603744507Q10.492680434570312,9.004868603744507,10.572400434570312,8.855718603744506Q10.652120434570312,8.706578603744507,10.716840434570312,8.550328603744507Q10.781560434570313,8.394088603744507,10.830650434570313,8.232258603744507Q10.879740434570312,8.070428603744507,10.912730434570314,7.904558603744507Q10.945730434570311,7.738698603744506,10.962300434570313,7.570398603744507Q10.978880434570312,7.402098603744507,10.978880434570312,7.232978603744507Q10.978880434570312,7.063868603744506,10.962300434570313,6.895568603744507Q10.945730434570311,6.727268603744507,10.912730434570314,6.561398603744507Q10.879740434570312,6.395538603744507,10.830650434570313,6.233708603744507Q10.781560434570313,6.071868603744507,10.716840434570312,5.915628603744507Q10.652120434570312,5.759388603744506,10.572400434570312,5.610248603744507Q10.492680434570312,5.461098603744507,10.398730434570313,5.320488603744507Q10.304770434570312,5.179868603744507,10.197490434570312,5.049148603744507Q10.090200434570313,4.918418603744507,9.970620434570312,4.798838603744507Q9.851040434570312,4.679253603744507,9.720310434570312,4.571968603744507Q9.589580434570312,4.464683603744507,9.448970434570313,4.370728603744507Q9.308360434570313,4.276773603744507,9.159210434570312,4.197053603744507Q9.010070434570313,4.117333603744507,8.853820434570313,4.052615603744507Q8.697580434570312,3.9878986037445068,8.535750434570312,3.938807603744507Q8.373920434570312,3.889716003744507,8.208050434570312,3.856723403744507Q8.042190434570312,3.823730803744507,7.8738904345703125,3.807154703744507Q7.705590434570313,3.790578603744507,7.536470434570313,3.790578603744507Q7.367360434570312,3.790578603744507,7.199060434570312,3.807154703744507Q7.030760434570313,3.823730803744507,6.864890434570313,3.856723403744507Q6.699030434570313,3.889716003744507,6.5372004345703125,3.938807603744507Q6.375360434570313,3.9878986037445068,6.219120434570312,4.052615603744507Q6.062880434570312,4.117333603744507,5.913740434570313,4.197053603744507Q5.764590434570312,4.276773603744507,5.623980434570313,4.370728603744507Q5.483360434570312,4.464683603744507,5.352640434570312,4.571968603744507Q5.2219104345703125,4.679253603744507,5.102330434570312,4.798838603744507Q4.982745434570313,4.918418603744507,4.8754604345703125,5.049148603744507Q4.7681754345703125,5.179868603744507,4.674220434570312,5.320488603744507Q4.580265434570313,5.461098603744507,4.500545434570313,5.610248603744507Q4.420825434570313,5.759388603744506,4.356107434570313,5.915628603744507Q4.291390434570313,6.071868603744507,4.242299434570312,6.233708603744507Q4.1932078345703125,6.395538603744507,4.1602152345703125,6.561398603744507Q4.1272226345703125,6.727268603744507,4.1106465345703125,6.895568603744507Q4.0940704345703125,7.063868603744506,4.0940704345703125,7.232978603744507Q4.0940704345703125,7.402098603744507,4.1106465345703125,7.570398603744507Q4.1272226345703125,7.738698603744506,4.1602152345703125,7.904558603744507Q4.1932078345703125,8.070428603744507,4.242299434570312,8.232258603744507Q4.291390434570313,8.394088603744507,4.356107434570313,8.550328603744507Q4.420825434570313,8.706578603744507,4.500545434570313,8.855718603744506Q4.580265434570313,9.004868603744507,4.674220434570312,9.145478603744507Q4.7681754345703125,9.286088603744506,4.8754604345703125,9.416818603744506Q4.982745434570313,9.547548603744506,5.102330434570312,9.667128603744507Q5.2219104345703125,9.786708603744508,5.352640434570312,9.893998603744507Q5.483360434570312,10.001278603744506,5.623980434570313,10.095238603744507Q5.764590434570312,10.189188603744507,5.913740434570313,10.268908603744507Q6.062880434570312,10.348628603744507,6.219120434570312,10.413348603744506Q6.375360434570313,10.478068603744507,6.5372004345703125,10.527158603744507Q6.699030434570313,10.576248603744506,6.864890434570313,10.609238603744508Q7.030760434570313,10.642238603744506,7.199060434570312,10.658808603744507Q7.367360434570312,10.675388603744507,7.536470434570313,10.675388603744507ZM9.332670434570312,7.233118603744507C9.332670434570312,6.242798603744507,8.526940434570314,5.437058603744507,7.536610434570313,5.437058603744507C6.546290434570313,5.437058603744507,5.740550434570313,6.242798603744507,5.740550434570313,7.233118603744507C5.740550434570313,8.223448603744508,6.546290434570313,9.029178603744507,7.536610434570313,9.029178603744507C8.526940434570314,9.029178603744507,9.332670434570312,8.223448603744508,9.332670434570312,7.233118603744507Z" fill-rule="evenodd" fill="#A2A2A2" fill-opacity="1"/></g></g></g></svg>