<svg xmlns="http://www.w3.org/2000/svg" xmlns:xlink="http://www.w3.org/1999/xlink" fill="none" version="1.1" width="26" height="26" viewBox="0 0 26 26"><defs><mask id="master_svg0_0_6237/0_9985" style="mask-type:alpha" maskUnits="userSpaceOnUse"><g><path d="M25.9941,2.36292C25.9049,1.043,24.806,0,23.4634,0L2.53659,0L2.33573,0.00795861C1.7365,0.0555339,1.17108,0.314817,0.742949,0.742949C0.267247,1.21865,0,1.86384,0,2.53659L0,23.4634L0.00795861,23.6643C0.0555339,24.2635,0.314817,24.8289,0.742949,25.2571C1.21865,25.7328,1.86384,26,2.53659,26L23.4634,26L23.6643,25.992C24.2635,25.9445,24.8289,25.6852,25.2571,25.2571C25.7328,24.7813,26,24.1362,26,23.4634L26,2.53659L25.9941,2.36292ZM2.53704,2.3833L23.4639,2.3833L23.5123,2.39111C23.5732,2.41139,23.6171,2.46884,23.6171,2.53655L23.6171,23.4634L23.6119,23.5032C23.605,23.5289,23.5914,23.5526,23.5722,23.5717C23.5435,23.6005,23.5045,23.6166,23.4639,23.6166L2.53704,23.6166L2.49727,23.6114C2.47155,23.6045,2.44784,23.5909,2.42868,23.5717C2.39994,23.543,2.38379,23.504,2.38379,23.4634L2.38379,2.53655L2.38904,2.49678C2.39595,2.47106,2.40952,2.44735,2.42868,2.42819C2.45742,2.39945,2.4964,2.3833,2.53704,2.3833ZM9.56459,12.1629Q9.74834,12.1629,9.93121,12.1449Q10.1141,12.1268,10.2943,12.091Q10.4745,12.0552,10.6504,12.0018Q10.8262,11.9485,10.996,11.8781Q11.1657,11.8078,11.3278,11.7212Q11.4898,11.6346,11.6426,11.5325Q11.7954,11.4304,11.9375,11.3138Q12.0795,11.1973,12.2094,11.0673Q12.3394,10.9374,12.4559,10.7954Q12.5725,10.6533,12.6746,10.5005Q12.7767,10.3478,12.8633,10.1857Q12.9499,10.0236,13.0202,9.85388Q13.0906,9.68411,13.1439,9.50827Q13.1972,9.33243,13.2331,9.15221Q13.2689,8.97199,13.2869,8.78912Q13.305,8.60625,13.305,8.4225Q13.305,8.23875,13.2869,8.05588Q13.2689,7.87301,13.2331,7.69279Q13.1972,7.51257,13.1439,7.33673Q13.0906,7.16089,13.0202,6.99112Q12.9499,6.82136,12.8633,6.6593Q12.7767,6.49725,12.6746,6.34446Q12.5725,6.19168,12.4559,6.04963Q12.3394,5.90759,12.2094,5.77766Q12.0795,5.64773,11.9375,5.53115Q11.7954,5.41458,11.6426,5.31249Q11.4898,5.21041,11.3278,5.12379Q11.1657,5.03717,10.996,4.96685Q10.8262,4.89653,10.6504,4.84319Q10.4745,4.78985,10.2943,4.754Q10.1141,4.71815,9.93121,4.70014Q9.74834,4.68213,9.56459,4.68213Q9.38084,4.68213,9.19797,4.70014Q9.0151,4.71815,8.83488,4.754Q8.65466,4.78985,8.47882,4.84319Q8.30297,4.89653,8.13321,4.96685Q7.96345,5.03717,7.80139,5.12379Q7.63933,5.21041,7.48655,5.31249Q7.33377,5.41458,7.19172,5.53115Q7.04968,5.64773,6.91975,5.77766Q6.78981,5.90759,6.67324,6.04963Q6.55667,6.19168,6.45458,6.34446Q6.3525,6.49725,6.26588,6.6593Q6.17926,6.82136,6.10894,6.99112Q6.03862,7.16089,5.98528,7.33673Q5.93194,7.51257,5.89609,7.69279Q5.86024,7.87301,5.84223,8.05588Q5.82422,8.23875,5.82422,8.4225Q5.82422,8.60625,5.84223,8.78912Q5.86024,8.97199,5.89609,9.15221Q5.93194,9.33243,5.98528,9.50827Q6.03862,9.68411,6.10894,9.85388Q6.17926,10.0236,6.26588,10.1857Q6.3525,10.3478,6.45458,10.5005Q6.55667,10.6533,6.67324,10.7954Q6.78981,10.9374,6.91975,11.0673Q7.04968,11.1973,7.19172,11.3138Q7.33377,11.4304,7.48655,11.5325Q7.63933,11.6346,7.80139,11.7212Q7.96344,11.8078,8.13321,11.8781Q8.30297,11.9485,8.47882,12.0018Q8.65466,12.0552,8.83488,12.091Q9.0151,12.1268,9.19797,12.1449Q9.38084,12.1629,9.56459,12.1629ZM9.56407,9.7795Q9.63074,9.7795,9.69708,9.77297Q9.76343,9.76643,9.82881,9.75343Q9.8942,9.74042,9.958,9.72107Q10.0218,9.70172,10.0834,9.6762Q10.145,9.65069,10.2038,9.61927Q10.2626,9.58784,10.318,9.5508Q10.3734,9.51376,10.425,9.47147Q10.4765,9.42918,10.5236,9.38204Q10.5708,9.3349,10.6131,9.28336Q10.6554,9.23183,10.6924,9.1764Q10.7294,9.12096,10.7609,9.06217Q10.7923,9.00337,10.8178,8.94178Q10.8433,8.88019,10.8627,8.81639Q10.882,8.7526,10.895,8.68721Q10.908,8.62183,10.9146,8.55548Q10.9211,8.48913,10.9211,8.42247Q10.9211,8.3558,10.9146,8.28945Q10.908,8.22311,10.895,8.15772Q10.882,8.09233,10.8627,8.02854Q10.8433,7.96474,10.8178,7.90315Q10.7923,7.84156,10.7609,7.78276Q10.7294,7.72397,10.6924,7.66854Q10.6554,7.61311,10.6131,7.56157Q10.5708,7.51004,10.5236,7.4629Q10.4765,7.41576,10.425,7.37346Q10.3734,7.33117,10.318,7.29413Q10.2626,7.25709,10.2038,7.22567Q10.145,7.19424,10.0834,7.16873Q10.0218,7.14322,9.958,7.12386Q9.8942,7.10451,9.82881,7.0915Q9.76343,7.0785,9.69708,7.07197Q9.63074,7.06543,9.56407,7.06543Q9.4974,7.06543,9.43106,7.07197Q9.36471,7.0785,9.29932,7.09151Q9.23394,7.10451,9.17014,7.12386Q9.10634,7.14322,9.04475,7.16873Q8.98316,7.19424,8.92437,7.22567Q8.86557,7.25709,8.81014,7.29413Q8.75471,7.33117,8.70317,7.37346Q8.65164,7.41576,8.6045,7.4629Q8.55736,7.51004,8.51507,7.56157Q8.47277,7.61311,8.43573,7.66854Q8.39869,7.72397,8.36727,7.78276Q8.33584,7.84156,8.31033,7.90315Q8.28482,7.96474,8.26546,8.02854Q8.24611,8.09234,8.23311,8.15772Q8.2201,8.22311,8.21357,8.28945Q8.20703,8.3558,8.20703,8.42247Q8.20703,8.48913,8.21357,8.55548Q8.2201,8.62183,8.23311,8.68721Q8.24611,8.7526,8.26546,8.81639Q8.28482,8.88019,8.31033,8.94178Q8.33584,9.00337,8.36727,9.06217Q8.39869,9.12096,8.43573,9.17639Q8.47277,9.23183,8.51506,9.28336Q8.55736,9.3349,8.6045,9.38204Q8.65164,9.42918,8.70317,9.47147Q8.75471,9.51376,8.81014,9.5508Q8.86557,9.58784,8.92437,9.61927Q8.98316,9.65069,9.04475,9.6762Q9.10634,9.70172,9.17014,9.72107Q9.23394,9.74042,9.29932,9.75343Q9.36471,9.76643,9.43106,9.77297Q9.4974,9.7795,9.56407,9.7795ZM16.1282,10.6778L15.9294,10.6665L15.9409,10.6675C15.1336,10.6438,14.343,10.956,13.8822,11.5618L13.7907,11.7015L11.5722,15.665L11.4071,15.4529L11.3196,15.353C10.8322,14.8554,10.0998,14.6081,9.36133,14.64C8.60427,14.6726,7.89026,14.9957,7.46933,15.571L4.95149,19.2609C4.54462,19.8139,4.59505,20.5904,5.07763,21.1239C5.42842,21.5117,5.94223,21.7074,6.46352,21.7074L20.6271,21.7074C21.1378,21.7102,21.649,21.5203,22.0022,21.141L22.1,21.0253C22.4655,20.5489,22.5196,19.9127,22.2215,19.384L22.2019,19.3526L17.9833,11.7433L17.9223,11.6449C17.5298,11.0753,16.8556,10.7413,16.1282,10.6778ZM15.9787,13.0454L19.4606,19.3233L7.79199,19.3233L9.3933,16.978C9.36241,17.0275,9.38327,17.0261,9.43443,17.0227C9.44325,17.0221,9.45298,17.0215,9.46351,17.021L9.61199,17.0277L10.5098,18.1753L10.5963,18.2743C10.904,18.5891,11.3276,18.7352,11.7459,18.7219C12.1776,18.7081,12.6031,18.5255,12.8886,18.1643L12.9938,18.0071L15.7675,13.0465L15.7856,13.0504L15.962,13.0527L15.9787,13.0454ZM9.3933,16.978C9.39884,16.9691,9.40605,16.9586,9.41505,16.9461L9.3933,16.978Z" fill-rule="evenodd" fill="#FFFFFF" fill-opacity="1"/></g></mask><mask id="master_svg1_0_6237/0_9995" style="mask-type:alpha" maskUnits="userSpaceOnUse"><g><path d="M26,13Q26,13.3191,25.9843,13.6379Q25.9687,13.9566,25.9374,14.2742Q25.9061,14.5918,25.8593,14.9075Q25.8125,15.2232,25.7502,15.5362Q25.6879,15.8492,25.6104,16.1587Q25.5329,16.4683,25.4402,16.7737Q25.3476,17.0791,25.2401,17.3796Q25.1326,17.68,25.0104,17.9749Q24.8883,18.2697,24.7519,18.5582Q24.6154,18.8467,24.465,19.1282Q24.3145,19.4096,24.1505,19.6833Q23.9864,19.9571,23.8091,20.2224Q23.6318,20.4878,23.4417,20.7441Q23.2516,21.0004,23.0491,21.2471Q22.8467,21.4938,22.6324,21.7303Q22.418,21.9667,22.1924,22.1924Q21.9667,22.418,21.7303,22.6324Q21.4938,22.8467,21.2471,23.0491Q21.0004,23.2516,20.7441,23.4417Q20.4878,23.6318,20.2224,23.8091Q19.9571,23.9864,19.6833,24.1505Q19.4096,24.3145,19.1282,24.465Q18.8467,24.6154,18.5582,24.7519Q18.2697,24.8883,17.9749,25.0104Q17.68,25.1326,17.3796,25.2401Q17.0791,25.3476,16.7737,25.4402Q16.4683,25.5329,16.1587,25.6104Q15.8492,25.6879,15.5362,25.7502Q15.2232,25.8125,14.9075,25.8593Q14.5918,25.9061,14.2742,25.9374Q13.9566,25.9687,13.6379,25.9843Q13.3191,26,13,26Q12.6809,26,12.3621,25.9843Q12.0434,25.9687,11.7258,25.9374Q11.4082,25.9061,11.0925,25.8593Q10.7768,25.8125,10.4638,25.7502Q10.1508,25.6879,9.84126,25.6104Q9.53169,25.5329,9.2263,25.4402Q8.92091,25.3476,8.62043,25.2401Q8.31995,25.1326,8.02511,25.0104Q7.73027,24.8883,7.44178,24.7519Q7.15329,24.6154,6.87184,24.465Q6.59039,24.3145,6.31666,24.1505Q6.04293,23.9864,5.77759,23.8091Q5.51224,23.6318,5.25591,23.4417Q4.99958,23.2516,4.75289,23.0491Q4.50619,22.8467,4.26973,22.6324Q4.03327,22.418,3.80761,22.1924Q3.58195,21.9667,3.36764,21.7303Q3.15332,21.4938,2.95086,21.2471Q2.74841,21.0004,2.5583,20.7441Q2.3682,20.4878,2.1909,20.2224Q2.01359,19.9571,1.84953,19.6833Q1.68546,19.4096,1.53502,19.1282Q1.38459,18.8467,1.24814,18.5582Q1.11169,18.2697,0.989566,17.9749Q0.867439,17.68,0.759927,17.3796Q0.652415,17.0791,0.559776,16.7737Q0.467136,16.4683,0.389594,16.1587Q0.312051,15.8492,0.249791,15.5362Q0.187532,15.2232,0.140705,14.9075Q0.093879,14.5918,0.0625985,14.2742Q0.0313181,13.9566,0.0156591,13.6379Q0,13.3191,0,13Q0,12.6809,0.0156591,12.3621Q0.0313181,12.0434,0.0625985,11.7258Q0.093879,11.4082,0.140705,11.0925Q0.187532,10.7768,0.249791,10.4638Q0.312051,10.1508,0.389594,9.84126Q0.467136,9.53169,0.559776,9.2263Q0.652415,8.92091,0.759927,8.62043Q0.867439,8.31995,0.989566,8.02511Q1.11169,7.73027,1.24814,7.44178Q1.38459,7.15329,1.53502,6.87184Q1.68546,6.59039,1.84953,6.31666Q2.01359,6.04293,2.1909,5.77759Q2.3682,5.51224,2.5583,5.25591Q2.74841,4.99958,2.95086,4.75289Q3.15332,4.50619,3.36764,4.26973Q3.58195,4.03327,3.80761,3.80761Q4.03327,3.58195,4.26973,3.36764Q4.50619,3.15332,4.75289,2.95086Q4.99958,2.74841,5.25591,2.5583Q5.51224,2.3682,5.77759,2.1909Q6.04293,2.01359,6.31666,1.84953Q6.59039,1.68546,6.87184,1.53502Q7.15329,1.38459,7.44178,1.24814Q7.73027,1.11169,8.02511,0.989566Q8.31995,0.867439,8.62043,0.759927Q8.92091,0.652415,9.2263,0.559776Q9.53169,0.467136,9.84126,0.389594Q10.1508,0.312051,10.4638,0.249791Q10.7768,0.187532,11.0925,0.140705Q11.4082,0.093879,11.7258,0.0625985Q12.0434,0.0313181,12.3621,0.0156591Q12.6809,0,13,0Q13.3191,0,13.6379,0.0156591Q13.9566,0.0313181,14.2742,0.0625985Q14.5918,0.093879,14.9075,0.140705Q15.2232,0.187532,15.5362,0.249791Q15.8492,0.312051,16.1587,0.389594Q16.4683,0.467136,16.7737,0.559776Q17.0791,0.652415,17.3796,0.759927Q17.68,0.867439,17.9749,0.989566Q18.2697,1.11169,18.5582,1.24814Q18.8467,1.38459,19.1282,1.53502Q19.4096,1.68546,19.6833,1.84953Q19.9571,2.01359,20.2224,2.1909Q20.4878,2.3682,20.7441,2.5583Q21.0004,2.74841,21.2471,2.95086Q21.4938,3.15332,21.7303,3.36764Q21.9667,3.58195,22.1924,3.80761Q22.418,4.03327,22.6324,4.26973Q22.8467,4.50619,23.0491,4.75289Q23.2516,4.99958,23.4417,5.25591Q23.6318,5.51224,23.8091,5.77759Q23.9864,6.04293,24.1505,6.31666Q24.3145,6.59039,24.465,6.87184Q24.6154,7.15329,24.7519,7.44178Q24.8883,7.73027,25.0104,8.02511Q25.1326,8.31995,25.2401,8.62043Q25.3476,8.92091,25.4402,9.2263Q25.5329,9.53169,25.6104,9.84126Q25.6879,10.1508,25.7502,10.4638Q25.8125,10.7768,25.8593,11.0925Q25.9061,11.4082,25.9374,11.7258Q25.9687,12.0434,25.9843,12.3621Q26,12.6809,26,13ZM20.7847,20.2193Q20.413,20.6201,20.0021,20.9806Q19.5912,21.3411,19.1455,21.6574Q18.6998,21.9738,18.2239,22.2428Q17.7481,22.5117,17.2471,22.7303Q16.7461,22.949,16.2254,23.115Q15.7046,23.281,15.1695,23.3927Q14.6345,23.5044,14.0908,23.5605Q13.5471,23.6166,13.0005,23.6166Q12.5149,23.6166,12.0313,23.5723Q11.5477,23.528,11.0702,23.4397Q10.5927,23.3514,10.1253,23.2199Q9.65782,23.0884,9.20433,22.9148Q8.75084,22.7411,8.31509,22.5268Q7.87934,22.3125,7.46497,22.0593Q7.05061,21.8061,6.66108,21.5162Q6.27156,21.2262,5.91013,20.9019L8.70459,17.0465L8.69238,17.0676C8.68972,17.078,8.6977,17.0816,8.71435,17.0816L8.90216,17.0634L8.98513,17.0638C9.06451,17.0677,9.13181,17.0809,9.17515,17.093L9.2097,17.1037L10.2487,18.355L10.3387,18.4519L10.4617,18.5579C10.7595,18.7873,11.1296,18.8912,11.4954,18.8803C11.9282,18.8673,12.3558,18.6945,12.6512,18.3428L12.7631,18.1852L15.9383,12.8408L16.1128,12.8221L16.1911,12.8209L16.2715,12.8253L16.4249,12.8441L16.4388,12.8408L20.7847,20.2193ZM4.29231,19.073Q3.82912,18.4088,3.47202,17.6821Q3.11491,16.9554,2.87215,16.1829Q2.62939,15.4104,2.50659,14.6101Q2.38379,13.8097,2.38379,13Q2.38379,12.7393,2.39658,12.479Q2.40937,12.2187,2.43491,11.9594Q2.46046,11.7,2.4987,11.4422Q2.53694,11.1844,2.58779,10.9288Q2.63863,10.6731,2.70196,10.4203Q2.76528,10.1675,2.84094,9.91811Q2.91659,9.66871,3.0044,9.42332Q3.0922,9.17793,3.19193,8.93714Q3.29167,8.69636,3.4031,8.46076Q3.51453,8.22515,3.63739,7.99531Q3.76025,7.76546,3.89424,7.54191Q4.02822,7.31836,4.17302,7.10166Q4.31781,6.88496,4.47307,6.67563Q4.62832,6.46629,4.79366,6.26483Q4.959,6.06336,5.13402,5.87025Q5.30905,5.67714,5.49334,5.49285Q5.67763,5.30856,5.87074,5.13354Q6.06385,4.95851,6.26531,4.79317Q6.46678,4.62783,6.67611,4.47258Q6.88545,4.31733,7.10215,4.17253Q7.31885,4.02774,7.5424,3.89375Q7.76594,3.75976,7.99579,3.6369Q8.22564,3.51405,8.46125,3.40261Q8.69685,3.29118,8.93763,3.19145Q9.17842,3.09171,9.42381,3.00391Q9.6692,2.91611,9.9186,2.84045Q10.168,2.7648,10.4208,2.70147Q10.6736,2.63814,10.9292,2.5873Q11.1849,2.53645,11.4427,2.49821Q11.7005,2.45997,11.9598,2.43442Q12.2192,2.40888,12.4795,2.39609Q12.7398,2.3833,13.0005,2.3833Q13.2611,2.3833,13.5214,2.39609Q13.7817,2.40888,14.0411,2.43442Q14.3004,2.45997,14.5582,2.49821Q14.816,2.53645,15.0717,2.5873Q15.3273,2.63814,15.5801,2.70147Q15.8329,2.7648,16.0823,2.84045Q16.3317,2.91611,16.5771,3.00391Q16.8225,3.09171,17.0633,3.19145Q17.3041,3.29118,17.5397,3.40261Q17.7753,3.51405,18.0051,3.6369Q18.235,3.75976,18.4585,3.89375Q18.6821,4.02774,18.8988,4.17253Q19.1155,4.31733,19.3248,4.47258Q19.5341,4.62783,19.7356,4.79317Q19.9371,4.95851,20.1302,5.13354Q20.3233,5.30856,20.5076,5.49285Q20.6919,5.67714,20.8669,5.87025Q21.0419,6.06336,21.2072,6.26483Q21.3726,6.46629,21.5278,6.67563Q21.6831,6.88496,21.8279,7.10166Q21.9727,7.31836,22.1067,7.54191Q22.2407,7.76545,22.3635,7.99531Q22.4864,8.22515,22.5978,8.46076Q22.7092,8.69636,22.809,8.93714Q22.9087,9.17793,22.9965,9.42332Q23.0843,9.66871,23.16,9.91811Q23.2356,10.1675,23.299,10.4203Q23.3623,10.6731,23.4131,10.9288Q23.464,11.1844,23.5022,11.4422Q23.5405,11.7,23.566,11.9594Q23.5915,12.2187,23.6043,12.479Q23.6171,12.7393,23.6171,13Q23.6171,13.667,23.5336,14.3288Q23.4501,14.9907,23.2845,15.6368Q23.1188,16.283,22.8735,16.9033Q22.6283,17.5236,22.3073,18.1084L18.4258,11.5189L18.3605,11.4197L18.2387,11.269C17.7667,10.7384,17.0238,10.4522,16.2455,10.4382C15.4036,10.4149,14.5692,10.725,14.0768,11.3342L13.9792,11.4744L11.3309,15.9283L10.9687,15.4919L10.8777,15.394L10.7302,15.2645C10.2187,14.8536,9.51522,14.6532,8.80556,14.682C8.00429,14.7145,7.24968,15.0358,6.79888,15.6157L4.29231,19.073ZM11.3407,8.78363Q11.3407,8.89186,11.3301,8.99957Q11.3195,9.10728,11.2984,9.21343Q11.2773,9.31958,11.2458,9.42315Q11.2144,9.52672,11.173,9.62671Q11.1316,9.7267,11.0806,9.82215Q11.0295,9.9176,10.9694,10.0076Q10.9093,10.0976,10.8406,10.1812Q10.772,10.2649,10.6954,10.3414Q10.6189,10.418,10.5352,10.4866Q10.4516,10.5553,10.3616,10.6154Q10.2716,10.6755,10.1762,10.7266Q10.0807,10.7776,9.98071,10.819Q9.88072,10.8604,9.77715,10.8918Q9.67358,10.9233,9.56743,10.9444Q9.46128,10.9655,9.35358,10.9761Q9.24587,10.9867,9.13764,10.9867Q9.02941,10.9867,8.9217,10.9761Q8.81399,10.9655,8.70784,10.9444Q8.60169,10.9233,8.49812,10.8918Q8.39455,10.8604,8.29456,10.819Q8.19457,10.7776,8.09912,10.7266Q8.00367,10.6755,7.91368,10.6154Q7.82369,10.5553,7.74003,10.4866Q7.65636,10.418,7.57983,10.3414Q7.5033,10.2649,7.43464,10.1812Q7.36598,10.0976,7.30585,10.0076Q7.24572,9.9176,7.19471,9.82215Q7.14369,9.7267,7.10227,9.62671Q7.06085,9.52672,7.02943,9.42315Q6.99802,9.31958,6.9769,9.21343Q6.95579,9.10728,6.94518,8.99957Q6.93457,8.89186,6.93457,8.78363Q6.93457,8.6754,6.94518,8.56769Q6.95579,8.45999,6.9769,8.35384Q6.99802,8.24769,7.02943,8.14412Q7.06085,8.04055,7.10227,7.94056Q7.14369,7.84056,7.19471,7.74511Q7.24572,7.64966,7.30585,7.55967Q7.36598,7.46968,7.43464,7.38602Q7.5033,7.30236,7.57983,7.22583Q7.65636,7.1493,7.74003,7.08064Q7.82369,7.01198,7.91368,6.95185Q8.00367,6.89172,8.09912,6.8407Q8.19457,6.78968,8.29456,6.74826Q8.39455,6.70685,8.49812,6.67543Q8.60169,6.64401,8.70784,6.6229Q8.81399,6.60178,8.9217,6.59118Q9.02941,6.58057,9.13764,6.58057Q9.24587,6.58057,9.35358,6.59118Q9.46128,6.60178,9.56743,6.6229Q9.67358,6.64401,9.77715,6.67543Q9.88072,6.70685,9.98071,6.74826Q10.0807,6.78968,10.1762,6.8407Q10.2716,6.89172,10.3616,6.95185Q10.4516,7.01198,10.5352,7.08064Q10.6189,7.1493,10.6954,7.22583Q10.772,7.30236,10.8406,7.38602Q10.9093,7.46968,10.9694,7.55967Q11.0295,7.64966,11.0806,7.74511Q11.1316,7.84056,11.173,7.94055Q11.2144,8.04055,11.2458,8.14412Q11.2773,8.24769,11.2984,8.35384Q11.3195,8.45999,11.3301,8.56769Q11.3407,8.6754,11.3407,8.78363Z" fill-rule="evenodd" fill="#FFFFFF" fill-opacity="1"/></g></mask></defs><g><g mask="url(#master_svg0_0_6237/0_9985)"></g><g mask="url(#master_svg1_0_6237/0_9995)"><g><path d="M26,13Q26,13.3191,25.9843,13.6379Q25.9687,13.9566,25.9374,14.2742Q25.9061,14.5918,25.8593,14.9075Q25.8125,15.2232,25.7502,15.5362Q25.6879,15.8492,25.6104,16.1587Q25.5329,16.4683,25.4402,16.7737Q25.3476,17.0791,25.2401,17.3796Q25.1326,17.68,25.0104,17.9749Q24.8883,18.2697,24.7519,18.5582Q24.6154,18.8467,24.465,19.1282Q24.3145,19.4096,24.1505,19.6833Q23.9864,19.9571,23.8091,20.2224Q23.6318,20.4878,23.4417,20.7441Q23.2516,21.0004,23.0491,21.2471Q22.8467,21.4938,22.6324,21.7303Q22.418,21.9667,22.1924,22.1924Q21.9667,22.418,21.7303,22.6324Q21.4938,22.8467,21.2471,23.0491Q21.0004,23.2516,20.7441,23.4417Q20.4878,23.6318,20.2224,23.8091Q19.9571,23.9864,19.6833,24.1505Q19.4096,24.3145,19.1282,24.465Q18.8467,24.6154,18.5582,24.7519Q18.2697,24.8883,17.9749,25.0104Q17.68,25.1326,17.3796,25.2401Q17.0791,25.3476,16.7737,25.4402Q16.4683,25.5329,16.1587,25.6104Q15.8492,25.6879,15.5362,25.7502Q15.2232,25.8125,14.9075,25.8593Q14.5918,25.9061,14.2742,25.9374Q13.9566,25.9687,13.6379,25.9843Q13.3191,26,13,26Q12.6809,26,12.3621,25.9843Q12.0434,25.9687,11.7258,25.9374Q11.4082,25.9061,11.0925,25.8593Q10.7768,25.8125,10.4638,25.7502Q10.1508,25.6879,9.84126,25.6104Q9.53169,25.5329,9.2263,25.4402Q8.92091,25.3476,8.62043,25.2401Q8.31995,25.1326,8.02511,25.0104Q7.73027,24.8883,7.44178,24.7519Q7.15329,24.6154,6.87184,24.465Q6.59039,24.3145,6.31666,24.1505Q6.04293,23.9864,5.77759,23.8091Q5.51224,23.6318,5.25591,23.4417Q4.99958,23.2516,4.75289,23.0491Q4.50619,22.8467,4.26973,22.6324Q4.03327,22.418,3.80761,22.1924Q3.58195,21.9667,3.36764,21.7303Q3.15332,21.4938,2.95086,21.2471Q2.74841,21.0004,2.5583,20.7441Q2.3682,20.4878,2.1909,20.2224Q2.01359,19.9571,1.84953,19.6833Q1.68546,19.4096,1.53502,19.1282Q1.38459,18.8467,1.24814,18.5582Q1.11169,18.2697,0.989566,17.9749Q0.867439,17.68,0.759927,17.3796Q0.652415,17.0791,0.559776,16.7737Q0.467136,16.4683,0.389594,16.1587Q0.312051,15.8492,0.249791,15.5362Q0.187532,15.2232,0.140705,14.9075Q0.093879,14.5918,0.0625985,14.2742Q0.0313181,13.9566,0.0156591,13.6379Q0,13.3191,0,13Q0,12.6809,0.0156591,12.3621Q0.0313181,12.0434,0.0625985,11.7258Q0.093879,11.4082,0.140705,11.0925Q0.187532,10.7768,0.249791,10.4638Q0.312051,10.1508,0.389594,9.84126Q0.467136,9.53169,0.559776,9.2263Q0.652415,8.92091,0.759927,8.62043Q0.867439,8.31995,0.989566,8.02511Q1.11169,7.73027,1.24814,7.44178Q1.38459,7.15329,1.53502,6.87184Q1.68546,6.59039,1.84953,6.31666Q2.01359,6.04293,2.1909,5.77759Q2.3682,5.51224,2.5583,5.25591Q2.74841,4.99958,2.95086,4.75289Q3.15332,4.50619,3.36764,4.26973Q3.58195,4.03327,3.80761,3.80761Q4.03327,3.58195,4.26973,3.36764Q4.50619,3.15332,4.75289,2.95086Q4.99958,2.74841,5.25591,2.5583Q5.51224,2.3682,5.77759,2.1909Q6.04293,2.01359,6.31666,1.84953Q6.59039,1.68546,6.87184,1.53502Q7.15329,1.38459,7.44178,1.24814Q7.73027,1.11169,8.02511,0.989566Q8.31995,0.867439,8.62043,0.759927Q8.92091,0.652415,9.2263,0.559776Q9.53169,0.467136,9.84126,0.389594Q10.1508,0.312051,10.4638,0.249791Q10.7768,0.187532,11.0925,0.140705Q11.4082,0.093879,11.7258,0.0625985Q12.0434,0.0313181,12.3621,0.0156591Q12.6809,0,13,0Q13.3191,0,13.6379,0.0156591Q13.9566,0.0313181,14.2742,0.0625985Q14.5918,0.093879,14.9075,0.140705Q15.2232,0.187532,15.5362,0.249791Q15.8492,0.312051,16.1587,0.389594Q16.4683,0.467136,16.7737,0.559776Q17.0791,0.652415,17.3796,0.759927Q17.68,0.867439,17.9749,0.989566Q18.2697,1.11169,18.5582,1.24814Q18.8467,1.38459,19.1282,1.53502Q19.4096,1.68546,19.6833,1.84953Q19.9571,2.01359,20.2224,2.1909Q20.4878,2.3682,20.7441,2.5583Q21.0004,2.74841,21.2471,2.95086Q21.4938,3.15332,21.7303,3.36764Q21.9667,3.58195,22.1924,3.80761Q22.418,4.03327,22.6324,4.26973Q22.8467,4.50619,23.0491,4.75289Q23.2516,4.99958,23.4417,5.25591Q23.6318,5.51224,23.8091,5.77759Q23.9864,6.04293,24.1505,6.31666Q24.3145,6.59039,24.465,6.87184Q24.6154,7.15329,24.7519,7.44178Q24.8883,7.73027,25.0104,8.02511Q25.1326,8.31995,25.2401,8.62043Q25.3476,8.92091,25.4402,9.2263Q25.5329,9.53169,25.6104,9.84126Q25.6879,10.1508,25.7502,10.4638Q25.8125,10.7768,25.8593,11.0925Q25.9061,11.4082,25.9374,11.7258Q25.9687,12.0434,25.9843,12.3621Q26,12.6809,26,13ZM20.7847,20.2193Q20.413,20.6201,20.0021,20.9806Q19.5912,21.3411,19.1455,21.6574Q18.6998,21.9738,18.2239,22.2428Q17.7481,22.5117,17.2471,22.7303Q16.7461,22.949,16.2254,23.115Q15.7046,23.281,15.1695,23.3927Q14.6345,23.5044,14.0908,23.5605Q13.5471,23.6166,13.0005,23.6166Q12.5149,23.6166,12.0313,23.5723Q11.5477,23.528,11.0702,23.4397Q10.5927,23.3514,10.1253,23.2199Q9.65782,23.0884,9.20433,22.9148Q8.75084,22.7411,8.31509,22.5268Q7.87934,22.3125,7.46497,22.0593Q7.05061,21.8061,6.66108,21.5162Q6.27156,21.2262,5.91013,20.9019L8.70459,17.0465L8.69238,17.0676C8.68972,17.078,8.6977,17.0816,8.71435,17.0816L8.90216,17.0634L8.98513,17.0638C9.06451,17.0677,9.13181,17.0809,9.17515,17.093L9.2097,17.1037L10.2487,18.355L10.3387,18.4519L10.4617,18.5579C10.7595,18.7873,11.1296,18.8912,11.4954,18.8803C11.9282,18.8673,12.3558,18.6945,12.6512,18.3428L12.7631,18.1852L15.9383,12.8408L16.1128,12.8221L16.1911,12.8209L16.2715,12.8253L16.4249,12.8441L16.4388,12.8408L20.7847,20.2193ZM4.29231,19.073Q3.82912,18.4088,3.47202,17.6821Q3.11491,16.9554,2.87215,16.1829Q2.62939,15.4104,2.50659,14.6101Q2.38379,13.8097,2.38379,13Q2.38379,12.7393,2.39658,12.479Q2.40937,12.2187,2.43491,11.9594Q2.46046,11.7,2.4987,11.4422Q2.53694,11.1844,2.58779,10.9288Q2.63863,10.6731,2.70196,10.4203Q2.76528,10.1675,2.84094,9.91811Q2.91659,9.66871,3.0044,9.42332Q3.0922,9.17793,3.19193,8.93714Q3.29167,8.69636,3.4031,8.46076Q3.51453,8.22515,3.63739,7.99531Q3.76025,7.76546,3.89424,7.54191Q4.02822,7.31836,4.17302,7.10166Q4.31781,6.88496,4.47307,6.67563Q4.62832,6.46629,4.79366,6.26483Q4.959,6.06336,5.13402,5.87025Q5.30905,5.67714,5.49334,5.49285Q5.67763,5.30856,5.87074,5.13354Q6.06385,4.95851,6.26531,4.79317Q6.46678,4.62783,6.67611,4.47258Q6.88545,4.31733,7.10215,4.17253Q7.31885,4.02774,7.5424,3.89375Q7.76594,3.75976,7.99579,3.6369Q8.22564,3.51405,8.46125,3.40261Q8.69685,3.29118,8.93763,3.19145Q9.17842,3.09171,9.42381,3.00391Q9.6692,2.91611,9.9186,2.84045Q10.168,2.7648,10.4208,2.70147Q10.6736,2.63814,10.9292,2.5873Q11.1849,2.53645,11.4427,2.49821Q11.7005,2.45997,11.9598,2.43442Q12.2192,2.40888,12.4795,2.39609Q12.7398,2.3833,13.0005,2.3833Q13.2611,2.3833,13.5214,2.39609Q13.7817,2.40888,14.0411,2.43442Q14.3004,2.45997,14.5582,2.49821Q14.816,2.53645,15.0717,2.5873Q15.3273,2.63814,15.5801,2.70147Q15.8329,2.7648,16.0823,2.84045Q16.3317,2.91611,16.5771,3.00391Q16.8225,3.09171,17.0633,3.19145Q17.3041,3.29118,17.5397,3.40261Q17.7753,3.51405,18.0051,3.6369Q18.235,3.75976,18.4585,3.89375Q18.6821,4.02774,18.8988,4.17253Q19.1155,4.31733,19.3248,4.47258Q19.5341,4.62783,19.7356,4.79317Q19.9371,4.95851,20.1302,5.13354Q20.3233,5.30856,20.5076,5.49285Q20.6919,5.67714,20.8669,5.87025Q21.0419,6.06336,21.2072,6.26483Q21.3726,6.46629,21.5278,6.67563Q21.6831,6.88496,21.8279,7.10166Q21.9727,7.31836,22.1067,7.54191Q22.2407,7.76545,22.3635,7.99531Q22.4864,8.22515,22.5978,8.46076Q22.7092,8.69636,22.809,8.93714Q22.9087,9.17793,22.9965,9.42332Q23.0843,9.66871,23.16,9.91811Q23.2356,10.1675,23.299,10.4203Q23.3623,10.6731,23.4131,10.9288Q23.464,11.1844,23.5022,11.4422Q23.5405,11.7,23.566,11.9594Q23.5915,12.2187,23.6043,12.479Q23.6171,12.7393,23.6171,13Q23.6171,13.667,23.5336,14.3288Q23.4501,14.9907,23.2845,15.6368Q23.1188,16.283,22.8735,16.9033Q22.6283,17.5236,22.3073,18.1084L18.4258,11.5189L18.3605,11.4197L18.2387,11.269C17.7667,10.7384,17.0238,10.4522,16.2455,10.4382C15.4036,10.4149,14.5692,10.725,14.0768,11.3342L13.9792,11.4744L11.3309,15.9283L10.9687,15.4919L10.8777,15.394L10.7302,15.2645C10.2187,14.8536,9.51522,14.6532,8.80556,14.682C8.00429,14.7145,7.24968,15.0358,6.79888,15.6157L4.29231,19.073ZM11.3407,8.78363Q11.3407,8.89186,11.3301,8.99957Q11.3195,9.10728,11.2984,9.21343Q11.2773,9.31958,11.2458,9.42315Q11.2144,9.52672,11.173,9.62671Q11.1316,9.7267,11.0806,9.82215Q11.0295,9.9176,10.9694,10.0076Q10.9093,10.0976,10.8406,10.1812Q10.772,10.2649,10.6954,10.3414Q10.6189,10.418,10.5352,10.4866Q10.4516,10.5553,10.3616,10.6154Q10.2716,10.6755,10.1762,10.7266Q10.0807,10.7776,9.98071,10.819Q9.88072,10.8604,9.77715,10.8918Q9.67358,10.9233,9.56743,10.9444Q9.46128,10.9655,9.35358,10.9761Q9.24587,10.9867,9.13764,10.9867Q9.02941,10.9867,8.9217,10.9761Q8.81399,10.9655,8.70784,10.9444Q8.60169,10.9233,8.49812,10.8918Q8.39455,10.8604,8.29456,10.819Q8.19457,10.7776,8.09912,10.7266Q8.00367,10.6755,7.91368,10.6154Q7.82369,10.5553,7.74003,10.4866Q7.65636,10.418,7.57983,10.3414Q7.5033,10.2649,7.43464,10.1812Q7.36598,10.0976,7.30585,10.0076Q7.24572,9.9176,7.19471,9.82215Q7.14369,9.7267,7.10227,9.62671Q7.06085,9.52672,7.02943,9.42315Q6.99802,9.31958,6.9769,9.21343Q6.95579,9.10728,6.94518,8.99957Q6.93457,8.89186,6.93457,8.78363Q6.93457,8.6754,6.94518,8.56769Q6.95579,8.45999,6.9769,8.35384Q6.99802,8.24769,7.02943,8.14412Q7.06085,8.04055,7.10227,7.94056Q7.14369,7.84056,7.19471,7.74511Q7.24572,7.64966,7.30585,7.55967Q7.36598,7.46968,7.43464,7.38602Q7.5033,7.30236,7.57983,7.22583Q7.65636,7.1493,7.74003,7.08064Q7.82369,7.01198,7.91368,6.95185Q8.00367,6.89172,8.09912,6.8407Q8.19457,6.78968,8.29456,6.74826Q8.39455,6.70685,8.49812,6.67543Q8.60169,6.64401,8.70784,6.6229Q8.81399,6.60178,8.9217,6.59118Q9.02941,6.58057,9.13764,6.58057Q9.24587,6.58057,9.35358,6.59118Q9.46128,6.60178,9.56743,6.6229Q9.67358,6.64401,9.77715,6.67543Q9.88072,6.70685,9.98071,6.74826Q10.0807,6.78968,10.1762,6.8407Q10.2716,6.89172,10.3616,6.95185Q10.4516,7.01198,10.5352,7.08064Q10.6189,7.1493,10.6954,7.22583Q10.772,7.30236,10.8406,7.38602Q10.9093,7.46968,10.9694,7.55967Q11.0295,7.64966,11.0806,7.74511Q11.1316,7.84056,11.173,7.94055Q11.2144,8.04055,11.2458,8.14412Q11.2773,8.24769,11.2984,8.35384Q11.3195,8.45999,11.3301,8.56769Q11.3407,8.6754,11.3407,8.78363Z" fill-rule="evenodd" fill="#1E1E1E" fill-opacity="1"/></g><g><g><rect x="0" y="0" width="24" height="24" rx="0" fill="#1E1E1E" fill-opacity="1"/></g></g></g></g></svg>