<svg xmlns="http://www.w3.org/2000/svg" xmlns:xlink="http://www.w3.org/1999/xlink" fill="none" version="1.1" width="27" height="26" viewBox="0 0 27 26"><defs><mask id="master_svg0_0_1443/0_9789" style="mask-type:alpha" maskUnits="userSpaceOnUse"><g><path d="M27.30214422941208,12.830352310333252L35.20300422941208,20.615392310333252L35.30517422941208,20.70579231033325C35.79891422941208,21.096992310333253,36.51849422941208,21.06129231033325,36.97072422941208,20.602292310333254L37.06109422941208,20.500192310333254C37.45234422941208,20.006392310333254,37.41664422941208,19.28689231033325,36.95767422941208,18.83459231033325L32.40061422941208,14.345602310333252L49.74114422941208,14.345602310333252L49.86894422941208,14.339152310333253C50.49924422941208,14.275142310333251,50.99114422941208,13.742812310333251,50.99114422941208,13.095602310333252C50.99114422941208,12.405252310333253,50.43154422941208,11.845602310333252,49.74114422941208,11.845602310333252L31.86292422941208,11.845602310333252L36.95767422941208,6.826092310333252L37.04954422941208,6.725272310333252C37.448044229412076,6.237362310333252,37.42294422941208,5.517338310333252,36.97072422941208,5.058375310333252C36.48619422941208,4.566628310333252,35.69475422941208,4.560784310333252,35.20300422941208,5.045321310333252L27.30214422941208,12.830352310333252Z" fill-rule="evenodd" fill="#FFFFFF" fill-opacity="1"/></g></mask></defs><g><g transform="matrix(-1,0,0,1,52.639469146728516,0)"><g transform="matrix(-1,0,0,1,52.639469146728516,0)" mask="url(#master_svg0_0_1443/0_9789)"><g><path d="M27.30214422941208,12.830352310333252L35.20300422941208,20.615392310333252L35.30517422941208,20.70579231033325C35.79891422941208,21.096992310333253,36.51849422941208,21.06129231033325,36.97072422941208,20.602292310333254L37.06109422941208,20.500192310333254C37.45234422941208,20.006392310333254,37.41664422941208,19.28689231033325,36.95767422941208,18.83459231033325L32.40061422941208,14.345602310333252L49.74114422941208,14.345602310333252L49.86894422941208,14.339152310333253C50.49924422941208,14.275142310333251,50.99114422941208,13.742812310333251,50.99114422941208,13.095602310333252C50.99114422941208,12.405252310333253,50.43154422941208,11.845602310333252,49.74114422941208,11.845602310333252L31.86292422941208,11.845602310333252L36.95767422941208,6.826092310333252L37.04954422941208,6.725272310333252C37.448044229412076,6.237362310333252,37.42294422941208,5.517338310333252,36.97072422941208,5.058375310333252C36.48619422941208,4.566628310333252,35.69475422941208,4.560784310333252,35.20300422941208,5.045321310333252L27.30214422941208,12.830352310333252Z" fill-rule="evenodd" fill="#FFFFFF" fill-opacity="1"/></g><g><g><rect x="26.319734573364258" y="0" width="26" height="26" rx="0" fill="#FFFFFF" fill-opacity="1"/><rect x="26.319734573364258" y="0" width="26" height="26" rx="0" fill-opacity="0" stroke-opacity="1" stroke="#FFFFFF" fill="none" stroke-width="0"/></g></g></g></g></g></svg>