<?xml version="1.0" encoding="UTF-8"?>
<svg width="103px" height="42px" viewBox="0 0 103 42" version="1.1" xmlns="http://www.w3.org/2000/svg" xmlns:xlink="http://www.w3.org/1999/xlink">
    <title>logo</title>
    <g id="页面-1" stroke="none" stroke-width="1" fill="none" fill-rule="evenodd">
        <g id="Home_x" transform="translate(-136.000000, -190.000000)" fill="#FFFFFF" fill-rule="nonzero">
            <path d="M150.183855,190 L150.225141,190 C151.727829,190 152.702583,191.066941 152.736323,192.536964 L152.737227,192.616097 L152.737227,195.008345 C152.737227,196.381601 151.769981,197.288395 150.454692,197.452669 C149.672641,197.560538 148.990697,197.796596 148.41126,198.149159 C147.76471,198.553253 147.181735,199.030771 146.659661,199.583972 L146.53964,199.71404 L146.491161,199.787242 L146.471027,199.818858 C146.413299,199.910261 146.342305,200.028705 146.258966,200.172933 L146.105779,200.442295 L146.085202,200.475217 C145.78652,200.953109 145.496189,201.51849 145.227382,202.145121 C144.994632,202.714065 144.884415,203.228413 144.884415,203.693244 C144.884415,204.741675 145.229349,205.725377 145.947675,206.683177 C146.699504,207.675592 147.450372,208.613351 148.200159,209.496452 L148.503092,209.850878 C149.421404,210.960506 150.204721,212.183245 150.852224,213.516338 C151.559328,214.97214 151.905141,216.660525 151.905141,218.566783 C151.905141,220.854879 151.368475,223.001545 150.286806,225.004218 C149.219336,226.910415 147.77595,228.490614 145.988897,229.718149 L145.820355,229.832197 C143.949511,231.118402 141.841791,231.838883 139.529099,231.986895 L139.293979,232 L139.252005,232 C137.749318,232 136.774564,230.933059 136.740824,229.463036 L136.739919,229.383903 L136.739919,227.095666 C136.739919,225.715012 137.689056,224.765875 139.06648,224.593855 C139.993477,224.490856 140.839317,224.132014 141.634873,223.49557 C142.459068,222.836214 143.137901,222.049341 143.677444,221.126623 L143.75784,220.98536 L143.817381,220.870549 C144.222784,220.066512 144.441148,219.272495 144.481752,218.476419 L144.487074,218.335911 L144.488721,218.202746 C144.488721,217.473755 144.34481,216.822018 144.057649,216.228191 L144.0132,216.13968 L143.907686,215.95507 C143.584846,215.402802 143.22123,214.874674 142.816384,214.370203 L142.662633,214.182134 L142.505011,213.996278 L140.53616,211.71652 L140.410016,211.575637 C139.780055,210.860636 139.250344,210.112538 138.823273,209.331727 L138.726541,209.150959 L138.633459,208.969031 C137.755427,207.212967 137.311978,205.378701 137.311978,203.485222 C137.311978,201.215616 137.891444,199.057608 139.034324,197.047787 C140.134658,195.082906 141.650767,193.448658 143.5661,192.15874 C145.468409,190.877593 147.605554,190.160364 149.947023,190.01299 L150.183855,190 Z M169.675155,191.196124 C172.372565,191.196124 174.939602,191.675431 177.365042,192.634073 L177.592012,192.72535 L177.620557,192.737336 C180.063683,193.789759 182.230656,195.240689 184.112408,197.084806 C186.002336,198.936936 187.478954,201.095071 188.535881,203.548649 C189.598792,206.016122 190.129098,208.686593 190.129098,211.546057 C190.129098,214.446941 189.578738,217.141811 188.470358,219.62601 C187.343114,222.105947 185.832929,224.25796 183.931924,226.082811 C182.072531,227.832828 179.961751,229.197549 177.626607,230.163991 L177.392346,230.259308 C175.008549,231.2495 172.513485,231.760508 169.918707,231.790569 L169.675155,231.791978 L157.713917,231.791978 C156.303195,231.791978 155.240364,230.884043 155.202855,229.461978 L155.20183,229.383903 L155.20183,193.760215 C155.20183,192.291689 156.172213,191.234434 157.633714,191.197143 L157.713917,191.196124 L169.675155,191.196124 Z M206.989017,191.196124 C207.351668,191.196124 207.65513,191.21839 207.929953,191.277283 L208.020542,191.29829 L208.199453,191.343018 L208.364401,191.425492 C208.915044,191.700813 209.247733,192.135317 209.523388,192.727816 L209.564329,192.817876 L209.581473,192.857837 L213.02144,201.17144 L216.484722,192.802467 L216.511521,192.74887 C216.798069,192.175774 217.141896,191.745991 217.678883,191.477497 C218.063194,191.285341 218.475738,191.207434 218.944964,191.197284 L219.054266,191.196124 L220.718439,191.196124 C221.233331,191.196124 221.679948,191.27056 222.093822,191.477497 C222.666147,191.763659 223.008698,192.228861 223.246327,192.82435 L223.26496,192.87252 L238.050503,228.378532 L238.069858,228.436597 C238.191663,228.802012 238.260081,229.109893 238.260081,229.435908 C238.260081,230.873671 237.20217,231.759364 235.824837,231.791096 L235.747995,231.791978 L233.09572,231.791978 C231.929906,231.791978 230.965047,231.194685 230.478235,230.139926 L230.430044,230.033682 C230.230542,229.586785 229.949948,228.876345 229.579711,227.884106 L229.39752,227.39316 L219.8862,204.03892 L210.371867,227.400474 L209.437154,229.780341 L209.317441,230.090156 L209.29447,230.139926 C208.820141,231.16764 207.891965,231.761047 206.766262,231.790803 L206.676985,231.791978 L204.024711,231.791978 C202.590848,231.791978 201.460619,230.927686 201.460619,229.435908 C201.460619,229.142494 201.516038,228.86377 201.615917,228.544571 L201.650842,228.436597 L201.670524,228.37755 L208.9704,210.90816 L206.9446,205.84352 L206.60836,205.04791 L206.438383,204.641198 L206.269479,204.233952 L206.19,204.04032 L196.694451,227.400474 L196.394561,228.155475 C196.097948,228.896893 195.864146,229.463165 195.690097,229.86086 L195.588088,230.089682 L195.565049,230.139926 C195.097024,231.153979 194.194125,231.759544 193.089565,231.790713 L192.999569,231.791978 L190.347295,231.791978 C188.913432,231.791978 187.783203,230.927686 187.783203,229.435908 C187.783203,229.055907 187.840613,228.700583 187.986701,228.368792 L188.028765,228.278886 L188.05524,228.22812 L202.785504,192.803158 L202.807327,192.752994 C203.254635,191.768917 204.15864,191.225948 205.234775,191.197318 L205.324845,191.196124 L206.989017,191.196124 Z M169.675155,198.82056 L162.82612,198.82056 L162.82612,224.16728 L169.519139,224.167537 C171.996427,224.167537 174.195981,223.587099 176.140205,222.432763 C178.077197,221.264419 179.607229,219.688486 180.754018,217.673933 C181.886911,215.714333 182.452651,213.543115 182.452651,211.130013 C182.452651,208.726955 181.906876,206.638604 180.819823,204.83146 L180.738,204.69776 L180.637883,204.546285 C179.491196,202.836887 178.026908,201.487448 176.22904,200.483285 L176.054011,200.387186 C174.176646,199.374004 172.128362,198.852668 169.88595,198.822003 L169.675155,198.82056 Z" id="logo"></path>
        </g>
    </g>
</svg>