<?xml version="1.0" encoding="UTF-8"?>
<svg width="48px" height="38px" viewBox="0 0 48 38" version="1.1" xmlns="http://www.w3.org/2000/svg" xmlns:xlink="http://www.w3.org/1999/xlink">
    <title>share_2</title>
    <defs>
        <path d="M43.2540365,16.9853467 L31.1882472,27.1315786 C30.2284685,27.6800235 28.9259117,27.3372455 28.3774668,26.3774668 C28.1717999,26.0346886 28.1032443,25.6919106 28.1032443,25.3491324 L28.1032443,18.6306816 C20.9734597,14.3802331 11.7184509,16.7111242 7.46800235,23.9094644 C6.09688994,26.2403555 5.34277808,28.9140248 5.34277813,31.587694 C5.13711124,30.3536928 5,29.1196916 5,27.8171348 C5,16.4369017 14.1864532,7.2504485 25.5666863,7.2504485 C26.3893537,7.2504485 27.2120212,7.31900415 28.0346886,7.38755974 L28.0346886,5.05666863 C28.0346886,3.89122305 28.9259117,3 30.0913573,3 C30.4341354,3 30.7769135,3.06855565 31.1196916,3.27422248 L43.1854809,13.4204544 C44.1452596,13.9688994 44.4880377,15.2714562 43.9395928,16.2312349 C43.8024815,16.574013 43.5968146,16.7796798 43.2540365,16.9853467 Z" id="path-1"></path>
        <filter x="-17.9%" y="-17.5%" width="135.7%" height="149.0%" filterUnits="objectBoundingBox" id="filter-2">
            <feOffset dx="0" dy="2" in="SourceAlpha" result="shadowOffsetOuter1"></feOffset>
            <feGaussianBlur stdDeviation="2" in="shadowOffsetOuter1" result="shadowBlurOuter1"></feGaussianBlur>
            <feColorMatrix values="0 0 0 0 0.821822263   0 0 0 0 0.127700922   0 0 0 0 0.918676404  0 0 0 1 0" type="matrix" in="shadowBlurOuter1"></feColorMatrix>
        </filter>
    </defs>
    <g id="页面-1" stroke="none" stroke-width="1" fill="none" fill-rule="evenodd">
        <g id="voicematch" transform="translate(-313.000000, -632.000000)">
            <g id="icon_share" transform="translate(291.000000, 619.000000)">
                <g id="编组-6备份-3" transform="translate(46.000000, 32.000000) scale(-1, 1) translate(-46.000000, -32.000000) translate(21.000000, 12.000000)">
                    <g id="share-2" transform="translate(0.308911, 0.500000)">
                        <g id="share" transform="translate(24.600669, 17.293847) scale(-1, 1) translate(-24.600669, -17.293847) ">
                            <use fill="black" fill-opacity="1" filter="url(#filter-2)" xlink:href="#path-1"></use>
                            <use fill="#FFFFFF" fill-rule="evenodd" xlink:href="#path-1"></use>
                        </g>
                    </g>
                </g>
            </g>
        </g>
    </g>
</svg>