<?xml version="1.0" encoding="UTF-8"?>
<svg width="24px" height="24px" viewBox="0 0 24 24" version="1.1" xmlns="http://www.w3.org/2000/svg" xmlns:xlink="http://www.w3.org/1999/xlink">
    <title>icon_me_edit</title>
    <g id="页面-1" stroke="none" stroke-width="1" fill="none" fill-rule="evenodd">
        <g id="me" transform="translate(-292.000000, -195.000000)" fill="#1E1E1E" fill-rule="nonzero">
            <g id="icon_me_edit" transform="translate(292.000000, 195.000000)">
                <path d="M4.70553064,21.0433483 C4.31091181,21.0433483 4,20.7204783 4,20.3378176 C4,19.9431988 4.32286996,19.632287 4.70553064,19.632287 L19.2944694,19.632287 C19.6890882,19.632287 20,19.955157 20,20.3378176 C20,20.7324365 19.67713,21.0433483 19.2944694,21.0433483 L4.70553064,21.0433483 Z M18.8759342,5.25859492 L16.7713004,3.15396114 C16.5082212,2.89088191 16.077728,2.89088191 15.8146487,3.15396114 L13.6860987,5.28251121 L16.7473842,8.34379671 L18.8759342,6.21524664 C19.1390135,5.95216741 19.1390135,5.53363229 18.8759342,5.25859492 L18.8759342,5.25859492 Z M13.0523169,5.91629297 L5.96113602,13.0074738 C5.76980568,13.1988042 5.60239163,13.6173393 5.60239163,13.6173393 L4.50224215,17.1091181 C4.41853513,17.3721973 4.6696562,17.6113602 4.93273543,17.5396114 L8.40059791,16.4394619 C8.40059791,16.4394619 8.81913303,16.284006 9.02242152,16.0687593 L16.1136024,8.97757848 L13.0523169,5.91629297 L13.0523169,5.91629297 Z" id="形状"></path>
            </g>
        </g>
    </g>
</svg>