<svg xmlns="http://www.w3.org/2000/svg" xmlns:xlink="http://www.w3.org/1999/xlink" fill="none" version="1.1" width="22" height="22" viewBox="0 0 22 22"><defs><mask id="master_svg0_0_1397" style="mask-type:alpha" maskUnits="userSpaceOnUse"><g><path d="M1.8333261013031006,11.0000038986969C1.8333261013031006,12.8333238986969,4.583326101303101,18.333373898696898,10.9999961013031,18.333373898696898C17.416626101303102,18.333373898696898,20.166626101303102,12.8333238986969,20.166626101303102,11.0000038986969C20.166626101303102,9.1666738986969,17.416626101303102,3.6666738986968994,10.9999961013031,3.6666738986968994C4.583326101303101,3.6666738986968994,1.8333261013031006,9.1666738986969,1.8333261013031006,11.0000038986969ZM16.646326101303103,14.1076738986969C15.244726101303101,15.6155738986969,13.3591261013031,16.5001738986969,10.999656101303101,16.5001738986969C8.641106101303102,16.5001738986969,6.7554861013031005,15.6146738986969,5.352986101303101,14.1076738986969C4.317156101303101,12.9911738986969,3.6663361013031004,11.583173898696899,3.6663361013031004,11.0001738986969C3.6663361013031004,10.417173898696898,4.317156101303101,9.010073898696898,5.352986101303101,7.892673898696899C6.754566101303101,6.384743898696899,8.6401561013031,5.500173898696899,10.999656101303101,5.500173898696899C13.358226101303101,5.500173898696899,15.243826101303101,6.385673898696899,16.646326101303103,7.892673898696899C17.6821261013031,9.0091738986969,18.3330261013031,10.417173898696898,18.3330261013031,11.0001738986969C18.3330261013031,11.583173898696899,17.6821261013031,12.990263898696899,16.646326101303103,14.1076738986969ZM10.999656101303101,14.2083738986969C9.2277461013031,14.2083738986969,7.7913361013031,12.7719138986969,7.7913361013031,11.0000038986969C7.7913361013031,9.2280938986969,9.2277461013031,7.791673898696899,10.999656101303101,7.791673898696899C12.7715261013031,7.791673898696899,14.208026101303101,9.2280938986969,14.208026101303101,11.0000038986969C14.208026101303101,12.7719138986969,12.7715261013031,14.2083738986969,10.999656101303101,14.2083738986969ZM11.0000061013031,12.5737538986969Q11.0773261013031,12.5737538986969,11.1542661013031,12.5661738986969Q11.2312161013031,12.5585938986969,11.3070561013031,12.543513898696899Q11.3828861013031,12.5284238986969,11.4568861013031,12.505983898696899Q11.5308761013031,12.4835338986969,11.602306101303101,12.453943898696899Q11.6737461013031,12.4243638986969,11.7419361013031,12.3879138986969Q11.810126101303101,12.351463898696899,11.8744261013031,12.3085038986969Q11.9387261013031,12.2655438986969,11.998426101303101,12.2164938986969Q12.0582261013031,12.167443898696899,12.1129261013031,12.112773898696899Q12.167626101303101,12.0580938986969,12.2166261013031,11.9983238986969Q12.2657261013031,11.938553898696899,12.308626101303101,11.8742638986969Q12.3516261013031,11.8099738986969,12.388026101303101,11.7417838986969Q12.424526101303101,11.673593898696899,12.4541261013031,11.6021538986969Q12.4837261013031,11.530723898696898,12.506126101303101,11.4567338986969Q12.5286261013031,11.3827438986969,12.5436261013031,11.306903898696898Q12.558726101303101,11.231073898696899,12.566326101303101,11.154123898696898Q12.573926101303101,11.077173898696898,12.573926101303101,10.999853898696898Q12.573926101303101,10.9225338986969,12.566326101303101,10.8455838986969Q12.558726101303101,10.7686338986969,12.5436261013031,10.6928038986969Q12.5286261013031,10.616963898696898,12.506126101303101,10.5429738986969Q12.4837261013031,10.4689838986969,12.4541261013031,10.397543898696899Q12.424526101303101,10.3261138986969,12.388026101303101,10.257923898696898Q12.3516261013031,10.1897338986969,12.308626101303101,10.1254438986969Q12.2657261013031,10.0611538986969,12.2166261013031,10.0013838986969Q12.167626101303101,9.9416138986969,12.1129261013031,9.886933898696899Q12.0582261013031,9.8322638986969,11.998426101303101,9.7832138986969Q11.9387261013031,9.7341538986969,11.8744261013031,9.6912038986969Q11.810126101303101,9.648243898696899,11.7419361013031,9.611793898696899Q11.6737461013031,9.5753438986969,11.602306101303101,9.5457538986969Q11.5308761013031,9.516163898696899,11.4568861013031,9.4937238986969Q11.3828861013031,9.4712738986969,11.3070561013031,9.456193898696899Q11.2312161013031,9.4411138986969,11.1542661013031,9.4335338986969Q11.0773261013031,9.4259538986969,11.0000061013031,9.4259538986969Q10.9226861013031,9.4259538986969,10.8457361013031,9.4335338986969Q10.768786101303101,9.4411138986969,10.6929461013031,9.456193898696899Q10.6171161013031,9.4712738986969,10.5431261013031,9.4937238986969Q10.4691261013031,9.516163898696899,10.3976961013031,9.5457538986969Q10.3262561013031,9.5753438986969,10.2580661013031,9.611793898696899Q10.189876101303101,9.648243898696899,10.125586101303101,9.6912038986969Q10.0612961013031,9.7341538986969,10.001526101303101,9.7832138986969Q9.9417561013031,9.8322638986969,9.887086101303101,9.886933898696899Q9.8324061013031,9.9416138986969,9.7833561013031,10.0013838986969Q9.734306101303101,10.0611538986969,9.6913461013031,10.1254438986969Q9.648396101303101,10.1897338986969,9.6119461013031,10.257923898696898Q9.5754961013031,10.3261138986969,9.5459061013031,10.397543898696899Q9.5163161013031,10.4689838986969,9.493866101303102,10.5429738986969Q9.4714261013031,10.616963898696898,9.456336101303101,10.6928038986969Q9.4412561013031,10.7686338986969,9.4336761013031,10.8455838986969Q9.4260961013031,10.9225338986969,9.4260961013031,10.999853898696898Q9.4260961013031,11.077173898696898,9.4336761013031,11.154123898696898Q9.4412561013031,11.231073898696899,9.456346101303101,11.306903898696898Q9.4714261013031,11.3827438986969,9.493876101303101,11.4567338986969Q9.5163161013031,11.530723898696898,9.5459061013031,11.6021538986969Q9.5754961013031,11.673593898696899,9.6119461013031,11.7417838986969Q9.648396101303101,11.8099738986969,9.6913461013031,11.8742638986969Q9.734306101303101,11.938553898696899,9.7833561013031,11.9983238986969Q9.8324061013031,12.0580938986969,9.887086101303101,12.112773898696899Q9.9417561013031,12.167443898696899,10.001526101303101,12.2164938986969Q10.0612961013031,12.2655438986969,10.125586101303101,12.3085038986969Q10.189876101303101,12.351463898696899,10.2580661013031,12.3879138986969Q10.3262561013031,12.4243638986969,10.3976961013031,12.453943898696899Q10.4691261013031,12.4835338986969,10.5431261013031,12.505983898696899Q10.6171161013031,12.5284238986969,10.6929461013031,12.543513898696899Q10.768786101303101,12.5585938986969,10.8457361013031,12.5661738986969Q10.9226861013031,12.5737538986969,11.0000061013031,12.5737538986969Z" fill-rule="evenodd" fill="#FFFFFF" fill-opacity="1"/></g></mask></defs><g><g mask="url(#master_svg0_0_1397)"><g><path d="M1.8333261013031006,11.0000038986969C1.8333261013031006,12.8333238986969,4.583326101303101,18.333373898696898,10.9999961013031,18.333373898696898C17.416626101303102,18.333373898696898,20.166626101303102,12.8333238986969,20.166626101303102,11.0000038986969C20.166626101303102,9.1666738986969,17.416626101303102,3.6666738986968994,10.9999961013031,3.6666738986968994C4.583326101303101,3.6666738986968994,1.8333261013031006,9.1666738986969,1.8333261013031006,11.0000038986969ZM16.646326101303103,14.1076738986969C15.244726101303101,15.6155738986969,13.3591261013031,16.5001738986969,10.999656101303101,16.5001738986969C8.641106101303102,16.5001738986969,6.7554861013031005,15.6146738986969,5.352986101303101,14.1076738986969C4.317156101303101,12.9911738986969,3.6663361013031004,11.583173898696899,3.6663361013031004,11.0001738986969C3.6663361013031004,10.417173898696898,4.317156101303101,9.010073898696898,5.352986101303101,7.892673898696899C6.754566101303101,6.384743898696899,8.6401561013031,5.500173898696899,10.999656101303101,5.500173898696899C13.358226101303101,5.500173898696899,15.243826101303101,6.385673898696899,16.646326101303103,7.892673898696899C17.6821261013031,9.0091738986969,18.3330261013031,10.417173898696898,18.3330261013031,11.0001738986969C18.3330261013031,11.583173898696899,17.6821261013031,12.990263898696899,16.646326101303103,14.1076738986969ZM10.999656101303101,14.2083738986969C9.2277461013031,14.2083738986969,7.7913361013031,12.7719138986969,7.7913361013031,11.0000038986969C7.7913361013031,9.2280938986969,9.2277461013031,7.791673898696899,10.999656101303101,7.791673898696899C12.7715261013031,7.791673898696899,14.208026101303101,9.2280938986969,14.208026101303101,11.0000038986969C14.208026101303101,12.7719138986969,12.7715261013031,14.2083738986969,10.999656101303101,14.2083738986969ZM11.0000061013031,12.5737538986969Q11.0773261013031,12.5737538986969,11.1542661013031,12.5661738986969Q11.2312161013031,12.5585938986969,11.3070561013031,12.543513898696899Q11.3828861013031,12.5284238986969,11.4568861013031,12.505983898696899Q11.5308761013031,12.4835338986969,11.602306101303101,12.453943898696899Q11.6737461013031,12.4243638986969,11.7419361013031,12.3879138986969Q11.810126101303101,12.351463898696899,11.8744261013031,12.3085038986969Q11.9387261013031,12.2655438986969,11.998426101303101,12.2164938986969Q12.0582261013031,12.167443898696899,12.1129261013031,12.112773898696899Q12.167626101303101,12.0580938986969,12.2166261013031,11.9983238986969Q12.2657261013031,11.938553898696899,12.308626101303101,11.8742638986969Q12.3516261013031,11.8099738986969,12.388026101303101,11.7417838986969Q12.424526101303101,11.673593898696899,12.4541261013031,11.6021538986969Q12.4837261013031,11.530723898696898,12.506126101303101,11.4567338986969Q12.5286261013031,11.3827438986969,12.5436261013031,11.306903898696898Q12.558726101303101,11.231073898696899,12.566326101303101,11.154123898696898Q12.573926101303101,11.077173898696898,12.573926101303101,10.999853898696898Q12.573926101303101,10.9225338986969,12.566326101303101,10.8455838986969Q12.558726101303101,10.7686338986969,12.5436261013031,10.6928038986969Q12.5286261013031,10.616963898696898,12.506126101303101,10.5429738986969Q12.4837261013031,10.4689838986969,12.4541261013031,10.397543898696899Q12.424526101303101,10.3261138986969,12.388026101303101,10.257923898696898Q12.3516261013031,10.1897338986969,12.308626101303101,10.1254438986969Q12.2657261013031,10.0611538986969,12.2166261013031,10.0013838986969Q12.167626101303101,9.9416138986969,12.1129261013031,9.886933898696899Q12.0582261013031,9.8322638986969,11.998426101303101,9.7832138986969Q11.9387261013031,9.7341538986969,11.8744261013031,9.6912038986969Q11.810126101303101,9.648243898696899,11.7419361013031,9.611793898696899Q11.6737461013031,9.5753438986969,11.602306101303101,9.5457538986969Q11.5308761013031,9.516163898696899,11.4568861013031,9.4937238986969Q11.3828861013031,9.4712738986969,11.3070561013031,9.456193898696899Q11.2312161013031,9.4411138986969,11.1542661013031,9.4335338986969Q11.0773261013031,9.4259538986969,11.0000061013031,9.4259538986969Q10.9226861013031,9.4259538986969,10.8457361013031,9.4335338986969Q10.768786101303101,9.4411138986969,10.6929461013031,9.456193898696899Q10.6171161013031,9.4712738986969,10.5431261013031,9.4937238986969Q10.4691261013031,9.516163898696899,10.3976961013031,9.5457538986969Q10.3262561013031,9.5753438986969,10.2580661013031,9.611793898696899Q10.189876101303101,9.648243898696899,10.125586101303101,9.6912038986969Q10.0612961013031,9.7341538986969,10.001526101303101,9.7832138986969Q9.9417561013031,9.8322638986969,9.887086101303101,9.886933898696899Q9.8324061013031,9.9416138986969,9.7833561013031,10.0013838986969Q9.734306101303101,10.0611538986969,9.6913461013031,10.1254438986969Q9.648396101303101,10.1897338986969,9.6119461013031,10.257923898696898Q9.5754961013031,10.3261138986969,9.5459061013031,10.397543898696899Q9.5163161013031,10.4689838986969,9.493866101303102,10.5429738986969Q9.4714261013031,10.616963898696898,9.456336101303101,10.6928038986969Q9.4412561013031,10.7686338986969,9.4336761013031,10.8455838986969Q9.4260961013031,10.9225338986969,9.4260961013031,10.999853898696898Q9.4260961013031,11.077173898696898,9.4336761013031,11.154123898696898Q9.4412561013031,11.231073898696899,9.456346101303101,11.306903898696898Q9.4714261013031,11.3827438986969,9.493876101303101,11.4567338986969Q9.5163161013031,11.530723898696898,9.5459061013031,11.6021538986969Q9.5754961013031,11.673593898696899,9.6119461013031,11.7417838986969Q9.648396101303101,11.8099738986969,9.6913461013031,11.8742638986969Q9.734306101303101,11.938553898696899,9.7833561013031,11.9983238986969Q9.8324061013031,12.0580938986969,9.887086101303101,12.112773898696899Q9.9417561013031,12.167443898696899,10.001526101303101,12.2164938986969Q10.0612961013031,12.2655438986969,10.125586101303101,12.3085038986969Q10.189876101303101,12.351463898696899,10.2580661013031,12.3879138986969Q10.3262561013031,12.4243638986969,10.3976961013031,12.453943898696899Q10.4691261013031,12.4835338986969,10.5431261013031,12.505983898696899Q10.6171161013031,12.5284238986969,10.6929461013031,12.543513898696899Q10.768786101303101,12.5585938986969,10.8457361013031,12.5661738986969Q10.9226861013031,12.5737538986969,11.0000061013031,12.5737538986969Z" fill-rule="evenodd" fill="#A2A2A2" fill-opacity="1"/></g><g><g><rect x="0" y="0" width="22" height="22" rx="0" fill="#A2A2A2" fill-opacity="1"/><rect x="0" y="0" width="22" height="22" rx="0" fill-opacity="0" stroke-opacity="1" stroke="#A2A2A2" fill="none" stroke-width="0"/></g></g></g></g></svg>