<?xml version="1.0" encoding="UTF-8"?>
<svg width="48px" height="48px" viewBox="0 0 48 48" version="1.1" xmlns="http://www.w3.org/2000/svg" xmlns:xlink="http://www.w3.org/1999/xlink">
    <title>icon_woman_Select</title>
    <defs>
        <path d="M23.1618715,0.00746258471 C19.7321463,-0.137412227 17.8334547,1.88602057 17.7772117,2.02717503 C17.72075,1.88602057 15.8218395,-0.137412227 12.3923332,0.00746258471 C8.95538615,0.152775085 6.56532369e-05,7.31707525 6.56532369e-05,7.31707525 C6.56532369e-05,7.31707525 16.9882787,31.6251866 35.554139,7.31707525 C35.554139,7.31707525 26.5988185,0.152775085 23.1618715,0.00746258471" id="path-1"></path>
        <filter x="-25.3%" y="-49.7%" width="150.6%" height="199.3%" filterUnits="objectBoundingBox" id="filter-2">
            <feOffset dx="0" dy="0" in="SourceAlpha" result="shadowOffsetOuter1"></feOffset>
            <feGaussianBlur stdDeviation="3" in="shadowOffsetOuter1" result="shadowBlurOuter1"></feGaussianBlur>
            <feColorMatrix values="0 0 0 0 0.866396734   0 0 0 0 0.450747881   0 0 0 0 0.924394248  0 0 0 0.401633523 0" type="matrix" in="shadowBlurOuter1"></feColorMatrix>
        </filter>
    </defs>
    <g id="页面-1" stroke="none" stroke-width="1" fill="none" fill-rule="evenodd">
        <g id="voicematch" transform="translate(-20.000000, -382.000000)">
            <g id="编组-9" transform="translate(16.000000, 311.500000)">
                <g id="icon_woman_Select" transform="translate(4.000000, 70.500000)">
                    <g id="编组" transform="translate(6.000000, 14.250000)">
                        <g id="Fill-1">
                            <use fill="black" fill-opacity="1" filter="url(#filter-2)" xlink:href="#path-1"></use>
                            <use fill="#DD73EC" fill-rule="evenodd" xlink:href="#path-1"></use>
                        </g>
                        <path d="M17.7763523,7.03332498 C11.4403523,6.79032498 8.81835232,8.21382498 8.81835232,8.21382498 C12.1678523,9.13782498 15.1963523,9.47082498 17.7763523,9.49932498 C20.3563523,9.47082498 23.3863523,9.13782498 26.7358523,8.21382498 C26.7358523,8.21382498 24.1123523,6.79032498 17.7763523,7.03332498" id="Fill-1" fill="#FFFFFF"></path>
                    </g>
                </g>
            </g>
        </g>
    </g>
</svg>