<?xml version="1.0" encoding="UTF-8"?>
<svg width="36px" height="37px" viewBox="0 0 36 37" version="1.1" xmlns="http://www.w3.org/2000/svg" xmlns:xlink="http://www.w3.org/1999/xlink">
    <title>icon_tab_me备份</title>
    <g id="页面-1" stroke="none" stroke-width="1" fill="none" fill-rule="evenodd">
        <g id="画板" transform="translate(-14.000000, -13.000000)" fill-rule="nonzero">
            <g id="icon_tab_me备份" transform="translate(14.000000, 13.499775)">
                <rect id="矩形" fill="#000000" opacity="0" x="0" y="0" width="36" height="36"></rect>
                <path d="M31.4513274,30.460177 L31.4513274,30.460177 C30.3893805,25.9292036 27.0619469,22.1769912 22.7433628,20.619469 L22.7433628,20.619469 C25.8584071,18.920354 27.9115044,15.6637168 27.9115044,11.9115044 C27.9115044,6.460177 23.5221239,2 18.0707964,2 C12.619469,2 8.23008847,6.38938052 8.23008847,11.9115044 C8.23008847,15.6637168 10.3539823,18.920354 13.3982301,20.619469 L13.3982301,20.619469 C9.00884954,22.1769911 5.75221238,25.7168142 4.61946902,30.1769911 C4.54867257,30.460177 4.47787609,31.0265487 4.47787609,31.0265487 C4.47787609,32.6548673 5.82300883,34 7.45132743,34 L28.5486726,34 C30.1769912,34 31.5221239,32.6548673 31.5221239,31.0265487 C31.5221239,30.8141593 31.4513274,30.6017699 31.4513274,30.460177 Z" id="路径" fill="#DD73EC"></path>
            </g>
        </g>
    </g>
</svg>