<svg xmlns="http://www.w3.org/2000/svg" xmlns:xlink="http://www.w3.org/1999/xlink" fill="none" version="1.1" width="17.357421875" height="20.30517578125" viewBox="0 0 17.357421875 20.30517578125"><g><g><g><path d="M13.6396,6.67444L15.0408,6.67444C16.3171,6.67444,17.3549,7.71002,17.3572,8.98631L17.3572,17.9931C17.3572,19.2671,16.3193,20.3049,15.0453,20.3049L2.31187,20.3049C1.03784,20.3049,0,19.2671,0,17.9931L0,8.98631C0,7.71229,1.03784,6.67444,2.31187,6.67444L3.71534,6.67444L3.71534,4.96212C3.71534,3.63813,4.23086,2.39135,5.16878,1.45343C6.10443,0.515515,7.35347,0,8.67746,0C10.0014,0,11.2482,0.515515,12.1861,1.45343C13.1241,2.38908,13.6396,3.63586,13.6396,4.96212L13.6396,6.67444ZM5.36621,4.91101C5.36621,3.0861,6.85056,1.59961,8.67761,1.59961C10.5047,1.59961,11.9869,3.0861,11.9869,4.91101L11.9869,6.52601L5.36621,6.52601L5.36621,4.91101ZM15.7278,17.8848C15.7278,18.348,15.351,18.7226,14.89,18.7226L2.46279,18.7226C1.99957,18.7226,1.625,18.3458,1.625,17.8848L1.625,9.09463C1.625,8.6314,2.00178,8.25684,2.46279,8.25684L14.89,8.25684C15.3532,8.25684,15.7278,8.63362,15.7278,9.09463L15.7278,17.8848Z" fill-rule="evenodd" fill="#A2A2A2" fill-opacity="1"/></g><g><path d="M8.675188287872315,10.768147468566895C8.162182287872314,10.768147468566895,7.7477192878723145,11.182610468566894,7.7477192878723145,11.695616468566895L7.7477192878723145,15.283767468566895C7.7477192878723145,15.796767468566895,8.162182287872314,16.211237468566893,8.675188287872315,16.211237468566893C9.188199287872315,16.211237468566893,9.602659287872314,15.796767468566895,9.602659287872314,15.283767468566895L9.602659287872314,11.695616468566895C9.602659287872314,11.182610468566894,9.188199287872315,10.768147468566895,8.675188287872315,10.768147468566895Z" fill="#A2A2A2" fill-opacity="1"/></g></g></g></svg>