<?xml version="1.0" encoding="UTF-8"?>
<svg width="221px" height="220px" viewBox="0 0 221 220" version="1.1" xmlns="http://www.w3.org/2000/svg" xmlns:xlink="http://www.w3.org/1999/xlink">
    <title>voicematch1</title>
    <g id="页面-1" stroke="none" stroke-width="1" fill="none" fill-rule="evenodd">
        <g id="voicematch" transform="translate(-77.000000, -307.000000)">
            <g id="photo" transform="translate(77.500000, 307.000000)">
                <g id="编组" transform="translate(16.500000, 23.000000)">
                    <path d="M11.0847,159.167 C3.6287,156.453 -0.8133,149.85 1.1637,144.418 L16.4177,102.51" id="Stroke-1" stroke="#000000" stroke-width="4" stroke-linecap="round"></path>
                    <path d="M171.707924,8.27673133 C179.163924,10.9907313 183.008924,19.2347313 180.294924,26.6907313 L172.944924,46.8827313" id="Stroke-3" stroke="#000000" stroke-width="4" stroke-linecap="round"></path>
                    <line x1="175.765024" y1="61.6360313" x2="184.245024" y2="38.3350313" id="Stroke-5" stroke="#000000" stroke-width="4" stroke-linecap="round"></line>
                    <line x1="12.8303" y1="85.7676" x2="0.5003" y2="119.6446" id="Stroke-7" stroke="#000000" stroke-width="4" stroke-linecap="round"></line>
                    <path d="M65.9799393,19.7499482 L70.4603,6.825 C72.4193,1.443 78.3693,-1.331 83.7513,0.628 L150.4833,24.916 C155.8643,26.875 158.6393,32.825 156.6803,38.207 C156.360048,39.0868954 156.33683,39.2680102 156.176704,39.7079579 M144.261991,68.6716401 C138.024615,85.8088908 127.345273,118.805277 109.7953,167.024 C107.8363,172.404 101.8863,175.18 96.5043,173.221 L29.7723,148.933 C24.3913,146.974 21.6163,141.024 23.5753,135.642 L31.1519106,113.468547" id="形状" stroke="#000000" stroke-width="8" stroke-linecap="round"></path>
                    <path d="M120.6335,29.4649 C120.6335,29.4649 116.8415,28.0849 112.1635,26.3819 C107.4855,24.6799 103.6935,23.2999 103.6935,23.2999 C103.6935,23.2999 107.4855,24.6799 112.1635,26.3819 C116.8415,28.0849 120.6335,29.4649 120.6335,29.4649 Z" id="Stroke-11" stroke="#000000" stroke-width="6" stroke-linecap="round" stroke-linejoin="round"></path>
                    <path d="M114.7024,153.541 C114.7024,153.541 95.4014,146.517 71.5924,137.851 C47.7834,129.185 28.4824,122.159 28.4824,122.159 C28.4824,122.159 47.7834,129.185 71.5924,137.851 C95.4014,146.517 114.7024,153.541 114.7024,153.541 Z" id="Stroke-13" stroke="#000000" stroke-width="6" stroke-linecap="round" stroke-linejoin="round"></path>
                    <path d="M72.8386,152.0088 C71.7026,155.1298 68.2516,156.7388 65.1306,155.6038 C62.0096,154.4668 60.4006,151.0168 61.5366,147.8958 C62.6716,144.7748 66.1236,143.1648 69.2446,144.3008 C72.3656,145.4368 73.9746,148.8878 72.8386,152.0088" id="Fill-15" fill="#000000"></path>
                    <path d="M78.1604,50.3725 L56.6634,43.6925 C50.2094,41.6865 46.6034,34.8305 48.6094,28.3765 C50.6144,21.9235 57.4724,18.3165 63.9254,20.3225 L85.4224,27.0025 C91.8754,29.0075 95.4814,35.8645 93.4764,42.3175 C91.4714,48.7715 84.6144,52.3775 78.1604,50.3725 Z" id="Stroke-17" stroke="#000000" stroke-width="6"></path>
                    <path d="M79.9392,76.9326 L49.5482,67.4896 C43.0952,65.4846 39.4892,58.6266 41.4942,52.1736 C43.5002,45.7196 50.3572,42.1146 56.8112,44.1196 L87.2012,53.5626 C93.6542,55.5676 97.2602,62.4246 95.2552,68.8776 C93.2502,75.3316 86.3932,78.9376 79.9392,76.9326 Z" id="Stroke-19" stroke="#000000" stroke-width="6"></path>
                    <path d="M67.5857,100.7022 L41.7257,92.6672 C35.2717,90.6612 31.6657,83.8052 33.6707,77.3502 C35.6767,70.8972 42.5337,67.2912 48.9867,69.2972 L74.8477,77.3322 C81.3007,79.3382 84.9067,86.1942 82.9017,92.6482 C80.8967,99.1012 74.0397,102.7082 67.5857,100.7022 Z" id="Stroke-21" stroke="#000000" stroke-width="6"></path>
                    <path d="M58.2522,120.5684 L33.7932,112.9684 C28.1572,111.2174 25.0082,105.2294 26.7592,99.5934 C28.5102,93.9584 34.4992,90.8094 40.1342,92.5604 L64.5932,100.1614 C70.2292,101.9124 73.3782,107.9004 71.6272,113.5354 C69.8762,119.1714 63.8882,122.3204 58.2522,120.5684 Z" id="Stroke-23" stroke="#000000" stroke-width="6"></path>
                    <g transform="translate(107.000000, 36.849000)">
                        <path d="M33.9865,133.9401 L13.4135,101.0021 L24.1585,67.0601 L35.0025,27.5601 C35.0025,27.5601 12.2575,44.3821 2.6945,32.8321 C-1.8945,27.2901 -0.2945,18.9081 5.7215,14.9611 C15.3565,8.6411 31.8375,-1.5009 35.9045,0.2351 C35.9045,0.2351 62.4475,-1.8759 54.1345,64.8871 C54.1345,64.8871 55.7805,70.0161 79.3485,88.4311" id="Fill-25"></path>
                        <path d="M33.9865,133.9401 L13.4135,101.0021 M37.1405566,30.838618 C37.1405566,30.838618 12.2575,44.3821 2.6945,32.8321 C-1.8945,27.2901 -0.2945,18.9081 5.7215,14.9611 C15.3565,8.6411 24.7242209,0.110208576 35.9045,0.2351 C47.0847791,0.359991424 62.4475,-1.8759 54.1345,64.8871 C54.1345,64.8871 55.7805,70.0161 79.3485,88.4311" id="形状" stroke="#000000" stroke-width="7" stroke-linecap="round"></path>
                    </g>
                </g>
                <path d="M103.783134,52.668945 L144.400447,67.0781076 C143.130537,67.7666525 141.841376,68.4899937 140.556259,69.2296 L139.77032,69.6841993 L139.77032,69.6841993 L138.986579,70.141917 C138.856205,70.2184107 138.725971,70.2949949 138.595903,70.3716501 L137.817684,70.8322746 C134.714347,72.6769167 131.734978,74.539733 129.2215,76.1487161 C123.2055,80.0006436 121.6055,88.1807442 126.1945,93.5892525 C131.531091,99.8794275 140.972754,97.5469586 148.27596,94.2566496 L125.770394,155.475312 C124.273864,159.546223 119.805937,161.683118 115.697499,160.29292 L60.8683259,141.74002 C59.2901674,141.206008 58.2638404,139.783407 58.1583325,138.218629 L74.7522,143.250817 C80.3882,144.960616 86.3762,141.887467 88.1272,136.387222 C89.8490167,130.979609 86.8328056,125.238885 81.3729163,123.424232 L81.0932,123.335365 L65.1359313,118.495427 L65.2629313,118.155427 L84.0857,123.863139 C90.4404077,125.790702 97.1858108,122.407718 99.3057355,116.291813 L99.4017,116.003138 C101.375854,109.801498 97.9103258,103.219519 91.6434992,101.149755 L91.3477,101.056058 L73.6429313,95.687427 L74.2909313,93.949427 L96.4392,100.666084 C102.793908,102.592686 109.539311,99.2106327 111.659235,93.0938252 L111.7552,92.8051067 C113.729354,86.6044274 110.263826,80.0215174 103.996999,77.9526561 L103.7012,77.8590031 L82.6699313,71.481427 L82.7949313,71.147427 L94.6604,74.7457439 C101.015108,76.6723458 107.760511,73.2902928 109.880435,67.1734854 L109.9764,66.8847668 C111.779415,61.2216233 109.044998,55.2396476 103.783134,52.668945 Z M95.0439641,49.5696318 L100.544931,51.520427 L93.3922213,49.3508989 C93.93597,49.30773 94.4972059,49.3756708 95.0439641,49.5696318 Z" id="形状结合" fill="#000000"></path>
            </g>
        </g>
    </g>
</svg>